<?xml version="1.0" encoding="iso-8859-1"?>
<!-- Generator: Adobe Illustrator 19.0.1, SVG Export Plug-In . SVG Version: 6.00 Build 0)  -->
<svg version="1.1" id="Ebene_1" xmlns="http://www.w3.org/2000/svg" xmlns:xlink="http://www.w3.org/1999/xlink" x="0px" y="0px"
	 viewBox="0 0 165 90" style="enable-background:new 0 0 165 90;" xml:space="preserve">
<rect style="fill:#E2E3E3;" width="165" height="90"/>
<g>
	<path style="fill:#FFFFFF;" d="M105.146,32.093c2.299,3.94,3.449,8.242,3.449,12.907c0,4.666-1.15,8.968-3.449,12.908
		s-5.419,7.059-9.357,9.357c-3.94,2.299-8.243,3.449-12.909,3.449c-4.665,0-8.968-1.15-12.907-3.449s-7.06-5.418-9.358-9.357
		S57.167,49.666,57.167,45c0-4.665,1.149-8.967,3.448-12.907c2.299-3.939,5.419-7.059,9.358-9.358
		c3.939-2.299,8.242-3.449,12.907-3.449c4.666,0,8.968,1.15,12.909,3.449C99.728,25.034,102.848,28.153,105.146,32.093z
		 M97.881,47.143v-4.286c0-0.58-0.212-1.083-0.636-1.507c-0.424-0.424-0.927-0.636-1.507-0.636h-8.571v-8.571
		c0-0.58-0.213-1.083-0.636-1.507C86.106,30.212,85.604,30,85.024,30h-4.287c-0.581,0-1.083,0.212-1.507,0.636
		c-0.424,0.424-0.636,0.927-0.636,1.507v8.571h-8.571c-0.581,0-1.083,0.212-1.507,0.636c-0.425,0.424-0.637,0.927-0.637,1.507v4.286
		c0,0.58,0.212,1.083,0.637,1.507c0.424,0.424,0.926,0.636,1.507,0.636h8.571v8.571c0,0.581,0.212,1.083,0.636,1.507
		S80.157,60,80.738,60h4.287c0.58,0,1.082-0.212,1.507-0.636c0.423-0.424,0.636-0.926,0.636-1.507v-8.571h8.571
		c0.58,0,1.083-0.212,1.507-0.636S97.881,47.723,97.881,47.143z"/>
</g>
</svg>
