<?xml version="1.0" encoding="utf-8"?><!DOCTYPE svg PUBLIC "-//W3C//DTD SVG 1.1//EN" "http://www.w3.org/Graphics/SVG/1.1/DTD/svg11.dtd"><svg xmlns="http://www.w3.org/2000/svg" xmlns:xlink="http://www.w3.org/1999/xlink"><defs><svg viewBox="0 0 90 110" xml:space="preserve" id="errors_error-404" xmlns="http://www.w3.org/2000/svg"><g fill="currentColor"><path d="M65 5H5v100h80V25L65 5zm15 95H10V10h52l18 18v72z"/><path d="M50 85h5v5h-5zM46.25 48.048h-2.5a.406.406 0 0 0-.3.117.405.405 0 0 0-.116.3v2.5c0 .122.038.221.116.299a.407.407 0 0 0 .3.118h2.501a.402.402 0 0 0 .416-.417v-2.5a.404.404 0 0 0-.417-.417zM42.251 42.671a.371.371 0 0 0 .249.078.381.381 0 0 0 .325-.157c.459-.59.834-.989 1.12-1.197.294-.209.668-.312 1.12-.312.416 0 .786.113 1.113.338.325.226.488.482.488.768 0 .33-.087.595-.26.795-.175.199-.469.395-.885.586-.547.243-1.048.618-1.504 1.126-.456.508-.684 1.053-.684 1.634v.469c0 .122.038.221.116.3a.406.406 0 0 0 .3.117h2.501a.402.402 0 0 0 .416-.417c0-.164.093-.38.279-.645a2.23 2.23 0 0 1 .71-.645c.277-.156.49-.279.638-.37.148-.091.347-.243.6-.456.251-.213.444-.422.579-.626.135-.203.254-.466.365-.787.108-.322.161-.673.161-1.055 0-.764-.239-1.472-.722-2.123a4.935 4.935 0 0 0-1.804-1.511 4.956 4.956 0 0 0-2.214-.534c-2.108 0-3.718.925-4.831 2.773-.129.209-.095.391.104.547l1.72 1.304z"/><path d="M25 65v10h10V65h5v5h5v-5h15v5h5V25H25v40zm11.341-25.305a9.956 9.956 0 0 1 3.64-3.639c1.532-.894 3.205-1.342 5.018-1.342 1.815 0 3.488.447 5.02 1.342a9.966 9.966 0 0 1 3.638 3.639C54.552 41.228 55 42.9 55 44.715c0 1.814-.448 3.487-1.342 5.02a9.966 9.966 0 0 1-3.638 3.639c-1.532.893-3.205 1.341-5.02 1.341-1.813 0-3.486-.447-5.018-1.341a9.956 9.956 0 0 1-3.64-3.639C35.446 48.202 35 46.529 35 44.715c0-1.815.446-3.487 1.341-5.02z"/><path d="M50 70h5v5h-5zM40 75h5v5h-5z"/></g></svg><svg viewBox="0 0 90 110" xml:space="preserve" id="errors_error-500" xmlns="http://www.w3.org/2000/svg"><g fill="currentColor"><path d="M65 5H5v100h80V25L65 5zm15 95H10V10h52l18 18v72z"/><path d="M50 85h5v5h-5zM40.039 47.943c0 .234.082.435.247.599l1.172 1.172a.818.818 0 0 0 .6.248c.224 0 .42-.083.585-.248l2.356-2.357 2.356 2.357a.803.803 0 0 0 .587.248.811.811 0 0 0 .598-.248l1.173-1.172a.822.822 0 0 0 .247-.599.805.805 0 0 0-.247-.586L47.355 45l2.358-2.357a.81.81 0 0 0 .247-.587.816.816 0 0 0-.247-.598l-1.173-1.173a.816.816 0 0 0-.598-.247.806.806 0 0 0-.587.247l-2.356 2.357-2.356-2.357a.805.805 0 0 0-.585-.247.82.82 0 0 0-.6.247l-1.172 1.173a.814.814 0 0 0-.247.598c0 .226.082.422.247.587L42.643 45l-2.356 2.357a.799.799 0 0 0-.248.586z"/><path d="M25 65v10h10V65h5v5h5v-5h15v5h5V25H25v40zm11.341-25.019a9.956 9.956 0 0 1 3.64-3.639C41.513 35.447 43.186 35 44.999 35c1.815 0 3.488.447 5.02 1.342a9.966 9.966 0 0 1 3.638 3.639C54.552 41.513 55 43.186 55 45s-.448 3.487-1.342 5.02a9.966 9.966 0 0 1-3.638 3.639C48.487 54.553 46.814 55 44.999 55c-1.813 0-3.486-.447-5.018-1.341a9.956 9.956 0 0 1-3.64-3.639C35.446 48.488 35 46.815 35 45c0-1.814.446-3.487 1.341-5.019z"/><path d="M50 70h5v5h-5zM40 75h5v5h-5z"/></g></svg><svg style="enable-background:new 0 0 150 110" xml:space="preserve" viewBox="0 0 150 110" id="msgs_msg-uploading" xmlns="http://www.w3.org/2000/svg"><circle style="fill-rule:evenodd;clip-rule:evenodd;fill:currentColor" cx="100" cy="65" r="3"/><path style="fill-rule:evenodd;clip-rule:evenodd;fill:currentColor" d="M115 35c-1.257 0-2.491.092-3.703.255C105.053 23.225 92.491 15 78 15c-13.114 0-24.648 6.734-31.348 16.93A12.424 12.424 0 0 0 40 30c-6.904 0-12.5 5.596-12.5 12.5 0 .896.098 1.768.277 2.61C16.394 46.227 7.5 55.824 7.5 67.5c0 11.581 8.751 21.114 20 22.359V90h90v-.118c14.016-1.264 25-13.037 25-27.382 0-15.188-12.312-27.5-27.5-27.5zM55 70a5 5 0 1 1 .001-10.001A5 5 0 0 1 55 70zm15 0a5 5 0 1 1 .001-10.001A5 5 0 0 1 70 70zm15 0a5 5 0 1 1 .001-10.001A5 5 0 0 1 85 70zm15 0a5 5 0 1 1 .001-10.001A5 5 0 0 1 100 70z"/></svg><svg style="enable-background:new 0 0 150 110" xml:space="preserve" viewBox="0 0 150 110" id="msgs_msg-uploading-error" xmlns="http://www.w3.org/2000/svg"><path style="fill-rule:evenodd;clip-rule:evenodd;fill:currentColor" d="M80.575 50.666h-5.149c-.171 0-.359.083-.562.25a.55.55 0 0 0-.234.481l.398 10.458c0 .152.079.279.234.377.157.1.343.149.563.149h4.328a.958.958 0 0 0 .549-.149.505.505 0 0 0 .246-.377l.422-10.504a.505.505 0 0 0-.234-.435c-.202-.167-.39-.25-.561-.25zM80.248 65.31h-4.494a.727.727 0 0 0-.526.217.721.721 0 0 0-.221.537v4.348a.72.72 0 0 0 .221.537.729.729 0 0 0 .526.219h4.494a.728.728 0 0 0 .526-.219.72.72 0 0 0 .221-.537v-4.348a.72.72 0 0 0-.221-.537.73.73 0 0 0-.526-.217z"/><path style="fill-rule:evenodd;clip-rule:evenodd;fill:currentColor" d="M115 35c-1.257 0-2.491.092-3.703.255C105.053 23.225 92.491 15 78 15c-13.114 0-24.648 6.734-31.348 16.93A12.424 12.424 0 0 0 40 30c-6.904 0-12.5 5.596-12.5 12.5 0 .896.098 1.768.277 2.61C16.394 46.227 7.5 55.824 7.5 67.5c0 11.581 8.751 21.114 20 22.359V90h90v-.118c14.016-1.264 25-13.037 25-27.382 0-15.188-12.312-27.5-27.5-27.5zM98.543 75.583a2.904 2.904 0 0 1-1.088 1.053c-.459.26-.956.388-1.484.388h-35.94a2.968 2.968 0 0 1-1.484-.388 2.896 2.896 0 0 1-1.088-1.053c-.576-.961-.592-1.922-.048-2.883l17.97-32.217a2.925 2.925 0 0 1 1.1-1.121 2.946 2.946 0 0 1 1.52-.412c.546 0 1.053.137 1.52.412.469.273.834.647 1.1 1.121L98.591 72.7c.544.961.529 1.922-.048 2.883z"/></svg></defs></svg>