<?xml version="1.0" encoding="utf-8"?>
<!-- Generator: Adobe Illustrator 18.1.0, SVG Export Plug-In . SVG Version: 6.00 Build 0)  -->
<!DOCTYPE svg PUBLIC "-//W3C//DTD SVG 1.1//EN" "http://www.w3.org/Graphics/SVG/1.1/DTD/svg11.dtd">
<svg version="1.1" id="Ebene_1" xmlns="http://www.w3.org/2000/svg" xmlns:xlink="http://www.w3.org/1999/xlink" x="0px" y="0px"
	 width="65px" height="20px" viewBox="0 0 65 20" style="enable-background:new 0 0 65 20;" xml:space="preserve">
<g>
	<path style="fill:#69A12F;" d="M34.343,7.887c0-0.97-0.642-1.77-1.869-1.77h-2.996v3.524h2.996
		C33.701,9.642,34.343,8.871,34.343,7.887z"/>
	<path style="fill:#69A12F;" d="M32.531,10.383h-3.053v3.766h3.053c1.256,0,1.998-0.728,1.998-1.883
		C34.529,11.296,33.858,10.383,32.531,10.383z"/>
	<path style="fill:#69A12F;" d="M4.983,0L0,10l4.983,10H65V0H4.983z M18.95,11.082c0,2.368-1.398,3.98-4.294,3.98
		c-2.896,0-4.294-1.626-4.294-3.966V5.375h2.055v5.65c0,1.327,0.771,2.24,2.24,2.24c1.47,0,2.226-0.913,2.226-2.24v-5.65h2.069
		V11.082z M22.844,14.892h-2.026V5.375h2.026V14.892z M32.66,14.892h-3.995V5.375h3.909c1.598,0,2.625,0.927,2.625,2.425
		c0,1.199-0.813,2.012-1.669,2.183c1.013,0.157,1.854,1.212,1.854,2.339C35.385,13.907,34.357,14.892,32.66,14.892z M43.46,6.117
		h-5.221v3.524h5.122v0.742h-5.122v3.766h5.221v0.742h-6.035V5.375h6.035V6.117z M48.725,14.892h-0.828V6.117h-3.11V5.375h7.048
		v0.742h-3.109V14.892z M59.425,14.892l-0.941-2.34h-5.036l-0.942,2.34h-0.941l3.896-9.516h1.013l3.895,9.516H59.425z"/>
	<polygon style="fill:#69A12F;" points="53.718,11.81 58.212,11.81 55.958,6.246 	"/>
</g>
</svg>
