<?xml version="1.0" encoding="iso-8859-1"?><svg xmlns="http://www.w3.org/2000/svg" xmlns:xlink="http://www.w3.org/1999/xlink"><defs><svg viewBox="0 0 45 45" id="clicks-minus" xmlns="http://www.w3.org/2000/svg"><path d="M22.5 0C10.074 0 0 10.074 0 22.5c0 7.954 4.131 14.938 10.36 18.939-.087-1.666.266-3.656 2.081-4.87 2.311-1.547 4.807.216 6.818 1.635.992.701 2.112 1.496 2.731 1.496.499-.385.526-3.36.056-6.216a8.468 8.468 0 0 1-2.465-.624c-1.05-.448-2.007-1.07-2.785-1.866-.796-.778-1.503-1.692-1.952-2.742S14 26.077 14 24.875V21h18v3.875c0 1.202-.396 2.327-.844 3.377s-1.241 1.964-2.037 2.742a8.402 8.402 0 0 1-5.029 2.467c.299 1.927.731 5.964-.568 7.515A1.933 1.933 0 0 1 22 41.7c-1.254 0-2.535-.904-3.891-1.862-1.98-1.399-3.466-2.339-4.553-1.606-1.5 1.004-1.294 3.177-1.015 4.445A22.4 22.4 0 0 0 22.5 45C34.926 45 45 34.926 45 22.5S34.926 0 22.5 0zm-6.722 13.636l2.477-2.477c.223-.147.431-.31.67-.439.224-.121.452-.229.684-.328L15.1 14.9c.197-.442.42-.866.678-1.264zm6.13 4.456l-.283.283h-.586l.869-.869v.586zm.092-2L19.625 18h-.586L22 15.506v.586zm0-2L17.625 18h-.586L22 13.506v.586zm0-2L15.625 18h-.586L22 11.506v.586zm0-2l-7.567 7.533c.019-.227.016-.451.053-.673l7.127-7.104c.114-.018.387-.042.387-.055v.299zM24 18V9.793c1 .119 2.106.381 3.029.88.923.5 1.769 1.083 2.445 1.845.677.779 1.21 1.565 1.6 2.547.389.981.584 1.935.584 2.935H24z" fill="#fa6861"/></svg><svg viewBox="0 0 45 45" id="clicks-plus" xmlns="http://www.w3.org/2000/svg"><path d="M22.5 0C10.074 0 0 10.074 0 22.5c0 7.954 4.131 14.938 10.36 18.939-.087-1.666.266-3.656 2.081-4.87 2.311-1.547 4.807.216 6.818 1.635.992.701 2.112 1.496 2.731 1.496.499-.385.526-3.36.056-6.216a8.468 8.468 0 0 1-2.465-.624c-1.05-.448-2.007-1.07-2.785-1.866-.796-.778-1.503-1.692-1.952-2.742S14 26.077 14 24.875V21h18v3.875c0 1.202-.396 2.327-.844 3.377s-1.241 1.964-2.037 2.742a8.402 8.402 0 0 1-5.029 2.467c.299 1.927.731 5.964-.568 7.515A1.933 1.933 0 0 1 22 41.7c-1.254 0-2.535-.904-3.891-1.862-1.98-1.399-3.466-2.339-4.553-1.606-1.5 1.004-1.294 3.177-1.015 4.445A22.4 22.4 0 0 0 22.5 45C34.926 45 45 34.926 45 22.5S34.926 0 22.5 0zm-6.722 13.636l2.477-2.477c.223-.147.431-.31.67-.439.224-.121.452-.229.684-.328L15.1 14.9c.197-.442.42-.866.678-1.264zm6.13 4.456l-.283.283h-.586l.869-.869v.586zm.092-2L19.625 18h-.586L22 15.506v.586zm0-2L17.625 18h-.586L22 13.506v.586zm0-2L15.625 18h-.586L22 11.506v.586zm0-2l-7.567 7.533c.019-.227.016-.451.053-.673l7.127-7.104c.114-.018.387-.042.387-.055v.299zM24 18V9.793c1 .119 2.106.381 3.029.88.923.5 1.769 1.083 2.445 1.845.677.779 1.21 1.565 1.6 2.547.389.981.584 1.935.584 2.935H24z" fill="#387c00"/></svg><svg viewBox="0 0 45 45" id="device-minus" xmlns="http://www.w3.org/2000/svg"><path fill="#fa6861" d="M29 21h4v7h-4z"/><path d="M22.5 0C10.074 0 0 10.074 0 22.5S10.074 45 22.5 45 45 34.926 45 22.5 34.926 0 22.5 0zm2.239 30.797H10.938v-2.959h1.965V16.997c0-.277.054-.535.162-.774.107-.239.246-.443.416-.612a1.954 1.954 0 0 1 1.41-.578h17.753v1.965H14.892v10.841h9.848v2.958zm9.87-.971c0 .124-.027.247-.081.37s-.127.23-.22.323a.697.697 0 0 1-.3.208 1.1 1.1 0 0 1-.394.069h-5.918c-.123 0-.246-.022-.369-.069a.888.888 0 0 1-.324-.208.92.92 0 0 1-.208-.323 1.048 1.048 0 0 1-.069-.37v-9.871a.933.933 0 0 1 .277-.693c.093-.093.2-.166.324-.22a.911.911 0 0 1 .369-.081h5.918c.139 0 .27.027.394.081a.797.797 0 0 1 .3.22c.093.092.166.196.22.312s.081.243.081.381v9.871z" fill="#fa6861"/></svg><svg viewBox="0 0 45 45" id="device-plus" xmlns="http://www.w3.org/2000/svg"><path fill="#387c00" d="M29 21h4v7h-4z"/><path d="M22.5 0C10.074 0 0 10.074 0 22.5S10.074 45 22.5 45 45 34.926 45 22.5 34.926 0 22.5 0zm2.239 30.797H10.938v-2.959h1.965V16.997c0-.277.054-.535.162-.774.107-.239.246-.443.416-.612a1.954 1.954 0 0 1 1.41-.578h17.753v1.965H14.892v10.841h9.848v2.958zm9.87-.971c0 .124-.027.247-.081.37s-.127.23-.22.323a.697.697 0 0 1-.3.208 1.1 1.1 0 0 1-.394.069h-5.918c-.123 0-.246-.022-.369-.069a.888.888 0 0 1-.324-.208.92.92 0 0 1-.208-.323 1.048 1.048 0 0 1-.069-.37v-9.871a.933.933 0 0 1 .277-.693c.093-.093.2-.166.324-.22a.911.911 0 0 1 .369-.081h5.918c.139 0 .27.027.394.081a.797.797 0 0 1 .3.22c.093.092.166.196.22.312s.081.243.081.381v9.871z" fill="#387c00"/></svg><svg viewBox="0 0 45 45" id="hardbounce-minus" xmlns="http://www.w3.org/2000/svg"><path d="M41 31v-2h3v.15c.649-2.102 1-4.335 1-6.65C45 10.074 34.926 0 22.5 0S0 10.074 0 22.5c0 2.315.351 4.548 1 6.65V29h3v2H1.666C5.02 39.211 13.082 45 22.5 45s17.48-5.789 20.834-14H41zM9 31H6v-2h3v2zm5 0h-3v-2h3v2zm5 0h-3v-2h3v2zm10 0h-3v-2h3v2zm5 0h-3v-2h3v2zm-11.5-2H24v2h-3v-2h1.5L14 20.046V26h-3V16h10v2h-5.628l7.128 7.252 9.703-9.611L34 17.469 22.5 29zM39 31h-3v-2h3v2z" fill="#fa6861"/></svg><svg viewBox="0 0 45 45" id="hardbounce-plus" xmlns="http://www.w3.org/2000/svg"><path d="M41 31v-2h3v.15c.649-2.102 1-4.335 1-6.65C45 10.074 34.926 0 22.5 0S0 10.074 0 22.5c0 2.315.351 4.548 1 6.65V29h3v2H1.666C5.02 39.211 13.082 45 22.5 45s17.48-5.789 20.834-14H41zM9 31H6v-2h3v2zm5 0h-3v-2h3v2zm5 0h-3v-2h3v2zm10 0h-3v-2h3v2zm5 0h-3v-2h3v2zm-11.5-2H24v2h-3v-2h1.5L14 20.046V26h-3V16h10v2h-5.628l7.128 7.252 9.703-9.611L34 17.469 22.5 29zM39 31h-3v-2h3v2z" fill="#387c00"/></svg><svg viewBox="0 0 45 45" id="mailings-minus" xmlns="http://www.w3.org/2000/svg"><path fill="#fa6861" d="M15 16.997v1.965l8 4.946 8-4.946v-1.965l-8 4.924z"/><path d="M22.5 0C10.074 0 0 10.074 0 22.5S10.074 45 22.5 45 45 34.926 45 22.5 34.926 0 22.5 0zm10.145 28.832c0 .277-.054.536-.162.774a2.012 2.012 0 0 1-.416.612 1.939 1.939 0 0 1-1.41.578H14.892a1.95 1.95 0 0 1-1.41-.578 2.012 2.012 0 0 1-.416-.612 1.854 1.854 0 0 1-.162-.774l.023-11.835c0-.277.05-.535.15-.774.1-.239.242-.443.427-.612.17-.186.374-.328.613-.428.238-.101.497-.15.774-.15h15.765a1.95 1.95 0 0 1 1.41.578c.17.169.309.373.416.612.108.239.162.497.162.774v11.835z" fill="#fa6861"/></svg><svg viewBox="0 0 45 45" id="mailings-plus" xmlns="http://www.w3.org/2000/svg"><path fill="#387c00" d="M15 16.997v1.965l8 4.946 8-4.946v-1.965l-8 4.924z"/><path d="M22.5 0C10.074 0 0 10.074 0 22.5S10.074 45 22.5 45 45 34.926 45 22.5 34.926 0 22.5 0zm10.145 28.832c0 .277-.054.536-.162.774a2.012 2.012 0 0 1-.416.612 1.939 1.939 0 0 1-1.41.578H14.892a1.95 1.95 0 0 1-1.41-.578 2.012 2.012 0 0 1-.416-.612 1.854 1.854 0 0 1-.162-.774l.023-11.835c0-.277.05-.535.15-.774.1-.239.242-.443.427-.612.17-.186.374-.328.613-.428.238-.101.497-.15.774-.15h15.765a1.95 1.95 0 0 1 1.41.578c.17.169.309.373.416.612.108.239.162.497.162.774v11.835z" fill="#387c00"/></svg><svg viewBox="0 0 45 45" id="optout-minus" xmlns="http://www.w3.org/2000/svg"><path d="M22.5 0C10.074 0 0 10.074 0 22.5S10.074 45 22.5 45 45 34.926 45 22.5 34.926 0 22.5 0zm-4.254 15.812a4.547 4.547 0 0 1 .967-1.451c.43-.43.919-.764 1.469-1.003a4.436 4.436 0 0 1 1.79-.358c.621 0 1.212.119 1.773.358a4.275 4.275 0 0 1 1.451 1.003c.064.065.113.143.173.212L19.2 20.828a5.085 5.085 0 0 1-.955-1.453 4.438 4.438 0 0 1-.358-1.791c.001-.62.12-1.211.359-1.772zM32 33H17.696l7.763-7.342c.953.19 1.871.388 2.744.738.955.382 1.946.86 2.615 1.433.669.573 1.182 1.241 1.182 2.006V33zm-18.596.498l-2.04-1.913 19.232-18.039 2.04 1.913-19.232 18.039z" fill="#fa6861"/></svg><svg viewBox="0 0 45 45" id="optout-plus" xmlns="http://www.w3.org/2000/svg"><path d="M22.5 0C10.074 0 0 10.074 0 22.5S10.074 45 22.5 45 45 34.926 45 22.5 34.926 0 22.5 0zm-4.254 15.812a4.547 4.547 0 0 1 .967-1.451c.43-.43.919-.764 1.469-1.003a4.436 4.436 0 0 1 1.79-.358c.621 0 1.212.119 1.773.358a4.275 4.275 0 0 1 1.451 1.003c.064.065.113.143.173.212L19.2 20.828a5.085 5.085 0 0 1-.955-1.453 4.438 4.438 0 0 1-.358-1.791c.001-.62.12-1.211.359-1.772zM32 33H17.696l7.763-7.342c.953.19 1.871.388 2.744.738.955.382 1.946.86 2.615 1.433.669.573 1.182 1.241 1.182 2.006V33zm-18.596.498l-2.04-1.913 19.232-18.039 2.04 1.913-19.232 18.039z" fill="#387c00"/></svg><svg viewBox="0 0 45 45" id="recipients-minus" xmlns="http://www.w3.org/2000/svg"><path d="M22.5 0C10.074 0 0 10.074 0 22.5S10.074 45 22.5 45 45 34.926 45 22.5 34.926 0 22.5 0zm-6.522 16.263c.192-.452.452-.841.778-1.168a3.8 3.8 0 0 1 1.182-.807A3.585 3.585 0 0 1 19.38 14c.5 0 .975.096 1.427.288.452.192.841.461 1.168.807.327.327.586.716.778 1.168s.288.927.288 1.427c0 .519-.096.999-.288 1.441s-.452.836-.778 1.182a3.647 3.647 0 0 1-1.168.778 3.61 3.61 0 0 1-1.427.288c-.519 0-.999-.096-1.441-.288a4.083 4.083 0 0 1-1.182-.778c-.327-.346-.586-.74-.778-1.182s-.288-.923-.288-1.441c-.001-.5.095-.975.287-1.427zM27 30H12v-2.45c0-.615.269-1.153.807-1.614.538-.461 1.192-.846 1.96-1.153.769-.307 1.576-.538 2.422-.692s1.576-.231 2.191-.231c.615 0 1.345.077 2.191.231s1.653.384 2.422.692c.769.307 1.542.692 2.08 1.153.538.46.927.999.927 1.614V30zm-1.479-9h-.288c-.096 0-.192.18-.288.161-.096-.019-.187.057-.274.037s-.178-.001-.274-.039c.173-.25.327-.486.461-.755s.25-.545.346-.853c.096-.288.173-.585.231-.902a5.323 5.323 0 0 0 0-1.913 8.23 8.23 0 0 0-.231-.922c-.096-.288-.211-.571-.346-.85s-.288-.533-.461-.764c.096-.038.187-.067.274-.086l.274-.058a2.86 2.86 0 0 1 .576-.056c.5 0 .975.096 1.427.288s.841.461 1.168.807c.346.327.615.716.807 1.168s.288.927.288 1.427c0 .519-.096.999-.288 1.441s-.461.836-.807 1.182c-.327.327-.716.396-1.168.588-.452.193-.928.099-1.427.099zM33 30h-4v-2.45c0-.365.067-.711-.01-1.038-.077-.327-.139-.634-.293-.923a5.012 5.012 0 0 0-.521-.822 6.915 6.915 0 0 0-.679-.735c.615.115 1.251.274 1.895.476a9.36 9.36 0 0 1 1.747.735c.519.288.993.625 1.32 1.009s.541.817.541 1.298V30z" fill="#fa6861"/></svg><svg viewBox="0 0 45 45" id="recipients-plus" xmlns="http://www.w3.org/2000/svg"><path d="M22.5 0C10.074 0 0 10.074 0 22.5S10.074 45 22.5 45 45 34.926 45 22.5 34.926 0 22.5 0zm-6.522 16.263c.192-.452.452-.841.778-1.168a3.8 3.8 0 0 1 1.182-.807A3.585 3.585 0 0 1 19.38 14c.5 0 .975.096 1.427.288.452.192.841.461 1.168.807.327.327.586.716.778 1.168s.288.927.288 1.427c0 .519-.096.999-.288 1.441s-.452.836-.778 1.182a3.647 3.647 0 0 1-1.168.778 3.61 3.61 0 0 1-1.427.288c-.519 0-.999-.096-1.441-.288a4.083 4.083 0 0 1-1.182-.778c-.327-.346-.586-.74-.778-1.182s-.288-.923-.288-1.441c-.001-.5.095-.975.287-1.427zM27 30H12v-2.45c0-.615.269-1.153.807-1.614.538-.461 1.192-.846 1.96-1.153.769-.307 1.576-.538 2.422-.692s1.576-.231 2.191-.231c.615 0 1.345.077 2.191.231s1.653.384 2.422.692c.769.307 1.542.692 2.08 1.153.538.46.927.999.927 1.614V30zm-1.479-9h-.288c-.096 0-.192.18-.288.161-.096-.019-.187.057-.274.037s-.178-.001-.274-.039c.173-.25.327-.486.461-.755s.25-.545.346-.853c.096-.288.173-.585.231-.902a5.323 5.323 0 0 0 0-1.913 8.23 8.23 0 0 0-.231-.922c-.096-.288-.211-.571-.346-.85s-.288-.533-.461-.764c.096-.038.187-.067.274-.086l.274-.058a2.86 2.86 0 0 1 .576-.056c.5 0 .975.096 1.427.288s.841.461 1.168.807c.346.327.615.716.807 1.168s.288.927.288 1.427c0 .519-.096.999-.288 1.441s-.461.836-.807 1.182c-.327.327-.716.396-1.168.588-.452.193-.928.099-1.427.099zM33 30h-4v-2.45c0-.365.067-.711-.01-1.038-.077-.327-.139-.634-.293-.923a5.012 5.012 0 0 0-.521-.822 6.915 6.915 0 0 0-.679-.735c.615.115 1.251.274 1.895.476a9.36 9.36 0 0 1 1.747.735c.519.288.993.625 1.32 1.009s.541.817.541 1.298V30z" fill="#387c00"/></svg><svg viewBox="0 0 45 45" id="revenue-minus" xmlns="http://www.w3.org/2000/svg"><path d="M22.5 0C10.074 0 0 10.074 0 22.5S10.074 45 22.5 45 45 34.926 45 22.5 34.926 0 22.5 0zm-2.835 31.571a1.98 1.98 0 0 1-.428.636c-.185.17-.397.309-.636.416a1.802 1.802 0 0 1-.751.162c-.277 0-.536-.054-.774-.162a1.97 1.97 0 0 1-1.041-1.052 1.98 1.98 0 0 1-.149-.774 1.943 1.943 0 0 1 .577-1.387 1.74 1.74 0 0 1 .613-.428c.238-.1.497-.15.774-.15a1.943 1.943 0 0 1 1.387.578c.185.185.327.396.428.636.1.239.15.489.15.751 0 .277-.05.536-.15.774zm9.859 0a2.382 2.382 0 0 1-.417.636 2.34 2.34 0 0 1-.636.416 1.85 1.85 0 0 1-.774.162c-.262 0-.512-.054-.751-.162a2.37 2.37 0 0 1-.636-.416 2.34 2.34 0 0 1-.416-.636 1.87 1.87 0 0 1 0-1.525c.107-.239.246-.451.416-.636a1.98 1.98 0 0 1 .636-.428c.239-.1.489-.15.751-.15.278 0 .536.051.774.15.239.101.451.243.636.428.17.185.309.396.417.636.107.239.161.489.161.751.001.277-.053.536-.161.774zm2.092-15.314a2.88 2.88 0 0 1-.081.231l-3.537 6.403a1.61 1.61 0 0 1-.301.417c-.123.123-.262.23-.416.323a2.393 2.393 0 0 1-.474.196 1.818 1.818 0 0 1-.543.081h-7.328l-.901 1.596a.192.192 0 0 1-.012.058.176.176 0 0 0-.012.058.25.25 0 0 0 .069.185.249.249 0 0 0 .186.069h11.419v1.965H17.851a1.962 1.962 0 0 1-1.826-1.19 1.854 1.854 0 0 1-.162-.774c0-.092.008-.177.023-.254.015-.077.03-.162.046-.254.015-.077.038-.154.069-.231a.89.89 0 0 1 .115-.208l1.318-2.427-3.537-7.467h-1.965v-1.988h3.213l.948 1.988h14.562c.139 0 .27.023.394.069a.715.715 0 0 1 .301.208c.092.093.165.197.219.312a.877.877 0 0 1 .081.381.885.885 0 0 1-.034.253z" fill="#fa6861"/></svg><svg viewBox="0 0 45 45" id="revenue-plus" xmlns="http://www.w3.org/2000/svg"><path d="M22.5 0C10.074 0 0 10.074 0 22.5S10.074 45 22.5 45 45 34.926 45 22.5 34.926 0 22.5 0zm-2.835 31.571a1.98 1.98 0 0 1-.428.636c-.185.17-.397.309-.636.416a1.802 1.802 0 0 1-.751.162c-.277 0-.536-.054-.774-.162a1.97 1.97 0 0 1-1.041-1.052 1.98 1.98 0 0 1-.149-.774 1.943 1.943 0 0 1 .577-1.387 1.74 1.74 0 0 1 .613-.428c.238-.1.497-.15.774-.15a1.943 1.943 0 0 1 1.387.578c.185.185.327.396.428.636.1.239.15.489.15.751 0 .277-.05.536-.15.774zm9.859 0a2.382 2.382 0 0 1-.417.636 2.34 2.34 0 0 1-.636.416 1.85 1.85 0 0 1-.774.162c-.262 0-.512-.054-.751-.162a2.37 2.37 0 0 1-.636-.416 2.34 2.34 0 0 1-.416-.636 1.87 1.87 0 0 1 0-1.525c.107-.239.246-.451.416-.636a1.98 1.98 0 0 1 .636-.428c.239-.1.489-.15.751-.15.278 0 .536.051.774.15.239.101.451.243.636.428.17.185.309.396.417.636.107.239.161.489.161.751.001.277-.053.536-.161.774zm2.092-15.314a2.88 2.88 0 0 1-.081.231l-3.537 6.403a1.61 1.61 0 0 1-.301.417c-.123.123-.262.23-.416.323a2.393 2.393 0 0 1-.474.196 1.818 1.818 0 0 1-.543.081h-7.328l-.901 1.596a.192.192 0 0 1-.012.058.176.176 0 0 0-.012.058.25.25 0 0 0 .069.185.249.249 0 0 0 .186.069h11.419v1.965H17.851a1.962 1.962 0 0 1-1.826-1.19 1.854 1.854 0 0 1-.162-.774c0-.092.008-.177.023-.254.015-.077.03-.162.046-.254.015-.077.038-.154.069-.231a.89.89 0 0 1 .115-.208l1.318-2.427-3.537-7.467h-1.965v-1.988h3.213l.948 1.988h14.562c.139 0 .27.023.394.069a.715.715 0 0 1 .301.208c.092.093.165.197.219.312a.877.877 0 0 1 .081.381.885.885 0 0 1-.034.253z" fill="#387c00"/></svg><svg viewBox="0 0 45 45" id="signup-minus" xmlns="http://www.w3.org/2000/svg"><path d="M22.5 0C10.074 0 0 10.074 0 22.5S10.074 45 22.5 45 45 34.926 45 22.5 34.926 0 22.5 0zM13 22h10.755l-2.891-2.924 1.589-1.592L28 23.015l-5.547 5.539-1.589-1.626L23.755 24H13v-2zm20 8.786a2.205 2.205 0 0 1-.651 1.562c-.208.208-.447.369-.716.482s-.551.17-.847.17H15.214a2.205 2.205 0 0 1-1.562-.651 2.221 2.221 0 0 1-.482-.716 2.147 2.147 0 0 1-.17-.847V26h2v5h16V15H15v5h-2v-4.786a2.205 2.205 0 0 1 .651-1.562c.208-.208.447-.369.716-.482s.551-.17.847-.17h15.573a2.205 2.205 0 0 1 1.562.651c.208.208.369.447.482.716s.169.551.169.847v15.572z" fill="#fa6861"/></svg><svg viewBox="0 0 45 45" id="signup-plus" xmlns="http://www.w3.org/2000/svg"><path d="M22.5 0C10.074 0 0 10.074 0 22.5S10.074 45 22.5 45 45 34.926 45 22.5 34.926 0 22.5 0zM13 22h10.755l-2.891-2.924 1.589-1.592L28 23.015l-5.547 5.539-1.589-1.626L23.755 24H13v-2zm20 8.786a2.205 2.205 0 0 1-.651 1.562c-.208.208-.447.369-.716.482s-.551.17-.847.17H15.214a2.205 2.205 0 0 1-1.562-.651 2.221 2.221 0 0 1-.482-.716 2.147 2.147 0 0 1-.17-.847V26h2v5h16V15H15v5h-2v-4.786a2.205 2.205 0 0 1 .651-1.562c.208-.208.447-.369.716-.482s.551-.17.847-.17h15.573a2.205 2.205 0 0 1 1.562.651c.208.208.369.447.482.716s.169.551.169.847v15.572z" fill="#387c00"/></svg><svg viewBox="0 0 45 45" id="sleeper-minus" xmlns="http://www.w3.org/2000/svg"><path d="M28.335 17.923a7.874 7.874 0 0 0-2.478-1.665c-.953-.411-1.972-.616-3.056-.616s-2.103.206-3.055.616a7.89 7.89 0 0 0-2.479 1.665 7.957 7.957 0 0 0-1.691 2.504 7.633 7.633 0 0 0-.616 3.055c0 1.084.205 2.098.616 3.042a7.867 7.867 0 0 0 4.17 4.157c.952.411 1.971.616 3.055.616s2.103-.205 3.056-.616a7.897 7.897 0 0 0 2.478-1.665 8.004 8.004 0 0 0 1.692-2.492c.41-.944.616-1.958.616-3.042a7.65 7.65 0 0 0-.616-3.055 7.988 7.988 0 0 0-1.692-2.504zm-2.176 3.095l-4.065 4.694h4.065v2.229h-6.714v-1.993l4.064-4.721h-4.064v-2.229h6.714v2.02z" fill="#fa6861"/><path d="M22.5 0C10.074 0 0 10.074 0 22.5S10.074 45 22.5 45 45 34.926 45 22.5 34.926 0 22.5 0zm-5.756 11l1.442 1.731-5.14 4.301-1.442-1.705L16.744 11zm15.342 16.391a9.879 9.879 0 0 1-2.177 3.199 10.321 10.321 0 0 1-3.199 2.164 9.67 9.67 0 0 1-3.908.8 9.731 9.731 0 0 1-3.934-.8 10.264 10.264 0 0 1-3.199-2.164c-.909-.909-1.626-1.976-2.15-3.199s-.787-2.526-.787-3.908c0-1.398.263-2.709.787-3.934.524-1.224 1.241-2.29 2.15-3.199s1.976-1.626 3.199-2.15a9.872 9.872 0 0 1 3.934-.787 9.81 9.81 0 0 1 3.908.787 10.102 10.102 0 0 1 3.199 2.15 9.916 9.916 0 0 1 2.177 3.199 9.888 9.888 0 0 1 .786 3.934 9.826 9.826 0 0 1-.786 3.908zm.472-10.359l-5.14-4.301 1.442-1.705L34 15.327l-1.442 1.705z" fill="#fa6861"/></svg><svg viewBox="0 0 45 45" id="sleeper-plus" xmlns="http://www.w3.org/2000/svg"><path d="M28.335 17.923a7.874 7.874 0 0 0-2.478-1.665c-.953-.411-1.972-.616-3.056-.616s-2.103.206-3.055.616a7.89 7.89 0 0 0-2.479 1.665 7.957 7.957 0 0 0-1.691 2.504 7.633 7.633 0 0 0-.616 3.055c0 1.084.205 2.098.616 3.042a7.867 7.867 0 0 0 4.17 4.157c.952.411 1.971.616 3.055.616s2.103-.205 3.056-.616a7.897 7.897 0 0 0 2.478-1.665 8.004 8.004 0 0 0 1.692-2.492c.41-.944.616-1.958.616-3.042a7.65 7.65 0 0 0-.616-3.055 7.988 7.988 0 0 0-1.692-2.504zm-2.176 3.095l-4.065 4.694h4.065v2.229h-6.714v-1.993l4.064-4.721h-4.064v-2.229h6.714v2.02z" fill="#387c00"/><path d="M22.5 0C10.074 0 0 10.074 0 22.5S10.074 45 22.5 45 45 34.926 45 22.5 34.926 0 22.5 0zm-5.756 11l1.442 1.731-5.14 4.301-1.442-1.705L16.744 11zm15.342 16.391a9.879 9.879 0 0 1-2.177 3.199 10.321 10.321 0 0 1-3.199 2.164 9.67 9.67 0 0 1-3.908.8 9.731 9.731 0 0 1-3.934-.8 10.264 10.264 0 0 1-3.199-2.164c-.909-.909-1.626-1.976-2.15-3.199s-.787-2.526-.787-3.908c0-1.398.263-2.709.787-3.934.524-1.224 1.241-2.29 2.15-3.199s1.976-1.626 3.199-2.15a9.872 9.872 0 0 1 3.934-.787 9.81 9.81 0 0 1 3.908.787 10.102 10.102 0 0 1 3.199 2.15 9.916 9.916 0 0 1 2.177 3.199 9.888 9.888 0 0 1 .786 3.934 9.826 9.826 0 0 1-.786 3.908zm.472-10.359l-5.14-4.301 1.442-1.705L34 15.327l-1.442 1.705z" fill="#387c00"/></svg></defs></svg>