<svg xmlns="http://www.w3.org/2000/svg" width="59" height="50" fill="none" viewBox="0 0 59 50">
  <path fill="#fff" d="M20.393 23.214c1.984 0 3.592-1.998 3.592-4.464s-1.608-4.464-3.592-4.464c-1.983 0-3.591 1.998-3.591 4.464s1.608 4.464 3.591 4.464Zm21.549-4.464c0 2.466-1.608 4.464-3.592 4.464-1.983 0-3.59-1.998-3.59-4.464s1.607-4.464 3.59-4.464c1.984 0 3.592 1.998 3.592 4.464Zm-12.57 15.625c3.591-.446 6.285-3.338 6.285-5.804 0-2.465-2.814-4.464-6.285-4.464s-6.285 1.999-6.285 4.464c0 2.466 2.694 5.358 6.285 5.804Z"/>
  <path fill="#fff" fill-rule="evenodd" d="M49.367 39.892C45.65 46.672 38.092 50 29.372 50S13.094 46.671 9.377 39.892c.125 1.031.272 1.927.398 2.697.496 3.027.672 4.102-2.094 3.787-5.01-.57-8.03-10.664-6.745-22.546C4.368 2.786 16.194 1.308 21.203 1.878c.219.025.398.07.541.138C24.125.73 26.694 0 29.372 0S34.618.73 37 2.016c.143-.067.322-.113.541-.138 5.01-.57 16.835.908 20.267 21.952 1.284 11.882-1.736 21.976-6.745 22.546-2.766.315-2.59-.76-2.094-3.787.126-.77.273-1.666.398-2.697Zm.656-10.747c0 12.821-9.246 19.07-20.651 19.07s-20.65-6.249-20.65-19.07c0-12.82 9.245-27.36 20.65-27.36s20.65 14.54 20.65 27.36Z" clip-rule="evenodd"/>
</svg>
