<svg xmlns="http://www.w3.org/2000/svg" width="160" height="116" fill="none" viewBox="0 0 160 116">
  <g filter="url(#a)">
    <path fill="#fff" d="M29.999 47.857c7.88 0 14.286-6.406 14.286-14.286 0-7.879-6.407-14.285-14.286-14.285-7.88 0-14.286 6.406-14.286 14.285 0 7.88 6.406 14.286 14.286 14.286Zm100 0c7.879 0 14.286-6.406 14.286-14.286 0-7.879-6.407-14.285-14.286-14.285-7.88 0-14.286 6.406-14.286 14.285 0 7.88 6.406 14.286 14.286 14.286ZM137.142 55h-14.286a14.242 14.242 0 0 0-10.067 4.152c8.996 4.933 15.38 13.84 16.763 24.42h14.733a7.134 7.134 0 0 0 7.142-7.143v-7.143c0-7.88-6.406-14.286-14.285-14.286Zm-57.143 0c13.817 0 25-11.183 25-25s-11.183-25-25-25-25 11.183-25 25 11.183 25 25 25Zm17.143 7.143h-1.853c-4.643 2.232-9.799 3.571-15.29 3.571s-10.625-1.339-15.29-3.571h-1.853c-14.196 0-25.714 11.518-25.714 25.714v6.429C37.142 100.2 41.94 105 47.856 105h64.286c5.915 0 10.714-4.799 10.714-10.714v-6.429c0-14.196-11.518-25.714-25.714-25.714Zm-49.933-2.991A14.244 14.244 0 0 0 37.142 55H22.856C14.976 55 8.57 61.406 8.57 69.286v7.143a7.135 7.135 0 0 0 7.143 7.142h14.71c1.406-10.58 7.79-19.486 16.786-24.42Z"/>
  </g>
  <defs>
    <filter id="a" width="158.859" height="116" x=".57" y="0" color-interpolation-filters="sRGB" filterUnits="userSpaceOnUse">
      <feFlood flood-opacity="0" result="BackgroundImageFix"/>
      <feColorMatrix in="SourceAlpha" result="hardAlpha" values="0 0 0 0 0 0 0 0 0 0 0 0 0 0 0 0 0 0 127 0"/>
      <feOffset dy="3"/>
      <feGaussianBlur stdDeviation="4"/>
      <feComposite in2="hardAlpha" operator="out"/>
      <feColorMatrix values="0 0 0 0 0 0 0 0 0 0 0 0 0 0 0 0 0 0 0.5 0"/>
      <feBlend in2="BackgroundImageFix" result="effect1_dropShadow_10100_79775"/>
      <feBlend in="SourceGraphic" in2="effect1_dropShadow_10100_79775" result="shape"/>
    </filter>
  </defs>
</svg>
