<?xml version="1.0" encoding="utf-8"?><svg xmlns="http://www.w3.org/2000/svg" xmlns:xlink="http://www.w3.org/1999/xlink"><defs><svg fill="none" viewBox="0 0 30 30" id="anniversaryMail" xmlns="http://www.w3.org/2000/svg"><path fill="red" fill-rule="evenodd" d="M24.053 3.103a1.552 1.552 0 1 0 0-3.103 1.552 1.552 0 0 0 0 3.103ZM14.768.48a.517.517 0 0 1 .984 0l.553 1.702c.07.213.268.358.492.358h1.79c.502 0 .71.64.305.935l-1.449 1.053a.517.517 0 0 0-.188.578l.553 1.703a.517.517 0 0 1-.796.578l-1.448-1.052a.517.517 0 0 0-.608 0l-1.448 1.052a.517.517 0 0 1-.796-.578l.553-1.703a.517.517 0 0 0-.188-.578L11.63 3.475a.517.517 0 0 1 .304-.935h1.79a.517.517 0 0 0 .492-.358L14.768.48ZM7.476 11.936a.517.517 0 0 1-.984 0l-.553-1.702a.517.517 0 0 0-.492-.358h-1.79a.517.517 0 0 1-.304-.935L4.8 7.888a.517.517 0 0 0 .188-.578l-.553-1.703a.517.517 0 0 1 .796-.578L6.68 6.081a.517.517 0 0 0 .608 0L8.737 5.03a.517.517 0 0 1 .796.578L8.979 7.31a.517.517 0 0 0 .188.578l1.449 1.053a.517.517 0 0 1-.304.935h-1.79a.517.517 0 0 0-.493.358l-.553 1.702Zm15.568 0c.155.477.83.477.984 0l.553-1.702a.517.517 0 0 1 .492-.358h1.79c.501 0 .71-.64.304-.935L25.72 7.888a.517.517 0 0 1-.188-.578l.553-1.703a.517.517 0 0 0-.796-.578L23.84 6.081a.517.517 0 0 1-.608 0L21.784 5.03a.517.517 0 0 0-.796.578l.553 1.703a.517.517 0 0 1-.188.578l-1.448 1.053a.517.517 0 0 0 .304.935h1.79c.224 0 .423.145.492.358l.553 1.702Zm-7.784-3.66c.571 0 1.035.463 1.035 1.034v12.77a2.1 2.1 0 0 0 .325-.191l1.743-1.331V15.34c0-.597.13-1.188.38-1.73l.75-1.63a1.034 1.034 0 1 1 1.88.865l-.75 1.63a2.05 2.05 0 0 0-.19.865v3.636l2.308-1.763a1.034 1.034 0 1 1 1.643-1.255l1.055-.804v-1.707l2.235 1.087v13.023c0 1.349-1.283 2.442-2.865 2.442H5.711c-1.582 0-2.865-1.093-2.865-2.442V14.535l2.235-1.087v1.707l1.055.805a1.033 1.033 0 1 1 1.643 1.254l2.309 1.763v-3.636a2.07 2.07 0 0 0-.19-.865l-.75-1.63a1.035 1.035 0 0 1 1.88-.865l.75 1.63c.25.542.379 1.133.379 1.73v5.216l1.743 1.33a2.1 2.1 0 0 0 .326.192V9.31c0-.571.463-1.034 1.034-1.034Zm13.448 5.172a1.035 1.035 0 1 0 0-2.069 1.035 1.035 0 0 0 0 2.07ZM2.846 12.414a1.035 1.035 0 1 1-2.069 0 1.035 1.035 0 0 1 2.07 0ZM8.02 1.552a1.552 1.552 0 1 1-3.104 0 1.552 1.552 0 0 1 3.104 0ZM4.5 16.784l1.984 1.463 6.424 4.966.01.008c1.36.985 3.323.985 4.682 0l.01-.008 6.424-4.966 1.984-1.463v10.774c0 .123-.055.294-.258.467-.207.176-.538.32-.952.32H5.711c-.414 0-.745-.144-.952-.32-.203-.173-.258-.344-.258-.467V16.784Z" clip-rule="evenodd"/></svg><svg fill="none" viewBox="0 0 34 30" id="archive" xmlns="http://www.w3.org/2000/svg"><path fill="currentColor" fill-rule="evenodd" d="M7 24h20a1 1 0 0 0 1-1V13l-7.4 5.55a6 6 0 0 1-7.2 0L6 13v10a1 1 0 0 0 1 1Zm-.904-13.428A1 1 0 0 1 7 10h20a1 1 0 0 1 .904.572L19.4 16.95a4 4 0 0 1-4.8 0l-8.504-6.378ZM27 26H7a3 3 0 0 1-3-3V11a3 3 0 0 1 3-3h20a3 3 0 0 1 3 3v12a3 3 0 0 1-3 3ZM11 2H2v23a3 3 0 0 0 3 3h24a3 3 0 0 0 3-3V9a3 3 0 0 0-3-3H14a3 3 0 0 1-3-3V2ZM2 0h9a2 2 0 0 1 2 2v1a1 1 0 0 0 1 1h15a5 5 0 0 1 5 5v16a5 5 0 0 1-5 5H5a5 5 0 0 1-5-5V2a2 2 0 0 1 2-2Z" clip-rule="evenodd"/><path fill="var(--workflow-node-bg)" fill-rule="evenodd" d="M2 2h9v1a3 3 0 0 0 3 3h15a3 3 0 0 1 3 3v16a3 3 0 0 1-3 3H5a3 3 0 0 1-3-3V2Zm25 24H7a3 3 0 0 1-3-3V11a3 3 0 0 1 3-3h20a3 3 0 0 1 3 3v12a3 3 0 0 1-3 3Z" clip-rule="evenodd"/><path fill="var(--workflow-node-bg)" d="M27 24H7a1 1 0 0 1-1-1V13l7.4 5.55a6 6 0 0 0 7.2 0L28 13v10a1 1 0 0 1-1 1Z"/><path fill="var(--workflow-node-bg)" d="M6.096 10.572A1 1 0 0 1 7 10h20a1 1 0 0 1 .904.572L19.4 16.95a4 4 0 0 1-4.8 0l-8.504-6.378Z"/></svg><svg fill="none" viewBox="0 0 30 12" id="arrow" xmlns="http://www.w3.org/2000/svg"><path fill="currentColor" d="M22 .57v3.486H1c-.77 0-1 .435-1 .972v1.944c0 .537.23.972 1 .972h21v3.486c0 .507.525.76 1.04.402l6.671-5.346c.385-.268.385-.704 0-.972L23.04.168C22.525-.191 22 .063 22 .57Z"/></svg><svg fill="none" viewBox="0 0 39 30" id="birthdayWithCoupon" xmlns="http://www.w3.org/2000/svg"><path fill="currentColor" fill-rule="evenodd" d="M19.877 4.22c0 1.103-.722 2.041-1.729 2.389v2.996h6.914V7.453c-1.007-.348-1.729-1.286-1.729-2.388 0-.85.384-1.275.943-1.893.468-.519 1.059-1.173 1.65-2.328.6 1.172 1.2 1.864 1.671 2.407.548.631.922 1.062.922 1.814 0 1.102-.722 2.04-1.729 2.388v2.152h3.457c2.387 0 4.321 1.89 4.321 4.22v3.33H32.84v-.234c-.833.225-1.793-.053-2.31-.89a.334.334 0 0 0-.565 0l-.058.095c-.828 1.337-2.813 1.337-3.64 0a.403.403 0 0 0-.681 0c-.828 1.337-2.813 1.337-3.64 0a.403.403 0 0 0-.681 0c-.828 1.337-2.813 1.337-3.64 0a.403.403 0 0 0-.681 0c-.828 1.337-2.813 1.337-3.64 0a.403.403 0 0 0-.681 0c-.828 1.337-2.813 1.337-3.64 0a.403.403 0 0 0-.682 0c-.827 1.337-2.812 1.337-3.64 0l-.058-.095a.334.334 0 0 0-.564 0c-.518.837-1.477 1.115-2.31.89v4.181c0 1.399 1.16 2.533 2.592 2.533h12.541v1.688H4.322c-2.386 0-4.321-1.89-4.321-4.22v-7.277c0-2.331 1.935-4.22 4.321-4.22h3.457V7.452c-1.009-.347-1.73-1.285-1.73-2.387 0-.85.384-1.275.943-1.893.468-.519 1.059-1.173 1.65-2.328.6 1.172 1.2 1.864 1.671 2.407.547.631.922 1.062.922 1.814 0 1.102-.722 2.04-1.729 2.388v2.152h6.914V6.61c-1.007-.35-1.73-1.287-1.73-2.39 0-.85.384-1.275.943-1.893.468-.519 1.059-1.173 1.65-2.328.6 1.172 1.2 1.864 1.671 2.407.548.63.922 1.062.922 1.814Zm-2.593 1.267c.716 0 1.296-.567 1.296-1.266 0-.452-.18-.673-.54-1.113-.198-.242-.45-.55-.756-.998-.313.46-.57.76-.77.994-.35.413-.526.619-.526 1.117 0 .699.58 1.266 1.296 1.266Zm9.938-.422c0 .699-.58 1.266-1.296 1.266-.716 0-1.296-.567-1.296-1.266 0-.498.175-.704.527-1.117.2-.234.456-.535.77-.994.305.449.557.756.755.998.36.44.54.66.54 1.113Zm5.618 9.672a2.024 2.024 0 0 0-.246.381.34.34 0 0 1-.585.04c-.8-1.294-2.723-1.294-3.523 0l-.059.095a.403.403 0 0 1-.68 0c-.828-1.338-2.814-1.338-3.64 0a.403.403 0 0 1-.682 0c-.827-1.338-2.813-1.338-3.64 0a.403.403 0 0 1-.681 0c-.827-1.338-2.813-1.338-3.64 0a.403.403 0 0 1-.681 0c-.827-1.338-2.813-1.338-3.64 0a.403.403 0 0 1-.681 0c-.827-1.338-2.813-1.338-3.64 0a.403.403 0 0 1-.681 0l-.058-.095c-.801-1.294-2.723-1.294-3.524 0a.34.34 0 0 1-.585-.04 2.022 2.022 0 0 0-.246-.38v-.912c0-1.399 1.161-2.533 2.593-2.533h25.926c1.432 0 2.593 1.134 2.593 2.533v.911ZM9.938 5.065c0 .699-.58 1.266-1.296 1.266-.716 0-1.296-.567-1.296-1.266 0-.498.175-.704.527-1.117.2-.234.456-.535.769-.994.306.449.558.756.755.998.361.44.541.66.541 1.113Z" clip-rule="evenodd"/><path fill="currentColor" d="M24.667 22.757v3.05h1.686v-3.05h-1.686Z"/><path fill="currentColor" fill-rule="evenodd" d="M19.608 18.564a.83.83 0 0 0-.843.817v3.676c.698 0 1.265.548 1.265 1.225s-.567 1.225-1.265 1.225v3.676a.83.83 0 0 0 .843.817h18.549a.83.83 0 0 0 .843-.817v-3.676c-.699 0-1.265-.548-1.265-1.225s.566-1.225 1.265-1.225V19.38a.83.83 0 0 0-.843-.817H19.608Zm.843 8.064v1.738h4.216v-1.034h1.686v1.034h10.96v-1.738a2.831 2.831 0 0 1-1.264-2.346c0-.972.5-1.83 1.265-2.347v-1.737h-10.96v1.035h-1.687v-1.035H20.45v1.737a2.831 2.831 0 0 1 1.265 2.347c0 .971-.5 1.83-1.265 2.346Z" clip-rule="evenodd"/><path fill="currentColor" d="M30.97 21.77a1.158 1.158 0 0 1 0 1.675 1.25 1.25 0 0 1-1.73 0 1.158 1.158 0 0 1 0-1.675 1.25 1.25 0 0 1 1.73 0Zm3.456 3.35a1.158 1.158 0 0 1 0 1.674 1.25 1.25 0 0 1-1.728 0 1.158 1.158 0 0 1 0-1.675 1.25 1.25 0 0 1 1.728 0Z"/><path fill="currentColor" fill-rule="evenodd" d="M34.426 21.77a.772.772 0 0 1 0 1.116l-4.033 3.908a.834.834 0 0 1-1.153 0 .772.772 0 0 1 0-1.117l4.034-3.908a.834.834 0 0 1 1.152 0Z" clip-rule="evenodd"/></svg><svg fill="none" viewBox="0 0 12 10" id="comment" xmlns="http://www.w3.org/2000/svg"><path fill="currentColor" d="M0 1.143v8.46c0 .305.347.496.624.343l.625-.343 3.273-1.8c.183-.1.39-.152.6-.152H10.8c.663 0 1.2-.512 1.2-1.143V1.143C12 .512 11.463 0 10.8 0H1.2C.539 0 0 .512 0 1.143Z"/></svg><svg fill="none" viewBox="0 0 26 30" id="deadline" xmlns="http://www.w3.org/2000/svg"><path fill="currentColor" d="M14.5 10a1 1 0 0 0-1-1h-1a1 1 0 0 0-1 1v8l4.793 4.793a1 1 0 0 0 1.414 0l.586-.586a1 1 0 0 0 0-1.414L14.5 17v-7Z"/><path fill="currentColor" fill-rule="evenodd" d="M12 0a1 1 0 0 0-1 1v3.153C4.77 5.115 0 10.5 0 17c0 7.18 5.82 13 13 13s13-5.82 13-13a12.95 12.95 0 0 0-3.322-8.68l1.435-1.435a1 1 0 0 0 0-1.414l-.586-.586a1 1 0 0 0-1.414 0L20.57 6.429A12.93 12.93 0 0 0 15 4.153V1a1 1 0 0 0-1-1h-2Zm12 17c0 6.075-4.925 11-11 11S2 23.075 2 17 6.925 6 13 6s11 4.925 11 11Z" clip-rule="evenodd"/><path fill="var(--workflow-node-bg)" fill-rule="evenodd" d="M13 28c6.075 0 11-4.925 11-11S19.075 6 13 6 2 10.925 2 17s4.925 11 11 11Zm1.5-18a1 1 0 0 0-1-1h-1a1 1 0 0 0-1 1v8l4.793 4.793a1 1 0 0 0 1.414 0l.586-.586a1 1 0 0 0 0-1.414L14.5 17v-7Z" clip-rule="evenodd"/></svg><svg fill="none" viewBox="0 0 30 30" id="decision" xmlns="http://www.w3.org/2000/svg"><path fill="currentColor" fill-rule="evenodd" d="M13.016 2.822 2.822 13.016a2.806 2.806 0 0 0 0 3.968l10.194 10.194a2.806 2.806 0 0 0 3.968 0l10.194-10.194a2.806 2.806 0 0 0 0-3.968L16.984 2.822a2.806 2.806 0 0 0-3.968 0Zm-11.608 8.78a4.806 4.806 0 0 0 0 6.796l10.194 10.195a4.806 4.806 0 0 0 6.796 0l10.195-10.195a4.806 4.806 0 0 0 0-6.796L18.398 1.408a4.806 4.806 0 0 0-6.796 0L1.408 11.602Z" clip-rule="evenodd"/><path fill="var(--workflow-node-bg)" d="M2.822 13.016 13.016 2.822a2.806 2.806 0 0 1 3.968 0l10.194 10.194a2.806 2.806 0 0 1 0 3.968L16.984 27.178a2.806 2.806 0 0 1-3.968 0L2.822 16.984a2.806 2.806 0 0 1 0-3.968Z"/></svg><svg fill="none" viewBox="0 0 22 30" id="export" xmlns="http://www.w3.org/2000/svg"><path fill="currentColor" d="M12.139 19h2.049c.298 0 .447.36.237.571l-3.143 3.143a.404.404 0 0 1-.572 0l-3.143-3.143A.335.335 0 0 1 7.804 19h2.05v-5.429a.57.57 0 0 1 .57-.571h1.144a.57.57 0 0 1 .57.571V19Z"/><path fill="currentColor" fill-rule="evenodd" d="M3 0h9l10 10v17a3 3 0 0 1-3 3H3a3 3 0 0 1-3-3V3a3 3 0 0 1 3-3Zm10 3.828V8a1 1 0 0 0 1 1h4.172L13 3.828ZM11 2H3a1 1 0 0 0-1 1v24a1 1 0 0 0 1 1h16a1 1 0 0 0 1-1V11h-6a3 3 0 0 1-3-3V2Z" clip-rule="evenodd"/><path fill="var(--workflow-node-bg)" d="M13 8V3.828L18.172 9H14a1 1 0 0 1-1-1Z"/><path fill="var(--workflow-node-bg)" fill-rule="evenodd" d="M3 2h8v6a3 3 0 0 0 3 3h6v16a1 1 0 0 1-1 1H3a1 1 0 0 1-1-1V3a1 1 0 0 1 1-1Zm9.139 17h2.049c.298 0 .447.36.237.571l-3.143 3.143a.404.404 0 0 1-.572 0l-3.143-3.143A.335.335 0 0 1 7.804 19h2.05v-5.429a.57.57 0 0 1 .57-.571h1.144a.57.57 0 0 1 .57.571V19Z" clip-rule="evenodd"/></svg><svg fill="none" viewBox="0 0 39 30" id="followup_mailing" xmlns="http://www.w3.org/2000/svg"><path fill="currentColor" d="M11.102 6.833v2.033h-5.52A.574.574 0 0 0 5 9.433v1.134c0 .313.26.567.581.567h5.521v2.033c0 .296.367.444.581.235l3.197-3.118a.394.394 0 0 0 0-.568l-3.197-3.118c-.214-.21-.58-.061-.58.235Z"/><path fill="currentColor" fill-rule="evenodd" d="M10 0a9.996 9.996 0 0 1 8.662 5h17.005A3.333 3.333 0 0 1 39 8.333V25a5 5 0 0 1-5 5H10a5 5 0 0 1-5-5v-6.338A9.996 9.996 0 0 1 0 10C0 4.477 4.477 0 10 0Zm0 18a8 8 0 1 0 0-16 8 8 0 0 0 0 16Zm0 2c2.184 0 4.204-.7 5.848-1.887l2.45 1.92a6 6 0 0 0 7.405 0L37 11.173V25a3 3 0 0 1-3 3H10a3 3 0 0 1-3-3v-5.458A9.997 9.997 0 0 0 10 20Zm9.531-1.54-2.164-1.698A9.964 9.964 0 0 0 20 10a9.98 9.98 0 0 0-.458-3h16.125C36.403 7 37 7.597 37 8.333v.298L24.469 18.46a4 4 0 0 1-4.938 0Z" clip-rule="evenodd"/><path fill="var(--workflow-node-bg)" d="M15.848 18.113A9.955 9.955 0 0 1 10 20a9.997 9.997 0 0 1-3-.458V25a3 3 0 0 0 3 3h24a3 3 0 0 0 3-3V11.173l-11.297 8.86a6 6 0 0 1-7.406 0l-2.449-1.92Z"/><path fill="var(--workflow-node-bg)" d="m17.367 16.762 2.164 1.698a4 4 0 0 0 4.938 0L37 8.63v-.298C37 7.597 36.403 7 35.667 7H19.542A9.98 9.98 0 0 1 20 10a9.964 9.964 0 0 1-2.633 6.762Z"/><path fill="var(--workflow-node-bg)" fill-rule="evenodd" d="M18 10a8 8 0 1 1-16 0 8 8 0 0 1 16 0Zm-6.898-3.167v2.033h-5.52A.574.574 0 0 0 5 9.433v1.134c0 .313.26.567.581.567h5.521v2.033c0 .296.367.444.581.235l3.197-3.118a.394.394 0 0 0 0-.568l-3.197-3.118c-.214-.21-.58-.061-.58.235Z" clip-rule="evenodd"/></svg><svg fill="none" viewBox="0 0 22 30" id="import" xmlns="http://www.w3.org/2000/svg"><path fill="currentColor" d="M7.808 17h2.05v5.429a.57.57 0 0 0 .57.571h1.143a.571.571 0 0 0 .572-.571V17h2.049c.298 0 .447-.36.237-.571l-3.143-3.143a.404.404 0 0 0-.572 0l-3.143 3.143a.335.335 0 0 0 .237.571Z"/><path fill="currentColor" fill-rule="evenodd" d="M12 0H3a3 3 0 0 0-3 3v24a3 3 0 0 0 3 3h16a3 3 0 0 0 3-3V10L12 0Zm1 8V3.828L18.172 9H14a1 1 0 0 1-1-1ZM3 2h8v6a3 3 0 0 0 3 3h6v16a1 1 0 0 1-1 1H3a1 1 0 0 1-1-1V3a1 1 0 0 1 1-1Z" clip-rule="evenodd"/><path fill="var(--workflow-node-bg)" fill-rule="evenodd" d="M11 2H3a1 1 0 0 0-1 1v24a1 1 0 0 0 1 1h16a1 1 0 0 0 1-1V11h-6a3 3 0 0 1-3-3V2ZM7.808 17h2.05v5.429a.57.57 0 0 0 .57.571h1.143a.571.571 0 0 0 .572-.571V17h2.049c.298 0 .447-.36.237-.571l-3.143-3.143a.404.404 0 0 0-.572 0l-3.143 3.143a.335.335 0 0 0 .237.571Z" clip-rule="evenodd"/><path fill="var(--workflow-node-bg)" d="M13 3.828V8a1 1 0 0 0 1 1h4.172L13 3.828Z"/></svg><svg fill="none" viewBox="0 0 40 30" id="mailing" xmlns="http://www.w3.org/2000/svg"><path fill="currentColor" fill-rule="evenodd" d="M38 4.32V4a2 2 0 0 0-2-2H4a2 2 0 0 0-2 2v.32l15.501 12.4a4 4 0 0 0 4.998 0L38 4.32ZM2 6.88V25a3 3 0 0 0 3 3h30a3 3 0 0 0 3-3V6.88L23.748 18.283a6 6 0 0 1-7.496 0L2 6.881Z" clip-rule="evenodd"/><path fill="var(--workflow-node-bg)" d="M38 4v.32l-15.501 12.4a4 4 0 0 1-4.998 0L2 4.32V4a2 2 0 0 1 2-2h32a2 2 0 0 1 2 2Z"/><path fill="var(--workflow-node-bg)" d="M2 25V6.88l14.252 11.402a6 6 0 0 0 7.496 0L38 6.881V25a3 3 0 0 1-3 3H5a3 3 0 0 1-3-3Z"/><path fill="currentColor" fill-rule="evenodd" d="M5 30a5 5 0 0 1-5-5V4a4 4 0 0 1 4-4h32c2.21 0 4 1.796 4 4v21a5 5 0 0 1-5 5H5ZM38 4.32V4a2 2 0 0 0-2-2H4a2 2 0 0 0-2 2v.32l15.501 12.4a4 4 0 0 0 4.998 0L38 4.32ZM2 6.88V25a3 3 0 0 0 3 3h30a3 3 0 0 0 3-3V6.88L23.748 18.283a6 6 0 0 1-7.496 0L2 6.881Z" clip-rule="evenodd"/></svg><svg fill="none" viewBox="0 0 30 30" id="mailing_mediatype_post" xmlns="http://www.w3.org/2000/svg"><path fill="currentColor" fill-rule="evenodd" d="m12.159 21.8-7.762-6.002L2 14.03v13.02c0 .148.066.354.311.564.25.213.65.386 1.15.386H26.54c.5 0 .9-.173 1.15-.386.245-.21.311-.416.311-.565V14.03l-2.397 1.769-7.762 6.001-.012.01c-1.643 1.19-4.015 1.19-5.658 0l-.012-.01ZM26 13.02l1.3-.96-1.3-.75v1.71ZM24 2H6v12.51l3 2.319V15h12v1.829l3-2.32V2Zm-3.221 15H9.222l4.134 3.197c.94.672 2.349.672 3.287 0L20.78 17ZM4 13.02v-1.71l-1.3.75 1.3.96ZM4 9V1.967C4 .337 4.088 0 6 0h18c1.912 0 2 .338 2 1.967V9l4 2.312v15.737C30 28.68 28.45 30 26.538 30H3.462C1.55 30 0 28.679 0 27.05V11.31L4 9Zm17-2H9V5h12v2ZM9 12v-2h12v2H9Z" clip-rule="evenodd"/><path fill="var(--workflow-node-bg)" d="m2 14.03 2.397 1.768 7.762 6.001.012.01c1.643 1.19 4.015 1.19 5.658 0l.012-.01 7.762-6.001L28 14.03v13.02c0 .148-.066.354-.311.564-.25.213-.65.386-1.15.386H3.461c-.5 0-.901-.173-1.15-.386-.246-.21-.312-.416-.312-.565V14.03Z"/><path fill="var(--workflow-node-bg)" fill-rule="evenodd" d="M6 2h18v12.51l-3 2.319V15H9v1.829l-3-2.32V2Zm15 5H9V5h12v2ZM9 12v-2h12v2H9Z" clip-rule="evenodd"/><path fill="var(--workflow-node-bg)" d="m27.3 12.06-1.3.96v-1.71l1.3.75ZM9.222 17h11.557l-4.136 3.197c-.938.672-2.348.672-3.287 0L9.222 17ZM4 11.31v1.71l-1.3-.96 1.3-.75Z"/></svg><svg fill="none" viewBox="0 0 32 30" id="mailing_mediatype_sms" xmlns="http://www.w3.org/2000/svg"><path fill="var(--workflow-node-bg)" fill-rule="evenodd" d="M7 12.775A5.775 5.775 0 0 1 12.775 7H18V5a3 3 0 0 0-2.772-2.991A2.992 2.992 0 0 1 13 3H7c-.884 0-1.68-.383-2.228-.991A3 3 0 0 0 2 5v20a3 3 0 0 0 3 3h10a3 3 0 0 0 3-3v-4h-2.606c-.711 0-1.407.21-2 .605l-3.34 2.227C8.75 24.702 7 23.766 7 22.197v-9.422ZM27 19a3 3 0 0 0 3-3v-4a3 3 0 0 0-3-3H12.775A3.775 3.775 0 0 0 9 12.775v9.356l3.285-2.19a5.606 5.606 0 0 1 3.11-.941H27Z" clip-rule="evenodd"/><path fill="currentColor" fill-rule="evenodd" d="M27 7a5 5 0 0 1 5 5v4a5 5 0 0 1-5 5h-7v4a5 5 0 0 1-5 5H5a5 5 0 0 1-5-5V5A5.002 5.002 0 0 1 4.002.1a5.32 5.32 0 0 1 1.07-.1H15a5.002 5.002 0 0 1 5 5v2h7ZM7 12.775A5.775 5.775 0 0 1 12.775 7H18V5a3 3 0 0 0-2.772-2.991A2.992 2.992 0 0 1 13 3H7c-.884 0-1.68-.383-2.228-.991A3 3 0 0 0 2 5v20a3 3 0 0 0 3 3h10a3 3 0 0 0 3-3v-4h-2.606c-.711 0-1.407.21-2 .605l-3.34 2.227C8.75 24.702 7 23.766 7 22.197v-9.422ZM27 19a3 3 0 0 0 3-3v-4a3 3 0 0 0-3-3H12.775A3.775 3.775 0 0 0 9 12.775v9.356l3.285-2.19a5.606 5.606 0 0 1 3.11-.941H27Z" clip-rule="evenodd"/></svg><svg fill="none" viewBox="0 0 39 30" id="ownWorkflow" xmlns="http://www.w3.org/2000/svg"><path fill="currentColor" fill-rule="evenodd" d="M2 0a2 2 0 0 0-2 2v8a2 2 0 0 0 2 2h12a2 2 0 0 0 2-2V7h11.084A6.005 6.005 0 0 0 32 11.917V19.5a4 4 0 0 1-4 4H16v-3.9a1.6 1.6 0 0 0-1.6-1.6H1.6A1.6 1.6 0 0 0 0 19.6V28a2 2 0 0 0 2 2h12a2 2 0 0 0 2-2v-2.5h12a6 6 0 0 0 6-6v-7.583A6.001 6.001 0 0 0 33 0a6.002 6.002 0 0 0-5.917 5H16V2a2 2 0 0 0-2-2H2Zm12 2H2v8h12V2ZM2.102 20H13.9l-4.65 3.72a2 2 0 0 1-2.499 0L2.101 20Zm-.1 8v-5.52l3.5 2.802a4 4 0 0 0 4.998 0l3.502-2.801V28H2Zm31-18a4 4 0 1 1 0-8 4 4 0 0 1 0 8Z" clip-rule="evenodd"/></svg><svg fill="none" viewBox="0 0 30 30" id="parameter" xmlns="http://www.w3.org/2000/svg"><path fill="currentColor" fill-rule="evenodd" d="M2 15c0 7.18 5.82 13 13 13s13-5.82 13-13S22.18 2 15 2 2 7.82 2 15ZM15 0C6.716 0 0 6.716 0 15c0 8.284 6.716 15 15 15 8.284 0 15-6.716 15-15 0-8.284-6.716-15-15-15Z" clip-rule="evenodd"/><path fill="var(--workflow-node-bg)" d="M15 28C7.82 28 2 22.18 2 15S7.82 2 15 2s13 5.82 13 13-5.82 13-13 13Z"/></svg><svg fill="none" viewBox="0 0 30 30" id="recipient" xmlns="http://www.w3.org/2000/svg"><path fill="currentColor" d="M19 11a4 4 0 1 1-8 0 4 4 0 0 1 8 0Zm-1.722 5h.522a4.2 4.2 0 0 1 4.2 4.2v1.3a1.5 1.5 0 0 1-1.5 1.5h-11A1.5 1.5 0 0 1 8 21.5v-1.3a4.2 4.2 0 0 1 4.2-4.2h.522a5.445 5.445 0 0 0 4.556 0Z"/><path fill="currentColor" fill-rule="evenodd" d="M30 15c0 8.284-6.716 15-15 15-8.284 0-15-6.716-15-15C0 6.716 6.716 0 15 0c8.284 0 15 6.716 15 15Zm-2 0c0 7.18-5.82 13-13 13S2 22.18 2 15 7.82 2 15 2s13 5.82 13 13Z" clip-rule="evenodd"/><path fill="var(--workflow-node-bg)" fill-rule="evenodd" d="M15 28c7.18 0 13-5.82 13-13S22.18 2 15 2 2 7.82 2 15s5.82 13 13 13Zm4-17a4 4 0 1 1-8 0 4 4 0 0 1 8 0Zm-1.722 5h.522a4.2 4.2 0 0 1 4.2 4.2v1.3a1.5 1.5 0 0 1-1.5 1.5h-11A1.5 1.5 0 0 1 8 21.5v-1.3a4.2 4.2 0 0 1 4.2-4.2h.522a5.445 5.445 0 0 0 4.556 0Z" clip-rule="evenodd"/></svg><svg fill="none" viewBox="0 0 36 30" id="scABTest" xmlns="http://www.w3.org/2000/svg"><path fill="currentColor" fill-rule="evenodd" d="m5.521 10 .357-1.06h2.227L8.462 10H10L7.841 4H6.16L4 10h1.521Zm1.47-4.385.74 2.197H6.26l.73-2.197Zm1.304 17.308c.363.074.654.248.875.521.22.268.33.576.33.924 0 .5-.185.9-.554 1.196-.363.29-.872.436-1.526.436H4.5v-6h2.821c.637 0 1.134.14 1.492.419.363.279.544.658.544 1.137 0 .353-.098.646-.294.88a1.489 1.489 0 0 1-.768.487Zm-2.268-.496h1c.25 0 .44-.05.571-.154.137-.108.206-.264.206-.47 0-.205-.069-.361-.206-.47-.13-.108-.321-.162-.571-.162h-1v1.256Zm1.125 2.393c.256 0 .452-.054.59-.162.142-.114.213-.276.213-.487a.601.601 0 0 0-.223-.496c-.143-.12-.342-.18-.598-.18H6.027v1.325h1.125Z" clip-rule="evenodd"/><path fill="currentColor" fill-rule="evenodd" d="M0 7a7 7 0 0 1 13.93-1h8.305a2.24 2.24 0 0 1 .422-.586L27.414.657a2.243 2.243 0 0 1 3.172 0l4.757 4.757a2.242 2.242 0 0 1 0 3.172l-4.757 4.757a2.243 2.243 0 0 1-3.172 0l-4.757-4.757A2.24 2.24 0 0 1 22.235 8H19v11c0 1.421-.358 2.524-.989 3.344-.627.816-1.453 1.258-2.224 1.489a6.35 6.35 0 0 1-1.87.248A7.002 7.002 0 0 1 0 23a7 7 0 0 1 13.94-.919c.38.004.835-.033 1.273-.164.479-.144.903-.39 1.213-.792.307-.4.574-1.046.574-2.125V8.002h-3.071A7.002 7.002 0 0 1 0 7Zm7 5A5 5 0 1 1 7 2a5 5 0 0 1 0 10ZM2 23a5 5 0 1 0 10 0 5 5 0 0 0-10 0ZM24.071 6.828l4.757-4.757a.243.243 0 0 1 .344 0l4.757 4.757a.243.243 0 0 1 0 .344l-4.757 4.757a.243.243 0 0 1-.344 0l-4.757-4.757a.243.243 0 0 1 0-.344Z" clip-rule="evenodd"/></svg><svg fill="none" viewBox="0 0 40 30" id="scBirthday" xmlns="http://www.w3.org/2000/svg"><path fill="currentColor" fill-rule="evenodd" d="M21 7.83A3.001 3.001 0 0 0 23 5c0-.89-.433-1.401-1.066-2.148C21.39 2.208 20.694 1.388 20 0c-.684 1.368-1.368 2.143-1.91 2.758C17.445 3.49 17 3.994 17 5c0 1.306.835 2.418 2 2.83v3.55h-8V8.83A3.001 3.001 0 0 0 13 6c0-.89-.433-1.401-1.066-2.148C11.389 3.208 10.694 2.388 10 1c-.684 1.368-1.368 2.143-1.91 2.758C7.444 4.49 7 4.994 7 6c0 1.306.835 2.418 2 2.83v2.55H5a5 5 0 0 0-5 5V25a5 5 0 0 0 5 5h30a5 5 0 0 0 5-5v-8.62a5 5 0 0 0-5-5h-4V8.83A3.001 3.001 0 0 0 33 6c0-.89-.432-1.401-1.066-2.148C31.39 3.208 30.694 2.388 30 1c-.684 1.368-1.367 2.143-1.91 2.758C27.445 4.49 27 4.994 27 6c0 1.306.835 2.418 2 2.83v2.55h-8V7.83ZM21.5 5a1.5 1.5 0 0 1-3 0c0-.59.204-.834.61-1.322.231-.278.528-.634.89-1.178.354.531.646.896.874 1.182.418.522.626.783.626 1.318ZM30 7.5A1.5 1.5 0 0 0 31.5 6c0-.535-.208-.796-.625-1.318-.23-.286-.52-.65-.875-1.182-.362.544-.659.9-.89 1.178-.406.488-.61.732-.61 1.322A1.5 1.5 0 0 0 30 7.5ZM5 28h30a3 3 0 0 0 3-3v-4.953c-.964.266-2.074-.064-2.673-1.055a.382.382 0 0 0-.653 0l-.068.112c-.957 1.584-3.254 1.584-4.212 0a.46.46 0 0 0-.788 0c-.957 1.584-3.255 1.584-4.212 0a.46.46 0 0 0-.788 0c-.957 1.584-3.255 1.584-4.212 0a.46.46 0 0 0-.788 0c-.957 1.584-3.255 1.584-4.212 0a.46.46 0 0 0-.788 0c-.957 1.584-3.255 1.584-4.212 0a.46.46 0 0 0-.788 0c-.957 1.584-3.255 1.584-4.212 0l-.067-.112a.382.382 0 0 0-.653 0c-.6.991-1.71 1.32-2.674 1.055V25a3 3 0 0 0 3 3Zm32.717-10.09c.078-.162.174-.313.284-.45v-1.08a3 3 0 0 0-3-3H5a3 3 0 0 0-3.001 3v1.08c.11.137.205.288.284.45a.389.389 0 0 0 .678.048c.926-1.534 3.15-1.534 4.076 0l.068.112a.46.46 0 0 0 .788 0c.957-1.585 3.255-1.585 4.212 0a.46.46 0 0 0 .788 0c.957-1.585 3.255-1.585 4.212 0a.46.46 0 0 0 .788 0c.957-1.585 3.255-1.585 4.212 0a.46.46 0 0 0 .788 0c.958-1.585 3.255-1.585 4.212 0a.46.46 0 0 0 .788 0c.958-1.585 3.255-1.585 4.212 0a.46.46 0 0 0 .788 0l.068-.112c.926-1.534 3.15-1.534 4.077 0 .145.24.536.246.678-.048ZM10 7.5A1.5 1.5 0 0 0 11.5 6c0-.535-.209-.796-.626-1.318A15.45 15.45 0 0 1 10 3.5c-.362.544-.659.9-.89 1.178-.407.488-.61.732-.61 1.322A1.5 1.5 0 0 0 10 7.5Z" clip-rule="evenodd"/></svg><svg fill="none" viewBox="0 0 39 30" id="scDOI" xmlns="http://www.w3.org/2000/svg"><path fill="currentColor" d="m9.914 13 5.293-5.293-1.414-1.414L8.5 11.586 6.207 9.293l-1.414 1.414L7.086 13a2 2 0 0 0 2.828 0Z"/><path fill="currentColor" fill-rule="evenodd" d="M10 0a9.996 9.996 0 0 1 8.662 5h17.005A3.333 3.333 0 0 1 39 8.333V25a5 5 0 0 1-5 5H10a5 5 0 0 1-5-5v-6.338A9.996 9.996 0 0 1 0 10C0 4.477 4.477 0 10 0Zm0 18a8 8 0 1 0 0-16 8 8 0 0 0 0 16Zm0 2c2.184 0 4.204-.7 5.848-1.887l2.45 1.92a6 6 0 0 0 7.405 0L37 11.173V25a3 3 0 0 1-3 3H10a3 3 0 0 1-3-3v-5.458A9.997 9.997 0 0 0 10 20Zm9.531-1.54-2.164-1.698A9.964 9.964 0 0 0 20 10a9.98 9.98 0 0 0-.458-3h16.125C36.403 7 37 7.597 37 8.333v.298L24.469 18.46a4 4 0 0 1-4.938 0Z" clip-rule="evenodd"/></svg><svg fill="none" viewBox="0 0 38 30" id="shoppingCartAbandonersLarge" xmlns="http://www.w3.org/2000/svg"><path fill="currentColor" d="M30.323 7.043h-1.302c-.19 0-.285-.244-.15-.387l1.997-2.131a.246.246 0 0 1 .364 0l1.998 2.13c.134.144.039.388-.15.388h-1.303v3.68c0 .215-.163.388-.364.388h-.726c-.2 0-.364-.173-.364-.387V7.043Z"/><path fill="currentColor" fill-rule="evenodd" d="M.777 1.111c0 .614.502 1.111 1.122 1.111H2.1c.534 0 .994.374 1.099.893l4.124 20.436c.105.52.565.893 1.1.893H29.01a1.12 1.12 0 0 0 1.1-.893 1.114 1.114 0 0 0-1.1-1.329H9.299l-.673-3.333H30.13a1.12 1.12 0 0 0 1.1-.893l.728-3.612c3.286-.44 5.818-3.23 5.818-6.606 0-3.682-3.012-6.667-6.727-6.667-3.715 0-6.727 2.985-6.727 6.667H6.358L4.89.882A1.119 1.119 0 0 0 3.792 0H1.9C1.279 0 .777.497.777 1.111Zm16.819 15.556v-2.223H13.11v2.223h4.485Zm0-4.445V10H13.11v2.222h4.485Zm2.242 4.445v-2.223h4.485v2.223h-4.485Zm4.485-4.445h-4.485V10h4.485v2.222ZM6.832 10l.448 2.222h3.588V10H6.832Zm1.345 6.667-.448-2.223h3.14v2.223H8.176Zm18.388-2.223v2.223h2.691l.449-2.223h-3.14Zm8.97-6.666c0 2.454-2.008 4.444-4.485 4.444-2.477 0-4.485-1.99-4.485-4.444 0-2.455 2.008-4.445 4.485-4.445 2.477 0 4.485 1.99 4.485 4.445Z" clip-rule="evenodd"/><path fill="currentColor" d="M13.11 27.778A2.232 2.232 0 0 1 10.869 30a2.232 2.232 0 0 1-2.242-2.222 2.232 2.232 0 0 1 2.242-2.222c1.239 0 2.243.994 2.243 2.222Zm15.698 0A2.232 2.232 0 0 1 26.565 30a2.232 2.232 0 0 1-2.242-2.222 2.232 2.232 0 0 1 2.242-2.222c1.239 0 2.243.994 2.243 2.222Z"/></svg><svg fill="none" viewBox="0 0 38 31" id="shoppingCartAbandonersSmall" xmlns="http://www.w3.org/2000/svg"><path fill="currentColor" d="M31.777 8.59h1.302c.19 0 .285.247.15.39l-1.997 2.151a.244.244 0 0 1-.364 0l-1.998-2.15c-.134-.144-.039-.391.15-.391h1.303V4.876c0-.216.163-.391.364-.391h.726c.201 0 .364.175.364.39V8.59Z"/><path fill="currentColor" fill-rule="evenodd" d="M.777 1.121c0 .62.502 1.121 1.122 1.121H2.1c.534 0 .994.378 1.099.902l4.124 20.621c.105.524.565.902 1.1.902H29.01a1.121 1.121 0 0 0 0-2.243H9.299l-.673-3.363H30.13c.534 0 .994-.378 1.1-.902l.728-3.644A6.729 6.729 0 0 0 31.05 1.12a6.727 6.727 0 0 0-6.727 6.727H6.358L4.89.89A1.121 1.121 0 0 0 3.792 0H1.9C1.279 0 .777.502.777 1.121Zm16.819 15.697v-2.242H13.11v2.242h4.485Zm0-4.485v-2.242H13.11v2.242h4.485Zm2.242 4.485v-2.242h4.485v2.242h-4.485Zm4.485-4.485h-4.485v-2.242h4.485v2.242ZM6.832 10.091l.448 2.242h3.588v-2.242H6.832Zm1.345 6.727-.448-2.242h3.14v2.242H8.176Zm18.388-2.242v2.242h2.691l.449-2.242h-3.14Zm8.97-6.728a4.485 4.485 0 1 1-8.97 0 4.485 4.485 0 0 1 8.97 0Z" clip-rule="evenodd"/><path fill="currentColor" d="M13.11 28.03a2.242 2.242 0 1 1-4.484 0 2.242 2.242 0 0 1 4.485 0Zm15.698 0a2.242 2.242 0 1 1-4.485 0 2.242 2.242 0 0 1 4.485 0Z"/></svg><svg fill="none" viewBox="0 0 41 30" id="split" xmlns="http://www.w3.org/2000/svg"><path fill="currentColor" fill-rule="evenodd" d="M.773 2.924C.773 1.306 2.108 0 3.746 0h21.26c1.637 0 2.972 1.306 2.972 2.924v5.389l3.968-2.963a1.057 1.057 0 0 1 1.474.21c.35.462.255 1.119-.21 1.466l-3.703 2.765h8.294c1.638 0 2.972 1.306 2.972 2.924v13.708c0 1.98-1.632 3.577-3.636 3.577H17.206c-2.005 0-3.637-1.598-3.637-3.577V21.69l-3.975 2.967a1.057 1.057 0 0 1-1.474-.209 1.044 1.044 0 0 1 .21-1.467l3.714-2.773H4.41c-2.005 0-3.637-1.598-3.637-3.577V2.924Zm2.973-.992c-.564 0-1.014.448-1.014.992v.057l10.179 8a2.378 2.378 0 0 0 2.93 0l10.178-8v-.057c0-.544-.45-.992-1.014-.992H3.745Zm-1.014 3.52v11.18c0 .905.748 1.645 1.678 1.645h10.222L26.02 9.775V5.452l-8.958 7.04a4.358 4.358 0 0 1-5.37 0l-8.959-7.04Zm24.187 6.271-6.526 4.873 5.313 4.177a2.378 2.378 0 0 0 2.93 0l10.179-8.001v-.057c0-.544-.45-.992-1.014-.992H26.92Zm11.896 3.52-8.958 7.04a4.358 4.358 0 0 1-5.371 0L18.78 17.8l-3.253 2.43v6.194c0 .905.747 1.645 1.678 1.645h19.93c.931 0 1.679-.74 1.679-1.645v-11.18Z" clip-rule="evenodd"/></svg><svg fill="none" viewBox="0 0 40 30" id="start" xmlns="http://www.w3.org/2000/svg"><path fill="var(--workflow-node-bg)" d="M35 2H5a3 3 0 0 0-3 3v20a3 3 0 0 0 3 3h30a3 3 0 0 0 3-3V5a3 3 0 0 0-3-3ZM5 0a5 5 0 0 0-5 5v20a5 5 0 0 0 5 5h30a5 5 0 0 0 5-5V5a5 5 0 0 0-5-5H5Z" clip-rule="evenodd"/><path fill="currentColor" fill-rule="evenodd" d="M35 2H5a3 3 0 0 0-3 3v20a3 3 0 0 0 3 3h30a3 3 0 0 0 3-3V5a3 3 0 0 0-3-3ZM5 0a5 5 0 0 0-5 5v20a5 5 0 0 0 5 5h30a5 5 0 0 0 5-5V5a5 5 0 0 0-5-5H5Z" clip-rule="evenodd"/><path fill="currentColor" d="M7.17 20.1c-.643 0-1.222-.113-1.735-.337-.504-.233-.9-.55-1.19-.952a2.472 2.472 0 0 1-.448-1.414h1.358c.047.458.233.845.56 1.162.336.308.821.462 1.456.462.607 0 1.083-.15 1.428-.448.355-.308.532-.7.532-1.176 0-.373-.103-.676-.308-.91a1.968 1.968 0 0 0-.77-.532 12.04 12.04 0 0 0-1.246-.392c-.644-.168-1.162-.336-1.554-.504a2.58 2.58 0 0 1-.994-.784c-.27-.364-.406-.85-.406-1.456 0-.532.135-1.003.406-1.414.27-.41.649-.728 1.134-.952.495-.224 1.06-.336 1.694-.336.915 0 1.661.229 2.24.686.588.457.92 1.064.994 1.82h-1.4c-.047-.373-.243-.7-.588-.98-.345-.29-.803-.434-1.372-.434-.532 0-.966.14-1.302.42-.336.27-.504.654-.504 1.148 0 .355.098.644.294.868.205.224.453.397.742.518.299.112.714.243 1.246.392.644.178 1.162.355 1.554.532a2.51 2.51 0 0 1 1.008.798c.28.355.42.84.42 1.456 0 .476-.126.924-.378 1.344-.252.42-.625.76-1.12 1.022-.495.261-1.078.392-1.75.392Zm6.678-6.72v4.52c0 .373.079.64.238.798.158.15.434.224.826.224h.938V20h-1.148c-.71 0-1.242-.163-1.596-.49-.355-.326-.532-.863-.532-1.61v-4.52h-.994v-1.05h.994v-1.932h1.274v1.932h2.002v1.05h-2.002Zm3.069 2.757c0-.784.159-1.47.476-2.058a3.458 3.458 0 0 1 1.302-1.386c.56-.326 1.18-.49 1.862-.49.672 0 1.256.145 1.75.434.495.29.864.653 1.106 1.092v-1.4h1.288v7.672h-1.288v-1.428c-.252.448-.63.822-1.134 1.12-.494.29-1.073.434-1.736.434a3.477 3.477 0 0 1-1.848-.504 3.534 3.534 0 0 1-1.302-1.414c-.317-.607-.476-1.297-.476-2.072Zm6.496.014c0-.579-.116-1.082-.35-1.512a2.41 2.41 0 0 0-.952-.98 2.498 2.498 0 0 0-1.302-.35c-.476 0-.91.112-1.302.336-.392.224-.704.55-.938.98-.233.43-.35.934-.35 1.512 0 .588.117 1.101.35 1.54.234.43.546.76.938.994.392.224.826.336 1.302.336.476 0 .91-.112 1.302-.336.402-.233.719-.564.952-.994.234-.439.35-.947.35-1.526Zm4.715-2.576c.224-.438.542-.78.952-1.022.42-.243.929-.364 1.526-.364v1.316h-.336c-1.428 0-2.142.775-2.142 2.324v4.172h-1.274V12.33h1.274v1.246Zm5.502-.195v4.52c0 .373.08.64.239.798.159.15.434.224.826.224h.938V20h-1.148c-.71 0-1.242-.163-1.596-.49-.355-.326-.532-.863-.532-1.61v-4.52h-.994v-1.05h.994v-1.932h1.274v1.932h2.002v1.05H33.63Z"/></svg><svg fill="none" viewBox="0 0 40 30" id="start-stop" xmlns="http://www.w3.org/2000/svg"><path fill="currentColor" fill-rule="evenodd" d="M35 2H5a3 3 0 0 0-3 3v20a3 3 0 0 0 3 3h30a3 3 0 0 0 3-3V5a3 3 0 0 0-3-3ZM5 0a5 5 0 0 0-5 5v20a5 5 0 0 0 5 5h30a5 5 0 0 0 5-5V5a5 5 0 0 0-5-5H5Z" clip-rule="evenodd"/><path fill="var(--workflow-node-bg)" d="M5 2h30a3 3 0 0 1 3 3v20a3 3 0 0 1-3 3H5a3 3 0 0 1-3-3V5a3 3 0 0 1 3-3Z"/></svg><svg fill="none" viewBox="0 0 40 30" id="stop" xmlns="http://www.w3.org/2000/svg"><path fill="var(--workflow-node-bg)" d="M35 2H5a3 3 0 0 0-3 3v20a3 3 0 0 0 3 3h30a3 3 0 0 0 3-3V5a3 3 0 0 0-3-3ZM5 0a5 5 0 0 0-5 5v20a5 5 0 0 0 5 5h30a5 5 0 0 0 5-5V5a5 5 0 0 0-5-5H5Z" clip-rule="evenodd"/><path fill="currentColor" fill-rule="evenodd" d="M35 2H5a3 3 0 0 0-3 3v20a3 3 0 0 0 3 3h30a3 3 0 0 0 3-3V5a3 3 0 0 0-3-3ZM5 0a5 5 0 0 0-5 5v20a5 5 0 0 0 5 5h30a5 5 0 0 0 5-5V5a5 5 0 0 0-5-5H5Z" clip-rule="evenodd"/><path fill="currentColor" d="M8.173 20.098c-.644 0-1.223-.112-1.736-.336-.504-.233-.9-.55-1.19-.952a2.472 2.472 0 0 1-.448-1.414h1.358c.046.457.233.845.56 1.162.336.308.821.462 1.456.462.607 0 1.082-.15 1.428-.448.354-.308.532-.7.532-1.176 0-.373-.103-.677-.308-.91a1.968 1.968 0 0 0-.77-.532 12.04 12.04 0 0 0-1.246-.392c-.644-.168-1.162-.336-1.554-.504a2.58 2.58 0 0 1-.994-.784c-.27-.364-.406-.85-.406-1.456 0-.532.135-1.003.406-1.414.27-.41.648-.728 1.134-.952.494-.224 1.06-.336 1.694-.336.914 0 1.661.229 2.24.686.588.457.92 1.064.994 1.82h-1.4c-.047-.373-.243-.7-.588-.98-.346-.29-.803-.434-1.372-.434-.532 0-.966.14-1.302.42-.336.27-.504.653-.504 1.148 0 .355.098.644.294.868.205.224.452.397.742.518.298.112.714.243 1.246.392.644.178 1.162.355 1.554.532a2.51 2.51 0 0 1 1.008.798c.28.355.42.84.42 1.456 0 .476-.126.924-.378 1.344-.252.42-.625.76-1.12 1.022-.495.262-1.078.392-1.75.392Zm6.677-6.72V17.9c0 .373.079.64.238.798.158.15.434.224.826.224h.938V20h-1.148c-.71 0-1.242-.163-1.596-.49-.355-.327-.532-.863-.532-1.61v-4.522h-.994v-1.05h.994v-1.932h1.274v1.932h2.002v1.05H14.85Zm6.891 6.748a3.967 3.967 0 0 1-1.96-.49 3.562 3.562 0 0 1-1.372-1.386c-.326-.607-.49-1.306-.49-2.1 0-.784.168-1.474.504-2.072a3.508 3.508 0 0 1 1.4-1.386 3.995 3.995 0 0 1 1.974-.49c.728 0 1.386.164 1.974.49a3.44 3.44 0 0 1 1.386 1.372c.346.598.518 1.293.518 2.086 0 .794-.177 1.494-.532 2.1a3.604 3.604 0 0 1-1.414 1.386 4.07 4.07 0 0 1-1.988.49Zm0-1.12a2.69 2.69 0 0 0 1.288-.322c.402-.215.724-.537.966-.966.252-.43.378-.952.378-1.568 0-.616-.121-1.138-.364-1.568a2.326 2.326 0 0 0-.952-.952 2.61 2.61 0 0 0-1.274-.322c-.466 0-.896.107-1.288.322-.382.205-.69.523-.924.952-.233.43-.35.952-.35 1.568 0 .626.112 1.153.336 1.582.234.43.542.752.924.966.383.206.803.308 1.26.308Zm6.883-5.264c.252-.439.626-.803 1.12-1.092.504-.299 1.088-.448 1.75-.448.682 0 1.298.164 1.848.49.56.327.999.789 1.316 1.386.318.588.476 1.274.476 2.058 0 .775-.158 1.466-.476 2.072a3.502 3.502 0 0 1-3.164 1.918c-.653 0-1.232-.145-1.736-.434-.494-.299-.872-.667-1.134-1.106v5.054H27.35V12.328h1.274v1.414Zm5.208 2.394c0-.579-.116-1.082-.35-1.512a2.41 2.41 0 0 0-.952-.98 2.578 2.578 0 0 0-1.302-.336c-.466 0-.9.117-1.302.35a2.51 2.51 0 0 0-.952.994c-.233.43-.35.929-.35 1.498 0 .579.117 1.088.35 1.526.243.43.56.76.952.994.402.224.836.336 1.302.336.476 0 .91-.112 1.302-.336.402-.233.719-.565.952-.994.234-.438.35-.952.35-1.54Z"/></svg><svg fill="none" viewBox="0 0 30 30" id="welcomeTrack" xmlns="http://www.w3.org/2000/svg"><path fill="currentColor" d="M11.667 13.333a6.666 6.666 0 0 0 6.666-6.666A6.666 6.666 0 0 0 11.667 0 6.666 6.666 0 0 0 5 6.667a6.666 6.666 0 0 0 6.667 6.666Z"/><path fill="currentColor" fill-rule="evenodd" d="M16.333 15h-.87a9.077 9.077 0 0 1-3.796.833A9.095 9.095 0 0 1 7.87 15H7c-3.865 0-7 3.135-7 7v2.167a2.5 2.5 0 0 0 2.5 2.5H12v1.11c0 1.227.995 2.222 2.222 2.222h13.334a2.222 2.222 0 0 0 2.222-2.222v-9.333c0-.982-.796-1.778-1.778-1.778h-7.134A6.972 6.972 0 0 0 16.332 15Zm11.61 3.39H13.835l5.667 4.631a2.22 2.22 0 0 0 2.776 0l5.667-4.631Zm-14.22 2.217v7.673h14.333v-7.673l-4.39 3.65a4.445 4.445 0 0 1-5.553 0c-1.624-1.299-4.39-3.65-4.39-3.65Z" clip-rule="evenodd"/></svg><svg fill="none" viewBox="0 0 30 30" id="welcomeTrackWithIncentive" xmlns="http://www.w3.org/2000/svg"><path fill="currentColor" d="M17.392 6.06c0 3.348-2.705 6.061-6.042 6.061-3.337 0-6.041-2.713-6.041-6.06C5.309 2.713 8.013 0 11.35 0s6.042 2.713 6.042 6.06Z"/><path fill="currentColor" fill-rule="evenodd" d="M14.791 13.636h.788c1.567 0 3 .57 4.108 1.515h6.465c.89 0 1.611.723 1.611 1.616v7.526l-1.56-1.096v-4.463l-3.979 3.317a4.018 4.018 0 0 1-5.032 0c-1.471-1.18-3.979-3.317-3.979-3.317v6.975H24.34v1.563H13.666a2.017 2.017 0 0 1-2.014-2.02v-1.01H3.043A2.27 2.27 0 0 1 .777 21.97V20c0-3.513 2.842-6.364 6.344-6.364h.788a8.22 8.22 0 0 0 3.441.758 8.205 8.205 0 0 0 3.441-.758Zm-1.476 3.082H26.1l-5.135 4.21a2.01 2.01 0 0 1-2.516 0l-5.135-4.21Z" clip-rule="evenodd"/><path fill="currentColor" d="M25.246 29.09v-5.454l4.531 3.182-1.812.91.906 1.817-.906.455-.906-1.818-1.813.909Z"/></svg></defs></svg>