<?xml version="1.0" encoding="iso-8859-1"?>
<!-- Generator: Adobe Illustrator 19.1.0, SVG Export Plug-In . SVG Version: 6.00 Build 0)  -->
<svg version="1.1" id="Ebene_1" xmlns="http://www.w3.org/2000/svg" xmlns:xlink="http://www.w3.org/1999/xlink" x="0px" y="0px"
	 viewBox="0 0 45 45" style="enable-background:new 0 0 45 45;" xml:space="preserve">
<path style="fill:#387C00;" d="M22.5,0C10.074,0,0,10.074,0,22.5c0,7.954,4.131,14.938,10.36,18.939
	c-0.087-1.666,0.266-3.656,2.081-4.87c2.311-1.547,4.807,0.216,6.818,1.635c0.992,0.701,2.112,1.496,2.731,1.496
	c0.499-0.385,0.526-3.36,0.056-6.216c-0.856-0.087-1.692-0.294-2.465-0.624c-1.05-0.448-2.007-1.07-2.785-1.866
	c-0.796-0.778-1.503-1.692-1.952-2.742S14,26.077,14,24.875V21h18v3.875c0,1.202-0.396,2.327-0.844,3.377s-1.241,1.964-2.037,2.742
	c-0.778,0.796-1.692,1.418-2.742,1.866c-0.725,0.31-1.489,0.505-2.287,0.601c0.299,1.927,0.731,5.964-0.568,7.515
	C23.126,41.45,22.6,41.7,22,41.7c-1.254,0-2.535-0.904-3.891-1.862c-1.98-1.399-3.466-2.339-4.553-1.606
	c-1.5,1.004-1.294,3.177-1.015,4.445C15.544,44.162,18.923,45,22.5,45C34.926,45,45,34.926,45,22.5C45,10.074,34.926,0,22.5,0z
	 M15.778,13.636l2.477-2.477c0.223-0.147,0.431-0.31,0.67-0.439c0.224-0.121,0.452-0.229,0.684-0.328L15.1,14.9
	C15.297,14.458,15.52,14.034,15.778,13.636z M21.908,18.092l-0.283,0.283h-0.586l0.869-0.869V18.092z M22,16.092L19.625,18h-0.586
	L22,15.506V16.092z M22,14.092L17.625,18h-0.586L22,13.506V14.092z M22,12.092L15.625,18h-0.586L22,11.506V12.092z M22,10.092
	l-7.567,7.533c0.019-0.227,0.016-0.451,0.053-0.673l7.127-7.104C21.727,9.83,22,9.806,22,9.793V10.092z M24,18V9.793
	c1,0.119,2.106,0.381,3.029,0.88c0.923,0.5,1.769,1.083,2.445,1.845c0.677,0.779,1.21,1.565,1.6,2.547
	C31.463,16.046,31.658,17,31.658,18H24z"/>
</svg>
