<?xml version="1.0" encoding="iso-8859-1"?>
<!-- Generator: Adobe Illustrator 19.1.0, SVG Export Plug-In . SVG Version: 6.00 Build 0)  -->
<svg version="1.1" id="Ebene_1" xmlns="http://www.w3.org/2000/svg" xmlns:xlink="http://www.w3.org/1999/xlink" x="0px" y="0px"
	 viewBox="0 0 45 45" style="enable-background:new 0 0 45 45;" xml:space="preserve">
<g>
	<g>
		<rect x="29" y="21" style="fill:#387C00;" width="4" height="7"/>
	</g>
	<g>
		<path style="fill:#387C00;" d="M22.5,0C10.074,0,0,10.074,0,22.5S10.074,45,22.5,45S45,34.926,45,22.5S34.926,0,22.5,0z
			 M24.739,30.797H10.938v-2.959h1.965V16.997c0-0.277,0.054-0.535,0.162-0.774c0.107-0.239,0.246-0.443,0.416-0.612
			c0.185-0.185,0.396-0.328,0.636-0.428c0.238-0.1,0.497-0.15,0.774-0.15h17.753v1.965H14.892v10.841h9.848V30.797z M34.609,29.826
			c0,0.124-0.027,0.247-0.081,0.37s-0.127,0.23-0.22,0.323c-0.077,0.093-0.177,0.162-0.3,0.208
			c-0.124,0.047-0.255,0.069-0.394,0.069h-5.918c-0.123,0-0.246-0.022-0.369-0.069c-0.124-0.046-0.231-0.115-0.324-0.208
			c-0.092-0.093-0.161-0.2-0.208-0.323c-0.046-0.123-0.069-0.246-0.069-0.37v-9.871c0-0.139,0.023-0.266,0.069-0.381
			c0.047-0.116,0.116-0.22,0.208-0.312c0.093-0.093,0.2-0.166,0.324-0.22c0.123-0.054,0.246-0.081,0.369-0.081h5.918
			c0.139,0,0.27,0.027,0.394,0.081c0.123,0.054,0.223,0.127,0.3,0.22c0.093,0.092,0.166,0.196,0.22,0.312s0.081,0.243,0.081,0.381
			V29.826z"/>
	</g>
</g>
</svg>
