<?xml version="1.0" encoding="iso-8859-1"?>
<!-- Generator: Adobe Illustrator 19.1.0, SVG Export Plug-In . SVG Version: 6.00 Build 0)  -->
<svg version="1.1" id="Ebene_1" xmlns="http://www.w3.org/2000/svg" xmlns:xlink="http://www.w3.org/1999/xlink" x="0px" y="0px"
	 viewBox="0 0 45 45" style="enable-background:new 0 0 45 45;" xml:space="preserve">
<path style="fill:#FA6861;" d="M41,31v-2h3v0.15c0.649-2.102,1-4.335,1-6.65C45,10.074,34.926,0,22.5,0S0,10.074,0,22.5
	c0,2.315,0.351,4.548,1,6.65V29h3v2H1.666C5.02,39.211,13.082,45,22.5,45s17.48-5.789,20.834-14H41z M9,31H6v-2h3V31z M14,31h-3v-2
	h3V31z M19,31h-3v-2h3V31z M29,31h-3v-2h3V31z M34,31h-3v-2h3V31z M22.5,29H24v2h-3v-2H22.5L14,20.046V26h-3V16h10v2h-5.628
	l7.128,7.252l9.703-9.611L34,17.469L22.5,29z M39,31h-3v-2h3V31z"/>
</svg>
