<?xml version="1.0" encoding="iso-8859-1"?>
<!-- Generator: Adobe Illustrator 19.1.0, SVG Export Plug-In . SVG Version: 6.00 Build 0)  -->
<svg version="1.1" id="Ebene_1" xmlns="http://www.w3.org/2000/svg" xmlns:xlink="http://www.w3.org/1999/xlink" x="0px" y="0px"
	 viewBox="0 0 45 45" style="enable-background:new 0 0 45 45;" xml:space="preserve">
<g>
	<g>
		<polygon style="fill:#FA6861;" points="15,16.997 15,18.962 23,23.908 31,18.962 31,16.997 23,21.921 		"/>
	</g>
	<g>
		<path style="fill:#FA6861;" d="M22.5,0C10.074,0,0,10.074,0,22.5C0,34.926,10.074,45,22.5,45C34.926,45,45,34.926,45,22.5
			C45,10.074,34.926,0,22.5,0z M32.645,28.832c0,0.277-0.054,0.536-0.162,0.774c-0.107,0.239-0.246,0.443-0.416,0.612
			c-0.185,0.186-0.396,0.328-0.636,0.428c-0.238,0.101-0.497,0.15-0.774,0.15H14.892c-0.277,0-0.536-0.05-0.774-0.15
			c-0.239-0.1-0.451-0.242-0.636-0.428c-0.17-0.169-0.309-0.373-0.416-0.612c-0.108-0.238-0.162-0.497-0.162-0.774l0.023-11.835
			c0-0.277,0.05-0.535,0.15-0.774c0.1-0.239,0.242-0.443,0.427-0.612c0.17-0.186,0.374-0.328,0.613-0.428
			c0.238-0.101,0.497-0.15,0.774-0.15h15.765c0.277,0,0.536,0.05,0.774,0.15c0.239,0.1,0.451,0.242,0.636,0.428
			c0.17,0.169,0.309,0.373,0.416,0.612c0.108,0.239,0.162,0.497,0.162,0.774V28.832z"/>
	</g>
</g>
</svg>
