<?xml version="1.0" encoding="iso-8859-1"?>
<!-- Generator: Adobe Illustrator 19.1.0, SVG Export Plug-In . SVG Version: 6.00 Build 0)  -->
<svg version="1.1" id="Ebene_1" xmlns="http://www.w3.org/2000/svg" xmlns:xlink="http://www.w3.org/1999/xlink" x="0px" y="0px"
	 viewBox="0 0 45 45" style="enable-background:new 0 0 45 45;" xml:space="preserve">
<g>
	<path style="fill:#FA6861;" d="M22.5,0C10.074,0,0,10.074,0,22.5S10.074,45,22.5,45S45,34.926,45,22.5S34.926,0,22.5,0z
		 M18.246,15.812c0.239-0.561,0.561-1.045,0.967-1.451c0.43-0.43,0.919-0.764,1.469-1.003C21.231,13.119,21.828,13,22.472,13
		c0.621,0,1.212,0.119,1.773,0.358c0.561,0.239,1.045,0.573,1.451,1.003c0.064,0.065,0.113,0.143,0.173,0.212L19.2,20.828
		c-0.399-0.426-0.718-0.91-0.955-1.453c-0.239-0.549-0.358-1.146-0.358-1.791C17.888,16.964,18.007,16.373,18.246,15.812z M32,33
		H17.696l7.763-7.342c0.953,0.19,1.871,0.388,2.744,0.738c0.955,0.382,1.946,0.86,2.615,1.433C31.487,28.402,32,29.07,32,29.835V33z
		 M13.404,33.498l-2.04-1.913l19.232-18.039l2.04,1.913L13.404,33.498z"/>
</g>
</svg>
