<?xml version="1.0" encoding="iso-8859-1"?>
<!-- Generator: Adobe Illustrator 19.1.0, SVG Export Plug-In . SVG Version: 6.00 Build 0)  -->
<svg version="1.1" id="Ebene_1" xmlns="http://www.w3.org/2000/svg" xmlns:xlink="http://www.w3.org/1999/xlink" x="0px" y="0px"
	 viewBox="0 0 45 45" style="enable-background:new 0 0 45 45;" xml:space="preserve">
<path style="fill:#FA6861;" d="M22.5,0C10.074,0,0,10.074,0,22.5S10.074,45,22.5,45C34.926,45,45,34.926,45,22.5S34.926,0,22.5,0z
	 M15.978,16.263c0.192-0.452,0.452-0.841,0.778-1.168c0.346-0.346,0.74-0.615,1.182-0.807C18.381,14.096,18.861,14,19.38,14
	c0.5,0,0.975,0.096,1.427,0.288c0.452,0.192,0.841,0.461,1.168,0.807c0.327,0.327,0.586,0.716,0.778,1.168s0.288,0.927,0.288,1.427
	c0,0.519-0.096,0.999-0.288,1.441s-0.452,0.836-0.778,1.182c-0.327,0.327-0.716,0.586-1.168,0.778
	c-0.452,0.192-0.927,0.288-1.427,0.288c-0.519,0-0.999-0.096-1.441-0.288c-0.442-0.192-0.836-0.452-1.182-0.778
	c-0.327-0.346-0.586-0.74-0.778-1.182s-0.288-0.923-0.288-1.441C15.69,17.19,15.786,16.715,15.978,16.263z M27,30H12v-2.45
	c0-0.615,0.269-1.153,0.807-1.614c0.538-0.461,1.192-0.846,1.96-1.153c0.769-0.307,1.576-0.538,2.422-0.692s1.576-0.231,2.191-0.231
	c0.615,0,1.345,0.077,2.191,0.231s1.653,0.384,2.422,0.692c0.769,0.307,1.542,0.692,2.08,1.153C26.611,26.396,27,26.935,27,27.55V30
	z M25.521,21c-0.096,0-0.192,0-0.288,0c-0.096,0-0.192,0.18-0.288,0.161c-0.096-0.019-0.187,0.057-0.274,0.037
	s-0.178-0.001-0.274-0.039c0.173-0.25,0.327-0.486,0.461-0.755s0.25-0.545,0.346-0.853c0.096-0.288,0.173-0.585,0.231-0.902
	c0.058-0.317,0.086-0.636,0.086-0.963c0-0.327-0.029-0.642-0.086-0.95c-0.058-0.307-0.135-0.614-0.231-0.922
	c-0.096-0.288-0.211-0.571-0.346-0.85s-0.288-0.533-0.461-0.764c0.096-0.038,0.187-0.067,0.274-0.086s0.178-0.038,0.274-0.058
	c0.096-0.019,0.192-0.034,0.288-0.043C25.329,14.005,25.425,14,25.521,14c0.5,0,0.975,0.096,1.427,0.288s0.841,0.461,1.168,0.807
	c0.346,0.327,0.615,0.716,0.807,1.168s0.288,0.927,0.288,1.427c0,0.519-0.096,0.999-0.288,1.441s-0.461,0.836-0.807,1.182
	c-0.327,0.327-0.716,0.396-1.168,0.588C26.496,21.094,26.02,21,25.521,21z M33,30h-4v-2.45c0-0.365,0.067-0.711-0.01-1.038
	c-0.077-0.327-0.139-0.634-0.293-0.923c-0.154-0.288-0.31-0.562-0.521-0.822c-0.211-0.259-0.429-0.505-0.679-0.735
	c0.615,0.115,1.251,0.274,1.895,0.476c0.644,0.202,1.229,0.447,1.747,0.735c0.519,0.288,0.993,0.625,1.32,1.009S33,27.069,33,27.55
	V30z"/>
</svg>
