<?xml version="1.0" encoding="iso-8859-1"?>
<!-- Generator: Adobe Illustrator 19.1.0, SVG Export Plug-In . SVG Version: 6.00 Build 0)  -->
<svg version="1.1" id="Ebene_1" xmlns="http://www.w3.org/2000/svg" xmlns:xlink="http://www.w3.org/1999/xlink" x="0px" y="0px"
	 viewBox="0 0 45 45" style="enable-background:new 0 0 45 45;" xml:space="preserve">
<g>
	<path style="fill:#387C00;" d="M22.5,0C10.074,0,0,10.074,0,22.5S10.074,45,22.5,45S45,34.926,45,22.5S34.926,0,22.5,0z
		 M19.665,31.571c-0.101,0.239-0.243,0.451-0.428,0.636c-0.185,0.17-0.397,0.309-0.636,0.416c-0.239,0.108-0.489,0.162-0.751,0.162
		c-0.277,0-0.536-0.054-0.774-0.162c-0.239-0.107-0.443-0.246-0.613-0.416c-0.185-0.185-0.327-0.396-0.428-0.636
		c-0.1-0.238-0.149-0.497-0.149-0.774c0-0.262,0.05-0.512,0.149-0.751c0.101-0.239,0.243-0.451,0.428-0.636
		c0.17-0.185,0.374-0.327,0.613-0.428c0.238-0.1,0.497-0.15,0.774-0.15c0.262,0,0.512,0.051,0.751,0.15
		c0.238,0.101,0.451,0.243,0.636,0.428s0.327,0.396,0.428,0.636c0.1,0.239,0.15,0.489,0.15,0.751
		C19.815,31.074,19.765,31.333,19.665,31.571z M29.524,31.571c-0.108,0.239-0.247,0.451-0.417,0.636
		c-0.185,0.17-0.396,0.309-0.636,0.416c-0.238,0.108-0.496,0.162-0.774,0.162c-0.262,0-0.512-0.054-0.751-0.162
		c-0.239-0.107-0.45-0.246-0.636-0.416c-0.17-0.185-0.309-0.396-0.416-0.636c-0.107-0.238-0.162-0.497-0.162-0.774
		c0-0.262,0.055-0.512,0.162-0.751s0.246-0.451,0.416-0.636c0.186-0.185,0.396-0.327,0.636-0.428c0.239-0.1,0.489-0.15,0.751-0.15
		c0.278,0,0.536,0.051,0.774,0.15c0.239,0.101,0.451,0.243,0.636,0.428c0.17,0.185,0.309,0.396,0.417,0.636
		c0.107,0.239,0.161,0.489,0.161,0.751C29.686,31.074,29.632,31.333,29.524,31.571z M31.616,16.257
		c-0.023,0.078-0.051,0.154-0.081,0.231l-3.537,6.403c-0.077,0.154-0.177,0.292-0.301,0.417c-0.123,0.123-0.262,0.23-0.416,0.323
		c-0.139,0.077-0.297,0.143-0.474,0.196c-0.177,0.055-0.358,0.081-0.543,0.081h-7.328l-0.901,1.596c0,0.015-0.004,0.034-0.012,0.058
		c-0.008,0.022-0.012,0.042-0.012,0.058c0,0.077,0.023,0.139,0.069,0.185c0.047,0.047,0.108,0.069,0.186,0.069h11.419v1.965H17.851
		c-0.277,0-0.536-0.05-0.774-0.15c-0.239-0.1-0.451-0.242-0.636-0.427c-0.17-0.17-0.309-0.374-0.416-0.613
		c-0.108-0.238-0.162-0.497-0.162-0.774c0-0.092,0.008-0.177,0.023-0.254c0.015-0.077,0.03-0.162,0.046-0.254
		c0.015-0.077,0.038-0.154,0.069-0.231c0.03-0.077,0.069-0.146,0.115-0.208l1.318-2.427l-3.537-7.467h-1.965v-1.988h3.213
		l0.948,1.988h14.562c0.139,0,0.27,0.023,0.394,0.069c0.123,0.046,0.223,0.116,0.301,0.208c0.092,0.093,0.165,0.197,0.219,0.312
		c0.055,0.116,0.081,0.243,0.081,0.381C31.65,16.095,31.639,16.18,31.616,16.257z"/>
</g>
</svg>
