<?xml version="1.0" encoding="iso-8859-1"?>
<!-- Generator: Adobe Illustrator 19.1.0, SVG Export Plug-In . SVG Version: 6.00 Build 0)  -->
<svg version="1.1" id="Ebene_1" xmlns="http://www.w3.org/2000/svg" xmlns:xlink="http://www.w3.org/1999/xlink" x="0px" y="0px"
	 viewBox="0 0 45 45" style="enable-background:new 0 0 45 45;" xml:space="preserve">
<path style="fill:#387C00;" d="M22.5,0C10.074,0,0,10.074,0,22.5S10.074,45,22.5,45C34.926,45,45,34.926,45,22.5S34.926,0,22.5,0z
	 M13,22h10.755l-2.891-2.924l1.589-1.592L28,23.015l-5.547,5.539l-1.589-1.626L23.755,24H13V22z M33,30.786
	c0,0.295-0.056,0.577-0.169,0.846s-0.273,0.508-0.482,0.716c-0.208,0.208-0.447,0.369-0.716,0.482S31.082,33,30.786,33H15.214
	c-0.295,0-0.577-0.056-0.846-0.169s-0.508-0.273-0.716-0.482c-0.208-0.208-0.369-0.447-0.482-0.716
	C13.056,31.364,13,31.082,13,30.786V26h2v5h16V15H15v5h-2v-4.786c0-0.295,0.056-0.577,0.169-0.846
	c0.113-0.269,0.273-0.508,0.482-0.716c0.208-0.208,0.447-0.369,0.716-0.482S14.918,13,15.214,13h15.573
	c0.295,0,0.577,0.056,0.846,0.169s0.508,0.273,0.716,0.482c0.208,0.208,0.369,0.447,0.482,0.716S33,14.918,33,15.214V30.786z"/>
</svg>
