<svg xmlns="http://www.w3.org/2000/svg" width="30" height="30" fill="none" viewBox="0 0 30 30">
  <path fill="red" fill-rule="evenodd" d="M24.053 3.103a1.552 1.552 0 1 0 0-3.103 1.552 1.552 0 0 0 0 3.103ZM14.768.48a.517.517 0 0 1 .984 0l.553 1.702c.07.213.268.358.492.358h1.79c.502 0 .71.64.305.935l-1.449 1.053a.517.517 0 0 0-.188.578l.553 1.703a.517.517 0 0 1-.796.578l-1.448-1.052a.517.517 0 0 0-.608 0l-1.448 1.052a.517.517 0 0 1-.796-.578l.553-1.703a.517.517 0 0 0-.188-.578L11.63 3.475a.517.517 0 0 1 .304-.935h1.79a.517.517 0 0 0 .492-.358L14.768.48ZM7.476 11.936a.517.517 0 0 1-.984 0l-.553-1.702a.517.517 0 0 0-.492-.358h-1.79a.517.517 0 0 1-.304-.935L4.8 7.888a.517.517 0 0 0 .188-.578l-.553-1.703a.517.517 0 0 1 .796-.578L6.68 6.081a.517.517 0 0 0 .608 0L8.737 5.03a.517.517 0 0 1 .796.578L8.979 7.31a.517.517 0 0 0 .188.578l1.449 1.053a.517.517 0 0 1-.304.935h-1.79a.517.517 0 0 0-.493.358l-.553 1.702Zm15.568 0c.155.477.83.477.984 0l.553-1.702a.517.517 0 0 1 .492-.358h1.79c.501 0 .71-.64.304-.935L25.72 7.888a.517.517 0 0 1-.188-.578l.553-1.703a.517.517 0 0 0-.796-.578L23.84 6.081a.517.517 0 0 1-.608 0L21.784 5.03a.517.517 0 0 0-.796.578l.553 1.703a.517.517 0 0 1-.188.578l-1.448 1.053a.517.517 0 0 0 .304.935h1.79c.224 0 .423.145.492.358l.553 1.702Zm-7.784-3.66c.571 0 1.035.463 1.035 1.034v12.77a2.1 2.1 0 0 0 .325-.191l1.743-1.331V15.34c0-.597.13-1.188.38-1.73l.75-1.63a1.034 1.034 0 1 1 1.88.865l-.75 1.63a2.05 2.05 0 0 0-.19.865v3.636l2.308-1.763a1.034 1.034 0 1 1 1.643-1.255l1.055-.804v-1.707l2.235 1.087v13.023c0 1.349-1.283 2.442-2.865 2.442H5.711c-1.582 0-2.865-1.093-2.865-2.442V14.535l2.235-1.087v1.707l1.055.805a1.033 1.033 0 1 1 1.643 1.254l2.309 1.763v-3.636a2.07 2.07 0 0 0-.19-.865l-.75-1.63a1.035 1.035 0 0 1 1.88-.865l.75 1.63c.25.542.379 1.133.379 1.73v5.216l1.743 1.33a2.1 2.1 0 0 0 .326.192V9.31c0-.571.463-1.034 1.034-1.034Zm13.448 5.172a1.035 1.035 0 1 0 0-2.069 1.035 1.035 0 0 0 0 2.07ZM2.846 12.414a1.035 1.035 0 1 1-2.069 0 1.035 1.035 0 0 1 2.07 0ZM8.02 1.552a1.552 1.552 0 1 1-3.104 0 1.552 1.552 0 0 1 3.104 0ZM4.5 16.784l1.984 1.463 6.424 4.966.01.008c1.36.985 3.323.985 4.682 0l.01-.008 6.424-4.966 1.984-1.463v10.774c0 .123-.055.294-.258.467-.207.176-.538.32-.952.32H5.711c-.414 0-.745-.144-.952-.32-.203-.173-.258-.344-.258-.467V16.784Z" clip-rule="evenodd"/>
</svg>
