<svg xmlns="http://www.w3.org/2000/svg" width="34" height="30" fill="none" viewBox="0 0 34 30">
  <path fill="currentColor" fill-rule="evenodd" d="M7 24h20a1 1 0 0 0 1-1V13l-7.4 5.55a6 6 0 0 1-7.2 0L6 13v10a1 1 0 0 0 1 1Zm-.904-13.428A1 1 0 0 1 7 10h20a1 1 0 0 1 .904.572L19.4 16.95a4 4 0 0 1-4.8 0l-8.504-6.378ZM27 26H7a3 3 0 0 1-3-3V11a3 3 0 0 1 3-3h20a3 3 0 0 1 3 3v12a3 3 0 0 1-3 3ZM11 2H2v23a3 3 0 0 0 3 3h24a3 3 0 0 0 3-3V9a3 3 0 0 0-3-3H14a3 3 0 0 1-3-3V2ZM2 0h9a2 2 0 0 1 2 2v1a1 1 0 0 0 1 1h15a5 5 0 0 1 5 5v16a5 5 0 0 1-5 5H5a5 5 0 0 1-5-5V2a2 2 0 0 1 2-2Z" clip-rule="evenodd"/>
  <path fill="var(--workflow-node-bg)" fill-rule="evenodd" d="M2 2h9v1a3 3 0 0 0 3 3h15a3 3 0 0 1 3 3v16a3 3 0 0 1-3 3H5a3 3 0 0 1-3-3V2Zm25 24H7a3 3 0 0 1-3-3V11a3 3 0 0 1 3-3h20a3 3 0 0 1 3 3v12a3 3 0 0 1-3 3Z" clip-rule="evenodd"/>
  <path fill="var(--workflow-node-bg)" d="M27 24H7a1 1 0 0 1-1-1V13l7.4 5.55a6 6 0 0 0 7.2 0L28 13v10a1 1 0 0 1-1 1Z"/>
  <path fill="var(--workflow-node-bg)" d="M6.096 10.572A1 1 0 0 1 7 10h20a1 1 0 0 1 .904.572L19.4 16.95a4 4 0 0 1-4.8 0l-8.504-6.378Z"/>
</svg>
