<svg xmlns="http://www.w3.org/2000/svg" width="39" height="30" fill="none" viewBox="0 0 39 30">
  <path fill="currentColor" fill-rule="evenodd" d="M19.877 4.22c0 1.103-.722 2.041-1.729 2.389v2.996h6.914V7.453c-1.007-.348-1.729-1.286-1.729-2.388 0-.85.384-1.275.943-1.893.468-.519 1.059-1.173 1.65-2.328.6 1.172 1.2 1.864 1.671 2.407.548.631.922 1.062.922 1.814 0 1.102-.722 2.04-1.729 2.388v2.152h3.457c2.387 0 4.321 1.89 4.321 4.22v3.33H32.84v-.234c-.833.225-1.793-.053-2.31-.89a.334.334 0 0 0-.565 0l-.058.095c-.828 1.337-2.813 1.337-3.64 0a.403.403 0 0 0-.681 0c-.828 1.337-2.813 1.337-3.64 0a.403.403 0 0 0-.681 0c-.828 1.337-2.813 1.337-3.64 0a.403.403 0 0 0-.681 0c-.828 1.337-2.813 1.337-3.64 0a.403.403 0 0 0-.681 0c-.828 1.337-2.813 1.337-3.64 0a.403.403 0 0 0-.682 0c-.827 1.337-2.812 1.337-3.64 0l-.058-.095a.334.334 0 0 0-.564 0c-.518.837-1.477 1.115-2.31.89v4.181c0 1.399 1.16 2.533 2.592 2.533h12.541v1.688H4.322c-2.386 0-4.321-1.89-4.321-4.22v-7.277c0-2.331 1.935-4.22 4.321-4.22h3.457V7.452c-1.009-.347-1.73-1.285-1.73-2.387 0-.85.384-1.275.943-1.893.468-.519 1.059-1.173 1.65-2.328.6 1.172 1.2 1.864 1.671 2.407.547.631.922 1.062.922 1.814 0 1.102-.722 2.04-1.729 2.388v2.152h6.914V6.61c-1.007-.35-1.73-1.287-1.73-2.39 0-.85.384-1.275.943-1.893.468-.519 1.059-1.173 1.65-2.328.6 1.172 1.2 1.864 1.671 2.407.548.63.922 1.062.922 1.814Zm-2.593 1.267c.716 0 1.296-.567 1.296-1.266 0-.452-.18-.673-.54-1.113-.198-.242-.45-.55-.756-.998-.313.46-.57.76-.77.994-.35.413-.526.619-.526 1.117 0 .699.58 1.266 1.296 1.266Zm9.938-.422c0 .699-.58 1.266-1.296 1.266-.716 0-1.296-.567-1.296-1.266 0-.498.175-.704.527-1.117.2-.234.456-.535.77-.994.305.449.557.756.755.998.36.44.54.66.54 1.113Zm5.618 9.672a2.024 2.024 0 0 0-.246.381.34.34 0 0 1-.585.04c-.8-1.294-2.723-1.294-3.523 0l-.059.095a.403.403 0 0 1-.68 0c-.828-1.338-2.814-1.338-3.64 0a.403.403 0 0 1-.682 0c-.827-1.338-2.813-1.338-3.64 0a.403.403 0 0 1-.681 0c-.827-1.338-2.813-1.338-3.64 0a.403.403 0 0 1-.681 0c-.827-1.338-2.813-1.338-3.64 0a.403.403 0 0 1-.681 0c-.827-1.338-2.813-1.338-3.64 0a.403.403 0 0 1-.681 0l-.058-.095c-.801-1.294-2.723-1.294-3.524 0a.34.34 0 0 1-.585-.04 2.022 2.022 0 0 0-.246-.38v-.912c0-1.399 1.161-2.533 2.593-2.533h25.926c1.432 0 2.593 1.134 2.593 2.533v.911ZM9.938 5.065c0 .699-.58 1.266-1.296 1.266-.716 0-1.296-.567-1.296-1.266 0-.498.175-.704.527-1.117.2-.234.456-.535.769-.994.306.449.558.756.755.998.361.44.541.66.541 1.113Z" clip-rule="evenodd"/>
  <path fill="currentColor" d="M24.667 22.757v3.05h1.686v-3.05h-1.686Z"/>
  <path fill="currentColor" fill-rule="evenodd" d="M19.608 18.564a.83.83 0 0 0-.843.817v3.676c.698 0 1.265.548 1.265 1.225s-.567 1.225-1.265 1.225v3.676a.83.83 0 0 0 .843.817h18.549a.83.83 0 0 0 .843-.817v-3.676c-.699 0-1.265-.548-1.265-1.225s.566-1.225 1.265-1.225V19.38a.83.83 0 0 0-.843-.817H19.608Zm.843 8.064v1.738h4.216v-1.034h1.686v1.034h10.96v-1.738a2.831 2.831 0 0 1-1.264-2.346c0-.972.5-1.83 1.265-2.347v-1.737h-10.96v1.035h-1.687v-1.035H20.45v1.737a2.831 2.831 0 0 1 1.265 2.347c0 .971-.5 1.83-1.265 2.346Z" clip-rule="evenodd"/>
  <path fill="currentColor" d="M30.97 21.77a1.158 1.158 0 0 1 0 1.675 1.25 1.25 0 0 1-1.73 0 1.158 1.158 0 0 1 0-1.675 1.25 1.25 0 0 1 1.73 0Zm3.456 3.35a1.158 1.158 0 0 1 0 1.674 1.25 1.25 0 0 1-1.728 0 1.158 1.158 0 0 1 0-1.675 1.25 1.25 0 0 1 1.728 0Z"/>
  <path fill="currentColor" fill-rule="evenodd" d="M34.426 21.77a.772.772 0 0 1 0 1.116l-4.033 3.908a.834.834 0 0 1-1.153 0 .772.772 0 0 1 0-1.117l4.034-3.908a.834.834 0 0 1 1.152 0Z" clip-rule="evenodd"/>
</svg>
