<svg xmlns="http://www.w3.org/2000/svg" width="26" height="30" fill="none" viewBox="0 0 26 30">
  <path fill="currentColor" d="M14.5 10a1 1 0 0 0-1-1h-1a1 1 0 0 0-1 1v8l4.793 4.793a1 1 0 0 0 1.414 0l.586-.586a1 1 0 0 0 0-1.414L14.5 17v-7Z"/>
  <path fill="currentColor" fill-rule="evenodd" d="M12 0a1 1 0 0 0-1 1v3.153C4.77 5.115 0 10.5 0 17c0 7.18 5.82 13 13 13s13-5.82 13-13a12.95 12.95 0 0 0-3.322-8.68l1.435-1.435a1 1 0 0 0 0-1.414l-.586-.586a1 1 0 0 0-1.414 0L20.57 6.429A12.93 12.93 0 0 0 15 4.153V1a1 1 0 0 0-1-1h-2Zm12 17c0 6.075-4.925 11-11 11S2 23.075 2 17 6.925 6 13 6s11 4.925 11 11Z" clip-rule="evenodd"/>
</svg>
