<svg xmlns="http://www.w3.org/2000/svg" width="30" height="30" fill="none" viewBox="0 0 30 30">
  <path fill="currentColor" fill-rule="evenodd" d="M13.016 2.822 2.822 13.016a2.806 2.806 0 0 0 0 3.968l10.194 10.194a2.806 2.806 0 0 0 3.968 0l10.194-10.194a2.806 2.806 0 0 0 0-3.968L16.984 2.822a2.806 2.806 0 0 0-3.968 0Zm-11.608 8.78a4.806 4.806 0 0 0 0 6.796l10.194 10.195a4.806 4.806 0 0 0 6.796 0l10.195-10.195a4.806 4.806 0 0 0 0-6.796L18.398 1.408a4.806 4.806 0 0 0-6.796 0L1.408 11.602Z" clip-rule="evenodd"/>
  <path fill="var(--workflow-node-bg)" d="M2.822 13.016 13.016 2.822a2.806 2.806 0 0 1 3.968 0l10.194 10.194a2.806 2.806 0 0 1 0 3.968L16.984 27.178a2.806 2.806 0 0 1-3.968 0L2.822 16.984a2.806 2.806 0 0 1 0-3.968Z"/>
</svg>
