<svg xmlns="http://www.w3.org/2000/svg" width="22" height="30" fill="none" viewBox="0 0 22 30">
  <path fill="currentColor" d="M12.139 19h2.049c.298 0 .447.36.237.571l-3.143 3.143a.404.404 0 0 1-.572 0l-3.143-3.143A.335.335 0 0 1 7.804 19h2.05v-5.429a.57.57 0 0 1 .57-.571h1.144a.57.57 0 0 1 .57.571V19Z"/>
  <path fill="currentColor" fill-rule="evenodd" d="M3 0h9l10 10v17a3 3 0 0 1-3 3H3a3 3 0 0 1-3-3V3a3 3 0 0 1 3-3Zm10 3.828V8a1 1 0 0 0 1 1h4.172L13 3.828ZM11 2H3a1 1 0 0 0-1 1v24a1 1 0 0 0 1 1h16a1 1 0 0 0 1-1V11h-6a3 3 0 0 1-3-3V2Z" clip-rule="evenodd"/>
  <path fill="var(--workflow-node-bg)" d="M13 8V3.828L18.172 9H14a1 1 0 0 1-1-1Z"/>
  <path fill="var(--workflow-node-bg)" fill-rule="evenodd" d="M3 2h8v6a3 3 0 0 0 3 3h6v16a1 1 0 0 1-1 1H3a1 1 0 0 1-1-1V3a1 1 0 0 1 1-1Zm9.139 17h2.049c.298 0 .447.36.237.571l-3.143 3.143a.404.404 0 0 1-.572 0l-3.143-3.143A.335.335 0 0 1 7.804 19h2.05v-5.429a.57.57 0 0 1 .57-.571h1.144a.57.57 0 0 1 .57.571V19Z" clip-rule="evenodd"/>
</svg>
