<svg xmlns="http://www.w3.org/2000/svg" width="22" height="30" fill="none" viewBox="0 0 22 30">
  <path fill="currentColor" d="M7.808 17h2.05v5.429a.57.57 0 0 0 .57.571h1.143a.571.571 0 0 0 .572-.571V17h2.049c.298 0 .447-.36.237-.571l-3.143-3.143a.404.404 0 0 0-.572 0l-3.143 3.143a.335.335 0 0 0 .237.571Z"/>
  <path fill="currentColor" fill-rule="evenodd" d="M12 0H3a3 3 0 0 0-3 3v24a3 3 0 0 0 3 3h16a3 3 0 0 0 3-3V10L12 0Zm1 8V3.828L18.172 9H14a1 1 0 0 1-1-1ZM3 2h8v6a3 3 0 0 0 3 3h6v16a1 1 0 0 1-1 1H3a1 1 0 0 1-1-1V3a1 1 0 0 1 1-1Z" clip-rule="evenodd"/>
  <path fill="var(--workflow-node-bg)" fill-rule="evenodd" d="M11 2H3a1 1 0 0 0-1 1v24a1 1 0 0 0 1 1h16a1 1 0 0 0 1-1V11h-6a3 3 0 0 1-3-3V2ZM7.808 17h2.05v5.429a.57.57 0 0 0 .57.571h1.143a.571.571 0 0 0 .572-.571V17h2.049c.298 0 .447-.36.237-.571l-3.143-3.143a.404.404 0 0 0-.572 0l-3.143 3.143a.335.335 0 0 0 .237.571Z" clip-rule="evenodd"/>
  <path fill="var(--workflow-node-bg)" d="M13 3.828V8a1 1 0 0 0 1 1h4.172L13 3.828Z"/>
</svg>
