<svg xmlns="http://www.w3.org/2000/svg" width="40" height="30" fill="none" viewBox="0 0 40 30">
  <path fill="currentColor" fill-rule="evenodd" d="M38 4.32V4a2 2 0 0 0-2-2H4a2 2 0 0 0-2 2v.32l15.501 12.4a4 4 0 0 0 4.998 0L38 4.32ZM2 6.88V25a3 3 0 0 0 3 3h30a3 3 0 0 0 3-3V6.88L23.748 18.283a6 6 0 0 1-7.496 0L2 6.881Z" clip-rule="evenodd"/>
  <path fill="var(--workflow-node-bg)" d="M38 4v.32l-15.501 12.4a4 4 0 0 1-4.998 0L2 4.32V4a2 2 0 0 1 2-2h32a2 2 0 0 1 2 2Z"/>
  <path fill="var(--workflow-node-bg)" d="M2 25V6.88l14.252 11.402a6 6 0 0 0 7.496 0L38 6.881V25a3 3 0 0 1-3 3H5a3 3 0 0 1-3-3Z"/>
  <path fill="currentColor" fill-rule="evenodd" d="M5 30a5 5 0 0 1-5-5V4a4 4 0 0 1 4-4h32c2.21 0 4 1.796 4 4v21a5 5 0 0 1-5 5H5ZM38 4.32V4a2 2 0 0 0-2-2H4a2 2 0 0 0-2 2v.32l15.501 12.4a4 4 0 0 0 4.998 0L38 4.32ZM2 6.88V25a3 3 0 0 0 3 3h30a3 3 0 0 0 3-3V6.88L23.748 18.283a6 6 0 0 1-7.496 0L2 6.881Z" clip-rule="evenodd"/>
</svg>
