<svg xmlns="http://www.w3.org/2000/svg" width="32" height="30" fill="none" viewBox="0 0 32 30">
  <path fill="currentColor" fill-rule="evenodd" d="M7 12.775A5.775 5.775 0 0 1 12.775 7H18V5a3 3 0 0 0-2.772-2.991A2.992 2.992 0 0 1 13 3H7c-.884 0-1.68-.383-2.228-.991A3 3 0 0 0 2 5v20a3 3 0 0 0 3 3h10a3 3 0 0 0 3-3v-4h-2.606a3.6 3.6 0 0 0-2 .606l-3.34 2.226C8.75 24.702 7 23.766 7 22.197v-9.422ZM27 19a3 3 0 0 0 3-3v-4a3 3 0 0 0-3-3H12.775A3.775 3.775 0 0 0 9 12.775v9.356l3.285-2.19a5.606 5.606 0 0 1 3.11-.941H27Zm0-12a5 5 0 0 1 5 5v4a5 5 0 0 1-5 5h-7v4a5 5 0 0 1-5 5H5a5 5 0 0 1-5-5V5a5.002 5.002 0 0 1 5-5h10a5.002 5.002 0 0 1 5 5v2h7Z" clip-rule="evenodd"/>
</svg>
