<svg xmlns="http://www.w3.org/2000/svg" width="30" height="30" fill="none" viewBox="0 0 30 30">
  <path fill="currentColor" fill-rule="evenodd" d="m12.159 21.8-7.762-6.002L2 14.03v13.02c0 .148.066.354.311.564.25.213.65.386 1.15.386H26.54c.5 0 .9-.173 1.15-.386.245-.21.311-.416.311-.565V14.03l-2.397 1.769-7.762 6.001-.012.01c-1.643 1.19-4.015 1.19-5.658 0l-.012-.01ZM26 13.02l1.3-.96-1.3-.75v1.71ZM24 2H6v12.51l3 2.319V15h12v1.829l3-2.32V2Zm-3.221 15H9.222l4.134 3.197c.94.672 2.349.672 3.287 0L20.78 17ZM4 13.02v-1.71l-1.3.75 1.3.96ZM4 9V1.967C4 .337 4.088 0 6 0h18c1.912 0 2 .338 2 1.967V9l4 2.312v15.737C30 28.68 28.45 30 26.538 30H3.462C1.55 30 0 28.679 0 27.05V11.31L4 9Zm17-2H9V5h12v2ZM9 12v-2h12v2H9Z" clip-rule="evenodd"/>
</svg>
