<svg xmlns="http://www.w3.org/2000/svg" width="39" height="30" fill="none" viewBox="0 0 39 30">
  <path fill="currentColor" fill-rule="evenodd" d="M2 0a2 2 0 0 0-2 2v8a2 2 0 0 0 2 2h12a2 2 0 0 0 2-2V7h11.084A6.005 6.005 0 0 0 32 11.917V19.5a4 4 0 0 1-4 4H16v-3.9a1.6 1.6 0 0 0-1.6-1.6H1.6A1.6 1.6 0 0 0 0 19.6V28a2 2 0 0 0 2 2h12a2 2 0 0 0 2-2v-2.5h12a6 6 0 0 0 6-6v-7.583A6.001 6.001 0 0 0 33 0a6.002 6.002 0 0 0-5.917 5H16V2a2 2 0 0 0-2-2H2Zm12 2H2v8h12V2ZM2.102 20H13.9l-4.65 3.72a2 2 0 0 1-2.499 0L2.101 20Zm-.1 8v-5.52l3.5 2.802a4 4 0 0 0 4.998 0l3.502-2.801V28H2Zm31-18a4 4 0 1 1 0-8 4 4 0 0 1 0 8Z" clip-rule="evenodd"/>
</svg>
