<svg xmlns="http://www.w3.org/2000/svg" width="40" height="30" fill="none" viewBox="0 0 40 30">
  <path fill="currentColor" fill-rule="evenodd" d="M21 7.83A3.001 3.001 0 0 0 23 5c0-.89-.433-1.401-1.066-2.148C21.39 2.208 20.694 1.388 20 0c-.684 1.368-1.368 2.143-1.91 2.758C17.445 3.49 17 3.994 17 5c0 1.306.835 2.418 2 2.83v3.55h-8V8.83A3.001 3.001 0 0 0 13 6c0-.89-.433-1.401-1.066-2.148C11.389 3.208 10.694 2.388 10 1c-.684 1.368-1.368 2.143-1.91 2.758C7.444 4.49 7 4.994 7 6c0 1.306.835 2.418 2 2.83v2.55H5a5 5 0 0 0-5 5V25a5 5 0 0 0 5 5h30a5 5 0 0 0 5-5v-8.62a5 5 0 0 0-5-5h-4V8.83A3.001 3.001 0 0 0 33 6c0-.89-.432-1.401-1.066-2.148C31.39 3.208 30.694 2.388 30 1c-.684 1.368-1.367 2.143-1.91 2.758C27.445 4.49 27 4.994 27 6c0 1.306.835 2.418 2 2.83v2.55h-8V7.83ZM21.5 5a1.5 1.5 0 0 1-3 0c0-.59.204-.834.61-1.322.231-.278.528-.634.89-1.178.354.531.646.896.874 1.182.418.522.626.783.626 1.318ZM30 7.5A1.5 1.5 0 0 0 31.5 6c0-.535-.208-.796-.625-1.318-.23-.286-.52-.65-.875-1.182-.362.544-.659.9-.89 1.178-.406.488-.61.732-.61 1.322A1.5 1.5 0 0 0 30 7.5ZM5 28h30a3 3 0 0 0 3-3v-4.953c-.964.266-2.074-.064-2.673-1.055a.382.382 0 0 0-.653 0l-.068.112c-.957 1.584-3.254 1.584-4.212 0a.46.46 0 0 0-.788 0c-.957 1.584-3.255 1.584-4.212 0a.46.46 0 0 0-.788 0c-.957 1.584-3.255 1.584-4.212 0a.46.46 0 0 0-.788 0c-.957 1.584-3.255 1.584-4.212 0a.46.46 0 0 0-.788 0c-.957 1.584-3.255 1.584-4.212 0a.46.46 0 0 0-.788 0c-.957 1.584-3.255 1.584-4.212 0l-.067-.112a.382.382 0 0 0-.653 0c-.6.991-1.71 1.32-2.674 1.055V25a3 3 0 0 0 3 3Zm32.717-10.09c.078-.162.174-.313.284-.45v-1.08a3 3 0 0 0-3-3H5a3 3 0 0 0-3.001 3v1.08c.11.137.205.288.284.45a.389.389 0 0 0 .678.048c.926-1.534 3.15-1.534 4.076 0l.068.112a.46.46 0 0 0 .788 0c.957-1.585 3.255-1.585 4.212 0a.46.46 0 0 0 .788 0c.957-1.585 3.255-1.585 4.212 0a.46.46 0 0 0 .788 0c.957-1.585 3.255-1.585 4.212 0a.46.46 0 0 0 .788 0c.958-1.585 3.255-1.585 4.212 0a.46.46 0 0 0 .788 0c.958-1.585 3.255-1.585 4.212 0a.46.46 0 0 0 .788 0l.068-.112c.926-1.534 3.15-1.534 4.077 0 .145.24.536.246.678-.048ZM10 7.5A1.5 1.5 0 0 0 11.5 6c0-.535-.209-.796-.626-1.318A15.45 15.45 0 0 1 10 3.5c-.362.544-.659.9-.89 1.178-.407.488-.61.732-.61 1.322A1.5 1.5 0 0 0 10 7.5Z" clip-rule="evenodd"/>
</svg>
