<svg xmlns="http://www.w3.org/2000/svg" width="39" height="30" fill="none" viewBox="0 0 39 30">
  <path fill="currentColor" d="m9.914 13 5.293-5.293-1.414-1.414L8.5 11.586 6.207 9.293l-1.414 1.414L7.086 13a2 2 0 0 0 2.828 0Z"/>
  <path fill="currentColor" fill-rule="evenodd" d="M10 0a9.996 9.996 0 0 1 8.662 5h17.005A3.333 3.333 0 0 1 39 8.333V25a5 5 0 0 1-5 5H10a5 5 0 0 1-5-5v-6.338A9.996 9.996 0 0 1 0 10C0 4.477 4.477 0 10 0Zm0 18a8 8 0 1 0 0-16 8 8 0 0 0 0 16Zm0 2c2.184 0 4.204-.7 5.848-1.887l2.45 1.92a6 6 0 0 0 7.405 0L37 11.173V25a3 3 0 0 1-3 3H10a3 3 0 0 1-3-3v-5.458A9.997 9.997 0 0 0 10 20Zm9.531-1.54-2.164-1.698A9.964 9.964 0 0 0 20 10a9.98 9.98 0 0 0-.458-3h16.125C36.403 7 37 7.597 37 8.333v.298L24.469 18.46a4 4 0 0 1-4.938 0Z" clip-rule="evenodd"/>
</svg>
