<svg xmlns="http://www.w3.org/2000/svg" width="38" height="31" fill="none" viewBox="0 0 38 31">
  <path fill="currentColor" d="M31.777 8.59h1.302c.19 0 .285.247.15.39l-1.997 2.151a.244.244 0 0 1-.364 0l-1.998-2.15c-.134-.144-.039-.391.15-.391h1.303V4.876c0-.216.163-.391.364-.391h.726c.201 0 .364.175.364.39V8.59Z"/>
  <path fill="currentColor" fill-rule="evenodd" d="M.777 1.121c0 .62.502 1.121 1.122 1.121H2.1c.534 0 .994.378 1.099.902l4.124 20.621c.105.524.565.902 1.1.902H29.01a1.121 1.121 0 0 0 0-2.243H9.299l-.673-3.363H30.13c.534 0 .994-.378 1.1-.902l.728-3.644A6.729 6.729 0 0 0 31.05 1.12a6.727 6.727 0 0 0-6.727 6.727H6.358L4.89.89A1.121 1.121 0 0 0 3.792 0H1.9C1.279 0 .777.502.777 1.121Zm16.819 15.697v-2.242H13.11v2.242h4.485Zm0-4.485v-2.242H13.11v2.242h4.485Zm2.242 4.485v-2.242h4.485v2.242h-4.485Zm4.485-4.485h-4.485v-2.242h4.485v2.242ZM6.832 10.091l.448 2.242h3.588v-2.242H6.832Zm1.345 6.727-.448-2.242h3.14v2.242H8.176Zm18.388-2.242v2.242h2.691l.449-2.242h-3.14Zm8.97-6.728a4.485 4.485 0 1 1-8.97 0 4.485 4.485 0 0 1 8.97 0Z" clip-rule="evenodd"/>
  <path fill="currentColor" d="M13.11 28.03a2.242 2.242 0 1 1-4.484 0 2.242 2.242 0 0 1 4.485 0Zm15.698 0a2.242 2.242 0 1 1-4.485 0 2.242 2.242 0 0 1 4.485 0Z"/>
</svg>
