<svg xmlns="http://www.w3.org/2000/svg" width="38" height="30" fill="none" viewBox="0 0 38 30">
  <path fill="currentColor" d="M30.323 7.043h-1.302c-.19 0-.285-.244-.15-.387l1.997-2.131a.246.246 0 0 1 .364 0l1.998 2.13c.134.144.039.388-.15.388h-1.303v3.68c0 .215-.163.388-.364.388h-.726c-.2 0-.364-.173-.364-.387V7.043Z"/>
  <path fill="currentColor" fill-rule="evenodd" d="M.777 1.111c0 .614.502 1.111 1.122 1.111H2.1c.534 0 .994.374 1.099.893l4.124 20.436c.105.52.565.893 1.1.893H29.01a1.12 1.12 0 0 0 1.1-.893 1.114 1.114 0 0 0-1.1-1.329H9.299l-.673-3.333H30.13a1.12 1.12 0 0 0 1.1-.893l.728-3.612c3.286-.44 5.818-3.23 5.818-6.606 0-3.682-3.012-6.667-6.727-6.667-3.715 0-6.727 2.985-6.727 6.667H6.358L4.89.882A1.119 1.119 0 0 0 3.792 0H1.9C1.279 0 .777.497.777 1.111Zm16.819 15.556v-2.223H13.11v2.223h4.485Zm0-4.445V10H13.11v2.222h4.485Zm2.242 4.445v-2.223h4.485v2.223h-4.485Zm4.485-4.445h-4.485V10h4.485v2.222ZM6.832 10l.448 2.222h3.588V10H6.832Zm1.345 6.667-.448-2.223h3.14v2.223H8.176Zm18.388-2.223v2.223h2.691l.449-2.223h-3.14Zm8.97-6.666c0 2.454-2.008 4.444-4.485 4.444-2.477 0-4.485-1.99-4.485-4.444 0-2.455 2.008-4.445 4.485-4.445 2.477 0 4.485 1.99 4.485 4.445Z" clip-rule="evenodd"/>
  <path fill="currentColor" d="M13.11 27.778A2.232 2.232 0 0 1 10.869 30a2.232 2.232 0 0 1-2.242-2.222 2.232 2.232 0 0 1 2.242-2.222c1.239 0 2.243.994 2.243 2.222Zm15.698 0A2.232 2.232 0 0 1 26.565 30a2.232 2.232 0 0 1-2.242-2.222 2.232 2.232 0 0 1 2.242-2.222c1.239 0 2.243.994 2.243 2.222Z"/>
</svg>
