<svg xmlns="http://www.w3.org/2000/svg" width="41" height="30" fill="none" viewBox="0 0 41 30">
  <path fill="currentColor" fill-rule="evenodd" d="M.773 2.924C.773 1.306 2.108 0 3.746 0h21.26c1.637 0 2.972 1.306 2.972 2.924v5.389l3.968-2.963a1.057 1.057 0 0 1 1.474.21c.35.462.255 1.119-.21 1.466l-3.703 2.765h8.294c1.638 0 2.972 1.306 2.972 2.924v13.708c0 1.98-1.632 3.577-3.636 3.577H17.206c-2.005 0-3.637-1.598-3.637-3.577V21.69l-3.975 2.967a1.057 1.057 0 0 1-1.474-.209 1.044 1.044 0 0 1 .21-1.467l3.714-2.773H4.41c-2.005 0-3.637-1.598-3.637-3.577V2.924Zm2.973-.992c-.564 0-1.014.448-1.014.992v.057l10.179 8a2.378 2.378 0 0 0 2.93 0l10.178-8v-.057c0-.544-.45-.992-1.014-.992H3.745Zm-1.014 3.52v11.18c0 .905.748 1.645 1.678 1.645h10.222L26.02 9.775V5.452l-8.958 7.04a4.358 4.358 0 0 1-5.37 0l-8.959-7.04Zm24.187 6.271-6.526 4.873 5.313 4.177a2.378 2.378 0 0 0 2.93 0l10.179-8.001v-.057c0-.544-.45-.992-1.014-.992H26.92Zm11.896 3.52-8.958 7.04a4.358 4.358 0 0 1-5.371 0L18.78 17.8l-3.253 2.43v6.194c0 .905.747 1.645 1.678 1.645h19.93c.931 0 1.679-.74 1.679-1.645v-11.18Z" clip-rule="evenodd"/>
</svg>
