<svg xmlns="http://www.w3.org/2000/svg" width="40" height="30" fill="none" viewBox="0 0 40 30">
  <path fill="currentColor" fill-rule="evenodd" d="M35 2H5a3 3 0 0 0-3 3v20a3 3 0 0 0 3 3h30a3 3 0 0 0 3-3V5a3 3 0 0 0-3-3ZM5 0a5 5 0 0 0-5 5v20a5 5 0 0 0 5 5h30a5 5 0 0 0 5-5V5a5 5 0 0 0-5-5H5Z" clip-rule="evenodd"/>
  <path fill="currentColor" d="M7.17 20.1c-.643 0-1.222-.113-1.735-.337-.504-.233-.9-.55-1.19-.952a2.472 2.472 0 0 1-.448-1.414h1.358c.047.458.233.845.56 1.162.336.308.821.462 1.456.462.607 0 1.083-.15 1.428-.448.355-.308.532-.7.532-1.176 0-.373-.103-.676-.308-.91a1.968 1.968 0 0 0-.77-.532 12.04 12.04 0 0 0-1.246-.392c-.644-.168-1.162-.336-1.554-.504a2.58 2.58 0 0 1-.994-.784c-.27-.364-.406-.85-.406-1.456 0-.532.135-1.003.406-1.414.27-.41.649-.728 1.134-.952.495-.224 1.06-.336 1.694-.336.915 0 1.661.229 2.24.686.588.457.92 1.064.994 1.82h-1.4c-.047-.373-.243-.7-.588-.98-.345-.29-.803-.434-1.372-.434-.532 0-.966.14-1.302.42-.336.27-.504.654-.504 1.148 0 .355.098.644.294.868.205.224.453.397.742.518.299.112.714.243 1.246.392.644.178 1.162.355 1.554.532a2.51 2.51 0 0 1 1.008.798c.28.355.42.84.42 1.456 0 .476-.126.924-.378 1.344-.252.42-.625.76-1.12 1.022-.495.261-1.078.392-1.75.392Zm6.678-6.72v4.52c0 .373.079.64.238.798.158.15.434.224.826.224h.938V20h-1.148c-.71 0-1.242-.163-1.596-.49-.355-.326-.532-.863-.532-1.61v-4.52h-.994v-1.05h.994v-1.932h1.274v1.932h2.002v1.05h-2.002Zm3.069 2.757c0-.784.159-1.47.476-2.058a3.458 3.458 0 0 1 1.302-1.386c.56-.326 1.18-.49 1.862-.49.672 0 1.256.145 1.75.434.495.29.864.653 1.106 1.092v-1.4h1.288v7.672h-1.288v-1.428c-.252.448-.63.822-1.134 1.12-.494.29-1.073.434-1.736.434a3.477 3.477 0 0 1-1.848-.504 3.534 3.534 0 0 1-1.302-1.414c-.317-.607-.476-1.297-.476-2.072Zm6.496.014c0-.579-.116-1.082-.35-1.512a2.41 2.41 0 0 0-.952-.98 2.498 2.498 0 0 0-1.302-.35c-.476 0-.91.112-1.302.336-.392.224-.704.55-.938.98-.233.43-.35.934-.35 1.512 0 .588.117 1.101.35 1.54.234.43.546.76.938.994.392.224.826.336 1.302.336.476 0 .91-.112 1.302-.336.402-.233.719-.564.952-.994.234-.439.35-.947.35-1.526Zm4.715-2.576c.224-.438.542-.78.952-1.022.42-.243.929-.364 1.526-.364v1.316h-.336c-1.428 0-2.142.775-2.142 2.324v4.172h-1.274V12.33h1.274v1.246Zm5.502-.195v4.52c0 .373.08.64.239.798.159.15.434.224.826.224h.938V20h-1.148c-.71 0-1.242-.163-1.596-.49-.355-.326-.532-.863-.532-1.61v-4.52h-.994v-1.05h.994v-1.932h1.274v1.932h2.002v1.05H33.63Z"/>
</svg>
