<svg xmlns="http://www.w3.org/2000/svg" width="40" height="30" fill="none" viewBox="0 0 40 30">
  <path fill="var(--workflow-node-bg)" d="M35 2H5a3 3 0 0 0-3 3v20a3 3 0 0 0 3 3h30a3 3 0 0 0 3-3V5a3 3 0 0 0-3-3ZM5 0a5 5 0 0 0-5 5v20a5 5 0 0 0 5 5h30a5 5 0 0 0 5-5V5a5 5 0 0 0-5-5H5Z" clip-rule="evenodd"/>
  <path fill="currentColor" fill-rule="evenodd" d="M35 2H5a3 3 0 0 0-3 3v20a3 3 0 0 0 3 3h30a3 3 0 0 0 3-3V5a3 3 0 0 0-3-3ZM5 0a5 5 0 0 0-5 5v20a5 5 0 0 0 5 5h30a5 5 0 0 0 5-5V5a5 5 0 0 0-5-5H5Z" clip-rule="evenodd"/>
  <path fill="currentColor" d="M8.173 20.098c-.644 0-1.223-.112-1.736-.336-.504-.233-.9-.55-1.19-.952a2.472 2.472 0 0 1-.448-1.414h1.358c.046.457.233.845.56 1.162.336.308.821.462 1.456.462.607 0 1.082-.15 1.428-.448.354-.308.532-.7.532-1.176 0-.373-.103-.677-.308-.91a1.968 1.968 0 0 0-.77-.532 12.04 12.04 0 0 0-1.246-.392c-.644-.168-1.162-.336-1.554-.504a2.58 2.58 0 0 1-.994-.784c-.27-.364-.406-.85-.406-1.456 0-.532.135-1.003.406-1.414.27-.41.648-.728 1.134-.952.494-.224 1.06-.336 1.694-.336.914 0 1.661.229 2.24.686.588.457.92 1.064.994 1.82h-1.4c-.047-.373-.243-.7-.588-.98-.346-.29-.803-.434-1.372-.434-.532 0-.966.14-1.302.42-.336.27-.504.653-.504 1.148 0 .355.098.644.294.868.205.224.452.397.742.518.298.112.714.243 1.246.392.644.178 1.162.355 1.554.532a2.51 2.51 0 0 1 1.008.798c.28.355.42.84.42 1.456 0 .476-.126.924-.378 1.344-.252.42-.625.76-1.12 1.022-.495.262-1.078.392-1.75.392Zm6.677-6.72V17.9c0 .373.079.64.238.798.158.15.434.224.826.224h.938V20h-1.148c-.71 0-1.242-.163-1.596-.49-.355-.327-.532-.863-.532-1.61v-4.522h-.994v-1.05h.994v-1.932h1.274v1.932h2.002v1.05H14.85Zm6.891 6.748a3.967 3.967 0 0 1-1.96-.49 3.562 3.562 0 0 1-1.372-1.386c-.326-.607-.49-1.306-.49-2.1 0-.784.168-1.474.504-2.072a3.508 3.508 0 0 1 1.4-1.386 3.995 3.995 0 0 1 1.974-.49c.728 0 1.386.164 1.974.49a3.44 3.44 0 0 1 1.386 1.372c.346.598.518 1.293.518 2.086 0 .794-.177 1.494-.532 2.1a3.604 3.604 0 0 1-1.414 1.386 4.07 4.07 0 0 1-1.988.49Zm0-1.12a2.69 2.69 0 0 0 1.288-.322c.402-.215.724-.537.966-.966.252-.43.378-.952.378-1.568 0-.616-.121-1.138-.364-1.568a2.326 2.326 0 0 0-.952-.952 2.61 2.61 0 0 0-1.274-.322c-.466 0-.896.107-1.288.322-.382.205-.69.523-.924.952-.233.43-.35.952-.35 1.568 0 .626.112 1.153.336 1.582.234.43.542.752.924.966.383.206.803.308 1.26.308Zm6.883-5.264c.252-.439.626-.803 1.12-1.092.504-.299 1.088-.448 1.75-.448.682 0 1.298.164 1.848.49.56.327.999.789 1.316 1.386.318.588.476 1.274.476 2.058 0 .775-.158 1.466-.476 2.072a3.502 3.502 0 0 1-3.164 1.918c-.653 0-1.232-.145-1.736-.434-.494-.299-.872-.667-1.134-1.106v5.054H27.35V12.328h1.274v1.414Zm5.208 2.394c0-.579-.116-1.082-.35-1.512a2.41 2.41 0 0 0-.952-.98 2.578 2.578 0 0 0-1.302-.336c-.466 0-.9.117-1.302.35a2.51 2.51 0 0 0-.952.994c-.233.43-.35.929-.35 1.498 0 .579.117 1.088.35 1.526.243.43.56.76.952.994.402.224.836.336 1.302.336.476 0 .91-.112 1.302-.336.402-.233.719-.565.952-.994.234-.438.35-.952.35-1.54Z"/>
</svg>
