<svg xmlns="http://www.w3.org/2000/svg" width="30" height="30" fill="none" viewBox="0 0 30 30">
  <path fill="currentColor" d="M17.392 6.06c0 3.348-2.705 6.061-6.042 6.061-3.337 0-6.041-2.713-6.041-6.06C5.309 2.713 8.013 0 11.35 0s6.042 2.713 6.042 6.06Z"/>
  <path fill="currentColor" fill-rule="evenodd" d="M14.791 13.636h.788c1.567 0 3 .57 4.108 1.515h6.465c.89 0 1.611.723 1.611 1.616v7.526l-1.56-1.096v-4.463l-3.979 3.317a4.018 4.018 0 0 1-5.032 0c-1.471-1.18-3.979-3.317-3.979-3.317v6.975H24.34v1.563H13.666a2.017 2.017 0 0 1-2.014-2.02v-1.01H3.043A2.27 2.27 0 0 1 .777 21.97V20c0-3.513 2.842-6.364 6.344-6.364h.788a8.22 8.22 0 0 0 3.441.758 8.205 8.205 0 0 0 3.441-.758Zm-1.476 3.082H26.1l-5.135 4.21a2.01 2.01 0 0 1-2.516 0l-5.135-4.21Z" clip-rule="evenodd"/>
  <path fill="currentColor" d="M25.246 29.09v-5.454l4.531 3.182-1.812.91.906 1.817-.906.455-.906-1.818-1.813.909Z"/>
</svg>
