<svg xmlns="http://www.w3.org/2000/svg" width="30" height="30" fill="none" viewBox="0 0 30 30">
  <path fill="currentColor" d="M11.667 13.333a6.666 6.666 0 0 0 6.666-6.666A6.666 6.666 0 0 0 11.667 0 6.666 6.666 0 0 0 5 6.667a6.666 6.666 0 0 0 6.667 6.666Z"/>
  <path fill="currentColor" fill-rule="evenodd" d="M16.333 15h-.87a9.077 9.077 0 0 1-3.796.833A9.095 9.095 0 0 1 7.87 15H7c-3.865 0-7 3.135-7 7v2.167a2.5 2.5 0 0 0 2.5 2.5H12v1.11c0 1.227.995 2.222 2.222 2.222h13.334a2.222 2.222 0 0 0 2.222-2.222v-9.333c0-.982-.796-1.778-1.778-1.778h-7.134A6.972 6.972 0 0 0 16.332 15Zm11.61 3.39H13.835l5.667 4.631a2.22 2.22 0 0 0 2.776 0l5.667-4.631Zm-14.22 2.217v7.673h14.333v-7.673l-4.39 3.65a4.445 4.445 0 0 1-5.553 0c-1.624-1.299-4.39-3.65-4.39-3.65Z" clip-rule="evenodd"/>
</svg>
