<?xml version="1.0" encoding="utf-8"?><svg xmlns="http://www.w3.org/2000/svg" xmlns:xlink="http://www.w3.org/1999/xlink"><defs><svg fill="none" viewBox="0 0 15 14" id="agn_tag" xmlns="http://www.w3.org/2000/svg"><path d="M8.174 10.733a3.5 3.5 0 1 0 0-7 3.5 3.5 0 0 0 0 7Z" fill="#6F6F6F"/><path d="M14.591.35v13.3h-13.3V.35h13.3Zm-.35-.35h-12.6c-.385 0-.7.315-.7.7v12.6c0 .385.315.7.7.7h12.6c.385 0 .7-.315.7-.7V.7c0-.385-.315-.7-.7-.7Z" fill="#4B4B4B"/><path d="M12.608 2.334h-4.2v4.2h4.2v-4.2ZM7.474 7.466H3.274v4.2h4.2v-4.2Z" fill="silver"/><path fill-rule="evenodd" clip-rule="evenodd" d="M14.591.35v13.3h-13.3V.35h13.3Zm-2.917 6.884a3.5 3.5 0 0 1-4.2 3.43v1.002h-4.2v-4.2h1.408a3.5 3.5 0 0 1 3.726-3.725V2.334h4.2v4.2h-1.004c.046.226.07.46.07.7Z" fill="#fff"/></svg></defs></svg>