<svg xmlns="http://www.w3.org/2000/svg" width="46" height="50" fill="none" viewBox="0 0 46 50">
  <path fill="#fff" d="M18.892 20.917c0 2.06-1.337 3.729-2.985 3.729-1.649 0-2.986-1.67-2.986-3.729 0-2.06 1.337-3.729 2.986-3.729 1.648 0 2.985 1.67 2.985 3.729ZM17.249 39.2c-.44-.33-.914-.686-1.353-1.09-.466-.428-.84-.863-1.162-1.237-.804-.933-1.277-1.483-2.015-.586-1.034 1.257-.55 3.49 1.08 4.99 1.629 1.499 3.788 1.695 4.82.438.756-.918-.177-1.619-1.37-2.515Zm9.378 2.515c-.755-.918.178-1.619 1.371-2.515.44-.33.914-.686 1.352-1.09.466-.428.841-.863 1.163-1.237.804-.933 1.277-1.483 2.015-.586 1.033 1.257.55 3.49-1.08 4.99-1.63 1.499-3.788 1.695-4.821.438Z"/>
  <path fill="#fff" fill-rule="evenodd" d="M23.004 2.293c3.863.17 6.952 1.194 9.418 2.828 1.702-2.754 3.622-5.465 4.381-5.085 1.222.61.444 7.216.12 9.594.164.24.323.485.476.734 2.913-1.215 5.936-.657 7.123 1.468 1.348 2.413-.18 5.932-3.413 7.861a9.45 9.45 0 0 1-.222.129c.927 4.59 1.14 9.486 1.14 13.897C42.027 46.893 35.191 50 23.004 50 10.816 50 3.22 46.893 3.22 33.719c0-4.288.282-9.194 1.253-13.835a9.387 9.387 0 0 1-.336-.191C.904 17.764-.623 14.245.725 11.832 1.92 9.69 4.98 9.14 7.913 10.392c.136-.232.276-.462.42-.687-.316-2.31-1.124-9.052.11-9.67.748-.373 2.62 2.248 4.302 4.957 2.649-1.857 6.008-2.887 10.259-2.7Zm17.53 31.21c0 12.145-6.31 15.01-17.56 15.01S4.712 45.647 4.712 33.502c0-4.441.329-9.602 1.519-14.328a7.028 7.028 0 0 1-1.52-.649c-2.472-1.414-3.64-3.995-2.61-5.765 1.032-1.769 3.871-2.057 6.343-.642.135.077.266.158.393.241 2.14-3.822 5.333-6.688 10.055-7.566 2.041-.381 4.478 0 4.478 7.921-.031 1.785-.876 3.584-1.75 5.443-1.383 2.946-2.837 6.043-1.236 9.472 1.222 2.616 5.708 2.458 10.138 2.303 5.043-.176 10.013-.35 10.013 3.57ZM29.34 24.646c1.649 0 2.985-1.67 2.985-3.729 0-2.06-1.336-3.729-2.985-3.729-1.649 0-2.985 1.67-2.985 3.729 0 2.06 1.336 3.729 2.985 3.729Z" clip-rule="evenodd"/>
</svg>
