<svg xmlns="http://www.w3.org/2000/svg" width="34" height="50" fill="none" viewBox="0 0 34 50">
  <path fill="#fff" d="M5.373 12.71c0-2.33 1.17-4.135 3.28-5.472 2.18-1.38 5.253-2.153 8.474-2.153 3.222 0 6.295.773 8.474 2.153 2.11 1.336 3.28 3.141 3.28 5.471 0 3.538-2.405 5.325-6.439 8.321l-.091.068c-3.781 2.81-8.582 6.557-8.582 14.068 0 1.404 1.128 2.542 2.519 2.542 1.39 0 2.518-1.138 2.518-2.542 0-4.774 2.756-7.168 6.53-9.973l.689-.506c3.416-2.508 7.894-5.794 7.894-11.978 0-4.448-2.399-7.726-5.64-9.779C25.104.921 21.041 0 17.126 0 13.212 0 9.15.922 5.977 2.931 2.733 4.984.335 8.263.335 12.711c0 1.404 1.128 2.542 2.519 2.542 1.39 0 2.518-1.138 2.518-2.542ZM16.287 50c1.855 0 3.358-1.518 3.358-3.39s-1.503-3.39-3.358-3.39c-1.854 0-3.358 1.518-3.358 3.39S14.432 50 16.287 50Z"/>
</svg>
