<svg xmlns="http://www.w3.org/2000/svg" width="53" height="50" fill="none" viewBox="0 0 53 50">
  <path fill="#fff" fill-rule="evenodd" d="m38.071 31.215 11.925-11.301a.184.184 0 0 0 .015-.017.115.115 0 0 0-.014-.05.24.24 0 0 0-.014-.004L32.998 17.17 26.902 3.005l2.742-1.18 5.445 12.652 15.358 2.418c2.474.39 3.423 3.46 1.602 5.186L41.332 32.237l2.93 14.114c.525 2.524-2.137 4.507-4.393 3.272l1.434-2.618a.33.33 0 0 0 .01.005.158.158 0 0 0 .01-.005l.002-.003a.107.107 0 0 0 .02-.017.213.213 0 0 0-.005-.027l-3.269-15.743ZM26.877 42.512l12.992 7.111 1.434-2.618-14.426-7.896-14.425 7.895-.011.006a.126.126 0 0 1-.03-.025c0-.005 0-.014.003-.027l3.27-15.743L3.758 19.914a.18.18 0 0 1-.016-.017.114.114 0 0 1 .014-.05.236.236 0 0 1 .015-.004l16.985-2.673 6.095-14.165a.295.295 0 0 1 .01-.019.11.11 0 0 1 .031 0 .25.25 0 0 1 .009.02l2.742-1.18c-1.047-2.434-4.486-2.434-5.534 0l-5.444 12.651-15.358 2.418c-2.474.39-3.423 3.46-1.603 5.186l10.717 10.156-2.93 14.114c-.524 2.524 2.138 4.507 4.393 3.272l12.992-7.11Z" clip-rule="evenodd"/>
</svg>
