<?xml version="1.0" encoding="UTF-8"?>
<svg xmlns="http://www.w3.org/2000/svg" xmlns:xlink="http://www.w3.org/1999/xlink" width="10px" height="10px" viewBox="0 0 10 10" version="1.1">
<g id="surface1">
<path style=" stroke:none;fill-rule:nonzero;fill:rgb(0%,0%,0%);fill-opacity:1;" d="M 4.632812 0.0234375 C 4.199219 0.0703125 3.742188 0.226562 3.375 0.453125 C 2.710938 0.863281 2.179688 1.523438 1.96875 2.21875 C 1.84375 2.617188 1.816406 2.882812 1.816406 3.820312 L 1.816406 4.546875 L 1.617188 4.554688 C 1.449219 4.558594 1.398438 4.570312 1.304688 4.613281 C 1.171875 4.671875 1.046875 4.796875 0.976562 4.933594 L 0.929688 5.03125 L 0.929688 9.523438 L 0.976562 9.617188 C 1.046875 9.75 1.175781 9.875 1.308594 9.9375 L 1.414062 9.992188 L 8.585938 9.992188 L 8.691406 9.9375 C 8.824219 9.875 8.953125 9.75 9.023438 9.617188 L 9.070312 9.523438 L 9.070312 5.03125 L 9.023438 4.933594 C 8.953125 4.796875 8.828125 4.671875 8.695312 4.613281 C 8.601562 4.570312 8.550781 4.558594 8.382812 4.554688 L 8.183594 4.546875 L 8.183594 3.820312 C 8.183594 2.882812 8.15625 2.617188 8.03125 2.21875 C 7.820312 1.523438 7.289062 0.863281 6.625 0.453125 C 6.054688 0.0976562 5.351562 -0.0546875 4.632812 0.0234375 Z M 5.34375 1.398438 C 5.695312 1.460938 6.039062 1.648438 6.300781 1.914062 C 6.53125 2.15625 6.667969 2.398438 6.765625 2.726562 C 6.800781 2.851562 6.804688 2.929688 6.8125 3.703125 L 6.820312 4.550781 L 3.179688 4.550781 L 3.1875 3.703125 C 3.195312 2.785156 3.195312 2.777344 3.328125 2.46875 C 3.492188 2.054688 3.914062 1.648438 4.335938 1.484375 C 4.632812 1.371094 5.007812 1.335938 5.34375 1.398438 Z M 5.34375 1.398438 "/>
</g>
</svg>
