<?xml version="1.0" encoding="utf-8" standalone="no"?>
<!-- Generator: Adobe Illustrator 22.0.1, SVG Export Plug-In . SVG Version: 6.00 Build 0)  -->
<svg
	id="Ebene_1"
	style="enable-background:new 0 0 80 80;"
	version="1.1"
	width="40px"
	height="40px"
	viewBox="0 0 80 80"
	x="0px"
	xml:space="preserve"
	xmlns="http://www.w3.org/2000/svg"
	xmlns:xlink="http://www.w3.org/1999/xlink"
	y="0px">
	<style type="text/css">
		.st0{fill-rule:evenodd;clip-rule:evenodd;fill:#1D1D1B;}
		.st1{fill-rule:evenodd;clip-rule:evenodd;fill:#0070BA;}
		.st2{fill-rule:evenodd;clip-rule:evenodd;fill:#CFCFCF;}
	</style>
	<g>
		<path class="st0" d="M14.4,38.8c3.1,0,15,0,24.9,0c0,6.2,0.4,34.4,35.9,24.6C58.3,72.6,14.4,71.3,14.4,38.8z" />
		<path class="st0" d="M65,41.2c-3.1,0-15,0-24.9,0c0-6.2-0.4-34.4-35.9-24.6C21.1,7.4,65,8.7,65,41.2z" />
		<path class="st1" d="M38,23.3c9.1,0,16.6,7.5,16.6,16.6c0,9.1-7.5,16.6-16.6,16.6c-9.1,0-16.6-7.5-16.6-16.6   C21.4,30.7,28.9,23.3,38,23.3L38,23.3z" />
		<path class="st2" d="M69.2,37.4c-3.1,0-15,0-24.9,0c0-14.6-7.5-30.6-35.9-22.7C25.3,5.5,69.2,4.9,69.2,37.4z" />
		<path class="st2" d="M10.2,42.6c3.1,0,15,0,24.9,0c0,14.6,7.5,30.6,35.9,22.7C54,74.5,10.2,75.1,10.2,42.6z" />
	</g>
</svg>
