<?xml version="1.0" encoding="UTF-8" standalone="no"?>
<!DOCTYPE svg PUBLIC "-//W3C//DTD SVG 1.1//EN" "http://www.w3.org/Graphics/SVG/1.1/DTD/svg11.dtd">
<svg version="1.1" xmlns="http://www.w3.org/2000/svg" xmlns:xlink="http://www.w3.org/1999/xlink" preserveAspectRatio="xMidYMid meet" viewBox="0 0 256 256" width="256" height="256"><defs><path d="M134.2 52.25L137.26 52.56L140.29 52.99L143.28 53.54L146.22 54.21L149.12 54.98L151.98 55.87L154.78 56.87L157.54 57.97L160.24 59.17L162.88 60.48L165.46 61.88L167.98 63.38L170.44 64.97L172.83 66.66L175.15 68.43L177.41 70.29L179.58 72.23L181.68 74.25L183.71 76.35L185.65 78.53L187.51 80.78L189.28 83.1L190.96 85.49L192.55 87.95L194.05 90.47L195.46 93.06L196.76 95.7L197.96 98.4L199.07 101.15L200.06 103.96L200.95 106.81L201.73 109.71L202.39 112.66L202.94 115.65L203.37 118.67L203.68 121.74L203.87 124.84L203.93 127.97L203.87 131.1L203.68 134.2L203.37 137.26L202.94 140.29L202.39 143.28L201.73 146.22L200.95 149.13L200.06 151.98L199.07 154.78L197.96 157.54L196.76 160.24L195.46 162.88L194.05 165.46L192.55 167.98L191.02 170.36L239 218.34L218.34 239L170.36 191.02L167.98 192.55L165.46 194.05L162.88 195.46L160.24 196.76L157.54 197.97L154.78 199.07L151.98 200.06L149.12 200.95L146.22 201.73L143.28 202.39L140.29 202.94L137.26 203.37L134.2 203.68L131.1 203.87L127.97 203.94L124.83 203.87L121.74 203.68L118.67 203.37L115.64 202.94L112.66 202.39L109.71 201.73L106.81 200.95L103.95 200.06L101.15 199.07L98.4 197.97L95.7 196.76L93.05 195.46L90.47 194.05L87.95 192.55L85.49 190.96L83.1 189.28L80.78 187.51L78.53 185.65L76.35 183.71L74.25 181.69L72.23 179.58L70.28 177.41L68.43 175.16L66.65 172.83L64.97 170.44L63.38 167.98L61.88 165.46L60.48 162.88L59.17 160.24L57.97 157.54L56.87 154.78L55.87 151.98L54.98 149.13L54.21 146.22L53.54 143.28L52.99 140.29L52.56 137.26L52.25 134.2L52.06 131.1L52 127.97L52.06 124.84L52.25 121.74L52.56 118.67L52.99 115.65L53.54 112.66L54.21 109.71L54.98 106.81L55.87 103.96L56.87 101.15L57.97 98.4L59.17 95.7L60.48 93.06L61.88 90.47L63.38 87.95L64.97 85.49L66.65 83.1L68.43 80.78L70.28 78.53L72.23 76.35L74.25 74.25L76.35 72.23L78.53 70.29L80.78 68.43L83.1 66.66L85.49 64.97L87.95 63.38L90.47 61.88L93.05 60.48L95.7 59.17L98.4 57.97L101.15 56.87L103.95 55.87L106.81 54.98L109.71 54.21L112.66 53.54L115.64 52.99L118.67 52.56L121.74 52.25L124.83 52.06L127.97 52L131.1 52.06L134.2 52.25ZM124.12 81.25L122.23 81.44L120.36 81.71L118.52 82.05L116.7 82.46L114.91 82.94L113.15 83.48L111.42 84.1L109.72 84.78L108.06 85.52L106.42 86.33L104.83 87.19L103.27 88.12L101.76 89.1L100.28 90.14L98.85 91.23L97.46 92.38L96.12 93.57L94.82 94.82L93.57 96.12L92.38 97.46L91.23 98.85L90.14 100.28L89.1 101.76L88.11 103.28L87.19 104.83L86.32 106.43L85.52 108.06L84.78 109.72L84.1 111.42L83.48 113.15L82.93 114.91L82.45 116.7L82.04 118.52L81.71 120.36L81.44 122.23L81.25 124.12L81.13 126.04L81.09 127.97L81.13 129.9L81.25 131.81L81.44 133.7L81.71 135.57L82.04 137.41L82.45 139.23L82.93 141.02L83.48 142.78L84.1 144.51L84.78 146.21L85.52 147.88L86.32 149.51L87.19 151.1L88.11 152.66L89.1 154.18L90.14 155.65L91.23 157.08L92.38 158.47L93.57 159.82L94.82 161.11L96.12 162.36L97.46 163.56L98.85 164.7L100.28 165.8L101.76 166.84L103.27 167.82L104.83 168.74L106.42 169.61L108.06 170.42L109.72 171.16L111.42 171.84L113.15 172.45L114.91 173L116.7 173.48L118.52 173.89L120.36 174.23L122.23 174.49L124.12 174.69L126.03 174.8L127.97 174.84L129.9 174.8L131.81 174.69L133.7 174.49L135.57 174.23L137.41 173.89L139.23 173.48L141.02 173L142.78 172.45L144.51 171.84L146.21 171.16L147.88 170.42L149.51 169.61L151.1 168.74L152.66 167.82L154.17 166.84L155.65 165.8L157.08 164.7L158.47 163.56L159.81 162.36L161.11 161.11L162.36 159.82L163.56 158.47L164.7 157.08L165.8 155.65L166.83 154.18L167.82 152.66L168.74 151.1L169.61 149.51L170.41 147.88L171.16 146.21L171.84 144.51L172.45 142.78L173 141.02L173.48 139.23L173.89 137.41L174.23 135.57L174.49 133.7L174.69 131.81L174.8 129.9L174.84 127.97L174.8 126.04L174.69 124.12L174.49 122.23L174.23 120.36L173.89 118.52L173.48 116.7L173 114.91L172.45 113.15L171.84 111.42L171.16 109.72L170.41 108.06L169.61 106.43L168.74 104.83L167.82 103.28L166.83 101.76L165.8 100.28L164.7 98.85L163.56 97.46L162.36 96.12L161.11 94.82L159.81 93.57L158.47 92.38L157.08 91.23L155.65 90.14L154.17 89.1L152.66 88.12L151.1 87.19L149.51 86.33L147.88 85.52L146.21 84.78L144.51 84.1L142.78 83.48L141.02 82.94L139.23 82.46L137.41 82.05L135.57 81.71L133.7 81.44L131.81 81.25L129.9 81.13L127.97 81.09L126.03 81.13L124.12 81.25Z" id="c6pcaNiJ6"></path></defs><g><g><g><use xlink:href="#c6pcaNiJ6" opacity="1" fill="#7f503c" fill-opacity="1"></use></g></g></g></svg>