<?xml version="1.0" encoding="UTF-8"?>
<svg xmlns="http://www.w3.org/2000/svg" xmlns:xlink="http://www.w3.org/1999/xlink" width="11px" height="11px" viewBox="0 0 11 11" version="1.1">
<g id="surface1">
<path style=" stroke:none;fill-rule:nonzero;fill:rgb(0%,0%,0%);fill-opacity:1;" d="M 5.472656 0.367188 C 4.570312 0.5 3.792969 1.046875 3.378906 1.84375 C 3.257812 2.070312 3.140625 2.40625 3.125 2.554688 L 3.109375 2.652344 L 3.445312 2.980469 L 3.773438 3.3125 L 3.789062 3.066406 C 3.820312 2.480469 4.03125 2.023438 4.441406 1.628906 C 4.652344 1.433594 4.785156 1.347656 5.046875 1.230469 C 5.371094 1.089844 5.808594 1.039062 6.167969 1.097656 C 6.382812 1.128906 6.707031 1.25 6.902344 1.367188 C 7.105469 1.492188 7.40625 1.773438 7.542969 1.972656 C 7.65625 2.144531 7.761719 2.375 7.824219 2.582031 C 7.859375 2.707031 7.871094 2.8125 7.878906 3.109375 L 7.890625 3.480469 L 3.941406 3.480469 L 6.777344 6.316406 C 8.339844 7.875 9.621094 9.152344 9.628906 9.152344 C 9.636719 9.152344 9.679688 9.082031 9.722656 8.996094 C 9.78125 8.878906 9.804688 8.796875 9.820312 8.65625 C 9.847656 8.417969 9.847656 4.582031 9.820312 4.34375 C 9.773438 3.964844 9.542969 3.660156 9.195312 3.53125 C 9.140625 3.511719 8.996094 3.492188 8.863281 3.484375 L 8.625 3.46875 L 8.613281 3.105469 C 8.59375 2.570312 8.519531 2.277344 8.300781 1.847656 C 7.972656 1.199219 7.40625 0.71875 6.703125 0.484375 C 6.328125 0.359375 5.835938 0.3125 5.472656 0.367188 Z M 5.472656 0.367188 "/>
<path style=" stroke:none;fill-rule:nonzero;fill:rgb(0%,0%,0%);fill-opacity:1;" d="M 1.386719 2.289062 C 1.238281 2.367188 1.179688 2.460938 1.179688 2.621094 C 1.179688 2.679688 1.195312 2.757812 1.210938 2.789062 C 1.230469 2.820312 1.445312 3.046875 1.695312 3.296875 L 2.144531 3.746094 L 2.074219 3.832031 C 1.984375 3.9375 1.902344 4.101562 1.871094 4.25 C 1.855469 4.332031 1.847656 4.988281 1.847656 6.503906 C 1.847656 8.351562 1.851562 8.667969 1.882812 8.789062 C 1.957031 9.097656 2.1875 9.359375 2.511719 9.484375 L 2.632812 9.527344 L 7.9375 9.542969 L 8.464844 10.066406 C 9.082031 10.679688 9.125 10.707031 9.347656 10.621094 C 9.480469 10.566406 9.5625 10.445312 9.5625 10.296875 C 9.5625 10.234375 9.546875 10.15625 9.53125 10.125 C 9.511719 10.089844 7.757812 8.324219 5.625 6.195312 C 2.863281 3.429688 1.726562 2.3125 1.671875 2.289062 C 1.570312 2.246094 1.46875 2.246094 1.386719 2.289062 Z M 1.386719 2.289062 "/>
</g>
</svg>
