<?xml version="1.0" encoding="utf-8"?><svg xmlns="http://www.w3.org/2000/svg" xmlns:xlink="http://www.w3.org/1999/xlink"><defs><svg fill="none" viewBox="0 0 200 200" id="add-ons" xmlns="http://www.w3.org/2000/svg"><path fill="silver" fill-rule="evenodd" d="M10 1a9 9 0 0 0-9 9v180a9 9 0 0 0 9 9h180a9 9 0 0 0 9-9V10a9 9 0 0 0-9-9H10ZM0 10C0 4.477 4.477 0 10 0h180c5.523 0 10 4.477 10 10v180c0 5.523-4.477 10-10 10H10c-5.523 0-10-4.477-10-10V10Z" clip-rule="evenodd"/><path fill="#009BFF" d="M186 10H14a4 4 0 0 0-4 4v42a4 4 0 0 0 4 4h172a4 4 0 0 0 4-4V14a4 4 0 0 0-4-4Z"/><path fill="#6F6F6F" d="M16 68.222h-4a2 2 0 0 0-2 2v4a2 2 0 0 0 2 2h4a2 2 0 0 0 2-2v-4a2 2 0 0 0-2-2Zm172 0H30a2 2 0 0 0-2 2v4a2 2 0 0 0 2 2h158a2 2 0 0 0 2-2v-4a2 2 0 0 0-2-2Z"/><path fill="#4B4B4B" d="M189 84.445H11a1 1 0 0 0-1 1v4a1 1 0 0 0 1 1h178a1 1 0 0 0 1-1v-4a1 1 0 0 0-1-1Zm-43 14.222H11a1 1 0 0 0-1 1v4a1 1 0 0 0 1 1h135a1 1 0 0 0 1-1v-4a1 1 0 0 0-1-1Zm43 14.222H11a1 1 0 0 0-1 1v4a1 1 0 0 0 1 1h178a1 1 0 0 0 1-1v-4a1 1 0 0 0-1-1Zm-16 14.222H11a1 1 0 0 0-1 1v4a1 1 0 0 0 1 1h162a1 1 0 0 0 1-1v-4a1 1 0 0 0-1-1Zm-14 14.222H11a1 1 0 0 0-1 1v4a1 1 0 0 0 1 1h148a1 1 0 0 0 1-1v-4a1 1 0 0 0-1-1Zm-45 14.223H11a1 1 0 0 0-1 1v4a1 1 0 0 0 1 1h103a1 1 0 0 0 1-1v-4a1 1 0 0 0-1-1Zm24 14.222H11a1 1 0 0 0-1 1v4a1 1 0 0 0 1 1h127a1 1 0 0 0 1-1v-4a1 1 0 0 0-1-1ZM189 184H11a1 1 0 0 0-1 1v4a1 1 0 0 0 1 1h178a1 1 0 0 0 1-1v-4a1 1 0 0 0-1-1Z"/></svg><svg fill="none" viewBox="0 0 200 200" id="analysis" xmlns="http://www.w3.org/2000/svg"><path fill="silver" fill-rule="evenodd" d="M10 1a9 9 0 0 0-9 9v180a9 9 0 0 0 9 9h180a9 9 0 0 0 9-9V10a9 9 0 0 0-9-9H10ZM0 10C0 4.477 4.477 0 10 0h180c5.523 0 10 4.477 10 10v180c0 5.523-4.477 10-10 10H10c-5.523 0-10-4.477-10-10V10Z" clip-rule="evenodd"/><path fill="#009BFF" d="M188 10H12a2 2 0 0 0-2 2v32a2 2 0 0 0 2 2h176a2 2 0 0 0 2-2V12a2 2 0 0 0-2-2Z"/><path fill="#fff" d="M23 24h-6a1 1 0 0 0-1 1v6a1 1 0 0 0 1 1h6a1 1 0 0 0 1-1v-6a1 1 0 0 0-1-1Zm160-8H31a1 1 0 0 0-1 1v2a1 1 0 0 0 1 1h152a1 1 0 0 0 1-1v-2a1 1 0 0 0-1-1Zm0 10H31a1 1 0 0 0-1 1v2a1 1 0 0 0 1 1h152a1 1 0 0 0 1-1v-2a1 1 0 0 0-1-1Zm0 10h-28a1 1 0 0 0-1 1v2a1 1 0 0 0 1 1h28a1 1 0 0 0 1-1v-2a1 1 0 0 0-1-1Z"/><path fill="#009BFF" d="M188 58H12a2 2 0 0 0-2 2v42a2 2 0 0 0 2 2h176a2 2 0 0 0 2-2V60a2 2 0 0 0-2-2Z"/><path fill="#fff" d="M23 77h-6a1 1 0 0 0-1 1v6a1 1 0 0 0 1 1h6a1 1 0 0 0 1-1v-6a1 1 0 0 0-1-1Zm160-13H31a1 1 0 0 0-1 1v2a1 1 0 0 0 1 1h152a1 1 0 0 0 1-1v-2a1 1 0 0 0-1-1Zm0 10H31a1 1 0 0 0-1 1v2a1 1 0 0 0 1 1h152a1 1 0 0 0 1-1v-2a1 1 0 0 0-1-1Zm0 10H31a1 1 0 0 0-1 1v2a1 1 0 0 0 1 1h152a1 1 0 0 0 1-1v-2a1 1 0 0 0-1-1Zm0 10h-28a1 1 0 0 0-1 1v2a1 1 0 0 0 1 1h28a1 1 0 0 0 1-1v-2a1 1 0 0 0-1-1Z"/><path fill="silver" d="M188 116H12a2 2 0 0 0-2 2v32a2 2 0 0 0 2 2h176a2 2 0 0 0 2-2v-32a2 2 0 0 0-2-2Z"/><path fill="#fff" d="M23 130h-6a1 1 0 0 0-1 1v6a1 1 0 0 0 1 1h6a1 1 0 0 0 1-1v-6a1 1 0 0 0-1-1Zm160-8H31a1 1 0 0 0-1 1v2a1 1 0 0 0 1 1h152a1 1 0 0 0 1-1v-2a1 1 0 0 0-1-1Zm0 10H31a1 1 0 0 0-1 1v2a1 1 0 0 0 1 1h152a1 1 0 0 0 1-1v-2a1 1 0 0 0-1-1Zm0 10h-28a1 1 0 0 0-1 1v2a1 1 0 0 0 1 1h28a1 1 0 0 0 1-1v-2a1 1 0 0 0-1-1Z"/><path fill="silver" d="M188 164H12a2 2 0 0 0-2 2v22a2 2 0 0 0 2 2h176a2 2 0 0 0 2-2v-22a2 2 0 0 0-2-2Z"/><path fill="#fff" d="M23 173h-6a1 1 0 0 0-1 1v6a1 1 0 0 0 1 1h6a1 1 0 0 0 1-1v-6a1 1 0 0 0-1-1Zm160-3H31a1 1 0 0 0-1 1v2a1 1 0 0 0 1 1h152a1 1 0 0 0 1-1v-2a1 1 0 0 0-1-1Zm0 10h-28a1 1 0 0 0-1 1v2a1 1 0 0 0 1 1h28a1 1 0 0 0 1-1v-2a1 1 0 0 0-1-1Z"/></svg><svg fill="none" viewBox="0 0 200 200" id="calendar" xmlns="http://www.w3.org/2000/svg"><path fill="silver" fill-rule="evenodd" d="M10 1a9 9 0 0 0-9 9v180a9 9 0 0 0 9 9h180a9 9 0 0 0 9-9V10a9 9 0 0 0-9-9H10ZM0 10C0 4.477 4.477 0 10 0h180c5.523 0 10 4.477 10 10v180c0 5.523-4.477 10-10 10H10c-5.523 0-10-4.477-10-10V10Z" clip-rule="evenodd"/><path fill="silver" fill-rule="evenodd" d="M14 11a3 3 0 0 0-3 3v172a3 3 0 0 0 3 3h77a3 3 0 0 0 3-3V14a3 3 0 0 0-3-3H14Zm-4 3a4 4 0 0 1 4-4h77a4 4 0 0 1 4 4v172a4 4 0 0 1-4 4H14a4 4 0 0 1-4-4V14Z" clip-rule="evenodd"/><path fill="#4B4B4B" d="M22 18.555h-6a2 2 0 0 0-2 2v6a2 2 0 0 0 2 2h6a2 2 0 0 0 2-2v-6a2 2 0 0 0-2-2Z"/><path fill="#6F6F6F" d="M38.75 18.555h-6a2 2 0 0 0-2 2v6a2 2 0 0 0 2 2h6a2 2 0 0 0 2-2v-6a2 2 0 0 0-2-2Zm16.75 0h-6a2 2 0 0 0-2 2v6a2 2 0 0 0 2 2h6a2 2 0 0 0 2-2v-6a2 2 0 0 0-2-2Zm16.75 0h-6a2 2 0 0 0-2 2v6a2 2 0 0 0 2 2h6a2 2 0 0 0 2-2v-6a2 2 0 0 0-2-2Zm16.75 0h-6a2 2 0 0 0-2 2v6a2 2 0 0 0 2 2h6a2 2 0 0 0 2-2v-6a2 2 0 0 0-2-2Z"/><path fill="#4B4B4B" d="M22 37.667h-6a2 2 0 0 0-2 2v6a2 2 0 0 0 2 2h6a2 2 0 0 0 2-2v-6a2 2 0 0 0-2-2Z"/><path fill="silver" d="M40.75 42.667a5 5 0 1 0-10 0 5 5 0 0 0 10 0Zm16.75 0a5 5 0 1 0-10 0 5 5 0 0 0 10 0Zm16.75 0a5 5 0 1 0-10 0 5 5 0 0 0 10 0Zm16.75 0a5 5 0 1 0-10 0 5 5 0 0 0 10 0Z"/><path fill="#4B4B4B" d="M22 56.778h-6a2 2 0 0 0-2 2v6a2 2 0 0 0 2 2h6a2 2 0 0 0 2-2v-6a2 2 0 0 0-2-2Z"/><path fill="silver" d="M40.75 61.778a5 5 0 1 0-10 0 5 5 0 0 0 10 0Z"/><path fill="#009BFF" d="M57.5 61.778a5 5 0 1 0-10 0 5 5 0 0 0 10 0Z"/><path fill="silver" d="M74.25 61.778a5 5 0 1 0-10 0 5 5 0 0 0 10 0Zm16.75 0a5 5 0 1 0-10 0 5 5 0 0 0 10 0Z"/><path fill="#4B4B4B" d="M22 75.889h-6a2 2 0 0 0-2 2v6a2 2 0 0 0 2 2h6a2 2 0 0 0 2-2v-6a2 2 0 0 0-2-2Z"/><path fill="silver" d="M40.75 80.889a5 5 0 1 0-10 0 5 5 0 0 0 10 0Zm16.75 0a5 5 0 1 0-10 0 5 5 0 0 0 10 0Zm16.75 0a5 5 0 1 0-10 0 5 5 0 0 0 10 0Zm16.75 0a5 5 0 1 0-10 0 5 5 0 0 0 10 0Z"/><path fill="#4B4B4B" d="M22 95h-6a2 2 0 0 0-2 2v6a2 2 0 0 0 2 2h6a2 2 0 0 0 2-2v-6a2 2 0 0 0-2-2Z"/><path fill="silver" d="M40.75 100a5 5 0 1 0-10 0 5 5 0 0 0 10 0Zm16.75 0a5 5 0 1 0-10 0 5 5 0 0 0 10 0Zm16.75 0a5 5 0 1 0-10 0 5 5 0 0 0 10 0ZM91 100a5 5 0 1 0-10 0 5 5 0 0 0 10 0Z"/><path fill="#4B4B4B" d="M22 114.111h-6a2 2 0 0 0-2 2v6a2 2 0 0 0 2 2h6a2 2 0 0 0 2-2v-6a2 2 0 0 0-2-2Z"/><path fill="silver" d="M40.75 119.111a5 5 0 1 0-10 0 5 5 0 0 0 10 0Zm16.75 0a5 5 0 1 0-10 0 5 5 0 0 0 10 0Zm16.75 0a5 5 0 1 0-10 0 5 5 0 0 0 10 0Zm16.75 0a5 5 0 1 0-10 0 5 5 0 0 0 10 0Z"/><path fill="#4B4B4B" d="M22 133.222h-6a2 2 0 0 0-2 2v6a2 2 0 0 0 2 2h6a2 2 0 0 0 2-2v-6a2 2 0 0 0-2-2Z"/><path fill="silver" d="M40.75 138.222a5 5 0 1 0-10 0 5 5 0 0 0 10 0Zm16.75 0a5 5 0 1 0-10 0 5 5 0 0 0 10 0Zm16.75 0a5 5 0 1 0-10 0 5 5 0 0 0 10 0Zm16.75 0a5 5 0 1 0-10 0 5 5 0 0 0 10 0Z"/><path fill="#4B4B4B" d="M22 152.333h-6a2 2 0 0 0-2 2v6a2 2 0 0 0 2 2h6a2 2 0 0 0 2-2v-6a2 2 0 0 0-2-2Z"/><path fill="silver" d="M40.75 157.333a5 5 0 1 0-10 0 5 5 0 0 0 10 0Zm16.75 0a5 5 0 1 0-10 0 5 5 0 0 0 10 0Zm16.75 0a5 5 0 1 0-10 0 5 5 0 0 0 10 0Zm16.75 0a5 5 0 1 0-10 0 5 5 0 0 0 10 0Z"/><path fill="#4B4B4B" d="M22 171.444h-6a2 2 0 0 0-2 2v6a2 2 0 0 0 2 2h6a2 2 0 0 0 2-2v-6a2 2 0 0 0-2-2Z"/><path fill="silver" d="M40.75 176.444a5 5 0 1 0-10 0 5 5 0 0 0 10 0Zm16.75 0a5 5 0 1 0-10 0 5 5 0 0 0 10 0Zm16.75 0a5 5 0 1 0-10 0 5 5 0 0 0 10 0Zm16.75 0a5 5 0 1 0-10 0 5 5 0 0 0 10 0Z"/><path fill="silver" fill-rule="evenodd" d="M109 11a3 3 0 0 0-3 3v172a3 3 0 0 0 3 3h77a3 3 0 0 0 3-3V14a3 3 0 0 0-3-3h-77Zm-4 3a4 4 0 0 1 4-4h77a4 4 0 0 1 4 4v172a4 4 0 0 1-4 4h-77a4 4 0 0 1-4-4V14Z" clip-rule="evenodd"/><path fill="silver" d="M142.5 14H112a3 3 0 0 0-3 3v2a3 3 0 0 0 3 3h30.5a3 3 0 0 0 3-3v-2a3 3 0 0 0-3-3Zm40.5 0h-30.5a3 3 0 0 0-3 3v2a3 3 0 0 0 3 3H183a3 3 0 0 0 3-3v-2a3 3 0 0 0-3-3Z"/><path fill="#4B4B4B" d="M164 28.889h-53a2 2 0 0 0-2 2v2a2 2 0 0 0 2 2h53a2 2 0 0 0 2-2v-2a2 2 0 0 0-2-2Z"/><path fill="silver" d="M128 44.778h-18a1 1 0 0 0-1 1v4a1 1 0 0 0 1 1h18a1 1 0 0 0 1-1v-4a1 1 0 0 0-1-1Z"/><path fill="#009BFF" d="M138 41.778h-4a1 1 0 0 0-1 1v4a1 1 0 0 0 1 1h4a1 1 0 0 0 1-1v-4a1 1 0 0 0-1-1Z"/><path fill="#4B4B4B" d="M185 41.778h-41a1 1 0 0 0-1 1v4a1 1 0 0 0 1 1h41a1 1 0 0 0 1-1v-4a1 1 0 0 0-1-1Z"/><path fill="#6F6F6F" d="M137 49.778h-2a1 1 0 0 0-1 1v2a1 1 0 0 0 1 1h2a1 1 0 0 0 1-1v-2a1 1 0 0 0-1-1Zm34 0h-27a1 1 0 0 0-1 1v2a1 1 0 0 0 1 1h27a1 1 0 0 0 1-1v-2a1 1 0 0 0-1-1Z"/><path fill="silver" d="M128 63.667h-18a1 1 0 0 0-1 1v4a1 1 0 0 0 1 1h18a1 1 0 0 0 1-1v-4a1 1 0 0 0-1-1Z"/><path fill="#009BFF" d="M138 60.667h-4a1 1 0 0 0-1 1v4a1 1 0 0 0 1 1h4a1 1 0 0 0 1-1v-4a1 1 0 0 0-1-1Z"/><path fill="#4B4B4B" d="M185 60.667h-41a1 1 0 0 0-1 1v4a1 1 0 0 0 1 1h41a1 1 0 0 0 1-1v-4a1 1 0 0 0-1-1Z"/><path fill="#6F6F6F" d="M137 68.667h-2a1 1 0 0 0-1 1v2a1 1 0 0 0 1 1h2a1 1 0 0 0 1-1v-2a1 1 0 0 0-1-1Zm34 0h-27a1 1 0 0 0-1 1v2a1 1 0 0 0 1 1h27a1 1 0 0 0 1-1v-2a1 1 0 0 0-1-1Z"/><path fill="silver" d="M128 82.555h-18a1 1 0 0 0-1 1v4a1 1 0 0 0 1 1h18a1 1 0 0 0 1-1v-4a1 1 0 0 0-1-1Z"/><path fill="#009BFF" d="M138 79.555h-4a1 1 0 0 0-1 1v4a1 1 0 0 0 1 1h4a1 1 0 0 0 1-1v-4a1 1 0 0 0-1-1Z"/><path fill="#4B4B4B" d="M185 79.555h-41a1 1 0 0 0-1 1v4a1 1 0 0 0 1 1h41a1 1 0 0 0 1-1v-4a1 1 0 0 0-1-1Z"/><path fill="#6F6F6F" d="M137 87.555h-2a1 1 0 0 0-1 1v2a1 1 0 0 0 1 1h2a1 1 0 0 0 1-1v-2a1 1 0 0 0-1-1Zm34 0h-27a1 1 0 0 0-1 1v2a1 1 0 0 0 1 1h27a1 1 0 0 0 1-1v-2a1 1 0 0 0-1-1Z"/><path fill="silver" d="M128 101.444h-18a1 1 0 0 0-1 1v4a1 1 0 0 0 1 1h18a1 1 0 0 0 1-1v-4a1 1 0 0 0-1-1Z"/><path fill="#009BFF" d="M138 98.445h-4a1 1 0 0 0-1 1v4a1 1 0 0 0 1 1h4a1 1 0 0 0 1-1v-4a1 1 0 0 0-1-1Z"/><path fill="#4B4B4B" d="M185 98.445h-41a1 1 0 0 0-1 1v4a1 1 0 0 0 1 1h41a1 1 0 0 0 1-1v-4a1 1 0 0 0-1-1Z"/><path fill="#6F6F6F" d="M137 106.444h-2a1 1 0 0 0-1 1v2a1 1 0 0 0 1 1h2a1 1 0 0 0 1-1v-2a1 1 0 0 0-1-1Zm34 0h-27a1 1 0 0 0-1 1v2a1 1 0 0 0 1 1h27a1 1 0 0 0 1-1v-2a1 1 0 0 0-1-1Z"/><path fill="silver" d="M128 120.333h-18a1 1 0 0 0-1 1v4a1 1 0 0 0 1 1h18a1 1 0 0 0 1-1v-4a1 1 0 0 0-1-1Z"/><path fill="#009BFF" d="M138 117.333h-4a1 1 0 0 0-1 1v4a1 1 0 0 0 1 1h4a1 1 0 0 0 1-1v-4a1 1 0 0 0-1-1Z"/><path fill="#4B4B4B" d="M185 117.333h-41a1 1 0 0 0-1 1v4a1 1 0 0 0 1 1h41a1 1 0 0 0 1-1v-4a1 1 0 0 0-1-1Z"/><path fill="#6F6F6F" d="M137 125.333h-2a1 1 0 0 0-1 1v2a1 1 0 0 0 1 1h2a1 1 0 0 0 1-1v-2a1 1 0 0 0-1-1Zm34 0h-27a1 1 0 0 0-1 1v2a1 1 0 0 0 1 1h27a1 1 0 0 0 1-1v-2a1 1 0 0 0-1-1Z"/><path fill="silver" d="M128 139.222h-18a1 1 0 0 0-1 1v4a1 1 0 0 0 1 1h18a1 1 0 0 0 1-1v-4a1 1 0 0 0-1-1Z"/><path fill="#009BFF" d="M138 136.222h-4a1 1 0 0 0-1 1v4a1 1 0 0 0 1 1h4a1 1 0 0 0 1-1v-4a1 1 0 0 0-1-1Z"/><path fill="#4B4B4B" d="M185 136.222h-41a1 1 0 0 0-1 1v4a1 1 0 0 0 1 1h41a1 1 0 0 0 1-1v-4a1 1 0 0 0-1-1Z"/><path fill="#6F6F6F" d="M137 144.222h-2a1 1 0 0 0-1 1v2a1 1 0 0 0 1 1h2a1 1 0 0 0 1-1v-2a1 1 0 0 0-1-1Zm34 0h-27a1 1 0 0 0-1 1v2a1 1 0 0 0 1 1h27a1 1 0 0 0 1-1v-2a1 1 0 0 0-1-1Z"/><path fill="silver" d="M128 158.111h-18a1 1 0 0 0-1 1v4a1 1 0 0 0 1 1h18a1 1 0 0 0 1-1v-4a1 1 0 0 0-1-1Z"/><path fill="#009BFF" d="M138 155.111h-4a1 1 0 0 0-1 1v4a1 1 0 0 0 1 1h4a1 1 0 0 0 1-1v-4a1 1 0 0 0-1-1Z"/><path fill="#4B4B4B" d="M185 155.111h-41a1 1 0 0 0-1 1v4a1 1 0 0 0 1 1h41a1 1 0 0 0 1-1v-4a1 1 0 0 0-1-1Z"/><path fill="#6F6F6F" d="M137 163.111h-2a1 1 0 0 0-1 1v2a1 1 0 0 0 1 1h2a1 1 0 0 0 1-1v-2a1 1 0 0 0-1-1Zm34 0h-27a1 1 0 0 0-1 1v2a1 1 0 0 0 1 1h27a1 1 0 0 0 1-1v-2a1 1 0 0 0-1-1Z"/><path fill="silver" d="M128 177h-18a1 1 0 0 0-1 1v4a1 1 0 0 0 1 1h18a1 1 0 0 0 1-1v-4a1 1 0 0 0-1-1Z"/><path fill="#009BFF" d="M138 174h-4a1 1 0 0 0-1 1v4a1 1 0 0 0 1 1h4a1 1 0 0 0 1-1v-4a1 1 0 0 0-1-1Z"/><path fill="#4B4B4B" d="M185 174h-41a1 1 0 0 0-1 1v4a1 1 0 0 0 1 1h41a1 1 0 0 0 1-1v-4a1 1 0 0 0-1-1Z"/><path fill="#6F6F6F" d="M137 182h-2a1 1 0 0 0-1 1v2a1 1 0 0 0 1 1h2a1 1 0 0 0 1-1v-2a1 1 0 0 0-1-1Zm34 0h-27a1 1 0 0 0-1 1v2a1 1 0 0 0 1 1h27a1 1 0 0 0 1-1v-2a1 1 0 0 0-1-1Z"/></svg><svg fill="none" viewBox="0 0 200 200" id="calendar-tall" xmlns="http://www.w3.org/2000/svg"><path fill="silver" fill-rule="evenodd" d="M10 1a9 9 0 0 0-9 9v180a9 9 0 0 0 9 9h180a9 9 0 0 0 9-9V10a9 9 0 0 0-9-9H10ZM0 10C0 4.477 4.477 0 10 0h180c5.523 0 10 4.477 10 10v180c0 5.523-4.477 10-10 10H10c-5.523 0-10-4.477-10-10V10Z" clip-rule="evenodd"/><path fill="silver" fill-rule="evenodd" d="M14 11a3 3 0 0 0-3 3v77a3 3 0 0 0 3 3h172a3 3 0 0 0 3-3V14a3 3 0 0 0-3-3H14Zm-4 3a4 4 0 0 1 4-4h172a4 4 0 0 1 4 4v77a4 4 0 0 1-4 4H14a4 4 0 0 1-4-4V14Z" clip-rule="evenodd"/><path fill="silver" d="M95 14H17a3 3 0 0 0-3 3v2a3 3 0 0 0 3 3h78a3 3 0 0 0 3-3v-2a3 3 0 0 0-3-3Zm88 0h-78a3 3 0 0 0-3 3v2a3 3 0 0 0 3 3h78a3 3 0 0 0 3-3v-2a3 3 0 0 0-3-3Z"/><path fill="#4B4B4B" d="M22 29.125h-6a2 2 0 0 0-2 2v6a2 2 0 0 0 2 2h6a2 2 0 0 0 2-2v-6a2 2 0 0 0-2-2Z"/><path fill="#6F6F6F" d="M42.25 29.125h-6a2 2 0 0 0-2 2v6a2 2 0 0 0 2 2h6a2 2 0 0 0 2-2v-6a2 2 0 0 0-2-2Zm20.25 0h-6a2 2 0 0 0-2 2v6a2 2 0 0 0 2 2h6a2 2 0 0 0 2-2v-6a2 2 0 0 0-2-2Zm20.25 0h-6a2 2 0 0 0-2 2v6a2 2 0 0 0 2 2h6a2 2 0 0 0 2-2v-6a2 2 0 0 0-2-2Zm20.25 0h-6a2 2 0 0 0-2 2v6a2 2 0 0 0 2 2h6a2 2 0 0 0 2-2v-6a2 2 0 0 0-2-2Zm20.25 0h-6a2 2 0 0 0-2 2v6a2 2 0 0 0 2 2h6a2 2 0 0 0 2-2v-6a2 2 0 0 0-2-2Zm20.25 0h-6a2 2 0 0 0-2 2v6a2 2 0 0 0 2 2h6a2 2 0 0 0 2-2v-6a2 2 0 0 0-2-2Zm20.25 0h-6a2 2 0 0 0-2 2v6a2 2 0 0 0 2 2h6a2 2 0 0 0 2-2v-6a2 2 0 0 0-2-2Zm20.25 0h-6a2 2 0 0 0-2 2v6a2 2 0 0 0 2 2h6a2 2 0 0 0 2-2v-6a2 2 0 0 0-2-2Z"/><path fill="#4B4B4B" d="M22 45.375h-6a2 2 0 0 0-2 2v6a2 2 0 0 0 2 2h6a2 2 0 0 0 2-2v-6a2 2 0 0 0-2-2Z"/><path fill="silver" d="M44.25 50.375a5 5 0 1 0-10 0 5 5 0 0 0 10 0Zm20.25 0a5 5 0 1 0-10 0 5 5 0 0 0 10 0Zm20.25 0a5 5 0 1 0-10 0 5 5 0 0 0 10 0Zm20.25 0a5 5 0 1 0-10 0 5 5 0 0 0 10 0Zm20.25 0a5 5 0 1 0-10 0 5 5 0 0 0 10 0Zm20.25 0a5 5 0 1 0-10 0 5 5 0 0 0 10 0Zm20.25 0a5 5 0 1 0-10 0 5 5 0 0 0 10 0Zm20.25 0a5 5 0 1 0-10 0 5 5 0 0 0 10 0Z"/><path fill="#4B4B4B" d="M22 61.625h-6a2 2 0 0 0-2 2v6a2 2 0 0 0 2 2h6a2 2 0 0 0 2-2v-6a2 2 0 0 0-2-2Z"/><path fill="silver" d="M44.25 66.625a5 5 0 1 0-10 0 5 5 0 0 0 10 0Z"/><path fill="#009BFF" d="M64.5 66.625a5 5 0 1 0-10 0 5 5 0 0 0 10 0Z"/><path fill="silver" d="M84.75 66.625a5 5 0 1 0-10 0 5 5 0 0 0 10 0Zm20.25 0a5 5 0 1 0-10 0 5 5 0 0 0 10 0Zm20.25 0a5 5 0 1 0-10 0 5 5 0 0 0 10 0Zm20.25 0a5 5 0 1 0-10 0 5 5 0 0 0 10 0Zm20.25 0a5 5 0 1 0-10 0 5 5 0 0 0 10 0Zm20.25 0a5 5 0 1 0-10 0 5 5 0 0 0 10 0Z"/><path fill="#4B4B4B" d="M22 77.875h-6a2 2 0 0 0-2 2v6a2 2 0 0 0 2 2h6a2 2 0 0 0 2-2v-6a2 2 0 0 0-2-2Z"/><path fill="silver" d="M44.25 82.875a5 5 0 1 0-10 0 5 5 0 0 0 10 0Zm20.25 0a5 5 0 1 0-10 0 5 5 0 0 0 10 0Zm20.25 0a5 5 0 1 0-10 0 5 5 0 0 0 10 0Zm20.25 0a5 5 0 1 0-10 0 5 5 0 0 0 10 0Zm20.25 0a5 5 0 1 0-10 0 5 5 0 0 0 10 0Zm20.25 0a5 5 0 1 0-10 0 5 5 0 0 0 10 0Zm20.25 0a5 5 0 1 0-10 0 5 5 0 0 0 10 0Zm20.25 0a5 5 0 1 0-10 0 5 5 0 0 0 10 0Z"/><path fill="silver" fill-rule="evenodd" d="M14 106a3 3 0 0 0-3 3v77a3 3 0 0 0 3 3h172a3 3 0 0 0 3-3v-77a3 3 0 0 0-3-3H14Zm-4 3a4 4 0 0 1 4-4h172a4 4 0 0 1 4 4v77a4 4 0 0 1-4 4H14a4 4 0 0 1-4-4v-77Z" clip-rule="evenodd"/><path fill="#4B4B4B" d="M84 109H16a2 2 0 0 0-2 2v2a2 2 0 0 0 2 2h68a2 2 0 0 0 2-2v-2a2 2 0 0 0-2-2Z"/><path fill="silver" d="M33 123.75H15a1 1 0 0 0-1 1v4a1 1 0 0 0 1 1h18a1 1 0 0 0 1-1v-4a1 1 0 0 0-1-1Z"/><path fill="#009BFF" d="M43 120.75h-4a1 1 0 0 0-1 1v4a1 1 0 0 0 1 1h4a1 1 0 0 0 1-1v-4a1 1 0 0 0-1-1Z"/><path fill="#4B4B4B" d="M185 120.75H49a1 1 0 0 0-1 1v4a1 1 0 0 0 1 1h136a1 1 0 0 0 1-1v-4a1 1 0 0 0-1-1Z"/><path fill="#6F6F6F" d="M42 128.75h-2a1 1 0 0 0-1 1v2a1 1 0 0 0 1 1h2a1 1 0 0 0 1-1v-2a1 1 0 0 0-1-1Zm99 0H49a1 1 0 0 0-1 1v2a1 1 0 0 0 1 1h92a1 1 0 0 0 1-1v-2a1 1 0 0 0-1-1Z"/><path fill="silver" d="M33 141.5H15a1 1 0 0 0-1 1v4a1 1 0 0 0 1 1h18a1 1 0 0 0 1-1v-4a1 1 0 0 0-1-1Z"/><path fill="#009BFF" d="M43 138.5h-4a1 1 0 0 0-1 1v4a1 1 0 0 0 1 1h4a1 1 0 0 0 1-1v-4a1 1 0 0 0-1-1Z"/><path fill="#4B4B4B" d="M185 138.5H49a1 1 0 0 0-1 1v4a1 1 0 0 0 1 1h136a1 1 0 0 0 1-1v-4a1 1 0 0 0-1-1Z"/><path fill="#6F6F6F" d="M42 146.5h-2a1 1 0 0 0-1 1v2a1 1 0 0 0 1 1h2a1 1 0 0 0 1-1v-2a1 1 0 0 0-1-1Zm99 0H49a1 1 0 0 0-1 1v2a1 1 0 0 0 1 1h92a1 1 0 0 0 1-1v-2a1 1 0 0 0-1-1Z"/><path fill="silver" d="M33 159.25H15a1 1 0 0 0-1 1v4a1 1 0 0 0 1 1h18a1 1 0 0 0 1-1v-4a1 1 0 0 0-1-1Z"/><path fill="#009BFF" d="M43 156.25h-4a1 1 0 0 0-1 1v4a1 1 0 0 0 1 1h4a1 1 0 0 0 1-1v-4a1 1 0 0 0-1-1Z"/><path fill="#4B4B4B" d="M185 156.25H49a1 1 0 0 0-1 1v4a1 1 0 0 0 1 1h136a1 1 0 0 0 1-1v-4a1 1 0 0 0-1-1Z"/><path fill="#6F6F6F" d="M42 164.25h-2a1 1 0 0 0-1 1v2a1 1 0 0 0 1 1h2a1 1 0 0 0 1-1v-2a1 1 0 0 0-1-1Zm99 0H49a1 1 0 0 0-1 1v2a1 1 0 0 0 1 1h92a1 1 0 0 0 1-1v-2a1 1 0 0 0-1-1Z"/><path fill="silver" d="M33 177H15a1 1 0 0 0-1 1v4a1 1 0 0 0 1 1h18a1 1 0 0 0 1-1v-4a1 1 0 0 0-1-1Z"/><path fill="#009BFF" d="M43 174h-4a1 1 0 0 0-1 1v4a1 1 0 0 0 1 1h4a1 1 0 0 0 1-1v-4a1 1 0 0 0-1-1Z"/><path fill="#4B4B4B" d="M185 174H49a1 1 0 0 0-1 1v4a1 1 0 0 0 1 1h136a1 1 0 0 0 1-1v-4a1 1 0 0 0-1-1Z"/><path fill="#6F6F6F" d="M42 182h-2a1 1 0 0 0-1 1v2a1 1 0 0 0 1 1h2a1 1 0 0 0 1-1v-2a1 1 0 0 0-1-1Zm99 0H49a1 1 0 0 0-1 1v2a1 1 0 0 0 1 1h92a1 1 0 0 0 1-1v-2a1 1 0 0 0-1-1Z"/></svg><svg fill="none" viewBox="0 0 200 200" id="clickers" xmlns="http://www.w3.org/2000/svg"><path fill="silver" fill-rule="evenodd" d="M10 1a9 9 0 0 0-9 9v180a9 9 0 0 0 9 9h180a9 9 0 0 0 9-9V10a9 9 0 0 0-9-9H10ZM0 10C0 4.477 4.477 0 10 0h180c5.523 0 10 4.477 10 10v180c0 5.523-4.477 10-10 10H10c-5.523 0-10-4.477-10-10V10Z" clip-rule="evenodd"/><path fill="silver" d="M40 100c0-12.147 7.219-22.607 17.6-27.326L45.2 45.35C24.437 54.786 10 75.707 10 100h30Zm30-30a29.875 29.875 0 0 1 18.9 6.7l18.9-23.298A59.75 59.75 0 0 0 70 40v30Z"/><path fill="silver" d="M70 40c-8.844 0-17.241 1.913-24.8 5.35l12.4 27.324A29.865 29.865 0 0 1 70 70V40Z"/><path fill="#009BFF" d="M130 100c0-18.81-8.655-35.597-22.2-46.598L88.9 76.7a30.147 30.147 0 0 1 4.591 4.638A29.87 29.87 0 0 1 100 100h30Zm-60 60c33.137 0 60-26.863 60-60h-30c0 16.569-13.431 30-30 30v30Zm0-30a29.88 29.88 0 0 1-12.4-2.675l-12.4 27.326C52.759 158.086 61.156 160 70 160v-30Z"/><path fill="silver" d="M57.6 127.325C47.219 122.607 40 112.147 40 100H10c0 24.293 14.437 45.214 35.2 54.651l12.4-27.326ZM145 77h-4a1 1 0 0 0-1 1v4a1 1 0 0 0 1 1h4a1 1 0 0 0 1-1v-4a1 1 0 0 0-1-1Z"/><path fill="#4B4B4B" d="M189 77h-37a1 1 0 0 0-1 1v4a1 1 0 0 0 1 1h37a1 1 0 0 0 1-1v-4a1 1 0 0 0-1-1Z"/><path fill="silver" d="M145 87h-4a1 1 0 0 0-1 1v4a1 1 0 0 0 1 1h4a1 1 0 0 0 1-1v-4a1 1 0 0 0-1-1Z"/><path fill="#4B4B4B" d="M189 87h-37a1 1 0 0 0-1 1v4a1 1 0 0 0 1 1h37a1 1 0 0 0 1-1v-4a1 1 0 0 0-1-1Z"/><path fill="#009BFF" d="M145 97h-4a1 1 0 0 0-1 1v4a1 1 0 0 0 1 1h4a1 1 0 0 0 1-1v-4a1 1 0 0 0-1-1Z"/><path fill="#4B4B4B" d="M189 97h-37a1 1 0 0 0-1 1v4a1 1 0 0 0 1 1h37a1 1 0 0 0 1-1v-4a1 1 0 0 0-1-1Z"/><path fill="#009BFF" d="M145 107h-4a1 1 0 0 0-1 1v4a1 1 0 0 0 1 1h4a1 1 0 0 0 1-1v-4a1 1 0 0 0-1-1Z"/><path fill="#4B4B4B" d="M189 107h-37a1 1 0 0 0-1 1v4a1 1 0 0 0 1 1h37a1 1 0 0 0 1-1v-4a1 1 0 0 0-1-1Z"/><path fill="#009BFF" d="M145 117h-4a1 1 0 0 0-1 1v4a1 1 0 0 0 1 1h4a1 1 0 0 0 1-1v-4a1 1 0 0 0-1-1Z"/><path fill="#4B4B4B" d="M189 117h-37a1 1 0 0 0-1 1v4a1 1 0 0 0 1 1h37a1 1 0 0 0 1-1v-4a1 1 0 0 0-1-1Z"/></svg><svg fill="none" viewBox="0 0 200 200" id="imports-exports" xmlns="http://www.w3.org/2000/svg"><path fill="silver" fill-rule="evenodd" d="M10 1a9 9 0 0 0-9 9v180a9 9 0 0 0 9 9h180a9 9 0 0 0 9-9V10a9 9 0 0 0-9-9H10ZM0 10C0 4.477 4.477 0 10 0h180c5.523 0 10 4.477 10 10v180c0 5.523-4.477 10-10 10H10c-5.523 0-10-4.477-10-10V10Z" clip-rule="evenodd"/><path fill="silver" d="M21 10H11a1 1 0 0 0-1 1v4a1 1 0 0 0 1 1h10a1 1 0 0 0 1-1v-4a1 1 0 0 0-1-1Z"/><path fill="#009BFF" d="M31 10h-4a1 1 0 0 0-1 1v4a1 1 0 0 0 1 1h4a1 1 0 0 0 1-1v-4a1 1 0 0 0-1-1Z"/><path fill="#4B4B4B" d="M189 10H37a1 1 0 0 0-1 1v4a1 1 0 0 0 1 1h152a1 1 0 0 0 1-1v-4a1 1 0 0 0-1-1Z"/><path fill="#6F6F6F" d="M14 18h-2a1 1 0 0 0-1 1v2a1 1 0 0 0 1 1h2a1 1 0 0 0 1-1v-2a1 1 0 0 0-1-1Zm123 0H21a1 1 0 0 0-1 1v2a1 1 0 0 0 1 1h116a1 1 0 0 0 1-1v-2a1 1 0 0 0-1-1Z"/><path fill="silver" d="M21 31H11a1 1 0 0 0-1 1v4a1 1 0 0 0 1 1h10a1 1 0 0 0 1-1v-4a1 1 0 0 0-1-1Z"/><path fill="#009BFF" d="M31 31h-4a1 1 0 0 0-1 1v4a1 1 0 0 0 1 1h4a1 1 0 0 0 1-1v-4a1 1 0 0 0-1-1Z"/><path fill="#4B4B4B" d="M189 31H37a1 1 0 0 0-1 1v4a1 1 0 0 0 1 1h152a1 1 0 0 0 1-1v-4a1 1 0 0 0-1-1Z"/><path fill="#6F6F6F" d="M14 39h-2a1 1 0 0 0-1 1v2a1 1 0 0 0 1 1h2a1 1 0 0 0 1-1v-2a1 1 0 0 0-1-1Zm123 0H21a1 1 0 0 0-1 1v2a1 1 0 0 0 1 1h116a1 1 0 0 0 1-1v-2a1 1 0 0 0-1-1Z"/><path fill="silver" d="M21 52H11a1 1 0 0 0-1 1v4a1 1 0 0 0 1 1h10a1 1 0 0 0 1-1v-4a1 1 0 0 0-1-1Z"/><path fill="#009BFF" d="M31 52h-4a1 1 0 0 0-1 1v4a1 1 0 0 0 1 1h4a1 1 0 0 0 1-1v-4a1 1 0 0 0-1-1Z"/><path fill="#4B4B4B" d="M189 52H37a1 1 0 0 0-1 1v4a1 1 0 0 0 1 1h152a1 1 0 0 0 1-1v-4a1 1 0 0 0-1-1Z"/><path fill="#6F6F6F" d="M14 60h-2a1 1 0 0 0-1 1v2a1 1 0 0 0 1 1h2a1 1 0 0 0 1-1v-2a1 1 0 0 0-1-1Zm123 0H21a1 1 0 0 0-1 1v2a1 1 0 0 0 1 1h116a1 1 0 0 0 1-1v-2a1 1 0 0 0-1-1Z"/><path fill="silver" d="M21 73H11a1 1 0 0 0-1 1v4a1 1 0 0 0 1 1h10a1 1 0 0 0 1-1v-4a1 1 0 0 0-1-1Z"/><path fill="#009BFF" d="M31 73h-4a1 1 0 0 0-1 1v4a1 1 0 0 0 1 1h4a1 1 0 0 0 1-1v-4a1 1 0 0 0-1-1Z"/><path fill="#4B4B4B" d="M189 73H37a1 1 0 0 0-1 1v4a1 1 0 0 0 1 1h152a1 1 0 0 0 1-1v-4a1 1 0 0 0-1-1Z"/><path fill="#6F6F6F" d="M14 81h-2a1 1 0 0 0-1 1v2a1 1 0 0 0 1 1h2a1 1 0 0 0 1-1v-2a1 1 0 0 0-1-1Zm123 0H21a1 1 0 0 0-1 1v2a1 1 0 0 0 1 1h116a1 1 0 0 0 1-1v-2a1 1 0 0 0-1-1Z"/><path fill="silver" d="M21 94H11a1 1 0 0 0-1 1v4a1 1 0 0 0 1 1h10a1 1 0 0 0 1-1v-4a1 1 0 0 0-1-1Z"/><path fill="#009BFF" d="M31 94h-4a1 1 0 0 0-1 1v4a1 1 0 0 0 1 1h4a1 1 0 0 0 1-1v-4a1 1 0 0 0-1-1Z"/><path fill="#4B4B4B" d="M189 94H37a1 1 0 0 0-1 1v4a1 1 0 0 0 1 1h152a1 1 0 0 0 1-1v-4a1 1 0 0 0-1-1Z"/><path fill="#6F6F6F" d="M14 102h-2a1 1 0 0 0-1 1v2a1 1 0 0 0 1 1h2a1 1 0 0 0 1-1v-2a1 1 0 0 0-1-1Zm123 0H21a1 1 0 0 0-1 1v2a1 1 0 0 0 1 1h116a1 1 0 0 0 1-1v-2a1 1 0 0 0-1-1Z"/><path fill="silver" d="M21 115H11a1 1 0 0 0-1 1v4a1 1 0 0 0 1 1h10a1 1 0 0 0 1-1v-4a1 1 0 0 0-1-1Z"/><path fill="#009BFF" d="M31 115h-4a1 1 0 0 0-1 1v4a1 1 0 0 0 1 1h4a1 1 0 0 0 1-1v-4a1 1 0 0 0-1-1Z"/><path fill="#4B4B4B" d="M189 115H37a1 1 0 0 0-1 1v4a1 1 0 0 0 1 1h152a1 1 0 0 0 1-1v-4a1 1 0 0 0-1-1Z"/><path fill="#6F6F6F" d="M14 123h-2a1 1 0 0 0-1 1v2a1 1 0 0 0 1 1h2a1 1 0 0 0 1-1v-2a1 1 0 0 0-1-1Zm123 0H21a1 1 0 0 0-1 1v2a1 1 0 0 0 1 1h116a1 1 0 0 0 1-1v-2a1 1 0 0 0-1-1Z"/><path fill="silver" d="M21 136H11a1 1 0 0 0-1 1v4a1 1 0 0 0 1 1h10a1 1 0 0 0 1-1v-4a1 1 0 0 0-1-1Z"/><path fill="#009BFF" d="M31 136h-4a1 1 0 0 0-1 1v4a1 1 0 0 0 1 1h4a1 1 0 0 0 1-1v-4a1 1 0 0 0-1-1Z"/><path fill="#4B4B4B" d="M189 136H37a1 1 0 0 0-1 1v4a1 1 0 0 0 1 1h152a1 1 0 0 0 1-1v-4a1 1 0 0 0-1-1Z"/><path fill="#6F6F6F" d="M14 144h-2a1 1 0 0 0-1 1v2a1 1 0 0 0 1 1h2a1 1 0 0 0 1-1v-2a1 1 0 0 0-1-1Zm123 0H21a1 1 0 0 0-1 1v2a1 1 0 0 0 1 1h116a1 1 0 0 0 1-1v-2a1 1 0 0 0-1-1Z"/><path fill="silver" d="M21 157H11a1 1 0 0 0-1 1v4a1 1 0 0 0 1 1h10a1 1 0 0 0 1-1v-4a1 1 0 0 0-1-1Z"/><path fill="#009BFF" d="M31 157h-4a1 1 0 0 0-1 1v4a1 1 0 0 0 1 1h4a1 1 0 0 0 1-1v-4a1 1 0 0 0-1-1Z"/><path fill="#4B4B4B" d="M189 157H37a1 1 0 0 0-1 1v4a1 1 0 0 0 1 1h152a1 1 0 0 0 1-1v-4a1 1 0 0 0-1-1Z"/><path fill="#6F6F6F" d="M14 165h-2a1 1 0 0 0-1 1v2a1 1 0 0 0 1 1h2a1 1 0 0 0 1-1v-2a1 1 0 0 0-1-1Zm123 0H21a1 1 0 0 0-1 1v2a1 1 0 0 0 1 1h116a1 1 0 0 0 1-1v-2a1 1 0 0 0-1-1Z"/><path fill="silver" d="M21 178H11a1 1 0 0 0-1 1v4a1 1 0 0 0 1 1h10a1 1 0 0 0 1-1v-4a1 1 0 0 0-1-1Z"/><path fill="#009BFF" d="M31 178h-4a1 1 0 0 0-1 1v4a1 1 0 0 0 1 1h4a1 1 0 0 0 1-1v-4a1 1 0 0 0-1-1Z"/><path fill="#4B4B4B" d="M189 178H37a1 1 0 0 0-1 1v4a1 1 0 0 0 1 1h152a1 1 0 0 0 1-1v-4a1 1 0 0 0-1-1Z"/><path fill="#6F6F6F" d="M14 186h-2a1 1 0 0 0-1 1v2a1 1 0 0 0 1 1h2a1 1 0 0 0 1-1v-2a1 1 0 0 0-1-1Zm123 0H21a1 1 0 0 0-1 1v2a1 1 0 0 0 1 1h116a1 1 0 0 0 1-1v-2a1 1 0 0 0-1-1Z"/></svg><svg fill="none" viewBox="0 0 200 200" id="mailings" xmlns="http://www.w3.org/2000/svg"><path fill="silver" fill-rule="evenodd" d="M10 1a9 9 0 0 0-9 9v180a9 9 0 0 0 9 9h180a9 9 0 0 0 9-9V10a9 9 0 0 0-9-9H10ZM0 10C0 4.477 4.477 0 10 0h180c5.523 0 10 4.477 10 10v180c0 5.523-4.477 10-10 10H10c-5.523 0-10-4.477-10-10V10Z" clip-rule="evenodd"/><path fill="silver" d="M62.333 10H11a1 1 0 0 0-1 1v15.667a1 1 0 0 0 1 1h51.333a1 1 0 0 0 1-1V11a1 1 0 0 0-1-1ZM34.667 29.667H11a1 1 0 0 0-1 1v.917a1 1 0 0 0 1 1h23.667a1 1 0 0 0 1-1v-.917a1 1 0 0 0-1-1Zm0 4.916H11a1 1 0 0 0-1 1v.917a1 1 0 0 0 1 1h23.667a1 1 0 0 0 1-1v-.917a1 1 0 0 0-1-1Zm0 4.917H11a1 1 0 0 0-1 1v.917a1 1 0 0 0 1 1h23.667a1 1 0 0 0 1-1V40.5a1 1 0 0 0-1-1Zm0 4.917H11a1 1 0 0 0-1 1v.917a1 1 0 0 0 1 1h23.667a1 1 0 0 0 1-1v-.917a1 1 0 0 0-1-1Zm27.668-14.75H38.668a1 1 0 0 0-1 1v15.667a1 1 0 0 0 1 1h23.667a1 1 0 0 0 1-1V30.667a1 1 0 0 0-1-1Z"/><path fill="#009BFF" d="M15 51.333h-4a1 1 0 0 0-1 1v4a1 1 0 0 0 1 1h4a1 1 0 0 0 1-1v-4a1 1 0 0 0-1-1Z"/><path fill="#4B4B4B" d="M62.333 51.333H22a1 1 0 0 0-1 1v4a1 1 0 0 0 1 1h40.333a1 1 0 0 0 1-1v-4a1 1 0 0 0-1-1Z"/><path fill="#6F6F6F" d="M14 59.333h-2a1 1 0 0 0-1 1v2a1 1 0 0 0 1 1h2a1 1 0 0 0 1-1v-2a1 1 0 0 0-1-1Zm36 0H22a1 1 0 0 0-1 1v2a1 1 0 0 0 1 1h28a1 1 0 0 0 1-1v-2a1 1 0 0 0-1-1Z"/><path fill="silver" d="M125.665 10H74.332a1 1 0 0 0-1 1v15.667a1 1 0 0 0 1 1h51.333a1 1 0 0 0 1-1V11a1 1 0 0 0-1-1ZM97.999 29.667H74.332a1 1 0 0 0-1 1v.917a1 1 0 0 0 1 1h23.667a1 1 0 0 0 1-1v-.917a1 1 0 0 0-1-1Zm0 4.916H74.332a1 1 0 0 0-1 1v.917a1 1 0 0 0 1 1h23.667a1 1 0 0 0 1-1v-.917a1 1 0 0 0-1-1Zm0 4.917H74.332a1 1 0 0 0-1 1v.917a1 1 0 0 0 1 1h23.667a1 1 0 0 0 1-1V40.5a1 1 0 0 0-1-1Zm0 4.917H74.332a1 1 0 0 0-1 1v.917a1 1 0 0 0 1 1h23.667a1 1 0 0 0 1-1v-.917a1 1 0 0 0-1-1Zm27.668-14.75H102a1 1 0 0 0-1 1v15.667a1 1 0 0 0 1 1h23.667a1 1 0 0 0 1-1V30.667a1 1 0 0 0-1-1Z"/><path fill="#009BFF" d="M78.332 51.333h-4a1 1 0 0 0-1 1v4a1 1 0 0 0 1 1h4a1 1 0 0 0 1-1v-4a1 1 0 0 0-1-1Z"/><path fill="#4B4B4B" d="M125.665 51.333H85.332a1 1 0 0 0-1 1v4a1 1 0 0 0 1 1h40.333a1 1 0 0 0 1-1v-4a1 1 0 0 0-1-1Z"/><path fill="#6F6F6F" d="M77.332 59.333h-2a1 1 0 0 0-1 1v2a1 1 0 0 0 1 1h2a1 1 0 0 0 1-1v-2a1 1 0 0 0-1-1Zm36 0h-28a1 1 0 0 0-1 1v2a1 1 0 0 0 1 1h28a1 1 0 0 0 1-1v-2a1 1 0 0 0-1-1Z"/><path fill="silver" d="M189.001 10h-51.333a1 1 0 0 0-1 1v15.667a1 1 0 0 0 1 1h51.333a1 1 0 0 0 1-1V11a1 1 0 0 0-1-1Zm-27.666 19.667h-23.667a1 1 0 0 0-1 1v.917a1 1 0 0 0 1 1h23.667a1 1 0 0 0 1-1v-.917a1 1 0 0 0-1-1Zm0 4.916h-23.667a1 1 0 0 0-1 1v.917a1 1 0 0 0 1 1h23.667a1 1 0 0 0 1-1v-.917a1 1 0 0 0-1-1Zm0 4.917h-23.667a1 1 0 0 0-1 1v.917a1 1 0 0 0 1 1h23.667a1 1 0 0 0 1-1V40.5a1 1 0 0 0-1-1Zm0 4.917h-23.667a1 1 0 0 0-1 1v.917a1 1 0 0 0 1 1h23.667a1 1 0 0 0 1-1v-.917a1 1 0 0 0-1-1Zm27.668-14.75h-23.667a1 1 0 0 0-1 1v15.667a1 1 0 0 0 1 1h23.667a1 1 0 0 0 1-1V30.667a1 1 0 0 0-1-1Z"/><path fill="#009BFF" d="M141.668 51.333h-4a1 1 0 0 0-1 1v4a1 1 0 0 0 1 1h4a1 1 0 0 0 1-1v-4a1 1 0 0 0-1-1Z"/><path fill="#4B4B4B" d="M189.001 51.333h-40.333a1 1 0 0 0-1 1v4a1 1 0 0 0 1 1h40.333a1 1 0 0 0 1-1v-4a1 1 0 0 0-1-1Z"/><path fill="#6F6F6F" d="M140.668 59.333h-2a1 1 0 0 0-1 1v2a1 1 0 0 0 1 1h2a1 1 0 0 0 1-1v-2a1 1 0 0 0-1-1Zm36 0h-28a1 1 0 0 0-1 1v2a1 1 0 0 0 1 1h28a1 1 0 0 0 1-1v-2a1 1 0 0 0-1-1Z"/><path fill="silver" d="M62.333 73.333H11a1 1 0 0 0-1 1V90a1 1 0 0 0 1 1h51.333a1 1 0 0 0 1-1V74.333a1 1 0 0 0-1-1ZM34.667 93H11a1 1 0 0 0-1 1v.917a1 1 0 0 0 1 1h23.667a1 1 0 0 0 1-1V94a1 1 0 0 0-1-1Zm0 4.917H11a1 1 0 0 0-1 1v.917a1 1 0 0 0 1 1h23.667a1 1 0 0 0 1-1v-.917a1 1 0 0 0-1-1Zm0 4.916H11a1 1 0 0 0-1 1v.917a1 1 0 0 0 1 1h23.667a1 1 0 0 0 1-1v-.917a1 1 0 0 0-1-1Zm0 4.917H11a1 1 0 0 0-1 1v.917a1 1 0 0 0 1 1h23.667a1 1 0 0 0 1-1v-.917a1 1 0 0 0-1-1ZM62.335 93H38.668a1 1 0 0 0-1 1v15.667a1 1 0 0 0 1 1h23.667a1 1 0 0 0 1-1V94a1 1 0 0 0-1-1Z"/><path fill="#009BFF" d="M15 114.667h-4a1 1 0 0 0-1 1v4a1 1 0 0 0 1 1h4a1 1 0 0 0 1-1v-4a1 1 0 0 0-1-1Z"/><path fill="#4B4B4B" d="M62.333 114.667H22a1 1 0 0 0-1 1v4a1 1 0 0 0 1 1h40.333a1 1 0 0 0 1-1v-4a1 1 0 0 0-1-1Z"/><path fill="#6F6F6F" d="M14 122.667h-2a1 1 0 0 0-1 1v2a1 1 0 0 0 1 1h2a1 1 0 0 0 1-1v-2a1 1 0 0 0-1-1Zm36 0H22a1 1 0 0 0-1 1v2a1 1 0 0 0 1 1h28a1 1 0 0 0 1-1v-2a1 1 0 0 0-1-1Z"/><path fill="silver" d="M125.665 73.333H74.332a1 1 0 0 0-1 1V90a1 1 0 0 0 1 1h51.333a1 1 0 0 0 1-1V74.333a1 1 0 0 0-1-1ZM97.999 93H74.332a1 1 0 0 0-1 1v.917a1 1 0 0 0 1 1h23.667a1 1 0 0 0 1-1V94a1 1 0 0 0-1-1Zm0 4.917H74.332a1 1 0 0 0-1 1v.917a1 1 0 0 0 1 1h23.667a1 1 0 0 0 1-1v-.917a1 1 0 0 0-1-1Zm0 4.916H74.332a1 1 0 0 0-1 1v.917a1 1 0 0 0 1 1h23.667a1 1 0 0 0 1-1v-.917a1 1 0 0 0-1-1Zm0 4.917H74.332a1 1 0 0 0-1 1v.917a1 1 0 0 0 1 1h23.667a1 1 0 0 0 1-1v-.917a1 1 0 0 0-1-1ZM125.667 93H102a1 1 0 0 0-1 1v15.667a1 1 0 0 0 1 1h23.667a1 1 0 0 0 1-1V94a1 1 0 0 0-1-1Z"/><path fill="#009BFF" d="M78.332 114.667h-4a1 1 0 0 0-1 1v4a1 1 0 0 0 1 1h4a1 1 0 0 0 1-1v-4a1 1 0 0 0-1-1Z"/><path fill="#4B4B4B" d="M125.665 114.667H85.332a1 1 0 0 0-1 1v4a1 1 0 0 0 1 1h40.333a1 1 0 0 0 1-1v-4a1 1 0 0 0-1-1Z"/><path fill="#6F6F6F" d="M77.332 122.667h-2a1 1 0 0 0-1 1v2a1 1 0 0 0 1 1h2a1 1 0 0 0 1-1v-2a1 1 0 0 0-1-1Zm36 0h-28a1 1 0 0 0-1 1v2a1 1 0 0 0 1 1h28a1 1 0 0 0 1-1v-2a1 1 0 0 0-1-1Z"/><path fill="silver" d="M189.001 73.333h-51.333a1 1 0 0 0-1 1V90a1 1 0 0 0 1 1h51.333a1 1 0 0 0 1-1V74.333a1 1 0 0 0-1-1ZM161.335 93h-23.667a1 1 0 0 0-1 1v.917a1 1 0 0 0 1 1h23.667a1 1 0 0 0 1-1V94a1 1 0 0 0-1-1Zm0 4.917h-23.667a1 1 0 0 0-1 1v.917a1 1 0 0 0 1 1h23.667a1 1 0 0 0 1-1v-.917a1 1 0 0 0-1-1Zm0 4.916h-23.667a1 1 0 0 0-1 1v.917a1 1 0 0 0 1 1h23.667a1 1 0 0 0 1-1v-.917a1 1 0 0 0-1-1Zm0 4.917h-23.667a1 1 0 0 0-1 1v.917a1 1 0 0 0 1 1h23.667a1 1 0 0 0 1-1v-.917a1 1 0 0 0-1-1ZM189.003 93h-23.667a1 1 0 0 0-1 1v15.667a1 1 0 0 0 1 1h23.667a1 1 0 0 0 1-1V94a1 1 0 0 0-1-1Z"/><path fill="#009BFF" d="M141.668 114.667h-4a1 1 0 0 0-1 1v4a1 1 0 0 0 1 1h4a1 1 0 0 0 1-1v-4a1 1 0 0 0-1-1Z"/><path fill="#4B4B4B" d="M189.001 114.667h-40.333a1 1 0 0 0-1 1v4a1 1 0 0 0 1 1h40.333a1 1 0 0 0 1-1v-4a1 1 0 0 0-1-1Z"/><path fill="#6F6F6F" d="M140.668 122.667h-2a1 1 0 0 0-1 1v2a1 1 0 0 0 1 1h2a1 1 0 0 0 1-1v-2a1 1 0 0 0-1-1Zm36 0h-28a1 1 0 0 0-1 1v2a1 1 0 0 0 1 1h28a1 1 0 0 0 1-1v-2a1 1 0 0 0-1-1Z"/><path fill="silver" d="M62.333 136.667H11a1 1 0 0 0-1 1v15.667a1 1 0 0 0 1 1h51.333a1 1 0 0 0 1-1v-15.667a1 1 0 0 0-1-1Zm-27.666 19.666H11a1 1 0 0 0-1 1v.917a1 1 0 0 0 1 1h23.667a1 1 0 0 0 1-1v-.917a1 1 0 0 0-1-1Zm0 4.917H11a1 1 0 0 0-1 1v.917a1 1 0 0 0 1 1h23.667a1 1 0 0 0 1-1v-.917a1 1 0 0 0-1-1Zm0 4.917H11a1 1 0 0 0-1 1v.917a1 1 0 0 0 1 1h23.667a1 1 0 0 0 1-1v-.917a1 1 0 0 0-1-1Zm0 4.916H11a1 1 0 0 0-1 1V173a1 1 0 0 0 1 1h23.667a1 1 0 0 0 1-1v-.917a1 1 0 0 0-1-1Zm27.668-14.75H38.668a1 1 0 0 0-1 1V173a1 1 0 0 0 1 1h23.667a1 1 0 0 0 1-1v-15.667a1 1 0 0 0-1-1Z"/><path fill="#009BFF" d="M15 178h-4a1 1 0 0 0-1 1v4a1 1 0 0 0 1 1h4a1 1 0 0 0 1-1v-4a1 1 0 0 0-1-1Z"/><path fill="#4B4B4B" d="M62.333 178H22a1 1 0 0 0-1 1v4a1 1 0 0 0 1 1h40.333a1 1 0 0 0 1-1v-4a1 1 0 0 0-1-1Z"/><path fill="#6F6F6F" d="M14 186h-2a1 1 0 0 0-1 1v2a1 1 0 0 0 1 1h2a1 1 0 0 0 1-1v-2a1 1 0 0 0-1-1Zm36 0H22a1 1 0 0 0-1 1v2a1 1 0 0 0 1 1h28a1 1 0 0 0 1-1v-2a1 1 0 0 0-1-1Z"/><path fill="silver" d="M125.665 136.667H74.332a1 1 0 0 0-1 1v15.667a1 1 0 0 0 1 1h51.333a1 1 0 0 0 1-1v-15.667a1 1 0 0 0-1-1Zm-27.666 19.666H74.332a1 1 0 0 0-1 1v.917a1 1 0 0 0 1 1h23.667a1 1 0 0 0 1-1v-.917a1 1 0 0 0-1-1Zm0 4.917H74.332a1 1 0 0 0-1 1v.917a1 1 0 0 0 1 1h23.667a1 1 0 0 0 1-1v-.917a1 1 0 0 0-1-1Zm0 4.917H74.332a1 1 0 0 0-1 1v.917a1 1 0 0 0 1 1h23.667a1 1 0 0 0 1-1v-.917a1 1 0 0 0-1-1Zm0 4.916H74.332a1 1 0 0 0-1 1V173a1 1 0 0 0 1 1h23.667a1 1 0 0 0 1-1v-.917a1 1 0 0 0-1-1Zm27.668-14.75H102a1 1 0 0 0-1 1V173a1 1 0 0 0 1 1h23.667a1 1 0 0 0 1-1v-15.667a1 1 0 0 0-1-1Z"/><path fill="#009BFF" d="M78.332 178h-4a1 1 0 0 0-1 1v4a1 1 0 0 0 1 1h4a1 1 0 0 0 1-1v-4a1 1 0 0 0-1-1Z"/><path fill="#4B4B4B" d="M125.665 178H85.332a1 1 0 0 0-1 1v4a1 1 0 0 0 1 1h40.333a1 1 0 0 0 1-1v-4a1 1 0 0 0-1-1Z"/><path fill="#6F6F6F" d="M77.332 186h-2a1 1 0 0 0-1 1v2a1 1 0 0 0 1 1h2a1 1 0 0 0 1-1v-2a1 1 0 0 0-1-1Zm36 0h-28a1 1 0 0 0-1 1v2a1 1 0 0 0 1 1h28a1 1 0 0 0 1-1v-2a1 1 0 0 0-1-1Z"/><path fill="silver" d="M189.001 136.667h-51.333a1 1 0 0 0-1 1v15.667a1 1 0 0 0 1 1h51.333a1 1 0 0 0 1-1v-15.667a1 1 0 0 0-1-1Zm-27.666 19.666h-23.667a1 1 0 0 0-1 1v.917a1 1 0 0 0 1 1h23.667a1 1 0 0 0 1-1v-.917a1 1 0 0 0-1-1Zm0 4.917h-23.667a1 1 0 0 0-1 1v.917a1 1 0 0 0 1 1h23.667a1 1 0 0 0 1-1v-.917a1 1 0 0 0-1-1Zm0 4.917h-23.667a1 1 0 0 0-1 1v.917a1 1 0 0 0 1 1h23.667a1 1 0 0 0 1-1v-.917a1 1 0 0 0-1-1Zm0 4.916h-23.667a1 1 0 0 0-1 1V173a1 1 0 0 0 1 1h23.667a1 1 0 0 0 1-1v-.917a1 1 0 0 0-1-1Zm27.668-14.75h-23.667a1 1 0 0 0-1 1V173a1 1 0 0 0 1 1h23.667a1 1 0 0 0 1-1v-15.667a1 1 0 0 0-1-1Z"/><path fill="#009BFF" d="M141.668 178h-4a1 1 0 0 0-1 1v4a1 1 0 0 0 1 1h4a1 1 0 0 0 1-1v-4a1 1 0 0 0-1-1Z"/><path fill="#4B4B4B" d="M189.001 178h-40.333a1 1 0 0 0-1 1v4a1 1 0 0 0 1 1h40.333a1 1 0 0 0 1-1v-4a1 1 0 0 0-1-1Z"/><path fill="#6F6F6F" d="M140.668 186h-2a1 1 0 0 0-1 1v2a1 1 0 0 0 1 1h2a1 1 0 0 0 1-1v-2a1 1 0 0 0-1-1Zm36 0h-28a1 1 0 0 0-1 1v2a1 1 0 0 0 1 1h28a1 1 0 0 0 1-1v-2a1 1 0 0 0-1-1Z"/></svg><svg fill="none" viewBox="0 0 200 200" id="news" xmlns="http://www.w3.org/2000/svg"><g clip-path="url(#aha)"><path fill="silver" fill-rule="evenodd" d="M10 1a9 9 0 0 0-9 9v180a9 9 0 0 0 9 9h180a9 9 0 0 0 9-9V10a9 9 0 0 0-9-9H10ZM0 10C0 4.477 4.477 0 10 0h180c5.523 0 10 4.477 10 10v180c0 5.523-4.477 10-10 10H10c-5.523 0-10-4.477-10-10V10Z" clip-rule="evenodd"/><mask id="ahb" width="180" height="92" x="10" y="10" maskUnits="userSpaceOnUse" style="mask-type:luminance"><path fill="#fff" d="M186 10H14a4 4 0 0 0-4 4v84a4 4 0 0 0 4 4h172a4 4 0 0 0 4-4V14a4 4 0 0 0-4-4Z"/></mask><g mask="url(#ahb)"><path fill="#009BFF" d="M10 14a4 4 0 0 1 4-4h172a3.998 3.998 0 0 1 4 4v14H10V14Z"/><path fill="#fff" d="M62 14H16a2 2 0 0 0-2 2v6a2 2 0 0 0 2 2h46a2 2 0 0 0 2-2v-6a2 2 0 0 0-2-2Zm123 0h-28a1 1 0 0 0-1 1v3a1 1 0 0 0 1 1h28a1 1 0 0 0 1-1v-3a1 1 0 0 0-1-1Z"/><mask id="ahc" width="180" height="74" x="10" y="28" maskUnits="userSpaceOnUse" style="mask-type:luminance"><path fill="#fff" d="M10 28h180v70c0 1.06-.421 2.078-1.172 2.828A3.995 3.995 0 0 1 186 102H14a3.997 3.997 0 0 1-4-4V28Z"/></mask><g mask="url(#ahc)"><path fill="#009BFF" d="M191 98a5.004 5.004 0 0 1-1.464 3.536A5.004 5.004 0 0 1 186 103H14a5.002 5.002 0 0 1-5-5h2a2.999 2.999 0 0 0 3 3h172a2.997 2.997 0 0 0 3-3h2Zm-177 5a5.002 5.002 0 0 1-5-5V28h2v70a2.999 2.999 0 0 0 3 3v2Zm177-75v70a5.004 5.004 0 0 1-1.464 3.536A5.004 5.004 0 0 1 186 103v-2a2.997 2.997 0 0 0 3-3V28h2Z"/></g><path fill="#4B4B4B" d="M183 32H15a1 1 0 0 0-1 1v4a1 1 0 0 0 1 1h168a1 1 0 0 0 1-1v-4a1 1 0 0 0-1-1Zm-69 10H15a1 1 0 0 0-1 1v4a1 1 0 0 0 1 1h99a1 1 0 0 0 1-1v-4a1 1 0 0 0-1-1Zm58 10H15a1 1 0 0 0-1 1v4a1 1 0 0 0 1 1h157a1 1 0 0 0 1-1v-4a1 1 0 0 0-1-1Zm-37 10H15a1 1 0 0 0-1 1v4a1 1 0 0 0 1 1h120a1 1 0 0 0 1-1v-4a1 1 0 0 0-1-1Zm-15 10H15a1 1 0 0 0-1 1v4a1 1 0 0 0 1 1h105a1 1 0 0 0 1-1v-4a1 1 0 0 0-1-1Zm63 10H15a1 1 0 0 0-1 1v4a1 1 0 0 0 1 1h168a1 1 0 0 0 1-1v-4a1 1 0 0 0-1-1Zm-25 10H15a1 1 0 0 0-1 1v4a1 1 0 0 0 1 1h143a1 1 0 0 0 1-1v-4a1 1 0 0 0-1-1Z"/></g><mask id="ahd" width="180" height="82" x="10" y="108" maskUnits="userSpaceOnUse" style="mask-type:luminance"><path fill="#fff" d="M186 108H14a4 4 0 0 0-4 4v74a4 4 0 0 0 4 4h172a4 4 0 0 0 4-4v-74a4 4 0 0 0-4-4Z"/></mask><g mask="url(#ahd)"><mask id="ahe" width="180" height="18" x="10" y="108" maskUnits="userSpaceOnUse" style="mask-type:luminance"><path fill="#fff" d="M10 112a3.998 3.998 0 0 1 4-4h172c1.061 0 2.078.421 2.828 1.172A3.995 3.995 0 0 1 190 112v14H10v-14Z"/></mask><g mask="url(#ahe)"><path fill="silver" d="M9 112a5.002 5.002 0 0 1 5-5h172c1.326 0 2.598.527 3.536 1.464A5.004 5.004 0 0 1 191 112h-2c0-.796-.316-1.559-.879-2.121A2.996 2.996 0 0 0 186 109H14a2.999 2.999 0 0 0-3 3H9Zm0 14v-14a5.002 5.002 0 0 1 5-5v2a2.999 2.999 0 0 0-3 3v14H9Zm177-19c1.326 0 2.598.527 3.536 1.464A5.004 5.004 0 0 1 191 112v14h-2v-14c0-.796-.316-1.559-.879-2.121A2.996 2.996 0 0 0 186 109v-2Z"/></g><path fill="silver" d="M62 112H16a2 2 0 0 0-2 2v6a2 2 0 0 0 2 2h46a2 2 0 0 0 2-2v-6a2 2 0 0 0-2-2Z"/><path fill="#6F6F6F" d="M185 112h-28a1 1 0 0 0-1 1v3a1 1 0 0 0 1 1h28a1 1 0 0 0 1-1v-3a1 1 0 0 0-1-1Z"/><mask id="ahf" width="180" height="64" x="10" y="126" maskUnits="userSpaceOnUse" style="mask-type:luminance"><path fill="#fff" d="M10 126h180v60a3.995 3.995 0 0 1-1.172 2.828A3.995 3.995 0 0 1 186 190H14a3.997 3.997 0 0 1-4-4v-60Z"/></mask><g mask="url(#ahf)"><path fill="silver" d="M191 186a5.004 5.004 0 0 1-1.464 3.536A5.004 5.004 0 0 1 186 191H14a5.002 5.002 0 0 1-5-5h2a2.998 2.998 0 0 0 3 3h172c.796 0 1.559-.316 2.121-.879A2.996 2.996 0 0 0 189 186h2Zm-177 5a5.002 5.002 0 0 1-5-5v-60h2v60a2.998 2.998 0 0 0 3 3v2Zm177-65v60a5.004 5.004 0 0 1-1.464 3.536A5.004 5.004 0 0 1 186 191v-2c.796 0 1.559-.316 2.121-.879A2.996 2.996 0 0 0 189 186v-60h2Z"/></g><path fill="#4B4B4B" d="M114 130H15a1 1 0 0 0-1 1v4a1 1 0 0 0 1 1h99a1 1 0 0 0 1-1v-4a1 1 0 0 0-1-1Zm69 10H15a1 1 0 0 0-1 1v4a1 1 0 0 0 1 1h168a1 1 0 0 0 1-1v-4a1 1 0 0 0-1-1Zm-48 10H15a1 1 0 0 0-1 1v4a1 1 0 0 0 1 1h120a1 1 0 0 0 1-1v-4a1 1 0 0 0-1-1Zm40 10H15a1 1 0 0 0-1 1v4a1 1 0 0 0 1 1h160a1 1 0 0 0 1-1v-4a1 1 0 0 0-1-1Zm-21 10H15a1 1 0 0 0-1 1v4a1 1 0 0 0 1 1h139a1 1 0 0 0 1-1v-4a1 1 0 0 0-1-1Zm29 10H15a1 1 0 0 0-1 1v4a1 1 0 0 0 1 1h168a1 1 0 0 0 1-1v-4a1 1 0 0 0-1-1Z"/></g></g><defs><clipPath id="aha"><path fill="#fff" d="M0 0h200v200H0z"/></clipPath></defs></svg><svg fill="none" viewBox="0 0 200 200" id="openers" xmlns="http://www.w3.org/2000/svg"><path fill="silver" fill-rule="evenodd" d="M10 1a9 9 0 0 0-9 9v180a9 9 0 0 0 9 9h180a9 9 0 0 0 9-9V10a9 9 0 0 0-9-9H10ZM0 10C0 4.477 4.477 0 10 0h180c5.523 0 10 4.477 10 10v180c0 5.523-4.477 10-10 10H10c-5.523 0-10-4.477-10-10V10Z" clip-rule="evenodd"/><path fill="#009BFF" d="M40 85c0-12.147 7.219-22.607 17.6-27.325L45.2 30.349C24.437 39.786 10 60.707 10 85h30Zm30-30a29.875 29.875 0 0 1 18.9 6.7l18.9-23.298A59.75 59.75 0 0 0 70 25v30Z"/><path fill="#009BFF" d="M70 25c-8.844 0-17.241 1.912-24.8 5.349l12.4 27.326a29.87 29.87 0 0 1 3.6-1.364A30 30 0 0 1 70 55V25Z"/><path fill="silver" d="M130 85c0-18.81-8.655-35.597-22.2-46.598L88.9 61.7a30.147 30.147 0 0 1 4.591 4.638A29.87 29.87 0 0 1 100 85h30Zm-60 60c33.137 0 60-26.863 60-60h-30c0 16.569-13.431 30-30 30v30Z"/><path fill="#009BFF" d="M70 115a29.88 29.88 0 0 1-12.4-2.675l-12.4 27.326C52.759 143.087 61.156 145 70 145v-30Z"/><path fill="#009BFF" d="M57.6 112.325C47.219 107.607 40 97.147 40 85H10c0 24.293 14.437 45.214 35.2 54.651l12.4-27.326ZM145 62h-4a1 1 0 0 0-1 1v4a1 1 0 0 0 1 1h4a1 1 0 0 0 1-1v-4a1 1 0 0 0-1-1Z"/><path fill="#4B4B4B" d="M189 62h-37a1 1 0 0 0-1 1v4a1 1 0 0 0 1 1h37a1 1 0 0 0 1-1v-4a1 1 0 0 0-1-1Z"/><path fill="#009BFF" d="M145 72h-4a1 1 0 0 0-1 1v4a1 1 0 0 0 1 1h4a1 1 0 0 0 1-1v-4a1 1 0 0 0-1-1Z"/><path fill="#4B4B4B" d="M189 72h-37a1 1 0 0 0-1 1v4a1 1 0 0 0 1 1h37a1 1 0 0 0 1-1v-4a1 1 0 0 0-1-1Z"/><path fill="silver" d="M145 82h-4a1 1 0 0 0-1 1v4a1 1 0 0 0 1 1h4a1 1 0 0 0 1-1v-4a1 1 0 0 0-1-1Z"/><path fill="#4B4B4B" d="M189 82h-37a1 1 0 0 0-1 1v4a1 1 0 0 0 1 1h37a1 1 0 0 0 1-1v-4a1 1 0 0 0-1-1Z"/><path fill="silver" d="M145 92h-4a1 1 0 0 0-1 1v4a1 1 0 0 0 1 1h4a1 1 0 0 0 1-1v-4a1 1 0 0 0-1-1Z"/><path fill="#4B4B4B" d="M189 92h-37a1 1 0 0 0-1 1v4a1 1 0 0 0 1 1h37a1 1 0 0 0 1-1v-4a1 1 0 0 0-1-1Z"/><path fill="silver" d="M145 102h-4a1 1 0 0 0-1 1v4a1 1 0 0 0 1 1h4a1 1 0 0 0 1-1v-4a1 1 0 0 0-1-1Z"/><path fill="#4B4B4B" d="M189 102h-37a1 1 0 0 0-1 1v4a1 1 0 0 0 1 1h37a1 1 0 0 0 1-1v-4a1 1 0 0 0-1-1Zm-1 68H12a2 2 0 0 0-2 2v16a2 2 0 0 0 2 2h176a2 2 0 0 0 2-2v-16a2 2 0 0 0-2-2Z"/><path fill="#009BFF" d="M31 176H17a1 1 0 0 0-1 1v6a1 1 0 0 0 1 1h14a1 1 0 0 0 1-1v-6a1 1 0 0 0-1-1Z"/><path fill="#fff" d="M75 176H39a1 1 0 0 0-1 1v6a1 1 0 0 0 1 1h36a1 1 0 0 0 1-1v-6a1 1 0 0 0-1-1Z"/></svg><svg fill="none" viewBox="0 0 200 200" id="planning" xmlns="http://www.w3.org/2000/svg"><path fill="silver" fill-rule="evenodd" d="M10 1a9 9 0 0 0-9 9v180a9 9 0 0 0 9 9h180a9 9 0 0 0 9-9V10a9 9 0 0 0-9-9H10ZM0 10C0 4.477 4.477 0 10 0h180c5.523 0 10 4.477 10 10v180c0 5.523-4.477 10-10 10H10c-5.523 0-10-4.477-10-10V10Z" clip-rule="evenodd"/><path fill="silver" d="M187 10H13a3 3 0 0 0-3 3v4a3 3 0 0 0 3 3h174a3 3 0 0 0 3-3v-4a3 3 0 0 0-3-3Zm0 14H13a3 3 0 0 0-3 3v4a3 3 0 0 0 3 3h174a3 3 0 0 0 3-3v-4a3 3 0 0 0-3-3Z"/><path fill="silver" fill-rule="evenodd" d="M14 45a3 3 0 0 0-3 3v138a3 3 0 0 0 3 3h172a3 3 0 0 0 3-3V48a3 3 0 0 0-3-3H14Zm-4 3a4 4 0 0 1 4-4h172a4 4 0 0 1 4 4v138a4 4 0 0 1-4 4H14a4 4 0 0 1-4-4V48Z" clip-rule="evenodd"/><path fill="#4B4B4B" d="M84 48H16a2 2 0 0 0-2 2v2a2 2 0 0 0 2 2h68a2 2 0 0 0 2-2v-2a2 2 0 0 0-2-2Z"/><path fill="silver" d="M33 67H15a1 1 0 0 0-1 1v4a1 1 0 0 0 1 1h18a1 1 0 0 0 1-1v-4a1 1 0 0 0-1-1Z"/><path fill="#009BFF" d="M43 64h-4a1 1 0 0 0-1 1v4a1 1 0 0 0 1 1h4a1 1 0 0 0 1-1v-4a1 1 0 0 0-1-1Z"/><path fill="#4B4B4B" d="M185 64H49a1 1 0 0 0-1 1v4a1 1 0 0 0 1 1h136a1 1 0 0 0 1-1v-4a1 1 0 0 0-1-1Z"/><path fill="#6F6F6F" d="M42 72h-2a1 1 0 0 0-1 1v2a1 1 0 0 0 1 1h2a1 1 0 0 0 1-1v-2a1 1 0 0 0-1-1Zm100 0H49a1 1 0 0 0-1 1v2a1 1 0 0 0 1 1h93a1 1 0 0 0 1-1v-2a1 1 0 0 0-1-1Z"/><path fill="silver" d="M33 89H15a1 1 0 0 0-1 1v4a1 1 0 0 0 1 1h18a1 1 0 0 0 1-1v-4a1 1 0 0 0-1-1Z"/><path fill="#009BFF" d="M43 86h-4a1 1 0 0 0-1 1v4a1 1 0 0 0 1 1h4a1 1 0 0 0 1-1v-4a1 1 0 0 0-1-1Z"/><path fill="#4B4B4B" d="M185 86H49a1 1 0 0 0-1 1v4a1 1 0 0 0 1 1h136a1 1 0 0 0 1-1v-4a1 1 0 0 0-1-1Z"/><path fill="#6F6F6F" d="M42 94h-2a1 1 0 0 0-1 1v2a1 1 0 0 0 1 1h2a1 1 0 0 0 1-1v-2a1 1 0 0 0-1-1Zm100 0H49a1 1 0 0 0-1 1v2a1 1 0 0 0 1 1h93a1 1 0 0 0 1-1v-2a1 1 0 0 0-1-1Z"/><path fill="silver" d="M33 111H15a1 1 0 0 0-1 1v4a1 1 0 0 0 1 1h18a1 1 0 0 0 1-1v-4a1 1 0 0 0-1-1Z"/><path fill="#009BFF" d="M43 108h-4a1 1 0 0 0-1 1v4a1 1 0 0 0 1 1h4a1 1 0 0 0 1-1v-4a1 1 0 0 0-1-1Z"/><path fill="#4B4B4B" d="M185 108H49a1 1 0 0 0-1 1v4a1 1 0 0 0 1 1h136a1 1 0 0 0 1-1v-4a1 1 0 0 0-1-1Z"/><path fill="#6F6F6F" d="M42 116h-2a1 1 0 0 0-1 1v2a1 1 0 0 0 1 1h2a1 1 0 0 0 1-1v-2a1 1 0 0 0-1-1Zm100 0H49a1 1 0 0 0-1 1v2a1 1 0 0 0 1 1h93a1 1 0 0 0 1-1v-2a1 1 0 0 0-1-1Z"/><path fill="silver" d="M33 133H15a1 1 0 0 0-1 1v4a1 1 0 0 0 1 1h18a1 1 0 0 0 1-1v-4a1 1 0 0 0-1-1Z"/><path fill="#009BFF" d="M43 130h-4a1 1 0 0 0-1 1v4a1 1 0 0 0 1 1h4a1 1 0 0 0 1-1v-4a1 1 0 0 0-1-1Z"/><path fill="#4B4B4B" d="M185 130H49a1 1 0 0 0-1 1v4a1 1 0 0 0 1 1h136a1 1 0 0 0 1-1v-4a1 1 0 0 0-1-1Z"/><path fill="#6F6F6F" d="M42 138h-2a1 1 0 0 0-1 1v2a1 1 0 0 0 1 1h2a1 1 0 0 0 1-1v-2a1 1 0 0 0-1-1Zm100 0H49a1 1 0 0 0-1 1v2a1 1 0 0 0 1 1h93a1 1 0 0 0 1-1v-2a1 1 0 0 0-1-1Z"/><path fill="silver" d="M33 155H15a1 1 0 0 0-1 1v4a1 1 0 0 0 1 1h18a1 1 0 0 0 1-1v-4a1 1 0 0 0-1-1Z"/><path fill="#009BFF" d="M43 152h-4a1 1 0 0 0-1 1v4a1 1 0 0 0 1 1h4a1 1 0 0 0 1-1v-4a1 1 0 0 0-1-1Z"/><path fill="#4B4B4B" d="M185 152H49a1 1 0 0 0-1 1v4a1 1 0 0 0 1 1h136a1 1 0 0 0 1-1v-4a1 1 0 0 0-1-1Z"/><path fill="#6F6F6F" d="M42 160h-2a1 1 0 0 0-1 1v2a1 1 0 0 0 1 1h2a1 1 0 0 0 1-1v-2a1 1 0 0 0-1-1Zm100 0H49a1 1 0 0 0-1 1v2a1 1 0 0 0 1 1h93a1 1 0 0 0 1-1v-2a1 1 0 0 0-1-1Z"/><path fill="silver" d="M33 177H15a1 1 0 0 0-1 1v4a1 1 0 0 0 1 1h18a1 1 0 0 0 1-1v-4a1 1 0 0 0-1-1Z"/><path fill="#009BFF" d="M43 174h-4a1 1 0 0 0-1 1v4a1 1 0 0 0 1 1h4a1 1 0 0 0 1-1v-4a1 1 0 0 0-1-1Z"/><path fill="#4B4B4B" d="M185 174H49a1 1 0 0 0-1 1v4a1 1 0 0 0 1 1h136a1 1 0 0 0 1-1v-4a1 1 0 0 0-1-1Z"/><path fill="#6F6F6F" d="M42 182h-2a1 1 0 0 0-1 1v2a1 1 0 0 0 1 1h2a1 1 0 0 0 1-1v-2a1 1 0 0 0-1-1Zm100 0H49a1 1 0 0 0-1 1v2a1 1 0 0 0 1 1h93a1 1 0 0 0 1-1v-2a1 1 0 0 0-1-1Z"/></svg><svg fill="none" viewBox="0 0 200 200" id="statistics" xmlns="http://www.w3.org/2000/svg"><path fill="silver" fill-rule="evenodd" d="M10 1a9 9 0 0 0-9 9v180a9 9 0 0 0 9 9h180a9 9 0 0 0 9-9V10a9 9 0 0 0-9-9H10ZM0 10C0 4.477 4.477 0 10 0h180c5.523 0 10 4.477 10 10v180c0 5.523-4.477 10-10 10H10c-5.523 0-10-4.477-10-10V10Z" clip-rule="evenodd"/><path fill="#4B4B4B" d="M26 10h-4a2 2 0 0 0-2 2v4a2 2 0 0 0 2 2h4a2 2 0 0 0 2-2v-4a2 2 0 0 0-2-2Z"/><path fill="#009BFF" d="M37 22H11a1 1 0 0 0-1 1v154a1 1 0 0 0 1 1h26a1 1 0 0 0 1-1V23a1 1 0 0 0-1-1Z"/><path fill="#4B4B4B" d="M31 182H17a2 2 0 0 0-2 2v4a2 2 0 0 0 2 2h14a2 2 0 0 0 2-2v-4a2 2 0 0 0-2-2ZM64 46h-4a2 2 0 0 0-2 2v4a2 2 0 0 0 2 2h4a2 2 0 0 0 2-2v-4a2 2 0 0 0-2-2Z"/><path fill="#009BFF" d="M75 58H49a1 1 0 0 0-1 1v118a1 1 0 0 0 1 1h26a1 1 0 0 0 1-1V59a1 1 0 0 0-1-1Z"/><path fill="#4B4B4B" d="M69 182H55a2 2 0 0 0-2 2v4a2 2 0 0 0 2 2h14a2 2 0 0 0 2-2v-4a2 2 0 0 0-2-2Zm33-99h-4a2 2 0 0 0-2 2v4a2 2 0 0 0 2 2h4a2 2 0 0 0 2-2v-4a2 2 0 0 0-2-2Z"/><path fill="#009BFF" d="M113 95H87a1 1 0 0 0-1 1v81a1 1 0 0 0 1 1h26a1 1 0 0 0 1-1V96a1 1 0 0 0-1-1Z"/><path fill="#4B4B4B" d="M107 182H93a2 2 0 0 0-2 2v4a2 2 0 0 0 2 2h14a2 2 0 0 0 2-2v-4a2 2 0 0 0-2-2Zm33-71h-4a2 2 0 0 0-2 2v4a2 2 0 0 0 2 2h4a2 2 0 0 0 2-2v-4a2 2 0 0 0-2-2Z"/><path fill="#009BFF" d="M151 123h-26a1 1 0 0 0-1 1v53a1 1 0 0 0 1 1h26a1 1 0 0 0 1-1v-53a1 1 0 0 0-1-1Z"/><path fill="#4B4B4B" d="M145 182h-14a2 2 0 0 0-2 2v4a2 2 0 0 0 2 2h14a2 2 0 0 0 2-2v-4a2 2 0 0 0-2-2Zm33-47h-4a2 2 0 0 0-2 2v4a2 2 0 0 0 2 2h4a2 2 0 0 0 2-2v-4a2 2 0 0 0-2-2Z"/><path fill="#009BFF" d="M189 147h-26a1 1 0 0 0-1 1v29a1 1 0 0 0 1 1h26a1 1 0 0 0 1-1v-29a1 1 0 0 0-1-1Z"/><path fill="#4B4B4B" d="M183 182h-14a2 2 0 0 0-2 2v4a2 2 0 0 0 2 2h14a2 2 0 0 0 2-2v-4a2 2 0 0 0-2-2Z"/></svg><svg fill="none" viewBox="0 0 200 200" id="week-calendar" xmlns="http://www.w3.org/2000/svg"><rect width="199" height="199" x=".5" y=".5" stroke="silver" rx="9.5"/><g clip-path="url(#ala)"><mask id="alb" fill="#fff"><path d="M10 10h17.571v180H10V10Z"/></mask><path fill="silver" d="M10 10V9H9v1h1Zm0 1h17.571V9H10v2Zm1 179V10H9v180h2Z" mask="url(#alb)"/><rect width="4" height="4" x="13" y="13" fill="#7E7E7E" rx="1"/><rect width="11.571" height="6" x="13" y="19" fill="silver" rx="2"/><rect width="11.571" height="6" x="13" y="27" fill="silver" rx="2"/><rect width="11.571" height="6" x="13" y="35" fill="silver" rx="2"/><rect width="11.571" height="6" x="13" y="43" fill="silver" rx="2"/><rect width="11.571" height="6" x="13" y="51" fill="silver" rx="2"/><mask id="alc" fill="#fff"><path d="M27.571 10h17.572v180H27.57V10Z"/></mask><path fill="silver" d="M27.571 10V9h-1v1h1Zm0 1h17.572V9H27.57v2Zm1 179V10h-2v180h2Z" mask="url(#alc)"/><rect width="4" height="4" x="30.571" y="13" fill="#7E7E7E" rx="1"/><rect width="11.571" height="6" x="30.571" y="19" fill="silver" rx="2"/><rect width="11.571" height="6" x="30.571" y="27" fill="silver" rx="2"/><rect width="11.571" height="6" x="30.571" y="35" fill="silver" rx="2"/><mask id="ald" fill="#fff"><path d="M45.143 10h17.571v180H45.143V10Z"/></mask><path fill="silver" d="M45.143 10V9h-1v1h1Zm0 1h17.571V9H45.143v2Zm1 179V10h-2v180h2Z" mask="url(#ald)"/><rect width="4" height="4" x="48.143" y="13" fill="#7E7E7E" rx="1"/><rect width="11.571" height="6" x="48.143" y="19" fill="silver" rx="2"/><rect width="11.571" height="6" x="48.143" y="27" fill="silver" rx="2"/><rect width="11.571" height="6" x="48.143" y="35" fill="silver" rx="2"/><rect width="11.571" height="6" x="48.143" y="43" fill="silver" rx="2"/><rect width="11.571" height="6" x="48.143" y="51" fill="silver" rx="2"/><rect width="11.571" height="6" x="48.143" y="59" fill="silver" rx="2"/><rect width="11.571" height="6" x="48.143" y="67" fill="silver" rx="2"/><rect width="11.571" height="6" x="48.143" y="75" fill="silver" rx="2"/><rect width="11.571" height="6" x="48.143" y="83" fill="silver" rx="2"/><rect width="11.571" height="6" x="48.143" y="91" fill="silver" rx="2"/><rect width="11.571" height="6" x="48.143" y="99" fill="silver" rx="2"/><rect width="11.571" height="6" x="48.143" y="107" fill="silver" rx="2"/><mask id="ale" fill="#fff"><path d="M62.714 10h17.572v180H62.714V10Z"/></mask><path fill="silver" d="M62.714 10V9h-1v1h1Zm0 1h17.572V9H62.714v2Zm1 179V10h-2v180h2Z" mask="url(#ale)"/><rect width="4" height="4" x="65.714" y="13" fill="#7E7E7E" rx="1"/><rect width="11.571" height="6" x="65.714" y="19" fill="silver" rx="2"/><rect width="11.571" height="6" x="65.714" y="27" fill="silver" rx="2"/><rect width="11.571" height="6" x="65.714" y="35" fill="silver" rx="2"/><rect width="11.571" height="6" x="65.714" y="43" fill="silver" rx="2"/><rect width="11.571" height="6" x="65.714" y="51" fill="silver" rx="2"/><rect width="11.571" height="6" x="65.714" y="59" fill="silver" rx="2"/><mask id="alf" fill="#fff"><path d="M80.286 10h17.571v180H80.286V10Z"/></mask><path fill="silver" d="M80.286 10V9h-1v1h1Zm0 1h17.571V9H80.286v2Zm1 179V10h-2v180h2Z" mask="url(#alf)"/><rect width="4" height="4" x="83.286" y="13" fill="#7E7E7E" rx="1"/><rect width="11.571" height="6" x="83.286" y="19" fill="silver" rx="2"/><rect width="11.571" height="6" x="83.286" y="27" fill="silver" rx="2"/><mask id="alg" fill="#fff"><path d="M97.857 10h17.572v180H97.857V10Z"/></mask><path fill="silver" d="M97.857 10V9h-1v1h1Zm0 1h17.572V9H97.857v2Zm1 179V10h-2v180h2Z" mask="url(#alg)"/><rect width="4" height="4" x="100.857" y="13" fill="#7E7E7E" rx="1"/><rect width="11.571" height="6" x="100.857" y="19" fill="silver" rx="2"/><mask id="alh" fill="#fff"><path d="M115.429 10H133v180h-17.571V10Z"/></mask><path fill="silver" d="M115.429 10V9h-1v1h1Zm0 1H133V9h-17.571v2Zm1 179V10h-2v180h2Z" mask="url(#alh)"/><rect width="4" height="4" x="118.429" y="13" fill="#7E7E7E" rx="1"/><rect width="11.571" height="6" x="118.429" y="19" fill="silver" rx="2"/><rect width="11.571" height="6" x="118.429" y="27" fill="silver" rx="2"/><rect width="11.571" height="6" x="118.429" y="35" fill="silver" rx="2"/><rect width="11.571" height="6" x="118.429" y="43" fill="silver" rx="2"/><rect width="11.571" height="6" x="118.429" y="51" fill="silver" rx="2"/><rect width="11.571" height="6" x="118.429" y="59" fill="silver" rx="2"/><rect width="11.571" height="6" x="118.429" y="67" fill="silver" rx="2"/><rect width="11.571" height="6" x="118.429" y="75" fill="silver" rx="2"/></g><rect width="122" height="179" x="10.5" y="10.5" stroke="silver" rx="4.5"/><rect width="46" height="179" x="143.5" y="10.5" stroke="silver" rx="4.5"/><rect width="36" height="5" x="148.5" y="15.5" fill="silver" rx="1.5"/><rect width="36" height="5" x="148.5" y="15.5" stroke="silver" rx="1.5"/><path fill="#0071B9" d="M148 17a2 2 0 0 1 2-2h16.5v6H150a2 2 0 0 1-2-2v-2Z"/><mask id="ali" fill="#fff"><path d="M166.5 15H183a2 2 0 0 1 2 2v2a2 2 0 0 1-2 2h-16.5v-6Z"/></mask><path fill="silver" d="M166.5 14H183a3 3 0 0 1 3 3h-2a1 1 0 0 0-1-1h-16.5v-2Zm19.5 5a3 3 0 0 1-3 3h-16.5v-2H183a1 1 0 0 0 1-1h2Zm-19.5 2v-6 6Zm16.5-7a3 3 0 0 1 3 3v2a3 3 0 0 1-3 3v-2a1 1 0 0 0 1-1v-2a1 1 0 0 0-1-1v-2Z" mask="url(#ali)"/><rect width="6" height="6" x="148" y="26" fill="#2872E0" rx="2"/><rect width="6" height="6" x="156" y="26" fill="#569AFF" rx="2"/><rect width="21" height="6" x="164" y="26" fill="silver" rx="2"/><rect width="6" height="6" x="148" y="37" fill="#2872E0" rx="2"/><rect width="6" height="6" x="156" y="37" fill="#569AFF" rx="2"/><rect width="21" height="6" x="164" y="37" fill="silver" rx="2"/><rect width="6" height="6" x="148" y="48" fill="#2872E0" rx="2"/><rect width="6" height="6" x="156" y="48" fill="#569AFF" rx="2"/><rect width="21" height="6" x="164" y="48" fill="silver" rx="2"/><rect width="6" height="6" x="148" y="59" fill="#2872E0" rx="2"/><rect width="6" height="6" x="156" y="59" fill="#569AFF" rx="2"/><rect width="21" height="6" x="164" y="59" fill="silver" rx="2"/><rect width="6" height="6" x="148" y="70" fill="#2872E0" rx="2"/><rect width="6" height="6" x="156" y="70" fill="#569AFF" rx="2"/><rect width="21" height="6" x="164" y="70" fill="silver" rx="2"/><rect width="6" height="6" x="148" y="81" fill="#2872E0" rx="2"/><rect width="6" height="6" x="156" y="81" fill="#569AFF" rx="2"/><rect width="21" height="6" x="164" y="81" fill="silver" rx="2"/><rect width="6" height="6" x="148" y="92" fill="#2872E0" rx="2"/><rect width="6" height="6" x="156" y="92" fill="#569AFF" rx="2"/><rect width="21" height="6" x="164" y="92" fill="silver" rx="2"/><rect width="6" height="6" x="148" y="103" fill="#2872E0" rx="2"/><rect width="6" height="6" x="156" y="103" fill="#569AFF" rx="2"/><rect width="21" height="6" x="164" y="103" fill="silver" rx="2"/><rect width="6" height="6" x="148" y="114" fill="#2872E0" rx="2"/><rect width="6" height="6" x="156" y="114" fill="#569AFF" rx="2"/><rect width="21" height="6" x="164" y="114" fill="silver" rx="2"/><defs><clipPath id="ala"><rect width="123" height="180" x="10" y="10" fill="#fff" rx="5"/></clipPath></defs></svg><svg fill="none" viewBox="0 0 200 200" id="workflows" xmlns="http://www.w3.org/2000/svg"><path fill="silver" fill-rule="evenodd" d="M10 1a9 9 0 0 0-9 9v180a9 9 0 0 0 9 9h180a9 9 0 0 0 9-9V10a9 9 0 0 0-9-9H10ZM0 10C0 4.477 4.477 0 10 0h180c5.523 0 10 4.477 10 10v180c0 5.523-4.477 10-10 10H10c-5.523 0-10-4.477-10-10V10Z" clip-rule="evenodd"/><path fill="#009BFF" d="M15 10h-4a1 1 0 0 0-1 1v4a1 1 0 0 0 1 1h4a1 1 0 0 0 1-1v-4a1 1 0 0 0-1-1Z"/><path fill="#4B4B4B" d="M189 10H21a1 1 0 0 0-1 1v4a1 1 0 0 0 1 1h168a1 1 0 0 0 1-1v-4a1 1 0 0 0-1-1Z"/><path fill="#6F6F6F" d="M14 18h-2a1 1 0 0 0-1 1v2a1 1 0 0 0 1 1h2a1 1 0 0 0 1-1v-2a1 1 0 0 0-1-1Zm123 0H21a1 1 0 0 0-1 1v2a1 1 0 0 0 1 1h116a1 1 0 0 0 1-1v-2a1 1 0 0 0-1-1Z"/><path fill="#009BFF" d="M15 31h-4a1 1 0 0 0-1 1v4a1 1 0 0 0 1 1h4a1 1 0 0 0 1-1v-4a1 1 0 0 0-1-1Z"/><path fill="#4B4B4B" d="M189 31H21a1 1 0 0 0-1 1v4a1 1 0 0 0 1 1h168a1 1 0 0 0 1-1v-4a1 1 0 0 0-1-1Z"/><path fill="#6F6F6F" d="M14 39h-2a1 1 0 0 0-1 1v2a1 1 0 0 0 1 1h2a1 1 0 0 0 1-1v-2a1 1 0 0 0-1-1Zm123 0H21a1 1 0 0 0-1 1v2a1 1 0 0 0 1 1h116a1 1 0 0 0 1-1v-2a1 1 0 0 0-1-1Z"/><path fill="#009BFF" d="M15 52h-4a1 1 0 0 0-1 1v4a1 1 0 0 0 1 1h4a1 1 0 0 0 1-1v-4a1 1 0 0 0-1-1Z"/><path fill="#4B4B4B" d="M189 52H21a1 1 0 0 0-1 1v4a1 1 0 0 0 1 1h168a1 1 0 0 0 1-1v-4a1 1 0 0 0-1-1Z"/><path fill="#6F6F6F" d="M14 60h-2a1 1 0 0 0-1 1v2a1 1 0 0 0 1 1h2a1 1 0 0 0 1-1v-2a1 1 0 0 0-1-1Zm119 0H21a1 1 0 0 0-1 1v2a1 1 0 0 0 1 1h112a1 1 0 0 0 1-1v-2a1 1 0 0 0-1-1Z"/><path fill="#009BFF" d="M15 73h-4a1 1 0 0 0-1 1v4a1 1 0 0 0 1 1h4a1 1 0 0 0 1-1v-4a1 1 0 0 0-1-1Z"/><path fill="#4B4B4B" d="M189 73H21a1 1 0 0 0-1 1v4a1 1 0 0 0 1 1h168a1 1 0 0 0 1-1v-4a1 1 0 0 0-1-1Z"/><path fill="#6F6F6F" d="M14 81h-2a1 1 0 0 0-1 1v2a1 1 0 0 0 1 1h2a1 1 0 0 0 1-1v-2a1 1 0 0 0-1-1Zm123 0H21a1 1 0 0 0-1 1v2a1 1 0 0 0 1 1h116a1 1 0 0 0 1-1v-2a1 1 0 0 0-1-1Z"/><path fill="#009BFF" d="M15 94h-4a1 1 0 0 0-1 1v4a1 1 0 0 0 1 1h4a1 1 0 0 0 1-1v-4a1 1 0 0 0-1-1Z"/><path fill="#4B4B4B" d="M189 94H21a1 1 0 0 0-1 1v4a1 1 0 0 0 1 1h168a1 1 0 0 0 1-1v-4a1 1 0 0 0-1-1Z"/><path fill="#6F6F6F" d="M14 102h-2a1 1 0 0 0-1 1v2a1 1 0 0 0 1 1h2a1 1 0 0 0 1-1v-2a1 1 0 0 0-1-1Zm123 0H21a1 1 0 0 0-1 1v2a1 1 0 0 0 1 1h116a1 1 0 0 0 1-1v-2a1 1 0 0 0-1-1Z"/><path fill="#009BFF" d="M15 115h-4a1 1 0 0 0-1 1v4a1 1 0 0 0 1 1h4a1 1 0 0 0 1-1v-4a1 1 0 0 0-1-1Z"/><path fill="#4B4B4B" d="M189 115H21a1 1 0 0 0-1 1v4a1 1 0 0 0 1 1h168a1 1 0 0 0 1-1v-4a1 1 0 0 0-1-1Z"/><path fill="#6F6F6F" d="M14 123h-2a1 1 0 0 0-1 1v2a1 1 0 0 0 1 1h2a1 1 0 0 0 1-1v-2a1 1 0 0 0-1-1Zm123 0H21a1 1 0 0 0-1 1v2a1 1 0 0 0 1 1h116a1 1 0 0 0 1-1v-2a1 1 0 0 0-1-1Z"/><path fill="#009BFF" d="M15 136h-4a1 1 0 0 0-1 1v4a1 1 0 0 0 1 1h4a1 1 0 0 0 1-1v-4a1 1 0 0 0-1-1Z"/><path fill="#4B4B4B" d="M189 136H21a1 1 0 0 0-1 1v4a1 1 0 0 0 1 1h168a1 1 0 0 0 1-1v-4a1 1 0 0 0-1-1Z"/><path fill="#6F6F6F" d="M14 144h-2a1 1 0 0 0-1 1v2a1 1 0 0 0 1 1h2a1 1 0 0 0 1-1v-2a1 1 0 0 0-1-1Zm123 0H21a1 1 0 0 0-1 1v2a1 1 0 0 0 1 1h116a1 1 0 0 0 1-1v-2a1 1 0 0 0-1-1Z"/><path fill="#009BFF" d="M15 157h-4a1 1 0 0 0-1 1v4a1 1 0 0 0 1 1h4a1 1 0 0 0 1-1v-4a1 1 0 0 0-1-1Z"/><path fill="#4B4B4B" d="M189 157H21a1 1 0 0 0-1 1v4a1 1 0 0 0 1 1h168a1 1 0 0 0 1-1v-4a1 1 0 0 0-1-1Z"/><path fill="#6F6F6F" d="M14 165h-2a1 1 0 0 0-1 1v2a1 1 0 0 0 1 1h2a1 1 0 0 0 1-1v-2a1 1 0 0 0-1-1Zm123 0H21a1 1 0 0 0-1 1v2a1 1 0 0 0 1 1h116a1 1 0 0 0 1-1v-2a1 1 0 0 0-1-1Z"/><path fill="#009BFF" d="M15 178h-4a1 1 0 0 0-1 1v4a1 1 0 0 0 1 1h4a1 1 0 0 0 1-1v-4a1 1 0 0 0-1-1Z"/><path fill="#4B4B4B" d="M189 178H21a1 1 0 0 0-1 1v4a1 1 0 0 0 1 1h168a1 1 0 0 0 1-1v-4a1 1 0 0 0-1-1Z"/><path fill="#6F6F6F" d="M14 186h-2a1 1 0 0 0-1 1v2a1 1 0 0 0 1 1h2a1 1 0 0 0 1-1v-2a1 1 0 0 0-1-1Zm123 0H21a1 1 0 0 0-1 1v2a1 1 0 0 0 1 1h116a1 1 0 0 0 1-1v-2a1 1 0 0 0-1-1Z"/></svg></defs></svg>