<svg width="15" height="14" viewBox="0 0 15 14" fill="none" xmlns="http://www.w3.org/2000/svg">
<path d="M8.17438 10.7335C10.1074 10.7335 11.6744 9.16651 11.6744 7.23352C11.6744 6.99379 11.6503 6.75969 11.6044 6.53352C11.2951 5.01016 9.99651 3.84608 8.40844 3.74122C8.33108 3.73611 8.25303 3.73352 8.17438 3.73352C6.24138 3.73352 4.67438 5.30052 4.67438 7.23352C4.67438 7.3118 4.67694 7.38948 4.68201 7.46648C4.7864 9.05506 5.95067 10.3542 7.47438 10.6635C7.70055 10.7094 7.93465 10.7335 8.17438 10.7335Z" fill="#6F6F6F"/>
<path d="M14.5914 0.35V13.65H1.29141V0.35H14.5914ZM14.2414 0H1.64141C1.25641 0 0.941406 0.315 0.941406 0.7V13.3C0.941406 13.685 1.25641 14 1.64141 14H14.2414C14.6264 14 14.9414 13.685 14.9414 13.3V0.7C14.9414 0.315 14.6264 0 14.2414 0Z" fill="#4B4B4B"/>
<path d="M12.6084 2.33352H8.40844V3.74122V6.53352H11.6044H12.6084V2.33352Z" fill="#C0C0C0"/>
<path d="M7.47438 7.46648H4.68201H3.27437V11.6665H7.47438V10.6635V7.46648Z" fill="#C0C0C0"/>
<path fill-rule="evenodd" clip-rule="evenodd" d="M14.5914 0.35V13.65H1.29141V0.35H14.5914ZM11.6744 7.23352C11.6744 9.16651 10.1074 10.7335 8.17438 10.7335C7.93465 10.7335 7.70055 10.7094 7.47438 10.6635V11.6665H3.27437V7.46648H4.68201C4.67694 7.38948 4.67438 7.3118 4.67438 7.23352C4.67438 5.30052 6.24138 3.73352 8.17438 3.73352C8.25303 3.73352 8.33108 3.73611 8.40844 3.74122V2.33352H12.6084V6.53352H11.6044C11.6503 6.75969 11.6744 6.99379 11.6744 7.23352Z" fill="white"/>
</svg>
