<svg xmlns="http://www.w3.org/2000/svg" width="200" height="200" fill="none" viewBox="0 0 200 200">
  <path fill="silver" fill-rule="evenodd" d="M10 1a9 9 0 0 0-9 9v180a9 9 0 0 0 9 9h180a9 9 0 0 0 9-9V10a9 9 0 0 0-9-9H10ZM0 10C0 4.477 4.477 0 10 0h180c5.523 0 10 4.477 10 10v180c0 5.523-4.477 10-10 10H10c-5.523 0-10-4.477-10-10V10Z" clip-rule="evenodd"/>
  <path fill="#009BFF" d="M186 10H14a4 4 0 0 0-4 4v42a4 4 0 0 0 4 4h172a4 4 0 0 0 4-4V14a4 4 0 0 0-4-4Z"/>
  <path fill="#6F6F6F" d="M16 68.222h-4a2 2 0 0 0-2 2v4a2 2 0 0 0 2 2h4a2 2 0 0 0 2-2v-4a2 2 0 0 0-2-2Zm172 0H30a2 2 0 0 0-2 2v4a2 2 0 0 0 2 2h158a2 2 0 0 0 2-2v-4a2 2 0 0 0-2-2Z"/>
  <path fill="#4B4B4B" d="M189 84.445H11a1 1 0 0 0-1 1v4a1 1 0 0 0 1 1h178a1 1 0 0 0 1-1v-4a1 1 0 0 0-1-1Zm-43 14.222H11a1 1 0 0 0-1 1v4a1 1 0 0 0 1 1h135a1 1 0 0 0 1-1v-4a1 1 0 0 0-1-1Zm43 14.222H11a1 1 0 0 0-1 1v4a1 1 0 0 0 1 1h178a1 1 0 0 0 1-1v-4a1 1 0 0 0-1-1Zm-16 14.222H11a1 1 0 0 0-1 1v4a1 1 0 0 0 1 1h162a1 1 0 0 0 1-1v-4a1 1 0 0 0-1-1Zm-14 14.222H11a1 1 0 0 0-1 1v4a1 1 0 0 0 1 1h148a1 1 0 0 0 1-1v-4a1 1 0 0 0-1-1Zm-45 14.223H11a1 1 0 0 0-1 1v4a1 1 0 0 0 1 1h103a1 1 0 0 0 1-1v-4a1 1 0 0 0-1-1Zm24 14.222H11a1 1 0 0 0-1 1v4a1 1 0 0 0 1 1h127a1 1 0 0 0 1-1v-4a1 1 0 0 0-1-1ZM189 184H11a1 1 0 0 0-1 1v4a1 1 0 0 0 1 1h178a1 1 0 0 0 1-1v-4a1 1 0 0 0-1-1Z"/>
</svg>
