<svg xmlns="http://www.w3.org/2000/svg" width="200" height="200" fill="none" viewBox="0 0 200 200">
  <path fill="silver" fill-rule="evenodd" d="M10 1a9 9 0 0 0-9 9v180a9 9 0 0 0 9 9h180a9 9 0 0 0 9-9V10a9 9 0 0 0-9-9H10ZM0 10C0 4.477 4.477 0 10 0h180c5.523 0 10 4.477 10 10v180c0 5.523-4.477 10-10 10H10c-5.523 0-10-4.477-10-10V10Z" clip-rule="evenodd"/>
  <path fill="#009BFF" d="M188 10H12a2 2 0 0 0-2 2v32a2 2 0 0 0 2 2h176a2 2 0 0 0 2-2V12a2 2 0 0 0-2-2Z"/>
  <path fill="#fff" d="M23 24h-6a1 1 0 0 0-1 1v6a1 1 0 0 0 1 1h6a1 1 0 0 0 1-1v-6a1 1 0 0 0-1-1Zm160-8H31a1 1 0 0 0-1 1v2a1 1 0 0 0 1 1h152a1 1 0 0 0 1-1v-2a1 1 0 0 0-1-1Zm0 10H31a1 1 0 0 0-1 1v2a1 1 0 0 0 1 1h152a1 1 0 0 0 1-1v-2a1 1 0 0 0-1-1Zm0 10h-28a1 1 0 0 0-1 1v2a1 1 0 0 0 1 1h28a1 1 0 0 0 1-1v-2a1 1 0 0 0-1-1Z"/>
  <path fill="#009BFF" d="M188 58H12a2 2 0 0 0-2 2v42a2 2 0 0 0 2 2h176a2 2 0 0 0 2-2V60a2 2 0 0 0-2-2Z"/>
  <path fill="#fff" d="M23 77h-6a1 1 0 0 0-1 1v6a1 1 0 0 0 1 1h6a1 1 0 0 0 1-1v-6a1 1 0 0 0-1-1Zm160-13H31a1 1 0 0 0-1 1v2a1 1 0 0 0 1 1h152a1 1 0 0 0 1-1v-2a1 1 0 0 0-1-1Zm0 10H31a1 1 0 0 0-1 1v2a1 1 0 0 0 1 1h152a1 1 0 0 0 1-1v-2a1 1 0 0 0-1-1Zm0 10H31a1 1 0 0 0-1 1v2a1 1 0 0 0 1 1h152a1 1 0 0 0 1-1v-2a1 1 0 0 0-1-1Zm0 10h-28a1 1 0 0 0-1 1v2a1 1 0 0 0 1 1h28a1 1 0 0 0 1-1v-2a1 1 0 0 0-1-1Z"/>
  <path fill="silver" d="M188 116H12a2 2 0 0 0-2 2v32a2 2 0 0 0 2 2h176a2 2 0 0 0 2-2v-32a2 2 0 0 0-2-2Z"/>
  <path fill="#fff" d="M23 130h-6a1 1 0 0 0-1 1v6a1 1 0 0 0 1 1h6a1 1 0 0 0 1-1v-6a1 1 0 0 0-1-1Zm160-8H31a1 1 0 0 0-1 1v2a1 1 0 0 0 1 1h152a1 1 0 0 0 1-1v-2a1 1 0 0 0-1-1Zm0 10H31a1 1 0 0 0-1 1v2a1 1 0 0 0 1 1h152a1 1 0 0 0 1-1v-2a1 1 0 0 0-1-1Zm0 10h-28a1 1 0 0 0-1 1v2a1 1 0 0 0 1 1h28a1 1 0 0 0 1-1v-2a1 1 0 0 0-1-1Z"/>
  <path fill="silver" d="M188 164H12a2 2 0 0 0-2 2v22a2 2 0 0 0 2 2h176a2 2 0 0 0 2-2v-22a2 2 0 0 0-2-2Z"/>
  <path fill="#fff" d="M23 173h-6a1 1 0 0 0-1 1v6a1 1 0 0 0 1 1h6a1 1 0 0 0 1-1v-6a1 1 0 0 0-1-1Zm160-3H31a1 1 0 0 0-1 1v2a1 1 0 0 0 1 1h152a1 1 0 0 0 1-1v-2a1 1 0 0 0-1-1Zm0 10h-28a1 1 0 0 0-1 1v2a1 1 0 0 0 1 1h28a1 1 0 0 0 1-1v-2a1 1 0 0 0-1-1Z"/>
</svg>
