<svg xmlns="http://www.w3.org/2000/svg" width="200" height="200" fill="none" viewBox="0 0 200 200">
  <path fill="silver" fill-rule="evenodd" d="M10 1a9 9 0 0 0-9 9v180a9 9 0 0 0 9 9h180a9 9 0 0 0 9-9V10a9 9 0 0 0-9-9H10ZM0 10C0 4.477 4.477 0 10 0h180c5.523 0 10 4.477 10 10v180c0 5.523-4.477 10-10 10H10c-5.523 0-10-4.477-10-10V10Z" clip-rule="evenodd"/>
  <path fill="silver" fill-rule="evenodd" d="M14 11a3 3 0 0 0-3 3v172a3 3 0 0 0 3 3h77a3 3 0 0 0 3-3V14a3 3 0 0 0-3-3H14Zm-4 3a4 4 0 0 1 4-4h77a4 4 0 0 1 4 4v172a4 4 0 0 1-4 4H14a4 4 0 0 1-4-4V14Z" clip-rule="evenodd"/>
  <path fill="#4B4B4B" d="M22 18.555h-6a2 2 0 0 0-2 2v6a2 2 0 0 0 2 2h6a2 2 0 0 0 2-2v-6a2 2 0 0 0-2-2Z"/>
  <path fill="#6F6F6F" d="M38.75 18.555h-6a2 2 0 0 0-2 2v6a2 2 0 0 0 2 2h6a2 2 0 0 0 2-2v-6a2 2 0 0 0-2-2Zm16.75 0h-6a2 2 0 0 0-2 2v6a2 2 0 0 0 2 2h6a2 2 0 0 0 2-2v-6a2 2 0 0 0-2-2Zm16.75 0h-6a2 2 0 0 0-2 2v6a2 2 0 0 0 2 2h6a2 2 0 0 0 2-2v-6a2 2 0 0 0-2-2Zm16.75 0h-6a2 2 0 0 0-2 2v6a2 2 0 0 0 2 2h6a2 2 0 0 0 2-2v-6a2 2 0 0 0-2-2Z"/>
  <path fill="#4B4B4B" d="M22 37.667h-6a2 2 0 0 0-2 2v6a2 2 0 0 0 2 2h6a2 2 0 0 0 2-2v-6a2 2 0 0 0-2-2Z"/>
  <path fill="silver" d="M40.75 42.667a5 5 0 1 0-10 0 5 5 0 0 0 10 0Zm16.75 0a5 5 0 1 0-10 0 5 5 0 0 0 10 0Zm16.75 0a5 5 0 1 0-10 0 5 5 0 0 0 10 0Zm16.75 0a5 5 0 1 0-10 0 5 5 0 0 0 10 0Z"/>
  <path fill="#4B4B4B" d="M22 56.778h-6a2 2 0 0 0-2 2v6a2 2 0 0 0 2 2h6a2 2 0 0 0 2-2v-6a2 2 0 0 0-2-2Z"/>
  <path fill="silver" d="M40.75 61.778a5 5 0 1 0-10 0 5 5 0 0 0 10 0Z"/>
  <path fill="#009BFF" d="M57.5 61.778a5 5 0 1 0-10 0 5 5 0 0 0 10 0Z"/>
  <path fill="silver" d="M74.25 61.778a5 5 0 1 0-10 0 5 5 0 0 0 10 0Zm16.75 0a5 5 0 1 0-10 0 5 5 0 0 0 10 0Z"/>
  <path fill="#4B4B4B" d="M22 75.889h-6a2 2 0 0 0-2 2v6a2 2 0 0 0 2 2h6a2 2 0 0 0 2-2v-6a2 2 0 0 0-2-2Z"/>
  <path fill="silver" d="M40.75 80.889a5 5 0 1 0-10 0 5 5 0 0 0 10 0Zm16.75 0a5 5 0 1 0-10 0 5 5 0 0 0 10 0Zm16.75 0a5 5 0 1 0-10 0 5 5 0 0 0 10 0Zm16.75 0a5 5 0 1 0-10 0 5 5 0 0 0 10 0Z"/>
  <path fill="#4B4B4B" d="M22 95h-6a2 2 0 0 0-2 2v6a2 2 0 0 0 2 2h6a2 2 0 0 0 2-2v-6a2 2 0 0 0-2-2Z"/>
  <path fill="silver" d="M40.75 100a5 5 0 1 0-10 0 5 5 0 0 0 10 0Zm16.75 0a5 5 0 1 0-10 0 5 5 0 0 0 10 0Zm16.75 0a5 5 0 1 0-10 0 5 5 0 0 0 10 0ZM91 100a5 5 0 1 0-10 0 5 5 0 0 0 10 0Z"/>
  <path fill="#4B4B4B" d="M22 114.111h-6a2 2 0 0 0-2 2v6a2 2 0 0 0 2 2h6a2 2 0 0 0 2-2v-6a2 2 0 0 0-2-2Z"/>
  <path fill="silver" d="M40.75 119.111a5 5 0 1 0-10 0 5 5 0 0 0 10 0Zm16.75 0a5 5 0 1 0-10 0 5 5 0 0 0 10 0Zm16.75 0a5 5 0 1 0-10 0 5 5 0 0 0 10 0Zm16.75 0a5 5 0 1 0-10 0 5 5 0 0 0 10 0Z"/>
  <path fill="#4B4B4B" d="M22 133.222h-6a2 2 0 0 0-2 2v6a2 2 0 0 0 2 2h6a2 2 0 0 0 2-2v-6a2 2 0 0 0-2-2Z"/>
  <path fill="silver" d="M40.75 138.222a5 5 0 1 0-10 0 5 5 0 0 0 10 0Zm16.75 0a5 5 0 1 0-10 0 5 5 0 0 0 10 0Zm16.75 0a5 5 0 1 0-10 0 5 5 0 0 0 10 0Zm16.75 0a5 5 0 1 0-10 0 5 5 0 0 0 10 0Z"/>
  <path fill="#4B4B4B" d="M22 152.333h-6a2 2 0 0 0-2 2v6a2 2 0 0 0 2 2h6a2 2 0 0 0 2-2v-6a2 2 0 0 0-2-2Z"/>
  <path fill="silver" d="M40.75 157.333a5 5 0 1 0-10 0 5 5 0 0 0 10 0Zm16.75 0a5 5 0 1 0-10 0 5 5 0 0 0 10 0Zm16.75 0a5 5 0 1 0-10 0 5 5 0 0 0 10 0Zm16.75 0a5 5 0 1 0-10 0 5 5 0 0 0 10 0Z"/>
  <path fill="#4B4B4B" d="M22 171.444h-6a2 2 0 0 0-2 2v6a2 2 0 0 0 2 2h6a2 2 0 0 0 2-2v-6a2 2 0 0 0-2-2Z"/>
  <path fill="silver" d="M40.75 176.444a5 5 0 1 0-10 0 5 5 0 0 0 10 0Zm16.75 0a5 5 0 1 0-10 0 5 5 0 0 0 10 0Zm16.75 0a5 5 0 1 0-10 0 5 5 0 0 0 10 0Zm16.75 0a5 5 0 1 0-10 0 5 5 0 0 0 10 0Z"/>
  <path fill="silver" fill-rule="evenodd" d="M109 11a3 3 0 0 0-3 3v172a3 3 0 0 0 3 3h77a3 3 0 0 0 3-3V14a3 3 0 0 0-3-3h-77Zm-4 3a4 4 0 0 1 4-4h77a4 4 0 0 1 4 4v172a4 4 0 0 1-4 4h-77a4 4 0 0 1-4-4V14Z" clip-rule="evenodd"/>
  <path fill="silver" d="M142.5 14H112a3 3 0 0 0-3 3v2a3 3 0 0 0 3 3h30.5a3 3 0 0 0 3-3v-2a3 3 0 0 0-3-3Zm40.5 0h-30.5a3 3 0 0 0-3 3v2a3 3 0 0 0 3 3H183a3 3 0 0 0 3-3v-2a3 3 0 0 0-3-3Z"/>
  <path fill="#4B4B4B" d="M164 28.889h-53a2 2 0 0 0-2 2v2a2 2 0 0 0 2 2h53a2 2 0 0 0 2-2v-2a2 2 0 0 0-2-2Z"/>
  <path fill="silver" d="M128 44.778h-18a1 1 0 0 0-1 1v4a1 1 0 0 0 1 1h18a1 1 0 0 0 1-1v-4a1 1 0 0 0-1-1Z"/>
  <path fill="#009BFF" d="M138 41.778h-4a1 1 0 0 0-1 1v4a1 1 0 0 0 1 1h4a1 1 0 0 0 1-1v-4a1 1 0 0 0-1-1Z"/>
  <path fill="#4B4B4B" d="M185 41.778h-41a1 1 0 0 0-1 1v4a1 1 0 0 0 1 1h41a1 1 0 0 0 1-1v-4a1 1 0 0 0-1-1Z"/>
  <path fill="#6F6F6F" d="M137 49.778h-2a1 1 0 0 0-1 1v2a1 1 0 0 0 1 1h2a1 1 0 0 0 1-1v-2a1 1 0 0 0-1-1Zm34 0h-27a1 1 0 0 0-1 1v2a1 1 0 0 0 1 1h27a1 1 0 0 0 1-1v-2a1 1 0 0 0-1-1Z"/>
  <path fill="silver" d="M128 63.667h-18a1 1 0 0 0-1 1v4a1 1 0 0 0 1 1h18a1 1 0 0 0 1-1v-4a1 1 0 0 0-1-1Z"/>
  <path fill="#009BFF" d="M138 60.667h-4a1 1 0 0 0-1 1v4a1 1 0 0 0 1 1h4a1 1 0 0 0 1-1v-4a1 1 0 0 0-1-1Z"/>
  <path fill="#4B4B4B" d="M185 60.667h-41a1 1 0 0 0-1 1v4a1 1 0 0 0 1 1h41a1 1 0 0 0 1-1v-4a1 1 0 0 0-1-1Z"/>
  <path fill="#6F6F6F" d="M137 68.667h-2a1 1 0 0 0-1 1v2a1 1 0 0 0 1 1h2a1 1 0 0 0 1-1v-2a1 1 0 0 0-1-1Zm34 0h-27a1 1 0 0 0-1 1v2a1 1 0 0 0 1 1h27a1 1 0 0 0 1-1v-2a1 1 0 0 0-1-1Z"/>
  <path fill="silver" d="M128 82.555h-18a1 1 0 0 0-1 1v4a1 1 0 0 0 1 1h18a1 1 0 0 0 1-1v-4a1 1 0 0 0-1-1Z"/>
  <path fill="#009BFF" d="M138 79.555h-4a1 1 0 0 0-1 1v4a1 1 0 0 0 1 1h4a1 1 0 0 0 1-1v-4a1 1 0 0 0-1-1Z"/>
  <path fill="#4B4B4B" d="M185 79.555h-41a1 1 0 0 0-1 1v4a1 1 0 0 0 1 1h41a1 1 0 0 0 1-1v-4a1 1 0 0 0-1-1Z"/>
  <path fill="#6F6F6F" d="M137 87.555h-2a1 1 0 0 0-1 1v2a1 1 0 0 0 1 1h2a1 1 0 0 0 1-1v-2a1 1 0 0 0-1-1Zm34 0h-27a1 1 0 0 0-1 1v2a1 1 0 0 0 1 1h27a1 1 0 0 0 1-1v-2a1 1 0 0 0-1-1Z"/>
  <path fill="silver" d="M128 101.444h-18a1 1 0 0 0-1 1v4a1 1 0 0 0 1 1h18a1 1 0 0 0 1-1v-4a1 1 0 0 0-1-1Z"/>
  <path fill="#009BFF" d="M138 98.445h-4a1 1 0 0 0-1 1v4a1 1 0 0 0 1 1h4a1 1 0 0 0 1-1v-4a1 1 0 0 0-1-1Z"/>
  <path fill="#4B4B4B" d="M185 98.445h-41a1 1 0 0 0-1 1v4a1 1 0 0 0 1 1h41a1 1 0 0 0 1-1v-4a1 1 0 0 0-1-1Z"/>
  <path fill="#6F6F6F" d="M137 106.444h-2a1 1 0 0 0-1 1v2a1 1 0 0 0 1 1h2a1 1 0 0 0 1-1v-2a1 1 0 0 0-1-1Zm34 0h-27a1 1 0 0 0-1 1v2a1 1 0 0 0 1 1h27a1 1 0 0 0 1-1v-2a1 1 0 0 0-1-1Z"/>
  <path fill="silver" d="M128 120.333h-18a1 1 0 0 0-1 1v4a1 1 0 0 0 1 1h18a1 1 0 0 0 1-1v-4a1 1 0 0 0-1-1Z"/>
  <path fill="#009BFF" d="M138 117.333h-4a1 1 0 0 0-1 1v4a1 1 0 0 0 1 1h4a1 1 0 0 0 1-1v-4a1 1 0 0 0-1-1Z"/>
  <path fill="#4B4B4B" d="M185 117.333h-41a1 1 0 0 0-1 1v4a1 1 0 0 0 1 1h41a1 1 0 0 0 1-1v-4a1 1 0 0 0-1-1Z"/>
  <path fill="#6F6F6F" d="M137 125.333h-2a1 1 0 0 0-1 1v2a1 1 0 0 0 1 1h2a1 1 0 0 0 1-1v-2a1 1 0 0 0-1-1Zm34 0h-27a1 1 0 0 0-1 1v2a1 1 0 0 0 1 1h27a1 1 0 0 0 1-1v-2a1 1 0 0 0-1-1Z"/>
  <path fill="silver" d="M128 139.222h-18a1 1 0 0 0-1 1v4a1 1 0 0 0 1 1h18a1 1 0 0 0 1-1v-4a1 1 0 0 0-1-1Z"/>
  <path fill="#009BFF" d="M138 136.222h-4a1 1 0 0 0-1 1v4a1 1 0 0 0 1 1h4a1 1 0 0 0 1-1v-4a1 1 0 0 0-1-1Z"/>
  <path fill="#4B4B4B" d="M185 136.222h-41a1 1 0 0 0-1 1v4a1 1 0 0 0 1 1h41a1 1 0 0 0 1-1v-4a1 1 0 0 0-1-1Z"/>
  <path fill="#6F6F6F" d="M137 144.222h-2a1 1 0 0 0-1 1v2a1 1 0 0 0 1 1h2a1 1 0 0 0 1-1v-2a1 1 0 0 0-1-1Zm34 0h-27a1 1 0 0 0-1 1v2a1 1 0 0 0 1 1h27a1 1 0 0 0 1-1v-2a1 1 0 0 0-1-1Z"/>
  <path fill="silver" d="M128 158.111h-18a1 1 0 0 0-1 1v4a1 1 0 0 0 1 1h18a1 1 0 0 0 1-1v-4a1 1 0 0 0-1-1Z"/>
  <path fill="#009BFF" d="M138 155.111h-4a1 1 0 0 0-1 1v4a1 1 0 0 0 1 1h4a1 1 0 0 0 1-1v-4a1 1 0 0 0-1-1Z"/>
  <path fill="#4B4B4B" d="M185 155.111h-41a1 1 0 0 0-1 1v4a1 1 0 0 0 1 1h41a1 1 0 0 0 1-1v-4a1 1 0 0 0-1-1Z"/>
  <path fill="#6F6F6F" d="M137 163.111h-2a1 1 0 0 0-1 1v2a1 1 0 0 0 1 1h2a1 1 0 0 0 1-1v-2a1 1 0 0 0-1-1Zm34 0h-27a1 1 0 0 0-1 1v2a1 1 0 0 0 1 1h27a1 1 0 0 0 1-1v-2a1 1 0 0 0-1-1Z"/>
  <path fill="silver" d="M128 177h-18a1 1 0 0 0-1 1v4a1 1 0 0 0 1 1h18a1 1 0 0 0 1-1v-4a1 1 0 0 0-1-1Z"/>
  <path fill="#009BFF" d="M138 174h-4a1 1 0 0 0-1 1v4a1 1 0 0 0 1 1h4a1 1 0 0 0 1-1v-4a1 1 0 0 0-1-1Z"/>
  <path fill="#4B4B4B" d="M185 174h-41a1 1 0 0 0-1 1v4a1 1 0 0 0 1 1h41a1 1 0 0 0 1-1v-4a1 1 0 0 0-1-1Z"/>
  <path fill="#6F6F6F" d="M137 182h-2a1 1 0 0 0-1 1v2a1 1 0 0 0 1 1h2a1 1 0 0 0 1-1v-2a1 1 0 0 0-1-1Zm34 0h-27a1 1 0 0 0-1 1v2a1 1 0 0 0 1 1h27a1 1 0 0 0 1-1v-2a1 1 0 0 0-1-1Z"/>
</svg>
