<svg xmlns="http://www.w3.org/2000/svg" width="200" height="200" fill="none" viewBox="0 0 200 200">
  <path fill="silver" fill-rule="evenodd" d="M10 1a9 9 0 0 0-9 9v180a9 9 0 0 0 9 9h180a9 9 0 0 0 9-9V10a9 9 0 0 0-9-9H10ZM0 10C0 4.477 4.477 0 10 0h180c5.523 0 10 4.477 10 10v180c0 5.523-4.477 10-10 10H10c-5.523 0-10-4.477-10-10V10Z" clip-rule="evenodd"/>
  <path fill="silver" fill-rule="evenodd" d="M14 11a3 3 0 0 0-3 3v77a3 3 0 0 0 3 3h172a3 3 0 0 0 3-3V14a3 3 0 0 0-3-3H14Zm-4 3a4 4 0 0 1 4-4h172a4 4 0 0 1 4 4v77a4 4 0 0 1-4 4H14a4 4 0 0 1-4-4V14Z" clip-rule="evenodd"/>
  <path fill="silver" d="M95 14H17a3 3 0 0 0-3 3v2a3 3 0 0 0 3 3h78a3 3 0 0 0 3-3v-2a3 3 0 0 0-3-3Zm88 0h-78a3 3 0 0 0-3 3v2a3 3 0 0 0 3 3h78a3 3 0 0 0 3-3v-2a3 3 0 0 0-3-3Z"/>
  <path fill="#4B4B4B" d="M22 29.125h-6a2 2 0 0 0-2 2v6a2 2 0 0 0 2 2h6a2 2 0 0 0 2-2v-6a2 2 0 0 0-2-2Z"/>
  <path fill="#6F6F6F" d="M42.25 29.125h-6a2 2 0 0 0-2 2v6a2 2 0 0 0 2 2h6a2 2 0 0 0 2-2v-6a2 2 0 0 0-2-2Zm20.25 0h-6a2 2 0 0 0-2 2v6a2 2 0 0 0 2 2h6a2 2 0 0 0 2-2v-6a2 2 0 0 0-2-2Zm20.25 0h-6a2 2 0 0 0-2 2v6a2 2 0 0 0 2 2h6a2 2 0 0 0 2-2v-6a2 2 0 0 0-2-2Zm20.25 0h-6a2 2 0 0 0-2 2v6a2 2 0 0 0 2 2h6a2 2 0 0 0 2-2v-6a2 2 0 0 0-2-2Zm20.25 0h-6a2 2 0 0 0-2 2v6a2 2 0 0 0 2 2h6a2 2 0 0 0 2-2v-6a2 2 0 0 0-2-2Zm20.25 0h-6a2 2 0 0 0-2 2v6a2 2 0 0 0 2 2h6a2 2 0 0 0 2-2v-6a2 2 0 0 0-2-2Zm20.25 0h-6a2 2 0 0 0-2 2v6a2 2 0 0 0 2 2h6a2 2 0 0 0 2-2v-6a2 2 0 0 0-2-2Zm20.25 0h-6a2 2 0 0 0-2 2v6a2 2 0 0 0 2 2h6a2 2 0 0 0 2-2v-6a2 2 0 0 0-2-2Z"/>
  <path fill="#4B4B4B" d="M22 45.375h-6a2 2 0 0 0-2 2v6a2 2 0 0 0 2 2h6a2 2 0 0 0 2-2v-6a2 2 0 0 0-2-2Z"/>
  <path fill="silver" d="M44.25 50.375a5 5 0 1 0-10 0 5 5 0 0 0 10 0Zm20.25 0a5 5 0 1 0-10 0 5 5 0 0 0 10 0Zm20.25 0a5 5 0 1 0-10 0 5 5 0 0 0 10 0Zm20.25 0a5 5 0 1 0-10 0 5 5 0 0 0 10 0Zm20.25 0a5 5 0 1 0-10 0 5 5 0 0 0 10 0Zm20.25 0a5 5 0 1 0-10 0 5 5 0 0 0 10 0Zm20.25 0a5 5 0 1 0-10 0 5 5 0 0 0 10 0Zm20.25 0a5 5 0 1 0-10 0 5 5 0 0 0 10 0Z"/>
  <path fill="#4B4B4B" d="M22 61.625h-6a2 2 0 0 0-2 2v6a2 2 0 0 0 2 2h6a2 2 0 0 0 2-2v-6a2 2 0 0 0-2-2Z"/>
  <path fill="silver" d="M44.25 66.625a5 5 0 1 0-10 0 5 5 0 0 0 10 0Z"/>
  <path fill="#009BFF" d="M64.5 66.625a5 5 0 1 0-10 0 5 5 0 0 0 10 0Z"/>
  <path fill="silver" d="M84.75 66.625a5 5 0 1 0-10 0 5 5 0 0 0 10 0Zm20.25 0a5 5 0 1 0-10 0 5 5 0 0 0 10 0Zm20.25 0a5 5 0 1 0-10 0 5 5 0 0 0 10 0Zm20.25 0a5 5 0 1 0-10 0 5 5 0 0 0 10 0Zm20.25 0a5 5 0 1 0-10 0 5 5 0 0 0 10 0Zm20.25 0a5 5 0 1 0-10 0 5 5 0 0 0 10 0Z"/>
  <path fill="#4B4B4B" d="M22 77.875h-6a2 2 0 0 0-2 2v6a2 2 0 0 0 2 2h6a2 2 0 0 0 2-2v-6a2 2 0 0 0-2-2Z"/>
  <path fill="silver" d="M44.25 82.875a5 5 0 1 0-10 0 5 5 0 0 0 10 0Zm20.25 0a5 5 0 1 0-10 0 5 5 0 0 0 10 0Zm20.25 0a5 5 0 1 0-10 0 5 5 0 0 0 10 0Zm20.25 0a5 5 0 1 0-10 0 5 5 0 0 0 10 0Zm20.25 0a5 5 0 1 0-10 0 5 5 0 0 0 10 0Zm20.25 0a5 5 0 1 0-10 0 5 5 0 0 0 10 0Zm20.25 0a5 5 0 1 0-10 0 5 5 0 0 0 10 0Zm20.25 0a5 5 0 1 0-10 0 5 5 0 0 0 10 0Z"/>
  <path fill="silver" fill-rule="evenodd" d="M14 106a3 3 0 0 0-3 3v77a3 3 0 0 0 3 3h172a3 3 0 0 0 3-3v-77a3 3 0 0 0-3-3H14Zm-4 3a4 4 0 0 1 4-4h172a4 4 0 0 1 4 4v77a4 4 0 0 1-4 4H14a4 4 0 0 1-4-4v-77Z" clip-rule="evenodd"/>
  <path fill="#4B4B4B" d="M84 109H16a2 2 0 0 0-2 2v2a2 2 0 0 0 2 2h68a2 2 0 0 0 2-2v-2a2 2 0 0 0-2-2Z"/>
  <path fill="silver" d="M33 123.75H15a1 1 0 0 0-1 1v4a1 1 0 0 0 1 1h18a1 1 0 0 0 1-1v-4a1 1 0 0 0-1-1Z"/>
  <path fill="#009BFF" d="M43 120.75h-4a1 1 0 0 0-1 1v4a1 1 0 0 0 1 1h4a1 1 0 0 0 1-1v-4a1 1 0 0 0-1-1Z"/>
  <path fill="#4B4B4B" d="M185 120.75H49a1 1 0 0 0-1 1v4a1 1 0 0 0 1 1h136a1 1 0 0 0 1-1v-4a1 1 0 0 0-1-1Z"/>
  <path fill="#6F6F6F" d="M42 128.75h-2a1 1 0 0 0-1 1v2a1 1 0 0 0 1 1h2a1 1 0 0 0 1-1v-2a1 1 0 0 0-1-1Zm99 0H49a1 1 0 0 0-1 1v2a1 1 0 0 0 1 1h92a1 1 0 0 0 1-1v-2a1 1 0 0 0-1-1Z"/>
  <path fill="silver" d="M33 141.5H15a1 1 0 0 0-1 1v4a1 1 0 0 0 1 1h18a1 1 0 0 0 1-1v-4a1 1 0 0 0-1-1Z"/>
  <path fill="#009BFF" d="M43 138.5h-4a1 1 0 0 0-1 1v4a1 1 0 0 0 1 1h4a1 1 0 0 0 1-1v-4a1 1 0 0 0-1-1Z"/>
  <path fill="#4B4B4B" d="M185 138.5H49a1 1 0 0 0-1 1v4a1 1 0 0 0 1 1h136a1 1 0 0 0 1-1v-4a1 1 0 0 0-1-1Z"/>
  <path fill="#6F6F6F" d="M42 146.5h-2a1 1 0 0 0-1 1v2a1 1 0 0 0 1 1h2a1 1 0 0 0 1-1v-2a1 1 0 0 0-1-1Zm99 0H49a1 1 0 0 0-1 1v2a1 1 0 0 0 1 1h92a1 1 0 0 0 1-1v-2a1 1 0 0 0-1-1Z"/>
  <path fill="silver" d="M33 159.25H15a1 1 0 0 0-1 1v4a1 1 0 0 0 1 1h18a1 1 0 0 0 1-1v-4a1 1 0 0 0-1-1Z"/>
  <path fill="#009BFF" d="M43 156.25h-4a1 1 0 0 0-1 1v4a1 1 0 0 0 1 1h4a1 1 0 0 0 1-1v-4a1 1 0 0 0-1-1Z"/>
  <path fill="#4B4B4B" d="M185 156.25H49a1 1 0 0 0-1 1v4a1 1 0 0 0 1 1h136a1 1 0 0 0 1-1v-4a1 1 0 0 0-1-1Z"/>
  <path fill="#6F6F6F" d="M42 164.25h-2a1 1 0 0 0-1 1v2a1 1 0 0 0 1 1h2a1 1 0 0 0 1-1v-2a1 1 0 0 0-1-1Zm99 0H49a1 1 0 0 0-1 1v2a1 1 0 0 0 1 1h92a1 1 0 0 0 1-1v-2a1 1 0 0 0-1-1Z"/>
  <path fill="silver" d="M33 177H15a1 1 0 0 0-1 1v4a1 1 0 0 0 1 1h18a1 1 0 0 0 1-1v-4a1 1 0 0 0-1-1Z"/>
  <path fill="#009BFF" d="M43 174h-4a1 1 0 0 0-1 1v4a1 1 0 0 0 1 1h4a1 1 0 0 0 1-1v-4a1 1 0 0 0-1-1Z"/>
  <path fill="#4B4B4B" d="M185 174H49a1 1 0 0 0-1 1v4a1 1 0 0 0 1 1h136a1 1 0 0 0 1-1v-4a1 1 0 0 0-1-1Z"/>
  <path fill="#6F6F6F" d="M42 182h-2a1 1 0 0 0-1 1v2a1 1 0 0 0 1 1h2a1 1 0 0 0 1-1v-2a1 1 0 0 0-1-1Zm99 0H49a1 1 0 0 0-1 1v2a1 1 0 0 0 1 1h92a1 1 0 0 0 1-1v-2a1 1 0 0 0-1-1Z"/>
</svg>
