<svg xmlns="http://www.w3.org/2000/svg" width="193" height="193" fill="none" viewBox="0 0 193 193">
  <rect width="112.5" height="154.5" x="10.25" y="28.25" stroke="silver" stroke-width=".5" rx="2.75"/>
  <rect width="54.5" height="172.5" x="128.25" y="10.25" stroke="silver" stroke-width=".5" rx="2.75"/>
  <rect width="35" height="7" fill="silver" rx="2" transform="matrix(1 0 0 -1 131 21)"/>
  <rect width="4" height="4" x="143" y="27" fill="#69A129" rx="1"/>
  <rect width="3" height="3" x="143.5" y="32" fill="#6F6F6F" rx="1"/>
  <path fill="#999" d="M149 27h31v4h-31zm0 5.5h30v2h-30z"/>
  <rect width="10" height="4" fill="silver" rx="1" transform="matrix(1 0 0 -1 131 33)"/>
  <rect width="4" height="4" x="143" y="38" fill="#69A129" rx="1"/>
  <rect width="3" height="3" x="143.5" y="43" fill="#6F6F6F" rx="1"/>
  <path fill="#999" d="M149 38h31v4h-31zm0 5.5h30v2h-30z"/>
  <rect width="10" height="4" fill="silver" rx="1" transform="matrix(1 0 0 -1 131 44)"/>
  <rect width="4" height="4" x="143" y="49" fill="#69A129" rx="1"/>
  <rect width="3" height="3" x="143.5" y="54" fill="#6F6F6F" rx="1"/>
  <path fill="#999" d="M149 49h31v4h-31zm0 5.5h30v2h-30z"/>
  <rect width="10" height="4" fill="silver" rx="1" transform="matrix(1 0 0 -1 131 55)"/>
  <rect width="4" height="4" x="143" y="60" fill="#69A129" rx="1"/>
  <rect width="3" height="3" x="143.5" y="65" fill="#6F6F6F" rx="1"/>
  <path fill="#999" d="M149 60h31v4h-31zm0 5.5h30v2h-30z"/>
  <rect width="10" height="4" fill="silver" rx="1" transform="matrix(1 0 0 -1 131 66)"/>
  <rect width="4" height="4" x="143" y="71" fill="#69A129" rx="1"/>
  <rect width="3" height="3" x="143.5" y="76" fill="#6F6F6F" rx="1"/>
  <path fill="#999" d="M149 71h31v4h-31zm0 5.5h30v2h-30z"/>
  <rect width="10" height="4" fill="silver" rx="1" transform="matrix(1 0 0 -1 131 77)"/>
  <rect width="4" height="4" x="143" y="82" fill="#69A129" rx="1"/>
  <rect width="3" height="3" x="143.5" y="87" fill="#6F6F6F" rx="1"/>
  <path fill="#999" d="M149 82h31v4h-31zm0 5.5h30v2h-30z"/>
  <rect width="10" height="4" fill="silver" rx="1" transform="matrix(1 0 0 -1 131 88)"/>
  <rect width="4" height="4" x="143" y="115" fill="#69A129" rx="1"/>
  <rect width="3" height="3" x="143.5" y="120" fill="#6F6F6F" rx="1"/>
  <path fill="#999" d="M149 115h31v4h-31zm0 5.5h30v2h-30z"/>
  <rect width="10" height="4" fill="silver" rx="1" transform="matrix(1 0 0 -1 131 121)"/>
  <rect width="4" height="4" x="143" y="148" fill="#69A129" rx="1"/>
  <rect width="3" height="3" x="143.5" y="153" fill="#6F6F6F" rx="1"/>
  <path fill="#999" d="M149 148h31v4h-31zm0 5.5h30v2h-30z"/>
  <rect width="10" height="4" fill="silver" rx="1" transform="matrix(1 0 0 -1 131 154)"/>
  <rect width="4" height="4" x="143" y="93" fill="#69A129" rx="1"/>
  <rect width="3" height="3" x="143.5" y="98" fill="#6F6F6F" rx="1"/>
  <path fill="#999" d="M149 93h31v4h-31zm0 5.5h30v2h-30z"/>
  <rect width="10" height="4" fill="silver" rx="1" transform="matrix(1 0 0 -1 131 99)"/>
  <rect width="4" height="4" x="143" y="126" fill="#69A129" rx="1"/>
  <rect width="3" height="3" x="143.5" y="131" fill="#6F6F6F" rx="1"/>
  <path fill="#999" d="M149 126h31v4h-31zm0 5.5h30v2h-30z"/>
  <rect width="10" height="4" fill="silver" rx="1" transform="matrix(1 0 0 -1 131 132)"/>
  <rect width="4" height="4" x="143" y="159" fill="#69A129" rx="1"/>
  <rect width="3" height="3" x="143.5" y="164" fill="#6F6F6F" rx="1"/>
  <path fill="#999" d="M149 159h31v4h-31zm0 5.5h30v2h-30z"/>
  <rect width="10" height="4" fill="silver" rx="1" transform="matrix(1 0 0 -1 131 165)"/>
  <rect width="4" height="4" x="143" y="104" fill="#69A129" rx="1"/>
  <rect width="3" height="3" x="143.5" y="109" fill="#6F6F6F" rx="1"/>
  <path fill="#999" d="M149 104h31v4h-31zm0 5.5h30v2h-30z"/>
  <rect width="10" height="4" fill="silver" rx="1" transform="matrix(1 0 0 -1 131 110)"/>
  <rect width="4" height="4" x="143" y="137" fill="#69A129" rx="1"/>
  <rect width="3" height="3" x="143.5" y="142" fill="#6F6F6F" rx="1"/>
  <path fill="#999" d="M149 137h31v4h-31zm0 5.5h30v2h-30z"/>
  <rect width="10" height="4" fill="silver" rx="1" transform="matrix(1 0 0 -1 131 143)"/>
  <rect width="4" height="4" x="143" y="170" fill="#69A129" rx="1"/>
  <rect width="3" height="3" x="143.5" y="175" fill="#6F6F6F" rx="1"/>
  <path fill="#999" d="M149 170h31v4h-31zm0 5.5h30v2h-30z"/>
  <rect width="10" height="4" fill="silver" rx="1" transform="matrix(1 0 0 -1 131 176)"/>
  <rect width="50.5" height="12.5" x="10.25" y="10.25" stroke="silver" stroke-width=".5" rx="2.75"/>
  <rect width="25" height="7" fill="silver" rx="2" transform="matrix(1 0 0 -1 13 20)"/>
  <rect width="7" height="7" fill="#999" rx="2" transform="matrix(1 0 0 -1 51 20)"/>
  <rect width="50.5" height="12.5" x="72.25" y="10.25" stroke="silver" stroke-width=".5" rx="2.75"/>
  <rect width="25" height="7" fill="silver" rx="2" transform="matrix(1 0 0 -1 75 20)"/>
  <rect width="7" height="7" fill="#999" rx="2" transform="matrix(1 0 0 -1 113 20)"/>
  <rect width="12" height="12" fill="#6F6F6F" rx="6" transform="matrix(1 0 0 -1 13 44)"/>
  <rect width="12" height="12" fill="#6F6F6F" rx="6" transform="matrix(1 0 0 -1 32 44)"/>
  <rect width="12" height="12" fill="#6F6F6F" rx="6" transform="matrix(1 0 0 -1 51 44)"/>
  <rect width="12" height="12" fill="#6F6F6F" rx="6" transform="matrix(1 0 0 -1 70 44)"/>
  <rect width="12" height="12" fill="#6F6F6F" rx="6" transform="matrix(1 0 0 -1 89 44)"/>
  <rect width="12" height="12" fill="#6F6F6F" rx="6" transform="matrix(1 0 0 -1 108 44)"/>
  <rect width="12" height="12" fill="#999" rx="6" transform="matrix(1 0 0 -1 13 71)"/>
  <rect width="12" height="12" fill="#DEDEDE" rx="6" transform="matrix(1 0 0 -1 32 71)"/>
  <rect width="12" height="12" fill="#DEDEDE" rx="6" transform="matrix(1 0 0 -1 51 71)"/>
  <rect width="11.5" height="11.5" x=".25" y="-.25" stroke="silver" stroke-width=".5" rx="5.75" transform="matrix(1 0 0 -1 70 70.5)"/>
  <rect width="12" height="12" fill="silver" rx="6" transform="matrix(1 0 0 -1 89 71)"/>
  <rect width="12" height="12" fill="silver" rx="6" transform="matrix(1 0 0 -1 108 71)"/>
  <rect width="12" height="12" fill="#999" rx="6" transform="matrix(1 0 0 -1 13 98)"/>
  <rect width="12" height="12" fill="#0071B9" rx="6" transform="matrix(1 0 0 -1 32 98)"/>
  <rect width="12" height="12" fill="silver" rx="6" transform="matrix(1 0 0 -1 51 98)"/>
  <rect width="11.5" height="11.5" x=".25" y="-.25" stroke="silver" stroke-width=".5" rx="5.75" transform="matrix(1 0 0 -1 70 97.5)"/>
  <rect width="11.5" height="11.5" x=".25" y="-.25" stroke="silver" stroke-width=".5" rx="5.75" transform="matrix(1 0 0 -1 89 97.5)"/>
  <rect width="12" height="12" fill="silver" rx="6" transform="matrix(1 0 0 -1 108 98)"/>
  <rect width="12" height="12" fill="#999" rx="6" transform="matrix(1 0 0 -1 13 125)"/>
  <rect width="11.5" height="11.5" x=".25" y="-.25" stroke="silver" stroke-width=".5" rx="5.75" transform="matrix(1 0 0 -1 32 124.5)"/>
  <rect width="11.5" height="11.5" x=".25" y="-.25" stroke="silver" stroke-width=".5" rx="5.75" transform="matrix(1 0 0 -1 51 124.5)"/>
  <rect width="11.5" height="11.5" x=".25" y="-.25" stroke="silver" stroke-width=".5" rx="5.75" transform="matrix(1 0 0 -1 70 124.5)"/>
  <rect width="11.5" height="11.5" x=".25" y="-.25" stroke="silver" stroke-width=".5" rx="5.75" transform="matrix(1 0 0 -1 89 124.5)"/>
  <rect width="12" height="12" fill="silver" rx="6" transform="matrix(1 0 0 -1 108 125)"/>
  <rect width="12" height="12" fill="#999" rx="6" transform="matrix(1 0 0 -1 13 152)"/>
  <rect width="12" height="12" fill="silver" rx="6" transform="matrix(1 0 0 -1 32 152)"/>
  <rect width="11.5" height="11.5" x=".25" y="-.25" stroke="silver" stroke-width=".5" rx="5.75" transform="matrix(1 0 0 -1 51 151.5)"/>
  <rect width="12" height="12" fill="silver" rx="6" transform="matrix(1 0 0 -1 70 152)"/>
  <rect width="12" height="12" fill="silver" rx="6" transform="matrix(1 0 0 -1 89 152)"/>
  <rect width="12" height="12" fill="silver" rx="6" transform="matrix(1 0 0 -1 108 152)"/>
  <rect width="12" height="12" fill="#999" rx="6" transform="matrix(1 0 0 -1 13 179)"/>
  <rect width="12" height="12" fill="silver" rx="6" transform="matrix(1 0 0 -1 32 179)"/>
  <rect width="12" height="12" fill="silver" rx="6" transform="matrix(1 0 0 -1 51 179)"/>
  <rect width="12" height="12" fill="#DEDEDE" rx="6" transform="matrix(1 0 0 -1 70 179)"/>
  <rect width="12" height="12" fill="#DEDEDE" rx="6" transform="matrix(1 0 0 -1 89 179)"/>
  <rect width="12" height="12" fill="#DEDEDE" rx="6" transform="matrix(1 0 0 -1 108 179)"/>
</svg>
