<svg xmlns="http://www.w3.org/2000/svg" width="193" height="193" fill="none" viewBox="0 0 193 193">
  <rect width="61.5" height="7" fill="silver" rx="2" transform="matrix(1 0 0 -1 14 20)"/>
  <rect width="7" height="7" fill="#999" rx="2" transform="matrix(1 0 0 -1 80.5 20)"/>
  <rect width="81" height="12.5" x="10.25" y="10.25" stroke="silver" stroke-width=".5" rx="2.75"/>
  <rect width="61.5" height="7" fill="silver" rx="2" transform="matrix(1 0 0 -1 105.5 20)"/>
  <rect width="7" height="7" fill="#999" rx="2" transform="matrix(1 0 0 -1 172 20)"/>
  <rect width="81" height="12.5" x="101.75" y="10.25" stroke="silver" stroke-width=".5" rx="2.75"/>
  <rect width="10" height="10" fill="#6F6F6F" rx="5" transform="matrix(1 0 0 -1 15 43)"/>
  <rect width="10" height="10" fill="#6F6F6F" rx="5" transform="matrix(1 0 0 -1 36.857 43)"/>
  <rect width="10" height="10" fill="#6F6F6F" rx="5" transform="matrix(1 0 0 -1 58.714 43)"/>
  <rect width="10" height="10" fill="#6F6F6F" rx="5" transform="matrix(1 0 0 -1 80.571 43)"/>
  <rect width="10" height="10" fill="#6F6F6F" rx="5" transform="matrix(1 0 0 -1 102.429 43)"/>
  <rect width="10" height="10" fill="#6F6F6F" rx="5" transform="matrix(1 0 0 -1 124.286 43)"/>
  <rect width="10" height="10" fill="#6F6F6F" rx="5" transform="matrix(1 0 0 -1 146.143 43)"/>
  <rect width="10" height="10" fill="#6F6F6F" rx="5" transform="matrix(1 0 0 -1 168 43)"/>
  <rect width="10" height="10" fill="#999" rx="5" transform="matrix(1 0 0 -1 15 60.8)"/>
  <rect width="10" height="10" fill="#DEDEDE" rx="5" transform="matrix(1 0 0 -1 36.857 60.8)"/>
  <rect width="10" height="10" fill="#DEDEDE" rx="5" transform="matrix(1 0 0 -1 58.714 60.8)"/>
  <rect width="9.5" height="9.5" x=".25" y="-.25" stroke="silver" stroke-width=".5" rx="4.75" transform="matrix(1 0 0 -1 80.571 60.3)"/>
  <rect width="10" height="10" fill="silver" rx="5" transform="matrix(1 0 0 -1 102.429 60.8)"/>
  <rect width="10" height="10" fill="silver" rx="5" transform="matrix(1 0 0 -1 124.286 60.8)"/>
  <rect width="10" height="10" fill="silver" rx="5" transform="matrix(1 0 0 -1 146.143 60.8)"/>
  <rect width="10" height="10" fill="silver" rx="5" transform="matrix(1 0 0 -1 168 60.8)"/>
  <rect width="10" height="10" fill="#999" rx="5" transform="matrix(1 0 0 -1 15 78.6)"/>
  <rect width="10" height="10" fill="#0071B9" rx="5" transform="matrix(1 0 0 -1 36.857 78.6)"/>
  <rect width="10" height="10" fill="silver" rx="5" transform="matrix(1 0 0 -1 58.714 78.6)"/>
  <rect width="9.5" height="9.5" x=".25" y="-.25" stroke="silver" stroke-width=".5" rx="4.75" transform="matrix(1 0 0 -1 80.571 78.1)"/>
  <rect width="9.5" height="9.5" x=".25" y="-.25" stroke="silver" stroke-width=".5" rx="4.75" transform="matrix(1 0 0 -1 102.429 78.1)"/>
  <rect width="10" height="10" fill="silver" rx="5" transform="matrix(1 0 0 -1 124.286 78.6)"/>
  <rect width="10" height="10" fill="silver" rx="5" transform="matrix(1 0 0 -1 146.143 78.6)"/>
  <rect width="10" height="10" fill="silver" rx="5" transform="matrix(1 0 0 -1 168 78.6)"/>
  <rect width="10" height="10" fill="#999" rx="5" transform="matrix(1 0 0 -1 15 96.4)"/>
  <rect width="9.5" height="9.5" x=".25" y="-.25" stroke="silver" stroke-width=".5" rx="4.75" transform="matrix(1 0 0 -1 36.857 95.9)"/>
  <rect width="9.5" height="9.5" x=".25" y="-.25" stroke="silver" stroke-width=".5" rx="4.75" transform="matrix(1 0 0 -1 58.714 95.9)"/>
  <rect width="9.5" height="9.5" x=".25" y="-.25" stroke="silver" stroke-width=".5" rx="4.75" transform="matrix(1 0 0 -1 80.571 95.9)"/>
  <rect width="9.5" height="9.5" x=".25" y="-.25" stroke="silver" stroke-width=".5" rx="4.75" transform="matrix(1 0 0 -1 102.429 95.9)"/>
  <rect width="10" height="10" fill="silver" rx="5" transform="matrix(1 0 0 -1 124.286 96.4)"/>
  <rect width="10" height="10" fill="silver" rx="5" transform="matrix(1 0 0 -1 146.143 96.4)"/>
  <rect width="10" height="10" fill="silver" rx="5" transform="matrix(1 0 0 -1 168 96.4)"/>
  <rect width="10" height="10" fill="#999" rx="5" transform="matrix(1 0 0 -1 15 114.2)"/>
  <rect width="10" height="10" fill="silver" rx="5" transform="matrix(1 0 0 -1 36.857 114.2)"/>
  <rect width="9.5" height="9.5" x=".25" y="-.25" stroke="silver" stroke-width=".5" rx="4.75" transform="matrix(1 0 0 -1 58.714 113.7)"/>
  <rect width="10" height="10" fill="silver" rx="5" transform="matrix(1 0 0 -1 80.571 114.2)"/>
  <rect width="10" height="10" fill="silver" rx="5" transform="matrix(1 0 0 -1 102.429 114.2)"/>
  <rect width="10" height="10" fill="silver" rx="5" transform="matrix(1 0 0 -1 124.286 114.2)"/>
  <rect width="10" height="10" fill="silver" rx="5" transform="matrix(1 0 0 -1 146.143 114.2)"/>
  <rect width="10" height="10" fill="silver" rx="5" transform="matrix(1 0 0 -1 168 114.2)"/>
  <rect width="10" height="10" fill="#999" rx="5" transform="matrix(1 0 0 -1 15 132)"/>
  <rect width="10" height="10" fill="silver" rx="5" transform="matrix(1 0 0 -1 36.857 132)"/>
  <rect width="10" height="10" fill="silver" rx="5" transform="matrix(1 0 0 -1 58.714 132)"/>
  <rect width="10" height="10" fill="#DEDEDE" rx="5" transform="matrix(1 0 0 -1 80.571 132)"/>
  <rect width="10" height="10" fill="#DEDEDE" rx="5" transform="matrix(1 0 0 -1 102.429 132)"/>
  <rect width="10" height="10" fill="#DEDEDE" rx="5" transform="matrix(1 0 0 -1 124.286 132)"/>
  <rect width="10" height="10" fill="#DEDEDE" rx="5" transform="matrix(1 0 0 -1 146.143 132)"/>
  <rect width="10" height="10" fill="#DEDEDE" rx="5" transform="matrix(1 0 0 -1 168 132)"/>
  <rect width="172.5" height="108.5" x="10.25" y="28.25" stroke="silver" stroke-width=".5" rx="2.75"/>
  <g clip-path="url(#a)">
    <rect width="80" height="9" fill="silver" rx="2" transform="matrix(1 0 0 -1 15 156)"/>
    <rect width="12" height="6" fill="silver" rx="1" transform="matrix(1 0 0 -1 15 175.5)"/>
    <rect width="6" height="6" x="30" y="166" fill="#69A129" rx="1"/>
    <path fill="#999" d="M39 166h103v6H39z"/>
    <rect width="4" height="4" x="30" y="175" fill="#6F6F6F" rx="1"/>
    <path fill="#999" d="M37 176h96.1v2H37z"/>
  </g>
  <rect width="172.5" height="40.5" x="10.25" y="142.25" stroke="silver" stroke-width=".5" rx="2.75"/>
  <defs>
    <clipPath id="a">
      <rect width="173" height="41" x="10" y="142" fill="#fff" rx="3"/>
    </clipPath>
  </defs>
</svg>
