<svg xmlns="http://www.w3.org/2000/svg" width="200" height="200" fill="none" viewBox="0 0 200 200">
  <path fill="silver" fill-rule="evenodd" d="M10 1a9 9 0 0 0-9 9v180a9 9 0 0 0 9 9h180a9 9 0 0 0 9-9V10a9 9 0 0 0-9-9H10ZM0 10C0 4.477 4.477 0 10 0h180c5.523 0 10 4.477 10 10v180c0 5.523-4.477 10-10 10H10c-5.523 0-10-4.477-10-10V10Z" clip-rule="evenodd"/>
  <path fill="silver" d="M40 100c0-12.147 7.219-22.607 17.6-27.326L45.2 45.35C24.437 54.786 10 75.707 10 100h30Zm30-30a29.875 29.875 0 0 1 18.9 6.7l18.9-23.298A59.75 59.75 0 0 0 70 40v30Z"/>
  <path fill="silver" d="M70 40c-8.844 0-17.241 1.913-24.8 5.35l12.4 27.324A29.865 29.865 0 0 1 70 70V40Z"/>
  <path fill="#009BFF" d="M130 100c0-18.81-8.655-35.597-22.2-46.598L88.9 76.7a30.147 30.147 0 0 1 4.591 4.638A29.87 29.87 0 0 1 100 100h30Zm-60 60c33.137 0 60-26.863 60-60h-30c0 16.569-13.431 30-30 30v30Zm0-30a29.88 29.88 0 0 1-12.4-2.675l-12.4 27.326C52.759 158.086 61.156 160 70 160v-30Z"/>
  <path fill="silver" d="M57.6 127.325C47.219 122.607 40 112.147 40 100H10c0 24.293 14.437 45.214 35.2 54.651l12.4-27.326ZM145 77h-4a1 1 0 0 0-1 1v4a1 1 0 0 0 1 1h4a1 1 0 0 0 1-1v-4a1 1 0 0 0-1-1Z"/>
  <path fill="#4B4B4B" d="M189 77h-37a1 1 0 0 0-1 1v4a1 1 0 0 0 1 1h37a1 1 0 0 0 1-1v-4a1 1 0 0 0-1-1Z"/>
  <path fill="silver" d="M145 87h-4a1 1 0 0 0-1 1v4a1 1 0 0 0 1 1h4a1 1 0 0 0 1-1v-4a1 1 0 0 0-1-1Z"/>
  <path fill="#4B4B4B" d="M189 87h-37a1 1 0 0 0-1 1v4a1 1 0 0 0 1 1h37a1 1 0 0 0 1-1v-4a1 1 0 0 0-1-1Z"/>
  <path fill="#009BFF" d="M145 97h-4a1 1 0 0 0-1 1v4a1 1 0 0 0 1 1h4a1 1 0 0 0 1-1v-4a1 1 0 0 0-1-1Z"/>
  <path fill="#4B4B4B" d="M189 97h-37a1 1 0 0 0-1 1v4a1 1 0 0 0 1 1h37a1 1 0 0 0 1-1v-4a1 1 0 0 0-1-1Z"/>
  <path fill="#009BFF" d="M145 107h-4a1 1 0 0 0-1 1v4a1 1 0 0 0 1 1h4a1 1 0 0 0 1-1v-4a1 1 0 0 0-1-1Z"/>
  <path fill="#4B4B4B" d="M189 107h-37a1 1 0 0 0-1 1v4a1 1 0 0 0 1 1h37a1 1 0 0 0 1-1v-4a1 1 0 0 0-1-1Z"/>
  <path fill="#009BFF" d="M145 117h-4a1 1 0 0 0-1 1v4a1 1 0 0 0 1 1h4a1 1 0 0 0 1-1v-4a1 1 0 0 0-1-1Z"/>
  <path fill="#4B4B4B" d="M189 117h-37a1 1 0 0 0-1 1v4a1 1 0 0 0 1 1h37a1 1 0 0 0 1-1v-4a1 1 0 0 0-1-1Z"/>
</svg>
