<svg xmlns="http://www.w3.org/2000/svg" width="200" height="200" fill="none" viewBox="0 0 200 200">
  <path fill="silver" fill-rule="evenodd" d="M10 1a9 9 0 0 0-9 9v180a9 9 0 0 0 9 9h180a9 9 0 0 0 9-9V10a9 9 0 0 0-9-9H10ZM0 10C0 4.477 4.477 0 10 0h180c5.523 0 10 4.477 10 10v180c0 5.523-4.477 10-10 10H10c-5.523 0-10-4.477-10-10V10Z" clip-rule="evenodd"/>
  <path fill="silver" d="M62.333 10H11a1 1 0 0 0-1 1v15.667a1 1 0 0 0 1 1h51.333a1 1 0 0 0 1-1V11a1 1 0 0 0-1-1ZM34.667 29.667H11a1 1 0 0 0-1 1v.917a1 1 0 0 0 1 1h23.667a1 1 0 0 0 1-1v-.917a1 1 0 0 0-1-1Zm0 4.916H11a1 1 0 0 0-1 1v.917a1 1 0 0 0 1 1h23.667a1 1 0 0 0 1-1v-.917a1 1 0 0 0-1-1Zm0 4.917H11a1 1 0 0 0-1 1v.917a1 1 0 0 0 1 1h23.667a1 1 0 0 0 1-1V40.5a1 1 0 0 0-1-1Zm0 4.917H11a1 1 0 0 0-1 1v.917a1 1 0 0 0 1 1h23.667a1 1 0 0 0 1-1v-.917a1 1 0 0 0-1-1Zm27.668-14.75H38.668a1 1 0 0 0-1 1v15.667a1 1 0 0 0 1 1h23.667a1 1 0 0 0 1-1V30.667a1 1 0 0 0-1-1Z"/>
  <path fill="#009BFF" d="M15 51.333h-4a1 1 0 0 0-1 1v4a1 1 0 0 0 1 1h4a1 1 0 0 0 1-1v-4a1 1 0 0 0-1-1Z"/>
  <path fill="#4B4B4B" d="M62.333 51.333H22a1 1 0 0 0-1 1v4a1 1 0 0 0 1 1h40.333a1 1 0 0 0 1-1v-4a1 1 0 0 0-1-1Z"/>
  <path fill="#6F6F6F" d="M14 59.333h-2a1 1 0 0 0-1 1v2a1 1 0 0 0 1 1h2a1 1 0 0 0 1-1v-2a1 1 0 0 0-1-1Zm36 0H22a1 1 0 0 0-1 1v2a1 1 0 0 0 1 1h28a1 1 0 0 0 1-1v-2a1 1 0 0 0-1-1Z"/>
  <path fill="silver" d="M125.665 10H74.332a1 1 0 0 0-1 1v15.667a1 1 0 0 0 1 1h51.333a1 1 0 0 0 1-1V11a1 1 0 0 0-1-1ZM97.999 29.667H74.332a1 1 0 0 0-1 1v.917a1 1 0 0 0 1 1h23.667a1 1 0 0 0 1-1v-.917a1 1 0 0 0-1-1Zm0 4.916H74.332a1 1 0 0 0-1 1v.917a1 1 0 0 0 1 1h23.667a1 1 0 0 0 1-1v-.917a1 1 0 0 0-1-1Zm0 4.917H74.332a1 1 0 0 0-1 1v.917a1 1 0 0 0 1 1h23.667a1 1 0 0 0 1-1V40.5a1 1 0 0 0-1-1Zm0 4.917H74.332a1 1 0 0 0-1 1v.917a1 1 0 0 0 1 1h23.667a1 1 0 0 0 1-1v-.917a1 1 0 0 0-1-1Zm27.668-14.75H102a1 1 0 0 0-1 1v15.667a1 1 0 0 0 1 1h23.667a1 1 0 0 0 1-1V30.667a1 1 0 0 0-1-1Z"/>
  <path fill="#009BFF" d="M78.332 51.333h-4a1 1 0 0 0-1 1v4a1 1 0 0 0 1 1h4a1 1 0 0 0 1-1v-4a1 1 0 0 0-1-1Z"/>
  <path fill="#4B4B4B" d="M125.665 51.333H85.332a1 1 0 0 0-1 1v4a1 1 0 0 0 1 1h40.333a1 1 0 0 0 1-1v-4a1 1 0 0 0-1-1Z"/>
  <path fill="#6F6F6F" d="M77.332 59.333h-2a1 1 0 0 0-1 1v2a1 1 0 0 0 1 1h2a1 1 0 0 0 1-1v-2a1 1 0 0 0-1-1Zm36 0h-28a1 1 0 0 0-1 1v2a1 1 0 0 0 1 1h28a1 1 0 0 0 1-1v-2a1 1 0 0 0-1-1Z"/>
  <path fill="silver" d="M189.001 10h-51.333a1 1 0 0 0-1 1v15.667a1 1 0 0 0 1 1h51.333a1 1 0 0 0 1-1V11a1 1 0 0 0-1-1Zm-27.666 19.667h-23.667a1 1 0 0 0-1 1v.917a1 1 0 0 0 1 1h23.667a1 1 0 0 0 1-1v-.917a1 1 0 0 0-1-1Zm0 4.916h-23.667a1 1 0 0 0-1 1v.917a1 1 0 0 0 1 1h23.667a1 1 0 0 0 1-1v-.917a1 1 0 0 0-1-1Zm0 4.917h-23.667a1 1 0 0 0-1 1v.917a1 1 0 0 0 1 1h23.667a1 1 0 0 0 1-1V40.5a1 1 0 0 0-1-1Zm0 4.917h-23.667a1 1 0 0 0-1 1v.917a1 1 0 0 0 1 1h23.667a1 1 0 0 0 1-1v-.917a1 1 0 0 0-1-1Zm27.668-14.75h-23.667a1 1 0 0 0-1 1v15.667a1 1 0 0 0 1 1h23.667a1 1 0 0 0 1-1V30.667a1 1 0 0 0-1-1Z"/>
  <path fill="#009BFF" d="M141.668 51.333h-4a1 1 0 0 0-1 1v4a1 1 0 0 0 1 1h4a1 1 0 0 0 1-1v-4a1 1 0 0 0-1-1Z"/>
  <path fill="#4B4B4B" d="M189.001 51.333h-40.333a1 1 0 0 0-1 1v4a1 1 0 0 0 1 1h40.333a1 1 0 0 0 1-1v-4a1 1 0 0 0-1-1Z"/>
  <path fill="#6F6F6F" d="M140.668 59.333h-2a1 1 0 0 0-1 1v2a1 1 0 0 0 1 1h2a1 1 0 0 0 1-1v-2a1 1 0 0 0-1-1Zm36 0h-28a1 1 0 0 0-1 1v2a1 1 0 0 0 1 1h28a1 1 0 0 0 1-1v-2a1 1 0 0 0-1-1Z"/>
  <path fill="silver" d="M62.333 73.333H11a1 1 0 0 0-1 1V90a1 1 0 0 0 1 1h51.333a1 1 0 0 0 1-1V74.333a1 1 0 0 0-1-1ZM34.667 93H11a1 1 0 0 0-1 1v.917a1 1 0 0 0 1 1h23.667a1 1 0 0 0 1-1V94a1 1 0 0 0-1-1Zm0 4.917H11a1 1 0 0 0-1 1v.917a1 1 0 0 0 1 1h23.667a1 1 0 0 0 1-1v-.917a1 1 0 0 0-1-1Zm0 4.916H11a1 1 0 0 0-1 1v.917a1 1 0 0 0 1 1h23.667a1 1 0 0 0 1-1v-.917a1 1 0 0 0-1-1Zm0 4.917H11a1 1 0 0 0-1 1v.917a1 1 0 0 0 1 1h23.667a1 1 0 0 0 1-1v-.917a1 1 0 0 0-1-1ZM62.335 93H38.668a1 1 0 0 0-1 1v15.667a1 1 0 0 0 1 1h23.667a1 1 0 0 0 1-1V94a1 1 0 0 0-1-1Z"/>
  <path fill="#009BFF" d="M15 114.667h-4a1 1 0 0 0-1 1v4a1 1 0 0 0 1 1h4a1 1 0 0 0 1-1v-4a1 1 0 0 0-1-1Z"/>
  <path fill="#4B4B4B" d="M62.333 114.667H22a1 1 0 0 0-1 1v4a1 1 0 0 0 1 1h40.333a1 1 0 0 0 1-1v-4a1 1 0 0 0-1-1Z"/>
  <path fill="#6F6F6F" d="M14 122.667h-2a1 1 0 0 0-1 1v2a1 1 0 0 0 1 1h2a1 1 0 0 0 1-1v-2a1 1 0 0 0-1-1Zm36 0H22a1 1 0 0 0-1 1v2a1 1 0 0 0 1 1h28a1 1 0 0 0 1-1v-2a1 1 0 0 0-1-1Z"/>
  <path fill="silver" d="M125.665 73.333H74.332a1 1 0 0 0-1 1V90a1 1 0 0 0 1 1h51.333a1 1 0 0 0 1-1V74.333a1 1 0 0 0-1-1ZM97.999 93H74.332a1 1 0 0 0-1 1v.917a1 1 0 0 0 1 1h23.667a1 1 0 0 0 1-1V94a1 1 0 0 0-1-1Zm0 4.917H74.332a1 1 0 0 0-1 1v.917a1 1 0 0 0 1 1h23.667a1 1 0 0 0 1-1v-.917a1 1 0 0 0-1-1Zm0 4.916H74.332a1 1 0 0 0-1 1v.917a1 1 0 0 0 1 1h23.667a1 1 0 0 0 1-1v-.917a1 1 0 0 0-1-1Zm0 4.917H74.332a1 1 0 0 0-1 1v.917a1 1 0 0 0 1 1h23.667a1 1 0 0 0 1-1v-.917a1 1 0 0 0-1-1ZM125.667 93H102a1 1 0 0 0-1 1v15.667a1 1 0 0 0 1 1h23.667a1 1 0 0 0 1-1V94a1 1 0 0 0-1-1Z"/>
  <path fill="#009BFF" d="M78.332 114.667h-4a1 1 0 0 0-1 1v4a1 1 0 0 0 1 1h4a1 1 0 0 0 1-1v-4a1 1 0 0 0-1-1Z"/>
  <path fill="#4B4B4B" d="M125.665 114.667H85.332a1 1 0 0 0-1 1v4a1 1 0 0 0 1 1h40.333a1 1 0 0 0 1-1v-4a1 1 0 0 0-1-1Z"/>
  <path fill="#6F6F6F" d="M77.332 122.667h-2a1 1 0 0 0-1 1v2a1 1 0 0 0 1 1h2a1 1 0 0 0 1-1v-2a1 1 0 0 0-1-1Zm36 0h-28a1 1 0 0 0-1 1v2a1 1 0 0 0 1 1h28a1 1 0 0 0 1-1v-2a1 1 0 0 0-1-1Z"/>
  <path fill="silver" d="M189.001 73.333h-51.333a1 1 0 0 0-1 1V90a1 1 0 0 0 1 1h51.333a1 1 0 0 0 1-1V74.333a1 1 0 0 0-1-1ZM161.335 93h-23.667a1 1 0 0 0-1 1v.917a1 1 0 0 0 1 1h23.667a1 1 0 0 0 1-1V94a1 1 0 0 0-1-1Zm0 4.917h-23.667a1 1 0 0 0-1 1v.917a1 1 0 0 0 1 1h23.667a1 1 0 0 0 1-1v-.917a1 1 0 0 0-1-1Zm0 4.916h-23.667a1 1 0 0 0-1 1v.917a1 1 0 0 0 1 1h23.667a1 1 0 0 0 1-1v-.917a1 1 0 0 0-1-1Zm0 4.917h-23.667a1 1 0 0 0-1 1v.917a1 1 0 0 0 1 1h23.667a1 1 0 0 0 1-1v-.917a1 1 0 0 0-1-1ZM189.003 93h-23.667a1 1 0 0 0-1 1v15.667a1 1 0 0 0 1 1h23.667a1 1 0 0 0 1-1V94a1 1 0 0 0-1-1Z"/>
  <path fill="#009BFF" d="M141.668 114.667h-4a1 1 0 0 0-1 1v4a1 1 0 0 0 1 1h4a1 1 0 0 0 1-1v-4a1 1 0 0 0-1-1Z"/>
  <path fill="#4B4B4B" d="M189.001 114.667h-40.333a1 1 0 0 0-1 1v4a1 1 0 0 0 1 1h40.333a1 1 0 0 0 1-1v-4a1 1 0 0 0-1-1Z"/>
  <path fill="#6F6F6F" d="M140.668 122.667h-2a1 1 0 0 0-1 1v2a1 1 0 0 0 1 1h2a1 1 0 0 0 1-1v-2a1 1 0 0 0-1-1Zm36 0h-28a1 1 0 0 0-1 1v2a1 1 0 0 0 1 1h28a1 1 0 0 0 1-1v-2a1 1 0 0 0-1-1Z"/>
  <path fill="silver" d="M62.333 136.667H11a1 1 0 0 0-1 1v15.667a1 1 0 0 0 1 1h51.333a1 1 0 0 0 1-1v-15.667a1 1 0 0 0-1-1Zm-27.666 19.666H11a1 1 0 0 0-1 1v.917a1 1 0 0 0 1 1h23.667a1 1 0 0 0 1-1v-.917a1 1 0 0 0-1-1Zm0 4.917H11a1 1 0 0 0-1 1v.917a1 1 0 0 0 1 1h23.667a1 1 0 0 0 1-1v-.917a1 1 0 0 0-1-1Zm0 4.917H11a1 1 0 0 0-1 1v.917a1 1 0 0 0 1 1h23.667a1 1 0 0 0 1-1v-.917a1 1 0 0 0-1-1Zm0 4.916H11a1 1 0 0 0-1 1V173a1 1 0 0 0 1 1h23.667a1 1 0 0 0 1-1v-.917a1 1 0 0 0-1-1Zm27.668-14.75H38.668a1 1 0 0 0-1 1V173a1 1 0 0 0 1 1h23.667a1 1 0 0 0 1-1v-15.667a1 1 0 0 0-1-1Z"/>
  <path fill="#009BFF" d="M15 178h-4a1 1 0 0 0-1 1v4a1 1 0 0 0 1 1h4a1 1 0 0 0 1-1v-4a1 1 0 0 0-1-1Z"/>
  <path fill="#4B4B4B" d="M62.333 178H22a1 1 0 0 0-1 1v4a1 1 0 0 0 1 1h40.333a1 1 0 0 0 1-1v-4a1 1 0 0 0-1-1Z"/>
  <path fill="#6F6F6F" d="M14 186h-2a1 1 0 0 0-1 1v2a1 1 0 0 0 1 1h2a1 1 0 0 0 1-1v-2a1 1 0 0 0-1-1Zm36 0H22a1 1 0 0 0-1 1v2a1 1 0 0 0 1 1h28a1 1 0 0 0 1-1v-2a1 1 0 0 0-1-1Z"/>
  <path fill="silver" d="M125.665 136.667H74.332a1 1 0 0 0-1 1v15.667a1 1 0 0 0 1 1h51.333a1 1 0 0 0 1-1v-15.667a1 1 0 0 0-1-1Zm-27.666 19.666H74.332a1 1 0 0 0-1 1v.917a1 1 0 0 0 1 1h23.667a1 1 0 0 0 1-1v-.917a1 1 0 0 0-1-1Zm0 4.917H74.332a1 1 0 0 0-1 1v.917a1 1 0 0 0 1 1h23.667a1 1 0 0 0 1-1v-.917a1 1 0 0 0-1-1Zm0 4.917H74.332a1 1 0 0 0-1 1v.917a1 1 0 0 0 1 1h23.667a1 1 0 0 0 1-1v-.917a1 1 0 0 0-1-1Zm0 4.916H74.332a1 1 0 0 0-1 1V173a1 1 0 0 0 1 1h23.667a1 1 0 0 0 1-1v-.917a1 1 0 0 0-1-1Zm27.668-14.75H102a1 1 0 0 0-1 1V173a1 1 0 0 0 1 1h23.667a1 1 0 0 0 1-1v-15.667a1 1 0 0 0-1-1Z"/>
  <path fill="#009BFF" d="M78.332 178h-4a1 1 0 0 0-1 1v4a1 1 0 0 0 1 1h4a1 1 0 0 0 1-1v-4a1 1 0 0 0-1-1Z"/>
  <path fill="#4B4B4B" d="M125.665 178H85.332a1 1 0 0 0-1 1v4a1 1 0 0 0 1 1h40.333a1 1 0 0 0 1-1v-4a1 1 0 0 0-1-1Z"/>
  <path fill="#6F6F6F" d="M77.332 186h-2a1 1 0 0 0-1 1v2a1 1 0 0 0 1 1h2a1 1 0 0 0 1-1v-2a1 1 0 0 0-1-1Zm36 0h-28a1 1 0 0 0-1 1v2a1 1 0 0 0 1 1h28a1 1 0 0 0 1-1v-2a1 1 0 0 0-1-1Z"/>
  <path fill="silver" d="M189.001 136.667h-51.333a1 1 0 0 0-1 1v15.667a1 1 0 0 0 1 1h51.333a1 1 0 0 0 1-1v-15.667a1 1 0 0 0-1-1Zm-27.666 19.666h-23.667a1 1 0 0 0-1 1v.917a1 1 0 0 0 1 1h23.667a1 1 0 0 0 1-1v-.917a1 1 0 0 0-1-1Zm0 4.917h-23.667a1 1 0 0 0-1 1v.917a1 1 0 0 0 1 1h23.667a1 1 0 0 0 1-1v-.917a1 1 0 0 0-1-1Zm0 4.917h-23.667a1 1 0 0 0-1 1v.917a1 1 0 0 0 1 1h23.667a1 1 0 0 0 1-1v-.917a1 1 0 0 0-1-1Zm0 4.916h-23.667a1 1 0 0 0-1 1V173a1 1 0 0 0 1 1h23.667a1 1 0 0 0 1-1v-.917a1 1 0 0 0-1-1Zm27.668-14.75h-23.667a1 1 0 0 0-1 1V173a1 1 0 0 0 1 1h23.667a1 1 0 0 0 1-1v-15.667a1 1 0 0 0-1-1Z"/>
  <path fill="#009BFF" d="M141.668 178h-4a1 1 0 0 0-1 1v4a1 1 0 0 0 1 1h4a1 1 0 0 0 1-1v-4a1 1 0 0 0-1-1Z"/>
  <path fill="#4B4B4B" d="M189.001 178h-40.333a1 1 0 0 0-1 1v4a1 1 0 0 0 1 1h40.333a1 1 0 0 0 1-1v-4a1 1 0 0 0-1-1Z"/>
  <path fill="#6F6F6F" d="M140.668 186h-2a1 1 0 0 0-1 1v2a1 1 0 0 0 1 1h2a1 1 0 0 0 1-1v-2a1 1 0 0 0-1-1Zm36 0h-28a1 1 0 0 0-1 1v2a1 1 0 0 0 1 1h28a1 1 0 0 0 1-1v-2a1 1 0 0 0-1-1Z"/>
</svg>
