<svg xmlns="http://www.w3.org/2000/svg" width="200" height="200" fill="none" viewBox="0 0 200 200">
  <path fill="silver" fill-rule="evenodd" d="M10 1a9 9 0 0 0-9 9v180a9 9 0 0 0 9 9h180a9 9 0 0 0 9-9V10a9 9 0 0 0-9-9H10ZM0 10C0 4.477 4.477 0 10 0h180c5.523 0 10 4.477 10 10v180c0 5.523-4.477 10-10 10H10c-5.523 0-10-4.477-10-10V10Z" clip-rule="evenodd"/>
  <path fill="#009BFF" d="M40 85c0-12.147 7.219-22.607 17.6-27.325L45.2 30.349C24.437 39.786 10 60.707 10 85h30Zm30-30a29.875 29.875 0 0 1 18.9 6.7l18.9-23.298A59.75 59.75 0 0 0 70 25v30Z"/>
  <path fill="#009BFF" d="M70 25c-8.844 0-17.241 1.912-24.8 5.349l12.4 27.326a29.87 29.87 0 0 1 3.6-1.364A30 30 0 0 1 70 55V25Z"/>
  <path fill="silver" d="M130 85c0-18.81-8.655-35.597-22.2-46.598L88.9 61.7a30.147 30.147 0 0 1 4.591 4.638A29.87 29.87 0 0 1 100 85h30Zm-60 60c33.137 0 60-26.863 60-60h-30c0 16.569-13.431 30-30 30v30Z"/>
  <path fill="#009BFF" d="M70 115a29.88 29.88 0 0 1-12.4-2.675l-12.4 27.326C52.759 143.087 61.156 145 70 145v-30Z"/>
  <path fill="#009BFF" d="M57.6 112.325C47.219 107.607 40 97.147 40 85H10c0 24.293 14.437 45.214 35.2 54.651l12.4-27.326ZM145 62h-4a1 1 0 0 0-1 1v4a1 1 0 0 0 1 1h4a1 1 0 0 0 1-1v-4a1 1 0 0 0-1-1Z"/>
  <path fill="#4B4B4B" d="M189 62h-37a1 1 0 0 0-1 1v4a1 1 0 0 0 1 1h37a1 1 0 0 0 1-1v-4a1 1 0 0 0-1-1Z"/>
  <path fill="#009BFF" d="M145 72h-4a1 1 0 0 0-1 1v4a1 1 0 0 0 1 1h4a1 1 0 0 0 1-1v-4a1 1 0 0 0-1-1Z"/>
  <path fill="#4B4B4B" d="M189 72h-37a1 1 0 0 0-1 1v4a1 1 0 0 0 1 1h37a1 1 0 0 0 1-1v-4a1 1 0 0 0-1-1Z"/>
  <path fill="silver" d="M145 82h-4a1 1 0 0 0-1 1v4a1 1 0 0 0 1 1h4a1 1 0 0 0 1-1v-4a1 1 0 0 0-1-1Z"/>
  <path fill="#4B4B4B" d="M189 82h-37a1 1 0 0 0-1 1v4a1 1 0 0 0 1 1h37a1 1 0 0 0 1-1v-4a1 1 0 0 0-1-1Z"/>
  <path fill="silver" d="M145 92h-4a1 1 0 0 0-1 1v4a1 1 0 0 0 1 1h4a1 1 0 0 0 1-1v-4a1 1 0 0 0-1-1Z"/>
  <path fill="#4B4B4B" d="M189 92h-37a1 1 0 0 0-1 1v4a1 1 0 0 0 1 1h37a1 1 0 0 0 1-1v-4a1 1 0 0 0-1-1Z"/>
  <path fill="silver" d="M145 102h-4a1 1 0 0 0-1 1v4a1 1 0 0 0 1 1h4a1 1 0 0 0 1-1v-4a1 1 0 0 0-1-1Z"/>
  <path fill="#4B4B4B" d="M189 102h-37a1 1 0 0 0-1 1v4a1 1 0 0 0 1 1h37a1 1 0 0 0 1-1v-4a1 1 0 0 0-1-1Zm-1 68H12a2 2 0 0 0-2 2v16a2 2 0 0 0 2 2h176a2 2 0 0 0 2-2v-16a2 2 0 0 0-2-2Z"/>
  <path fill="#009BFF" d="M31 176H17a1 1 0 0 0-1 1v6a1 1 0 0 0 1 1h14a1 1 0 0 0 1-1v-6a1 1 0 0 0-1-1Z"/>
  <path fill="#fff" d="M75 176H39a1 1 0 0 0-1 1v6a1 1 0 0 0 1 1h36a1 1 0 0 0 1-1v-6a1 1 0 0 0-1-1Z"/>
</svg>
