<svg xmlns="http://www.w3.org/2000/svg" width="200" height="200" fill="none" viewBox="0 0 200 200">
  <path fill="silver" fill-rule="evenodd" d="M10 1a9 9 0 0 0-9 9v180a9 9 0 0 0 9 9h180a9 9 0 0 0 9-9V10a9 9 0 0 0-9-9H10ZM0 10C0 4.477 4.477 0 10 0h180c5.523 0 10 4.477 10 10v180c0 5.523-4.477 10-10 10H10c-5.523 0-10-4.477-10-10V10Z" clip-rule="evenodd"/>
  <path fill="silver" d="M187 10H13a3 3 0 0 0-3 3v4a3 3 0 0 0 3 3h174a3 3 0 0 0 3-3v-4a3 3 0 0 0-3-3Zm0 14H13a3 3 0 0 0-3 3v4a3 3 0 0 0 3 3h174a3 3 0 0 0 3-3v-4a3 3 0 0 0-3-3Z"/>
  <path fill="silver" fill-rule="evenodd" d="M14 45a3 3 0 0 0-3 3v138a3 3 0 0 0 3 3h172a3 3 0 0 0 3-3V48a3 3 0 0 0-3-3H14Zm-4 3a4 4 0 0 1 4-4h172a4 4 0 0 1 4 4v138a4 4 0 0 1-4 4H14a4 4 0 0 1-4-4V48Z" clip-rule="evenodd"/>
  <path fill="#4B4B4B" d="M84 48H16a2 2 0 0 0-2 2v2a2 2 0 0 0 2 2h68a2 2 0 0 0 2-2v-2a2 2 0 0 0-2-2Z"/>
  <path fill="silver" d="M33 67H15a1 1 0 0 0-1 1v4a1 1 0 0 0 1 1h18a1 1 0 0 0 1-1v-4a1 1 0 0 0-1-1Z"/>
  <path fill="#009BFF" d="M43 64h-4a1 1 0 0 0-1 1v4a1 1 0 0 0 1 1h4a1 1 0 0 0 1-1v-4a1 1 0 0 0-1-1Z"/>
  <path fill="#4B4B4B" d="M185 64H49a1 1 0 0 0-1 1v4a1 1 0 0 0 1 1h136a1 1 0 0 0 1-1v-4a1 1 0 0 0-1-1Z"/>
  <path fill="#6F6F6F" d="M42 72h-2a1 1 0 0 0-1 1v2a1 1 0 0 0 1 1h2a1 1 0 0 0 1-1v-2a1 1 0 0 0-1-1Zm100 0H49a1 1 0 0 0-1 1v2a1 1 0 0 0 1 1h93a1 1 0 0 0 1-1v-2a1 1 0 0 0-1-1Z"/>
  <path fill="silver" d="M33 89H15a1 1 0 0 0-1 1v4a1 1 0 0 0 1 1h18a1 1 0 0 0 1-1v-4a1 1 0 0 0-1-1Z"/>
  <path fill="#009BFF" d="M43 86h-4a1 1 0 0 0-1 1v4a1 1 0 0 0 1 1h4a1 1 0 0 0 1-1v-4a1 1 0 0 0-1-1Z"/>
  <path fill="#4B4B4B" d="M185 86H49a1 1 0 0 0-1 1v4a1 1 0 0 0 1 1h136a1 1 0 0 0 1-1v-4a1 1 0 0 0-1-1Z"/>
  <path fill="#6F6F6F" d="M42 94h-2a1 1 0 0 0-1 1v2a1 1 0 0 0 1 1h2a1 1 0 0 0 1-1v-2a1 1 0 0 0-1-1Zm100 0H49a1 1 0 0 0-1 1v2a1 1 0 0 0 1 1h93a1 1 0 0 0 1-1v-2a1 1 0 0 0-1-1Z"/>
  <path fill="silver" d="M33 111H15a1 1 0 0 0-1 1v4a1 1 0 0 0 1 1h18a1 1 0 0 0 1-1v-4a1 1 0 0 0-1-1Z"/>
  <path fill="#009BFF" d="M43 108h-4a1 1 0 0 0-1 1v4a1 1 0 0 0 1 1h4a1 1 0 0 0 1-1v-4a1 1 0 0 0-1-1Z"/>
  <path fill="#4B4B4B" d="M185 108H49a1 1 0 0 0-1 1v4a1 1 0 0 0 1 1h136a1 1 0 0 0 1-1v-4a1 1 0 0 0-1-1Z"/>
  <path fill="#6F6F6F" d="M42 116h-2a1 1 0 0 0-1 1v2a1 1 0 0 0 1 1h2a1 1 0 0 0 1-1v-2a1 1 0 0 0-1-1Zm100 0H49a1 1 0 0 0-1 1v2a1 1 0 0 0 1 1h93a1 1 0 0 0 1-1v-2a1 1 0 0 0-1-1Z"/>
  <path fill="silver" d="M33 133H15a1 1 0 0 0-1 1v4a1 1 0 0 0 1 1h18a1 1 0 0 0 1-1v-4a1 1 0 0 0-1-1Z"/>
  <path fill="#009BFF" d="M43 130h-4a1 1 0 0 0-1 1v4a1 1 0 0 0 1 1h4a1 1 0 0 0 1-1v-4a1 1 0 0 0-1-1Z"/>
  <path fill="#4B4B4B" d="M185 130H49a1 1 0 0 0-1 1v4a1 1 0 0 0 1 1h136a1 1 0 0 0 1-1v-4a1 1 0 0 0-1-1Z"/>
  <path fill="#6F6F6F" d="M42 138h-2a1 1 0 0 0-1 1v2a1 1 0 0 0 1 1h2a1 1 0 0 0 1-1v-2a1 1 0 0 0-1-1Zm100 0H49a1 1 0 0 0-1 1v2a1 1 0 0 0 1 1h93a1 1 0 0 0 1-1v-2a1 1 0 0 0-1-1Z"/>
  <path fill="silver" d="M33 155H15a1 1 0 0 0-1 1v4a1 1 0 0 0 1 1h18a1 1 0 0 0 1-1v-4a1 1 0 0 0-1-1Z"/>
  <path fill="#009BFF" d="M43 152h-4a1 1 0 0 0-1 1v4a1 1 0 0 0 1 1h4a1 1 0 0 0 1-1v-4a1 1 0 0 0-1-1Z"/>
  <path fill="#4B4B4B" d="M185 152H49a1 1 0 0 0-1 1v4a1 1 0 0 0 1 1h136a1 1 0 0 0 1-1v-4a1 1 0 0 0-1-1Z"/>
  <path fill="#6F6F6F" d="M42 160h-2a1 1 0 0 0-1 1v2a1 1 0 0 0 1 1h2a1 1 0 0 0 1-1v-2a1 1 0 0 0-1-1Zm100 0H49a1 1 0 0 0-1 1v2a1 1 0 0 0 1 1h93a1 1 0 0 0 1-1v-2a1 1 0 0 0-1-1Z"/>
  <path fill="silver" d="M33 177H15a1 1 0 0 0-1 1v4a1 1 0 0 0 1 1h18a1 1 0 0 0 1-1v-4a1 1 0 0 0-1-1Z"/>
  <path fill="#009BFF" d="M43 174h-4a1 1 0 0 0-1 1v4a1 1 0 0 0 1 1h4a1 1 0 0 0 1-1v-4a1 1 0 0 0-1-1Z"/>
  <path fill="#4B4B4B" d="M185 174H49a1 1 0 0 0-1 1v4a1 1 0 0 0 1 1h136a1 1 0 0 0 1-1v-4a1 1 0 0 0-1-1Z"/>
  <path fill="#6F6F6F" d="M42 182h-2a1 1 0 0 0-1 1v2a1 1 0 0 0 1 1h2a1 1 0 0 0 1-1v-2a1 1 0 0 0-1-1Zm100 0H49a1 1 0 0 0-1 1v2a1 1 0 0 0 1 1h93a1 1 0 0 0 1-1v-2a1 1 0 0 0-1-1Z"/>
</svg>
