<svg xmlns="http://www.w3.org/2000/svg" width="200" height="200" fill="none" viewBox="0 0 200 200">
  <rect width="199" height="199" x=".5" y=".5" stroke="silver" rx="9.5"/>
  <g clip-path="url(#a)">
    <mask id="b" fill="#fff">
      <path d="M10 10h17.571v36H10V10Z"/>
    </mask>
    <path fill="silver" d="M10 10V9H9v1h1Zm0 1h17.571V9H10v2Zm1 35V10H9v36h2Z" mask="url(#b)"/>
    <rect width="4" height="4" x="13" y="13" fill="#7E7E7E" rx="1"/>
    <rect width="11.571" height="6" x="13" y="19" fill="silver" rx="2"/>
    <mask id="c" fill="#fff">
      <path d="M27.571 10h17.572v36H27.57V10Z"/>
    </mask>
    <path fill="silver" d="M27.571 10V9h-1v1h1Zm0 1h17.572V9H27.57v2Zm1 35V10h-2v36h2Z" mask="url(#c)"/>
    <rect width="4" height="4" x="30.571" y="13" fill="#7E7E7E" rx="1"/>
    <rect width="11.571" height="6" x="30.571" y="19" fill="silver" rx="2"/>
    <mask id="d" fill="#fff">
      <path d="M45.143 10h17.571v36H45.143V10Z"/>
    </mask>
    <path fill="silver" d="M45.143 10V9h-1v1h1Zm0 1h17.571V9H45.143v2Zm1 35V10h-2v36h2Z" mask="url(#d)"/>
    <rect width="4" height="4" x="48.143" y="13" fill="#7E7E7E" rx="1"/>
    <rect width="11.571" height="6" x="48.143" y="19" fill="silver" rx="2"/>
    <mask id="e" fill="#fff">
      <path d="M62.714 10h17.572v36H62.714V10Z"/>
    </mask>
    <path fill="silver" d="M62.714 10V9h-1v1h1Zm0 1h17.572V9H62.714v2Zm1 35V10h-2v36h2Z" mask="url(#e)"/>
    <rect width="4" height="4" x="65.714" y="13" fill="#7E7E7E" rx="1"/>
    <rect width="11.571" height="6" x="65.714" y="19" fill="silver" rx="2"/>
    <mask id="f" fill="#fff">
      <path d="M80.286 10h17.571v36H80.286V10Z"/>
    </mask>
    <path fill="silver" d="M80.286 10V9h-1v1h1Zm0 1h17.571V9H80.286v2Zm1 35V10h-2v36h2Z" mask="url(#f)"/>
    <rect width="4" height="4" x="83.286" y="13" fill="#7E7E7E" rx="1"/>
    <rect width="11.571" height="6" x="83.286" y="19" fill="silver" rx="2"/>
    <mask id="g" fill="#fff">
      <path d="M97.857 10h17.572v36H97.857V10Z"/>
    </mask>
    <path fill="silver" d="M97.857 10V9h-1v1h1Zm0 1h17.572V9H97.857v2Zm1 35V10h-2v36h2Z" mask="url(#g)"/>
    <rect width="4" height="4" x="100.857" y="13" fill="#7E7E7E" rx="1"/>
    <rect width="11.571" height="6" x="100.857" y="19" fill="silver" rx="2"/>
    <mask id="h" fill="#fff">
      <path d="M115.429 10H133v36h-17.571V10Z"/>
    </mask>
    <path fill="silver" d="M115.429 10V9h-1v1h1Zm0 1H133V9h-17.571v2Zm1 35V10h-2v36h2Z" mask="url(#h)"/>
    <rect width="4" height="4" x="118.429" y="13" fill="#7E7E7E" rx="1"/>
    <rect width="11.571" height="6" x="118.429" y="19" fill="silver" rx="2"/>
    <mask id="i" fill="#fff">
      <path d="M10 46h17.571v36H10V46Z"/>
    </mask>
    <path fill="silver" d="M10 46v-1H9v1h1Zm0 1h17.571v-2H10v2Zm1 35V46H9v36h2Z" mask="url(#i)"/>
    <rect width="4" height="4" x="13" y="49" fill="#7E7E7E" rx="1"/>
    <rect width="11.571" height="6" x="13" y="55" fill="silver" rx="2"/>
    <mask id="j" fill="#fff">
      <path d="M27.571 46h17.572v36H27.57V46Z"/>
    </mask>
    <path fill="silver" d="M27.571 46v-1h-1v1h1Zm0 1h17.572v-2H27.57v2Zm1 35V46h-2v36h2Z" mask="url(#j)"/>
    <rect width="4" height="4" x="30.571" y="49" fill="#7E7E7E" rx="1"/>
    <rect width="11.571" height="6" x="30.571" y="55" fill="silver" rx="2"/>
    <mask id="k" fill="#fff">
      <path d="M45.143 46h17.571v36H45.143V46Z"/>
    </mask>
    <path fill="silver" d="M45.143 46v-1h-1v1h1Zm0 1h17.571v-2H45.143v2Zm1 35V46h-2v36h2Z" mask="url(#k)"/>
    <rect width="4" height="4" x="48.143" y="49" fill="#7E7E7E" rx="1"/>
    <rect width="11.571" height="6" x="48.143" y="55" fill="silver" rx="2"/>
    <mask id="l" fill="#fff">
      <path d="M62.714 46h17.572v36H62.714V46Z"/>
    </mask>
    <path fill="silver" d="M62.714 46v-1h-1v1h1Zm0 1h17.572v-2H62.714v2Zm1 35V46h-2v36h2Z" mask="url(#l)"/>
    <rect width="4" height="4" x="65.714" y="49" fill="#7E7E7E" rx="1"/>
    <rect width="11.571" height="6" x="65.714" y="55" fill="silver" rx="2"/>
    <mask id="m" fill="#fff">
      <path d="M80.286 46h17.571v36H80.286V46Z"/>
    </mask>
    <path fill="silver" d="M80.286 46v-1h-1v1h1Zm0 1h17.571v-2H80.286v2Zm1 35V46h-2v36h2Z" mask="url(#m)"/>
    <rect width="4" height="4" x="83.286" y="49" fill="#7E7E7E" rx="1"/>
    <rect width="11.571" height="6" x="83.286" y="55" fill="silver" rx="2"/>
    <mask id="n" fill="#fff">
      <path d="M97.857 46h17.572v36H97.857V46Z"/>
    </mask>
    <path fill="silver" d="M97.857 46v-1h-1v1h1Zm0 1h17.572v-2H97.857v2Zm1 35V46h-2v36h2Z" mask="url(#n)"/>
    <rect width="4" height="4" x="100.857" y="49" fill="#7E7E7E" rx="1"/>
    <rect width="11.571" height="6" x="100.857" y="55" fill="silver" rx="2"/>
    <mask id="o" fill="#fff">
      <path d="M115.429 46H133v36h-17.571V46Z"/>
    </mask>
    <path fill="silver" d="M115.429 46v-1h-1v1h1Zm0 1H133v-2h-17.571v2Zm1 35V46h-2v36h2Z" mask="url(#o)"/>
    <rect width="4" height="4" x="118.429" y="49" fill="#7E7E7E" rx="1"/>
    <rect width="11.571" height="6" x="118.429" y="55" fill="silver" rx="2"/>
    <mask id="p" fill="#fff">
      <path d="M10 82h17.571v36H10V82Z"/>
    </mask>
    <path fill="silver" d="M10 82v-1H9v1h1Zm0 1h17.571v-2H10v2Zm1 35V82H9v36h2Z" mask="url(#p)"/>
    <rect width="4" height="4" x="13" y="85" fill="#7E7E7E" rx="1"/>
    <rect width="11.571" height="6" x="13" y="91" fill="silver" rx="2"/>
    <mask id="q" fill="#fff">
      <path d="M27.571 82h17.572v36H27.57V82Z"/>
    </mask>
    <path fill="silver" d="M27.571 82v-1h-1v1h1Zm0 1h17.572v-2H27.57v2Zm1 35V82h-2v36h2Z" mask="url(#q)"/>
    <rect width="4" height="4" x="30.571" y="85" fill="#7E7E7E" rx="1"/>
    <rect width="11.571" height="6" x="30.571" y="91" fill="silver" rx="2"/>
    <mask id="r" fill="#fff">
      <path d="M45.143 82h17.571v36H45.143V82Z"/>
    </mask>
    <path fill="silver" d="M45.143 82v-1h-1v1h1Zm0 1h17.571v-2H45.143v2Zm1 35V82h-2v36h2Z" mask="url(#r)"/>
    <rect width="4" height="4" x="48.143" y="85" fill="#7E7E7E" rx="1"/>
    <rect width="11.571" height="6" x="48.143" y="91" fill="silver" rx="2"/>
    <mask id="s" fill="#fff">
      <path d="M62.714 82h17.572v36H62.714V82Z"/>
    </mask>
    <path fill="silver" d="M62.714 82v-1h-1v1h1Zm0 1h17.572v-2H62.714v2Zm1 35V82h-2v36h2Z" mask="url(#s)"/>
    <rect width="4" height="4" x="65.714" y="85" fill="#7E7E7E" rx="1"/>
    <rect width="11.571" height="6" x="65.714" y="91" fill="silver" rx="2"/>
    <mask id="t" fill="#fff">
      <path d="M80.286 82h17.571v36H80.286V82Z"/>
    </mask>
    <path fill="silver" d="M80.286 82v-1h-1v1h1Zm0 1h17.571v-2H80.286v2Zm1 35V82h-2v36h2Z" mask="url(#t)"/>
    <rect width="4" height="4" x="83.286" y="85" fill="#7E7E7E" rx="1"/>
    <rect width="11.571" height="6" x="83.286" y="91" fill="silver" rx="2"/>
    <mask id="u" fill="#fff">
      <path d="M97.857 82h17.572v36H97.857V82Z"/>
    </mask>
    <path fill="silver" d="M97.857 82v-1h-1v1h1Zm0 1h17.572v-2H97.857v2Zm1 35V82h-2v36h2Z" mask="url(#u)"/>
    <rect width="4" height="4" x="100.857" y="85" fill="#7E7E7E" rx="1"/>
    <rect width="11.571" height="6" x="100.857" y="91" fill="silver" rx="2"/>
    <mask id="v" fill="#fff">
      <path d="M115.429 82H133v36h-17.571V82Z"/>
    </mask>
    <path fill="silver" d="M115.429 82v-1h-1v1h1Zm0 1H133v-2h-17.571v2Zm1 35V82h-2v36h2Z" mask="url(#v)"/>
    <rect width="4" height="4" x="118.429" y="85" fill="#7E7E7E" rx="1"/>
    <rect width="11.571" height="6" x="118.429" y="91" fill="silver" rx="2"/>
    <mask id="w" fill="#fff">
      <path d="M10 118h17.571v36H10v-36Z"/>
    </mask>
    <path fill="silver" d="M10 118v-1H9v1h1Zm0 1h17.571v-2H10v2Zm1 35v-36H9v36h2Z" mask="url(#w)"/>
    <rect width="4" height="4" x="13" y="121" fill="#7E7E7E" rx="1"/>
    <rect width="11.571" height="6" x="13" y="127" fill="silver" rx="2"/>
    <mask id="x" fill="#fff">
      <path d="M27.571 118h17.572v36H27.57v-36Z"/>
    </mask>
    <path fill="silver" d="M27.571 118v-1h-1v1h1Zm0 1h17.572v-2H27.57v2Zm1 35v-36h-2v36h2Z" mask="url(#x)"/>
    <rect width="4" height="4" x="30.571" y="121" fill="#7E7E7E" rx="1"/>
    <rect width="11.571" height="6" x="30.571" y="127" fill="silver" rx="2"/>
    <mask id="y" fill="#fff">
      <path d="M45.143 118h17.571v36H45.143v-36Z"/>
    </mask>
    <path fill="silver" d="M45.143 118v-1h-1v1h1Zm0 1h17.571v-2H45.143v2Zm1 35v-36h-2v36h2Z" mask="url(#y)"/>
    <rect width="4" height="4" x="48.143" y="121" fill="#7E7E7E" rx="1"/>
    <rect width="11.571" height="6" x="48.143" y="127" fill="silver" rx="2"/>
    <mask id="z" fill="#fff">
      <path d="M62.714 118h17.572v36H62.714v-36Z"/>
    </mask>
    <path fill="silver" d="M62.714 118v-1h-1v1h1Zm0 1h17.572v-2H62.714v2Zm1 35v-36h-2v36h2Z" mask="url(#z)"/>
    <rect width="4" height="4" x="65.714" y="121" fill="#7E7E7E" rx="1"/>
    <rect width="11.571" height="6" x="65.714" y="127" fill="silver" rx="2"/>
    <mask id="A" fill="#fff">
      <path d="M80.286 118h17.571v36H80.286v-36Z"/>
    </mask>
    <path fill="silver" d="M80.286 118v-1h-1v1h1Zm0 1h17.571v-2H80.286v2Zm1 35v-36h-2v36h2Z" mask="url(#A)"/>
    <rect width="4" height="4" x="83.286" y="121" fill="#7E7E7E" rx="1"/>
    <rect width="11.571" height="6" x="83.286" y="127" fill="silver" rx="2"/>
    <mask id="B" fill="#fff">
      <path d="M97.857 118h17.572v36H97.857v-36Z"/>
    </mask>
    <path fill="silver" d="M97.857 118v-1h-1v1h1Zm0 1h17.572v-2H97.857v2Zm1 35v-36h-2v36h2Z" mask="url(#B)"/>
    <rect width="4" height="4" x="100.857" y="121" fill="#7E7E7E" rx="1"/>
    <rect width="11.571" height="6" x="100.857" y="127" fill="silver" rx="2"/>
    <mask id="C" fill="#fff">
      <path d="M115.429 118H133v36h-17.571v-36Z"/>
    </mask>
    <path fill="silver" d="M115.429 118v-1h-1v1h1Zm0 1H133v-2h-17.571v2Zm1 35v-36h-2v36h2Z" mask="url(#C)"/>
    <rect width="4" height="4" x="118.429" y="121" fill="#7E7E7E" rx="1"/>
    <rect width="11.571" height="6" x="118.429" y="127" fill="silver" rx="2"/>
    <mask id="D" fill="#fff">
      <path d="M10 154h17.571v36H10v-36Z"/>
    </mask>
    <path fill="silver" d="M10 154v-1H9v1h1Zm0 1h17.571v-2H10v2Zm1 35v-36H9v36h2Z" mask="url(#D)"/>
    <rect width="4" height="4" x="13" y="157" fill="#7E7E7E" rx="1"/>
    <rect width="11.571" height="6" x="13" y="163" fill="silver" rx="2"/>
    <mask id="E" fill="#fff">
      <path d="M27.571 154h17.572v36H27.57v-36Z"/>
    </mask>
    <path fill="silver" d="M27.571 154v-1h-1v1h1Zm0 1h17.572v-2H27.57v2Zm1 35v-36h-2v36h2Z" mask="url(#E)"/>
    <rect width="4" height="4" x="30.571" y="157" fill="#7E7E7E" rx="1"/>
    <rect width="11.571" height="6" x="30.571" y="163" fill="silver" rx="2"/>
    <mask id="F" fill="#fff">
      <path d="M45.143 154h17.571v36H45.143v-36Z"/>
    </mask>
    <path fill="silver" d="M45.143 154v-1h-1v1h1Zm0 1h17.571v-2H45.143v2Zm1 35v-36h-2v36h2Z" mask="url(#F)"/>
    <rect width="4" height="4" x="48.143" y="157" fill="#7E7E7E" rx="1"/>
    <rect width="11.571" height="6" x="48.143" y="163" fill="silver" rx="2"/>
    <mask id="G" fill="#fff">
      <path d="M62.714 154h17.572v36H62.714v-36Z"/>
    </mask>
    <path fill="silver" d="M62.714 154v-1h-1v1h1Zm0 1h17.572v-2H62.714v2Zm1 35v-36h-2v36h2Z" mask="url(#G)"/>
    <rect width="4" height="4" x="65.714" y="157" fill="#7E7E7E" rx="1"/>
    <rect width="11.571" height="6" x="65.714" y="163" fill="silver" rx="2"/>
    <mask id="H" fill="#fff">
      <path d="M80.286 154h17.571v36H80.286v-36Z"/>
    </mask>
    <path fill="silver" d="M80.286 154v-1h-1v1h1Zm0 1h17.571v-2H80.286v2Zm1 35v-36h-2v36h2Z" mask="url(#H)"/>
    <rect width="4" height="4" x="83.286" y="157" fill="#7E7E7E" rx="1"/>
    <rect width="11.571" height="6" x="83.286" y="163" fill="silver" rx="2"/>
    <mask id="I" fill="#fff">
      <path d="M97.857 154h17.572v36H97.857v-36Z"/>
    </mask>
    <path fill="silver" d="M97.857 154v-1h-1v1h1Zm0 1h17.572v-2H97.857v2Zm1 35v-36h-2v36h2Z" mask="url(#I)"/>
    <rect width="4" height="4" x="100.857" y="157" fill="#7E7E7E" rx="1"/>
    <rect width="11.571" height="6" x="100.857" y="163" fill="silver" rx="2"/>
    <mask id="J" fill="#fff">
      <path d="M115.429 154H133v36h-17.571v-36Z"/>
    </mask>
    <path fill="silver" d="M115.429 154v-1h-1v1h1Zm0 1H133v-2h-17.571v2Zm1 35v-36h-2v36h2Z" mask="url(#J)"/>
    <rect width="4" height="4" x="118.429" y="157" fill="#7E7E7E" rx="1"/>
    <rect width="11.571" height="6" x="118.429" y="163" fill="silver" rx="2"/>
  </g>
  <rect width="122" height="179" x="10.5" y="10.5" stroke="silver" rx="4.5"/>
  <rect width="46" height="179" x="143.5" y="10.5" stroke="silver" rx="4.5"/>
  <rect width="36" height="5" x="148.5" y="15.5" fill="silver" rx="1.5"/>
  <rect width="36" height="5" x="148.5" y="15.5" stroke="silver" rx="1.5"/>
  <path fill="#0071B9" d="M148 17a2 2 0 0 1 2-2h16.5v6H150a2 2 0 0 1-2-2v-2Z"/>
  <mask id="K" fill="#fff">
    <path d="M166.5 15H183a2 2 0 0 1 2 2v2a2 2 0 0 1-2 2h-16.5v-6Z"/>
  </mask>
  <path fill="silver" d="M166.5 14H183a3 3 0 0 1 3 3h-2a1 1 0 0 0-1-1h-16.5v-2Zm19.5 5a3 3 0 0 1-3 3h-16.5v-2H183a1 1 0 0 0 1-1h2Zm-19.5 2v-6 6Zm16.5-7a3 3 0 0 1 3 3v2a3 3 0 0 1-3 3v-2a1 1 0 0 0 1-1v-2a1 1 0 0 0-1-1v-2Z" mask="url(#K)"/>
  <rect width="6" height="6" x="148" y="26" fill="#2872E0" rx="2"/>
  <rect width="6" height="6" x="156" y="26" fill="#569AFF" rx="2"/>
  <rect width="21" height="6" x="164" y="26" fill="silver" rx="2"/>
  <rect width="6" height="6" x="148" y="37" fill="#2872E0" rx="2"/>
  <rect width="6" height="6" x="156" y="37" fill="#569AFF" rx="2"/>
  <rect width="21" height="6" x="164" y="37" fill="silver" rx="2"/>
  <rect width="6" height="6" x="148" y="48" fill="#2872E0" rx="2"/>
  <rect width="6" height="6" x="156" y="48" fill="#569AFF" rx="2"/>
  <rect width="21" height="6" x="164" y="48" fill="silver" rx="2"/>
  <rect width="6" height="6" x="148" y="59" fill="#2872E0" rx="2"/>
  <rect width="6" height="6" x="156" y="59" fill="#569AFF" rx="2"/>
  <rect width="21" height="6" x="164" y="59" fill="silver" rx="2"/>
  <rect width="6" height="6" x="148" y="70" fill="#2872E0" rx="2"/>
  <rect width="6" height="6" x="156" y="70" fill="#569AFF" rx="2"/>
  <rect width="21" height="6" x="164" y="70" fill="silver" rx="2"/>
  <rect width="6" height="6" x="148" y="81" fill="#2872E0" rx="2"/>
  <rect width="6" height="6" x="156" y="81" fill="#569AFF" rx="2"/>
  <rect width="21" height="6" x="164" y="81" fill="silver" rx="2"/>
  <rect width="6" height="6" x="148" y="92" fill="#2872E0" rx="2"/>
  <rect width="6" height="6" x="156" y="92" fill="#569AFF" rx="2"/>
  <rect width="21" height="6" x="164" y="92" fill="silver" rx="2"/>
  <rect width="6" height="6" x="148" y="103" fill="#2872E0" rx="2"/>
  <rect width="6" height="6" x="156" y="103" fill="#569AFF" rx="2"/>
  <rect width="21" height="6" x="164" y="103" fill="silver" rx="2"/>
  <rect width="6" height="6" x="148" y="114" fill="#2872E0" rx="2"/>
  <rect width="6" height="6" x="156" y="114" fill="#569AFF" rx="2"/>
  <rect width="21" height="6" x="164" y="114" fill="silver" rx="2"/>
  <defs>
    <clipPath id="a">
      <rect width="123" height="180" x="10" y="10" fill="#fff" rx="5"/>
    </clipPath>
  </defs>
</svg>
