<?xml version="1.0" encoding="utf-8"?>
<!-- Generator: Adobe Illustrator 18.0.0, SVG Export Plug-In . SVG Version: 6.00 Build 0)  -->
<!DOCTYPE svg PUBLIC "-//W3C//DTD SVG 1.1//EN" "http://www.w3.org/Graphics/SVG/1.1/DTD/svg11.dtd">
<svg version="1.1" id="Ebene_1" xmlns="http://www.w3.org/2000/svg" xmlns:xlink="http://www.w3.org/1999/xlink" x="0px" y="0px"
	 viewBox="0 0 90 110" enable-background="new 0 0 90 110" xml:space="preserve">
<g>
	<g>
		<g>
			<path fill="currentColor" d="M65,5H5v100h80V25L65,5z M80,100H10V10h52l18,18V100z"/>
			<rect x="50" y="85" fill="currentColor" width="5" height="5"/>
			<path fill="currentColor" d="M40.039,47.943c0,0.234,0.082,0.435,0.247,0.599l1.172,1.172c0.165,0.165,0.365,0.248,0.6,0.248
				c0.224,0,0.42-0.083,0.585-0.248l2.356-2.357l2.356,2.357c0.165,0.165,0.361,0.248,0.587,0.248c0.234,0,0.435-0.083,0.598-0.248
				l1.173-1.172c0.163-0.164,0.247-0.365,0.247-0.599c0-0.225-0.083-0.421-0.247-0.586L47.355,45l2.358-2.357
				c0.163-0.165,0.247-0.361,0.247-0.587c0-0.234-0.083-0.434-0.247-0.598l-1.173-1.173c-0.163-0.164-0.365-0.247-0.598-0.247
				c-0.226,0-0.422,0.083-0.587,0.247l-2.356,2.357l-2.356-2.357c-0.165-0.164-0.361-0.247-0.585-0.247
				c-0.235,0-0.435,0.083-0.6,0.247l-1.172,1.173c-0.165,0.164-0.247,0.365-0.247,0.598c0,0.226,0.082,0.422,0.247,0.587L42.643,45
				l-2.356,2.357C40.121,47.522,40.039,47.718,40.039,47.943z"/>
			<path fill="currentColor" d="M25,65v10h10V65h5v5h5v-5h15v5h5v-5V25H25V65z M36.341,39.981c0.894-1.532,2.108-2.745,3.64-3.639
				C41.513,35.447,43.186,35,44.999,35c1.815,0,3.488,0.447,5.02,1.342c1.53,0.894,2.744,2.107,3.638,3.639
				C54.552,41.513,55,43.186,55,45c0,1.814-0.448,3.487-1.342,5.02c-0.894,1.532-2.108,2.745-3.638,3.639
				C48.487,54.553,46.814,55,44.999,55c-1.813,0-3.486-0.447-5.018-1.341c-1.532-0.894-2.746-2.107-3.64-3.639
				C35.446,48.488,35,46.815,35,45C35,43.186,35.446,41.513,36.341,39.981z"/>
			<rect x="50" y="70" fill="currentColor" width="5" height="5"/>
			<rect x="40" y="75" fill="currentColor" width="5" height="5"/>
		</g>
	</g>
</g>
</svg>
