<?xml version="1.0" encoding="utf-8"?>
<!-- Generator: Adobe Illustrator 18.1.0, SVG Export Plug-In . SVG Version: 6.00 Build 0)  -->
<!DOCTYPE svg PUBLIC "-//W3C//DTD SVG 1.1//EN" "http://www.w3.org/Graphics/SVG/1.1/DTD/svg11.dtd">
<svg version="1.1" id="Ebene_1" xmlns="http://www.w3.org/2000/svg" xmlns:xlink="http://www.w3.org/1999/xlink" x="0px" y="0px"
	 width="150px" height="110px" viewBox="0 0 150 110" style="enable-background:new 0 0 150 110;" xml:space="preserve">
<g>
	<g>
		<g>
			<path style="fill-rule:evenodd;clip-rule:evenodd;fill:currentColor;" d="M80.575,50.666h-5.149c-0.171,0-0.359,0.083-0.562,0.25
				c-0.155,0.108-0.234,0.269-0.234,0.481l0.398,10.458c0,0.152,0.079,0.279,0.234,0.377c0.157,0.1,0.343,0.149,0.563,0.149h4.328
				c0.218,0,0.401-0.049,0.549-0.149c0.148-0.098,0.231-0.225,0.246-0.377l0.422-10.504c0-0.183-0.079-0.327-0.234-0.435
				C80.934,50.749,80.746,50.666,80.575,50.666z"/>
			<path style="fill-rule:evenodd;clip-rule:evenodd;fill:currentColor;" d="M80.248,65.31h-4.494c-0.203,0-0.377,0.072-0.526,0.217
				c-0.148,0.145-0.221,0.324-0.221,0.537v4.348c0,0.214,0.074,0.394,0.221,0.537c0.149,0.145,0.323,0.219,0.526,0.219h4.494
				c0.201,0,0.377-0.073,0.526-0.219c0.148-0.144,0.221-0.324,0.221-0.537v-4.348c0-0.214-0.073-0.392-0.221-0.537
				C80.625,65.382,80.449,65.31,80.248,65.31z"/>
			<path style="fill-rule:evenodd;clip-rule:evenodd;fill:currentColor;" d="M115,35c-1.257,0-2.491,0.092-3.703,0.255
				C105.053,23.225,92.491,15,78,15c-13.114,0-24.648,6.734-31.348,16.93C44.724,30.714,42.448,30,40,30
				c-6.904,0-12.5,5.596-12.5,12.5c0,0.896,0.098,1.768,0.277,2.61C16.394,46.227,7.5,55.824,7.5,67.5
				c0,11.581,8.751,21.114,20,22.359V90h90v-0.118c14.016-1.264,25-13.037,25-27.382C142.5,47.312,130.188,35,115,35z
				 M98.543,75.583c-0.264,0.442-0.628,0.794-1.088,1.053c-0.459,0.26-0.956,0.388-1.484,0.388h-35.94
				c-0.531,0-1.025-0.129-1.484-0.388c-0.461-0.259-0.824-0.611-1.088-1.053c-0.576-0.961-0.592-1.922-0.048-2.883l17.97-32.217
				c0.265-0.474,0.631-0.848,1.1-1.121c0.468-0.275,0.974-0.412,1.52-0.412c0.546,0,1.053,0.137,1.52,0.412
				c0.469,0.273,0.834,0.647,1.1,1.121L98.591,72.7C99.135,73.661,99.12,74.622,98.543,75.583z"/>
		</g>
	</g>
</g>
</svg>
