<?xml version="1.0" encoding="utf-8"?>
<!-- Generator: Adobe Illustrator 25.2.1, SVG Export Plug-In . SVG Version: 6.00 Build 0)  -->
<svg version="1.1" id="Ebene_1" xmlns="http://www.w3.org/2000/svg" xmlns:xlink="http://www.w3.org/1999/xlink" x="0px" y="0px"
	 viewBox="0 0 1920 1080" style="enable-background:new 0 0 1920 1080;" xml:space="preserve">
<style type="text/css">
	.st0{fill:#00A19A;}
	.st1{fill:none;}
	.st2{fill:#FFFFFF;}
	.st3{font-family:'Arial-BoldMT';}
	.st4{font-size:48px;}
	.st5{font-size:40px;}
	.st6{font-size:36px;}
	.st7{font-size:68px;}
	.st8{font-size:60px;}
	.st9{font-family:'ArialMT';}
	.st10{font-size:28px;}
	.st11{font-size:200px;}
</style>
<rect class="st0" width="1920" height="1080"/>
<rect x="585" y="106.4" class="st1" width="1025" height="554.7"/>
<text transform="matrix(1 0 0 1 585 140.7422)" class="st2 st3 st4">Uups,</text>
<text transform="matrix(1 0 0 1 718.3 140.7422)" class="st2 st3 st5"> </text>
<text transform="matrix(1 0 0 1 729.4 140.7422)" class="st2 st3 st6">hier ist etwas schief gelaufen. </text>
<text transform="matrix(1 0 0 1 585 182.7422)" class="st2 st3 st6">Wir konnten den Link nicht finden.</text>
<text transform="matrix(1 0 0 1 585 278.7422)" class="st2 st3 st7">Oops,</text>
<text transform="matrix(1 0 0 1 777.7 278.7422)" class="st2 st3 st8"> </text>
<text transform="matrix(1 0 0 1 794.3 278.7422)" class="st2 st3 st4">something&apos;s gone wrong here. </text>
<text transform="matrix(1 0 0 1 585 338.7422)" class="st2 st3 st4">We couldn&apos;t find the link.</text>
<text transform="matrix(1 0 0 1 585 428.7422)" class="st2 st9 st10">Oups, quelque chose ne va pas ici. Nous n&apos;avons pas trouvé le lien.</text>
<text transform="matrix(1 0 0 1 585 473.7422)" class="st2 st9 st10">Oops, qui c&apos;e&apos; qualcosa che non va. Non siamo riusciti a trovare il link.</text>
<text transform="matrix(1 0 0 1 585 518.7422)" class="st2 st9 st10">Oeps, er is hier iets misgegaan. We konden de link niet vinden.</text>
<text transform="matrix(1 0 0 1 585 563.7422)" class="st2 st9 st10">Oops, algo ha ido mal aquí. No pudimos encontrar la conexión.</text>
<text transform="matrix(1 0 0 1 585 608.7422)" class="st2 st9 st10">Oops, coś tu poszło nie tak. Nie mogliśmy znaleźć linku.</text>
<text transform="matrix(1 0 0 1 399.625 250.9375)" class="st2 st3 st11">4</text>
<text transform="matrix(1 0 0 1 399.625 432.9375)" class="st2 st3 st11">0</text>
<text transform="matrix(1 0 0 1 399.625 614.9375)" class="st2 st3 st11">4</text>
<image style="overflow:visible;" width="1920" height="416" xlink:href="404 Kabel.png"  transform="matrix(1 0 0 1 0 646.8936)">
</image>
</svg>
